<svg width="1180" height="300" viewBox="0 0 1180 300" fill="none" xmlns="http://www.w3.org/2000/svg">
<path d="M361.765 55V56.1177H367.353L361.765 55Z" fill="#CACCCE"/>
<path d="M358.412 56.8034C343.219 60.8282 334.551 80.0528 345.596 92.7941C352.33 100.562 364.444 102.509 374.059 100.033C405.353 91.9434 387.471 49.076 358.412 56.8034Z" fill="#2D2A2B"/>
<path d="M372.569 56.4897L373.314 56.8629L372.569 56.4897Z" fill="#BBBDBF"/>
<path d="M355.059 57.2354L356.177 58.3531L355.059 57.2354Z" fill="#888A8C"/>
<path d="M378.53 58.354L379.647 59.4714L378.53 58.354Z" fill="#B3B5B8"/>
<path d="M105.451 59.8428L106.196 60.216L105.451 59.8428Z" fill="#95A8C7"/>
<path d="M106.941 59.9629C79.7555 64.3733 75.1898 95.4606 81.1067 117.589C85.0678 132.405 94.9042 145.776 102.471 158.942C120.629 190.538 140.471 244.312 186.294 235.536C210.421 230.897 214.112 199.762 209.501 180.177C206.381 166.927 197.471 154.972 190.765 143.295C173.534 113.119 151.333 52.7656 106.941 59.9629Z" fill="#446A97"/>
<path d="M118.117 59.4707V60.5884H121.471L118.117 59.4707Z" fill="#A1B1CD"/>
<path d="M228.393 59.8428L229.137 60.216L228.393 59.8428Z" fill="#8FA2C3"/>
<path d="M229.882 59.9625C202.575 64.3507 197.918 94.128 203.478 116.471C207.354 132.118 217.588 146.358 225.856 160.059C244.212 191.036 263.706 245 309.235 235.524C334.304 230.471 336.33 198.974 331.794 179.059C328.774 165.796 319.546 153.837 312.902 142.177C295.751 112.074 273.956 52.8801 229.882 59.9625Z" fill="#446A97"/>
<path d="M239.941 59.4707V60.5884H243.294L239.941 59.4707Z" fill="#8CA0C2"/>
<path d="M350.588 59.4707L351.706 60.5884L350.588 59.4707Z" fill="#87888B"/>
<path d="M124.451 60.9604L125.196 61.3337L124.451 60.9604Z" fill="#B6C2D9"/>
<path d="M246.275 60.9604L247.019 61.3337L246.275 60.9604Z" fill="#8DA1C2"/>
<path d="M383 61.7061L384.118 62.8238L383 61.7061Z" fill="#97999C"/>
<path d="M96.8824 62.8237L97.9998 63.9411L96.8824 62.8237Z" fill="#96A9C7"/>
<path d="M384.118 62.8237L385.235 63.9411L384.118 62.8237Z" fill="#919395"/>
<path d="M385.235 63.9409L386.353 65.0586L385.235 63.9409Z" fill="#A2A4A7"/>
<path d="M386.353 65.0591L387.471 66.1768L386.353 65.0591Z" fill="#AEB0B2"/>
<path d="M261.177 67.2944L262.294 68.4122L261.177 67.2944Z" fill="#96A9C7"/>
<path d="M342.765 67.2944L343.883 68.4122L342.765 67.2944Z" fill="#A4A6A8"/>
<path d="M388.589 68.4121L389.706 69.5295L388.589 68.4121Z" fill="#B1B3B5"/>
<path d="M87.941 69.5293L89.0587 70.647L87.941 69.5293Z" fill="#98AAC9"/>
<path d="M141.588 69.5293L142.706 70.647L141.588 69.5293Z" fill="#95A7C7"/>
<path d="M341.647 69.5293L342.765 70.647L341.647 69.5293Z" fill="#96989B"/>
<path d="M389.706 71.7656L390.824 72.8833L389.706 71.7656Z" fill="#8E9092"/>
<path d="M340.902 73.6284L341.275 74.3726L340.902 73.6284Z" fill="#5E5F61"/>
<path d="M391.196 74.7456L391.569 75.4901L391.196 74.7456Z" fill="#CBCDCE"/>
<path d="M390.824 76.2354V80.7059H391.941L390.824 76.2354Z" fill="#9D9FA1"/>
<path d="M391.196 81.4517L391.569 82.1962L391.196 81.4517Z" fill="#CFD1D2"/>
<path d="M340.902 83.6875L341.275 84.4317L340.902 83.6875Z" fill="#B1B3B5"/>
<path d="M79.3721 87.0396L79.7453 87.7837L79.3721 87.0396Z" fill="#7B94B8"/>
<path d="M157.235 86.2944L158.353 87.4122L157.235 86.2944Z" fill="#98AAC9"/>
<path d="M388.589 87.4121L389.706 88.5295L388.589 87.4121Z" fill="#7F8083"/>
<path d="M201.196 90.3926L201.569 91.1371L201.196 90.3926Z" fill="#AAB8D2"/>
<path d="M387.471 89.647L388.589 90.7647L387.471 89.647Z" fill="#A3A5A7"/>
<path d="M77.8821 90.7651V104.177H78.9999L77.8821 90.7651Z" fill="#708AB1"/>
<path d="M343.883 90.7651L345 91.8828L343.883 90.7651Z" fill="#949699"/>
<path d="M576.353 90.7651V91.8828H581.942L576.353 90.7651Z" fill="#A4A6A8"/>
<path d="M581.942 90.7651V91.8828H593.118L581.942 90.7651Z" fill="#6E7072"/>
<path d="M1081.53 90.7651V91.8828H1084.88L1081.53 90.7651Z" fill="#CBCDCE"/>
<path d="M1084.88 90.7651V91.8828H1098.3L1084.88 90.7651Z" fill="#7D7E81"/>
<path d="M451.177 91.8818V92.9995H460.118L451.177 91.8818Z" fill="#C7C9CB"/>
<path d="M460.118 91.8818V92.9995H466.824L460.118 91.8818Z" fill="#9D9FA1"/>
<path d="M572.628 92.2549L573.373 92.6281L572.628 92.2549Z" fill="#6E7072"/>
<path d="M652.353 222.647L640.059 182.412C614.023 190.898 565.437 216.459 552.883 177.941L645.647 170.118C645.647 155.594 645.394 141.425 640.059 127.648C623.906 84.9186 569.39 82.9417 538.353 110.088C503.706 140.49 512.104 208.326 551.765 230.122C564.359 237.177 576.65 238.873 590.883 238.294C613.183 237.274 631.441 228.626 652.353 222.647Z" fill="#2D2A2B"/>
<path d="M595.354 91.8818V92.9995H598.706L595.354 91.8818Z" fill="#7F8184"/>
<path d="M1077.8 92.2549L1078.55 92.6281L1077.8 92.2549Z" fill="#76777A"/>
<path d="M1157.53 222.647L1145.24 182.412C1120.33 190.889 1070.75 216.343 1058.06 179.059C1087.12 171.9 1120.99 170.117 1150.82 170.117C1150.82 155.728 1150.82 141.309 1145.66 127.647C1129.57 85.769 1075.72 82.4149 1044.65 109.139C1008.88 139.941 1016.71 208.865 1058.06 230.714C1070.6 237.361 1083.11 239.157 1097.18 238.294C1119.07 236.695 1136.95 228.574 1157.53 222.647Z" fill="#2D2A2B"/>
<path d="M1101.65 91.8818V92.9995H1105L1101.65 91.8818Z" fill="#9D9FA1"/>
<path d="M447.452 93.3726L448.196 93.7461L447.452 93.3726Z" fill="#6E7072"/>
<path d="M408.706 204.765C412.927 219.419 418.765 229.353 417.647 245C443.96 238.518 473.374 238.892 495.878 221.641C509.723 211.029 515.532 191.046 503.339 176.867C492.221 163.943 473.53 158.247 459 150.575C453.411 147.765 443.631 143.631 442.236 136.589C441.307 130.627 447.466 124.294 452.294 122.059C465.269 115.753 478.669 125.041 490.294 129.883C492.772 119.577 501.047 113.459 509.295 107.53C502.589 99.79 489.991 96.4248 480.236 94.773C448.468 89.3947 396.412 102.432 411.219 145.53C416.864 162.294 432.941 171.652 447.824 178.727C452.174 180.795 463.113 184.74 460.949 191.353C455.64 207.523 421.492 204.765 408.706 204.765Z" fill="#2D2A2B"/>
<path d="M472.412 93.0005V94.1179H475.765L472.412 93.0005Z" fill="#636466"/>
<path d="M568.158 93.3726L568.902 93.7461L568.158 93.3726Z" fill="#6B6C6E"/>
<path d="M601.687 93.3726L602.431 93.7461L601.687 93.3726Z" fill="#AFB1B3"/>
<path d="M1073.33 93.3726L1074.08 93.7461L1073.33 93.3726Z" fill="#737477"/>
<path d="M1106.86 93.3726L1107.61 93.7461L1106.86 93.3726Z" fill="#A4A6A9"/>
<path d="M442.981 94.4897L443.726 94.863L442.981 94.4897Z" fill="#76777A"/>
<path d="M479.118 94.1182V95.2359H482.471L479.118 94.1182Z" fill="#898B8D"/>
<path d="M564.059 94.1182L565.177 95.2359L564.059 94.1182Z" fill="#858789"/>
<path d="M606.158 94.4897L606.902 94.863L606.158 94.4897Z" fill="#D0D2D3"/>
<path d="M1069.24 94.1182L1070.35 95.2359L1069.24 94.1182Z" fill="#939598"/>
<path d="M1111.33 94.4897L1112.08 94.863L1111.33 94.4897Z" fill="#C5C6C8"/>
<path d="M348.353 95.2354L349.471 96.3531L348.353 95.2354Z" fill="#9A9C9F"/>
<path d="M485.824 95.2354L486.942 96.3531L485.824 95.2354Z" fill="#A6A8AA"/>
<path d="M560.706 95.2354L561.824 96.3531L560.706 95.2354Z" fill="#B6B8BA"/>
<path d="M608.765 95.2354L609.883 96.3531L608.765 95.2354Z" fill="#ABADAF"/>
<path d="M726.118 95.2354V96.3531H741.765L726.118 95.2354Z" fill="#949699"/>
<path d="M741.765 95.2354V96.3531H747.353L741.765 95.2354Z" fill="#D4D6D7"/>
<path d="M969.765 95.2354V96.3531H978.706L969.765 95.2354Z" fill="#DBDCDD"/>
<path d="M1113.94 95.2354L1115.06 96.3531L1113.94 95.2354Z" fill="#9B9DA0"/>
<path d="M380.765 96.3535L381.883 97.4712L380.765 96.3535Z" fill="#9D9FA1"/>
<path d="M436.647 96.3535L437.765 97.4712L436.647 96.3535Z" fill="#9A9C9E"/>
<path d="M558.471 96.3535L559.589 97.4712L558.471 96.3535Z" fill="#929497"/>
<path d="M611 96.3535L612.118 97.4712L611 96.3535Z" fill="#87898C"/>
<path d="M719.04 96.7251L719.784 97.0983L719.04 96.7251Z" fill="#A4A6A9"/>
<path d="M721.275 96.7251L722.019 97.0983L721.275 96.7251Z" fill="#717275"/>
<path d="M786.471 204.764V203.647C781.458 198.738 771.324 185.79 764.118 185.426C745.118 184.647 727.494 207.502 708.442 190.762C692.903 177.107 700.066 145.779 716.059 135.775C730.589 126.636 748.471 129.393 764.118 134.353L765.236 99.7058C748.471 96.4626 731.706 94.7939 714.942 97.9849C644.018 111.361 650.393 230.476 721.647 238.1C731.666 239.171 743.513 236.583 752.941 233.212C767.16 228.235 776.611 215.469 786.471 204.764Z" fill="#2D2A2B"/>
<path d="M749.589 96.3535V97.4712H752.941L749.589 96.3535Z" fill="#87898C"/>
<path d="M937.354 96.3535V97.4712H947.412L937.354 96.3535Z" fill="#828386"/>
<path d="M947.412 96.3535V97.4712H957.471L947.412 96.3535Z" fill="#606164"/>
<path d="M937.354 97.4712C942.693 114.313 941.414 132.565 941.824 150C942.538 178.496 943.79 207.83 938.471 236.059L985.412 233.824C983.146 216.271 978.706 199.177 977.561 181.294C977.156 175.361 974.981 168.099 977.145 162.299C982.276 148.55 1006.98 139.295 1020.06 136.589L1008.88 103.06C996.324 106.649 985.649 114.236 976.471 123.177L978.706 96.3535L937.354 97.4712Z" fill="#2D2A2B"/>
<path d="M1063.65 96.3535L1064.77 97.4712L1063.65 96.3535Z" fill="#A0A3A5"/>
<path d="M1116.18 96.3535L1117.3 97.4712L1116.18 96.3535Z" fill="#7A7C7E"/>
<path d="M351.706 97.4712L352.824 98.5886L351.706 97.4712Z" fill="#989A9D"/>
<path d="M378.53 97.4712L379.647 98.5886L378.53 97.4712Z" fill="#787A7C"/>
<path d="M434.412 97.4712L435.53 98.5886L434.412 97.4712Z" fill="#86888A"/>
<path d="M713.452 97.8433L714.196 98.2168L713.452 97.8433Z" fill="#888A8C"/>
<path d="M756.295 97.4712V98.5886H759.647L756.295 97.4712Z" fill="#919395"/>
<path d="M1061.41 97.4712L1062.53 98.5886L1061.41 97.4712Z" fill="#7F8083"/>
<path d="M353.941 98.5884L355.059 99.7061L353.941 98.5884Z" fill="#919395"/>
<path d="M432.177 98.5884L433.294 99.7061L432.177 98.5884Z" fill="#858789"/>
<path d="M494.765 98.5884L495.883 99.7061L494.765 98.5884Z" fill="#848689"/>
<path d="M615.471 98.5884L616.588 99.7061L615.471 98.5884Z" fill="#8C8E91"/>
<path d="M708.981 98.9604L709.726 99.334L708.981 98.9604Z" fill="#7C7D80"/>
<path d="M761.883 98.5884V99.7061H765.236L761.883 98.5884Z" fill="#989A9D"/>
<path d="M1120.65 98.5884L1121.77 99.7061L1120.65 98.5884Z" fill="#797A7D"/>
<path d="M356.922 100.078L357.667 100.451L356.922 100.078Z" fill="#7D7E81"/>
<path d="M373.687 100.078L374.431 100.451L373.687 100.078Z" fill="#9A9C9E"/>
<path d="M429.941 99.7061L431.059 100.824L429.941 99.7061Z" fill="#848689"/>
<path d="M551.765 99.7061L552.883 100.824L551.765 99.7061Z" fill="#86888A"/>
<path d="M617.706 99.7061L618.824 100.824L617.706 99.7061Z" fill="#A2A4A7"/>
<path d="M704.883 99.7061L706 100.824L704.883 99.7061Z" fill="#97999C"/>
<path d="M765.236 99.7061V106.412H766.353L765.236 99.7061Z" fill="#D5D6D8"/>
<path d="M878.118 99.7061V107.53H879.236L878.118 99.7061Z" fill="#949699"/>
<path d="M879.236 99.7061C879.236 120.55 877.873 141.374 878.118 162.294C878.118 168.75 881.844 179.498 878.087 185.324C870.502 197.09 844.224 197.721 838.552 184.647C828.942 162.598 828.942 127.322 834.53 104.177L795.412 101.941C789.682 132.785 787.589 168.447 795.025 199.177C798.288 212.965 807.706 229.599 822.236 234.217C845.182 241.647 862.01 227.583 882.589 221.529L883.706 236.059H926.177C913.315 190.733 912.765 146.647 912.765 99.7061H879.236Z" fill="#2D2A2B"/>
<path d="M912.765 99.7061V104.177H913.883L912.765 99.7061Z" fill="#656669"/>
<path d="M1056.94 99.7061L1058.06 100.824L1056.94 99.7061Z" fill="#999B9E"/>
<path d="M1122.88 99.7061L1124 100.824L1122.88 99.7061Z" fill="#8F9194"/>
<path d="M360.647 100.824V101.942H364L360.647 100.824Z" fill="#A7A9AB"/>
<path d="M364 100.824V101.942H367.353L364 100.824Z" fill="#6B6D6F"/>
<path d="M367.353 100.824V101.942H370.706L367.353 100.824Z" fill="#A2A4A7"/>
<path d="M427.706 100.824L428.824 101.942L427.706 100.824Z" fill="#848688"/>
<path d="M500.353 100.824L501.471 101.942L500.353 100.824Z" fill="#AFB1B3"/>
<path d="M549.53 100.824L550.647 101.942L549.53 100.824Z" fill="#AEB0B2"/>
<path d="M701.53 100.824L702.647 101.942L701.53 100.824Z" fill="#A6A8AA"/>
<path d="M977.589 100.824V104.177H978.706L977.589 100.824Z" fill="#6B6D6F"/>
<path d="M502.589 101.941L503.706 103.059L502.589 101.941Z" fill="#9A9C9E"/>
<path d="M621.059 101.941L622.177 103.059L621.059 101.941Z" fill="#ADAFB1"/>
<path d="M699.294 101.941L700.412 103.059L699.294 101.941Z" fill="#898B8D"/>
<path d="M794.294 101.941V105.294H795.412L794.294 101.941Z" fill="#656669"/>
<path d="M798.765 101.941V103.059H803.236L798.765 101.941Z" fill="#67686A"/>
<path d="M803.236 101.941V103.059H807.706L803.236 101.941Z" fill="#96989B"/>
<path d="M807.706 101.941V103.059H812.177L807.706 101.941Z" fill="#C9CACC"/>
<path d="M938.843 102.688L939.216 103.432L938.843 102.688Z" fill="#86888A"/>
<path d="M1053.59 101.941L1054.71 103.059L1053.59 101.941Z" fill="#77787B"/>
<path d="M1126.24 101.941L1127.35 103.059L1126.24 101.941Z" fill="#949698"/>
<path d="M424.353 103.06L425.471 104.177L424.353 103.06Z" fill="#919395"/>
<path d="M504.824 103.06L505.941 104.177L504.824 103.06Z" fill="#A5A7AA"/>
<path d="M546.177 103.06L547.295 104.177L546.177 103.06Z" fill="#8F9193"/>
<path d="M622.177 103.06L623.294 104.177L622.177 103.06Z" fill="#787A7C"/>
<path d="M697.059 103.06L698.177 104.177L697.059 103.06Z" fill="#8D8F92"/>
<path d="M817.765 103.06V104.177H822.235L817.765 103.06Z" fill="#67686A"/>
<path d="M822.236 103.06V104.177H826.706L822.236 103.06Z" fill="#96989B"/>
<path d="M826.706 103.06V104.177H831.177L826.706 103.06Z" fill="#C9CACC"/>
<path d="M1051.35 103.06L1052.47 104.177L1051.35 103.06Z" fill="#A4A6A9"/>
<path d="M77.8821 104.176V107.529H78.9999L77.8821 104.176Z" fill="#A3B3CF"/>
<path d="M200.824 104.176V109.764H201.941L200.824 104.176Z" fill="#A4B4D0"/>
<path d="M694.824 104.176L695.942 105.294L694.824 104.176Z" fill="#919395"/>
<path d="M912.765 104.176V113.117H913.883L912.765 104.176Z" fill="#949699"/>
<path d="M938.471 104.176V107.529H939.589L938.471 104.176Z" fill="#C1C3C5"/>
<path d="M977.589 104.176V107.529H978.706L977.589 104.176Z" fill="#B0B2B5"/>
<path d="M1003.29 104.176L1004.41 105.294L1003.29 104.176Z" fill="#A4A6A8"/>
<path d="M168.412 105.294L169.529 106.412L168.412 105.294Z" fill="#94A7C6"/>
<path d="M508.177 105.294L509.295 106.412L508.177 105.294Z" fill="#7E8082"/>
<path d="M833.412 105.294V109.765H834.53L833.412 105.294Z" fill="#656669"/>
<path d="M1001.06 105.294L1002.18 106.412L1001.06 105.294Z" fill="#8B8D8F"/>
<path d="M1130.71 105.294L1131.82 106.412L1130.71 105.294Z" fill="#A4A6A8"/>
<path d="M509.295 106.412L510.412 107.53L509.295 106.412Z" fill="#9A9C9E"/>
<path d="M541.706 106.412L542.824 107.53L541.706 106.412Z" fill="#A4A6A9"/>
<path d="M691.471 106.412L692.588 107.53L691.471 106.412Z" fill="#7C7D80"/>
<path d="M1131.82 106.412L1132.94 107.53L1131.82 106.412Z" fill="#AAACAE"/>
<path d="M540.589 107.53L541.706 108.647L540.589 107.53Z" fill="#7A7C7E"/>
<path d="M793.549 108.275L793.922 109.02L793.549 108.275Z" fill="#C7C9CB"/>
<path d="M878.118 107.53V115.353H879.236L878.118 107.53Z" fill="#656669"/>
<path d="M1010 107.53L1011.12 108.647L1010 107.53Z" fill="#B4B6B8"/>
<path d="M1045.77 107.53L1046.88 108.647L1045.77 107.53Z" fill="#96989B"/>
<path d="M1132.94 107.53L1134.06 108.647L1132.94 107.53Z" fill="#AFB1B4"/>
<path d="M505.941 108.647L507.059 109.765L505.941 108.647Z" fill="#7A7C7E"/>
<path d="M688.118 108.647L689.236 109.765L688.118 108.647Z" fill="#87898C"/>
<path d="M994.353 108.647L995.471 109.765L994.353 108.647Z" fill="#828386"/>
<path d="M1134.06 108.647L1135.18 109.765L1134.06 108.647Z" fill="#B5B7B9"/>
<path d="M833.412 109.765V113.118H834.53L833.412 109.765Z" fill="#949699"/>
<path d="M939.589 109.765V113.118H940.707L939.589 109.765Z" fill="#686A6C"/>
<path d="M992.118 109.765L993.236 110.883L992.118 109.765Z" fill="#9A9C9E"/>
<path d="M78.9999 110.882V114.235H80.1176L78.9999 110.882Z" fill="#95A7C7"/>
<path d="M989.883 110.882L991.001 112L989.883 110.882Z" fill="#B3B5B8"/>
<path d="M1011.12 110.882L1012.24 112L1011.12 110.882Z" fill="#A5A7AA"/>
<path d="M202.314 112.746L202.687 113.49L202.314 112.746Z" fill="#9AACCA"/>
<path d="M501.471 112L502.589 113.118L501.471 112Z" fill="#8A8C8F"/>
<path d="M793.549 112.746L793.922 113.49L793.549 112.746Z" fill="#656669"/>
<path d="M500.353 113.118L501.471 114.236L500.353 113.118Z" fill="#A6A8AA"/>
<path d="M632.235 113.118L633.353 114.236L632.235 113.118Z" fill="#A0A3A5"/>
<path d="M833.412 113.118V117.589H834.53L833.412 113.118ZM912.765 113.118V142.177H913.883L912.765 113.118Z" fill="#C7C9CB"/>
<path d="M939.589 113.118V116.471H940.707L939.589 113.118Z" fill="#9A9C9E"/>
<path d="M976.471 113.118V116.471H977.589L976.471 113.118Z" fill="#898B8E"/>
<path d="M1137.41 113.118L1138.53 114.236L1137.41 113.118Z" fill="#7F8083"/>
<path d="M343.883 116.471L347.236 115.354L343.883 116.471Z" fill="#BEC0C2"/>
<path d="M381.883 114.235L383 115.353L381.883 114.235Z" fill="#97999B"/>
<path d="M345 115.353C350.174 156.075 349.045 193.187 343.883 233.824C361.215 229.862 374.673 229.353 391.941 233.824L383 167.882L385.235 114.235C370.42 118.196 360.02 117.293 345 115.353Z" fill="#2D2A2B"/>
<path d="M681.412 114.235L682.53 115.353L681.412 114.235Z" fill="#ACAEB1"/>
<path d="M764.118 114.235V124.294H765.236L764.118 114.235Z" fill="#7D7E81"/>
<path d="M985.412 114.235L986.53 115.353L985.412 114.235Z" fill="#87898C"/>
<path d="M1012.24 114.235L1013.35 115.353L1012.24 114.235Z" fill="#989A9D"/>
<path d="M80.4898 116.098L80.863 116.843L80.4898 116.098Z" fill="#99ABCA"/>
<path d="M296.941 115.354L298.059 116.471L296.941 115.354Z" fill="#91A4C4"/>
<path d="M348.353 115.354V116.471H351.706L348.353 115.354Z" fill="#9A9C9E"/>
<path d="M379.275 115.725L380.019 116.098L379.275 115.725Z" fill="#6B6D6F"/>
<path d="M412.059 115.354L413.177 116.471L412.059 115.354Z" fill="#888A8C"/>
<path d="M1037.94 115.354L1039.06 116.471L1037.94 115.354Z" fill="#77797B"/>
<path d="M203.431 117.216L203.804 117.96L203.431 117.216Z" fill="#A6B5D0"/>
<path d="M353.941 116.471V117.589H357.294L353.941 116.471Z" fill="#919395"/>
<path d="M372.941 116.471V117.589H376.294L372.941 116.471Z" fill="#A5A7AA"/>
<path d="M634.471 116.471L635.589 117.589L634.471 116.471Z" fill="#A2A4A7"/>
<path d="M982.06 116.471L983.177 117.589L982.06 116.471Z" fill="#A4A6A9"/>
<path d="M1036.82 116.471L1037.94 117.589L1036.82 116.471Z" fill="#7D7E81"/>
<path d="M1139.65 116.471L1140.77 117.589L1139.65 116.471Z" fill="#818385"/>
<path d="M362.883 117.589V118.706H369.588L362.883 117.589Z" fill="#5D5E60"/>
<path d="M530.53 117.589L531.647 118.706L530.53 117.589Z" fill="#828487"/>
<path d="M792.431 118.334L792.805 119.078L792.431 118.334Z" fill="#C7C9CB"/>
<path d="M980.942 117.589L982.059 118.706L980.942 117.589Z" fill="#87898C"/>
<path d="M1013.35 117.589L1014.47 118.706L1013.35 117.589Z" fill="#8A8C8F"/>
<path d="M1035.71 117.589L1036.82 118.706L1035.71 117.589Z" fill="#A4A6A8"/>
<path d="M345 118.706V122.059H346.118L345 118.706Z" fill="#797A7D"/>
<path d="M409.824 118.706L410.941 119.824L409.824 118.706Z" fill="#9D9FA1"/>
<path d="M979.824 118.706L980.942 119.824L979.824 118.706Z" fill="#929497"/>
<path d="M456.393 120.196L457.137 120.57L456.393 120.196Z" fill="#77797B"/>
<path d="M457.883 119.824V120.941H465.706L457.883 119.824Z" fill="#C2C4C6"/>
<path d="M676.941 119.824L678.059 120.941L676.941 119.824Z" fill="#8E9092"/>
<path d="M792.059 119.824V123.177H793.177L792.059 119.824Z" fill="#949699"/>
<path d="M978.706 119.824L979.824 120.941L978.706 119.824Z" fill="#9DA0A2"/>
<path d="M1141.88 119.824L1143 120.941L1141.88 119.824Z" fill="#A2A4A7"/>
<path d="M384.118 120.941V128.765H385.235L384.118 120.941Z" fill="#AEB0B2"/>
<path d="M408.706 120.941V126.53H409.824L408.706 120.941Z" fill="#696A6D"/>
<path d="M453.04 121.313L453.784 121.687L453.04 121.313Z" fill="#BFC1C3"/>
<path d="M470.922 121.313L471.667 121.687L470.922 121.313Z" fill="#7F8184"/>
<path d="M492.53 120.941L493.647 122.059L492.53 120.941Z" fill="#818385"/>
<path d="M528.295 120.941L529.412 122.059L528.295 120.941Z" fill="#87898C"/>
<path d="M577.471 120.941V122.059H589.765L577.471 120.941Z" fill="#7D7E81"/>
<path d="M1033.47 120.941L1034.59 122.059L1033.47 120.941Z" fill="#A8AAAD"/>
<path d="M1082.65 120.941V122.059H1094.94L1082.65 120.941Z" fill="#828487"/>
<path d="M572.628 122.432L573.373 122.805L572.628 122.432Z" fill="#9EA0A3"/>
<path d="M552.883 146.647L613.236 143.294C607.597 112.05 555.618 115.353 552.883 146.647Z" fill="white"/>
<path d="M593.864 122.432L594.608 122.805L593.864 122.432Z" fill="#6B6D6F"/>
<path d="M1077.8 122.432L1078.55 122.805L1077.8 122.432Z" fill="#9A9C9F"/>
<path d="M1058.06 146.647L1118.41 143.294C1112.69 111.194 1062.17 116.157 1058.06 146.647Z" fill="white"/>
<path d="M1099.04 122.432L1099.78 122.805L1099.04 122.432Z" fill="#757779"/>
<path d="M1143 122.06L1144.12 123.177L1143 122.06Z" fill="#B2B4B6"/>
<path d="M478 123.176L479.118 124.294L478 123.176Z" fill="#7F8184"/>
<path d="M491.412 123.176L492.53 124.294L491.412 123.176Z" fill="#8C8E91"/>
<path d="M568.158 123.549L568.902 123.922L568.158 123.549Z" fill="#B9BBBD"/>
<path d="M596.471 123.176L597.589 124.294L596.471 123.176Z" fill="#ACAEB1"/>
<path d="M637.824 123.176L638.941 124.294L637.824 123.176Z" fill="#7A7C7E"/>
<path d="M674.706 123.176L675.824 124.294L674.706 123.176Z" fill="#AAACAE"/>
<path d="M832.294 123.176V127.647H833.412L832.294 123.176ZM940.706 123.176V132.117H941.824L940.706 123.176Z" fill="#656669"/>
<path d="M1015.59 123.176L1016.71 124.294L1015.59 123.176Z" fill="#B6B8BA"/>
<path d="M1073.33 123.549L1074.08 123.922L1073.33 123.549Z" fill="#B4B6B8"/>
<path d="M526.059 124.294L527.177 125.412L526.059 124.294Z" fill="#8C8E91"/>
<path d="M565.177 124.294L566.294 125.412L565.177 124.294Z" fill="#97999B"/>
<path d="M764.118 124.294V133.236H765.236L764.118 124.294Z" fill="#C9CACC"/>
<path d="M1031.24 124.294L1032.35 125.412L1031.24 124.294Z" fill="#AEB0B2"/>
<path d="M1070.35 124.294L1071.47 125.412L1070.35 124.294Z" fill="#87898C"/>
<path d="M83.4704 125.412L84.5881 126.529L83.4704 125.412Z" fill="#8FA3C4"/>
<path d="M346.49 126.157L346.863 126.902L346.49 126.157Z" fill="#747678"/>
<path d="M445.588 125.412L446.706 126.529L445.588 125.412Z" fill="#B0B2B5"/>
<path d="M562.942 125.412L564.059 126.529L562.942 125.412Z" fill="#97999C"/>
<path d="M600.942 125.412L602.059 126.529L600.942 125.412Z" fill="#929497"/>
<path d="M638.941 125.412L640.059 126.529L638.941 125.412Z" fill="#8F9193"/>
<path d="M673.588 125.412L674.706 126.529L673.588 125.412Z" fill="#8C8E91"/>
<path d="M1068.12 125.412L1069.24 126.529L1068.12 125.412Z" fill="#808284"/>
<path d="M1106.12 125.412L1107.24 126.529L1106.12 125.412Z" fill="#A7AAAC"/>
<path d="M180.706 126.53L181.824 127.648L180.706 126.53Z" fill="#98AAC9"/>
<path d="M490.294 126.53V129.883H491.412L490.294 126.53Z" fill="#A5A7AA"/>
<path d="M524.942 126.53L526.059 127.648L524.942 126.53Z" fill="#939598"/>
<path d="M1016.71 126.53L1017.82 127.648L1016.71 126.53Z" fill="#A6A8AA"/>
<path d="M1030.12 126.53L1031.24 127.648L1030.12 126.53Z" fill="#B6B8BA"/>
<path d="M84.5881 127.647L85.7058 128.764L84.5881 127.647Z" fill="#8FA2C3"/>
<path d="M346.49 128.393L346.863 129.137L346.49 128.393Z" fill="#AFB1B3"/>
<path d="M559.589 127.647L560.706 128.764L559.589 127.647Z" fill="#898B8E"/>
<path d="M604.295 127.647L605.412 128.764L604.295 127.647Z" fill="#86888A"/>
<path d="M832.294 127.647V154.47H833.412L832.294 127.647Z" fill="#949699"/>
<path d="M877.001 127.647V155.588H878.118L877.001 127.647Z" fill="#C7C9CB"/>
<path d="M443.353 128.765L444.471 129.883L443.353 128.765Z" fill="#7B7D7F"/>
<path d="M488.059 128.765L489.177 129.883L488.059 128.765Z" fill="#B6B8BA"/>
<path d="M523.824 128.765L524.942 129.883L523.824 128.765Z" fill="#B2B4B6"/>
<path d="M558.471 128.765L559.589 129.883L558.471 128.765Z" fill="#999B9E"/>
<path d="M605.412 128.765L606.53 129.883L605.412 128.765Z" fill="#949699"/>
<path d="M790.942 128.765V132.118H792.059L790.942 128.765Z" fill="#C7C9CB"/>
<path d="M671.353 129.882L672.471 131L671.353 129.882Z" fill="#87898C"/>
<path d="M727.235 129.882V131H733.941L727.235 129.882Z" fill="#949699"/>
<path d="M733.942 129.882V131H739.53L733.942 129.882Z" fill="#C0C1C3"/>
<path d="M739.53 129.882V131H748.471L739.53 129.882Z" fill="#787A7C"/>
<path d="M1017.82 129.882L1018.94 131L1017.82 129.882Z" fill="#999B9E"/>
<path d="M1029 129.882L1030.12 131L1029 129.882Z" fill="#828487"/>
<path d="M1111.71 129.882L1112.82 131L1111.71 129.882Z" fill="#919395"/>
<path d="M383 131V138.823H384.118L383 131Z" fill="#6F7173"/>
<path d="M641.549 131.746L641.922 132.491L641.549 131.746Z" fill="#6E7072"/>
<path d="M723.883 131L725 132.118L723.883 131Z" fill="#87898C"/>
<path d="M750.706 131V132.118H754.059L750.706 131Z" fill="#9B9DA0"/>
<path d="M209.765 132.118L210.882 133.236L209.765 132.118Z" fill="#8CA0C2"/>
<path d="M442.236 132.118L443.353 133.236L442.236 132.118Z" fill="#96989B"/>
<path d="M522.706 132.118L523.824 133.236L522.706 132.118Z" fill="#7F8184"/>
<path d="M556.236 132.118L557.353 133.236L556.236 132.118Z" fill="#AEB0B2"/>
<path d="M670.236 132.118L671.353 133.236L670.236 132.118Z" fill="#B1B3B5"/>
<path d="M758.157 132.49L758.902 132.863L758.157 132.49Z" fill="#7A7C7E"/>
<path d="M790.942 132.118V136.589H792.059L790.942 132.118Z" fill="#949699"/>
<path d="M940.706 132.118V138.824H941.824L940.706 132.118Z" fill="#B3B5B8"/>
<path d="M1027.88 132.118L1029 133.236L1027.88 132.118Z" fill="#A0A3A5"/>
<path d="M1061.41 132.118L1062.53 133.236L1061.41 132.118Z" fill="#8C8E91"/>
<path d="M608.765 133.235L609.883 134.353L608.765 133.235Z" fill="#9B9DA0"/>
<path d="M718.294 133.235L719.412 134.353L718.294 133.235Z" fill="#77787B"/>
<path d="M761.883 133.235L763 134.353L761.883 133.235Z" fill="#B3B5B8"/>
<path d="M1018.94 133.235L1020.06 134.353L1018.94 133.235Z" fill="#8B8D8F"/>
<path d="M185.176 134.354L186.294 135.471L185.176 134.354Z" fill="#8CA0C2"/>
<path d="M347.236 134.354V137.707H348.353L347.236 134.354Z" fill="#727375"/>
<path d="M408.706 134.354V137.707H409.824L408.706 134.354Z" fill="#67686A"/>
<path d="M441.118 134.354V137.707H442.236L441.118 134.354Z" fill="#7C7D80"/>
<path d="M521.961 135.099L522.334 135.843L521.961 135.099Z" fill="#68696B"/>
<path d="M555.118 134.354L556.236 135.471L555.118 134.354Z" fill="#AEB0B2"/>
<path d="M642.667 135.099L643.04 135.843L642.667 135.099Z" fill="#7F8184"/>
<path d="M1060.29 134.354L1061.41 135.471L1060.29 134.354Z" fill="#8C8E91"/>
<path d="M1147.84 135.099L1148.22 135.843L1147.84 135.099Z" fill="#5F6062"/>
<path d="M669.118 135.471L670.236 136.588L669.118 135.471Z" fill="#8E9092"/>
<path d="M714.942 135.471L716.059 136.588L714.942 135.471Z" fill="#B1B3B5"/>
<path d="M309.235 136.589L310.353 137.707L309.235 136.589Z" fill="#94A7C6"/>
<path d="M554.373 137.334L554.746 138.078L554.373 137.334Z" fill="#D0D2D3"/>
<path d="M712.706 136.589L713.824 137.707L712.706 136.589Z" fill="#818385"/>
<path d="M790.942 136.589V141.059H792.059L790.942 136.589Z" fill="#656669"/>
<path d="M1016.71 136.589V137.707H1020.06L1016.71 136.589Z" fill="#A1A3A6"/>
<path d="M1059.55 137.334L1059.92 138.078L1059.55 137.334Z" fill="#ADAFB1"/>
<path d="M1116.18 136.589L1117.3 137.707L1116.18 136.589Z" fill="#87898C"/>
<path d="M347.236 137.707V141.059H348.353L347.236 137.707Z" fill="#B2B4B6"/>
<path d="M408.706 137.707V141.059H409.824L408.706 137.707Z" fill="#9DA0A2"/>
<path d="M520.843 138.452L521.217 139.196L520.843 138.452Z" fill="#7F8184"/>
<path d="M711.588 137.707L712.706 138.824L711.588 137.707Z" fill="#9B9DA0"/>
<path d="M1012.98 138.078L1013.73 138.452L1012.98 138.078Z" fill="#C6C8CA"/>
<path d="M1148.96 138.452L1149.33 139.196L1148.96 138.452Z" fill="#8F9193"/>
<path d="M383 138.824V146.647H384.118L383 138.824Z" fill="#919395"/>
<path d="M442.236 138.824L443.353 139.941L442.236 138.824Z" fill="#A7A9AB"/>
<path d="M643.784 139.569L644.158 140.314L643.784 139.569Z" fill="#808284"/>
<path d="M668.372 139.569L668.746 140.314L668.372 139.569Z" fill="#646567"/>
<path d="M940.706 138.824V147.765H941.824L940.706 138.824Z" fill="#D7D9DA"/>
<path d="M1026.02 139.569L1026.39 140.314L1026.02 139.569Z" fill="#6A6B6D"/>
<path d="M553.255 140.687L553.628 141.432L553.255 140.687Z" fill="#B0B2B5"/>
<path d="M1005.53 139.941L1006.65 141.059L1005.53 139.941Z" fill="#A7AAAC"/>
<path d="M1058.43 141.804L1058.81 142.549L1058.43 141.804Z" fill="#B6B8BA"/>
<path d="M410.196 142.923L410.569 143.667L410.196 142.923Z" fill="#BBBDC0"/>
<path d="M519.725 142.923L520.099 143.667L519.725 142.923Z" fill="#67686A"/>
<path d="M667.255 142.923L667.628 143.667L667.255 142.923Z" fill="#929497"/>
<path d="M707.118 142.176L708.236 143.294L707.118 142.176Z" fill="#828487"/>
<path d="M912.765 142.176V152.235H913.883L912.765 142.176Z" fill="#949699"/>
<path d="M1001.06 142.176L1002.18 143.294L1001.06 142.176Z" fill="#B4B6B8"/>
<path d="M1024.9 142.923L1025.28 143.667L1024.9 142.923Z" fill="#87898C"/>
<path d="M1118.78 142.923L1119.16 143.667L1118.78 142.923Z" fill="#6D6E71"/>
<path d="M606.53 143.295V144.412H613.236L606.53 143.295Z" fill="#A6A8AA"/>
<path d="M998.824 143.295L999.942 144.412L998.824 143.295Z" fill="#A4A6A8"/>
<path d="M1111.71 143.295V144.412H1118.41L1111.71 143.295Z" fill="#A7AAAC"/>
<path d="M1150.08 144.039L1150.45 144.783L1150.08 144.039Z" fill="#9A9C9E"/>
<path d="M313.706 144.412L314.824 145.529L313.706 144.412Z" fill="#8B9FC1"/>
<path d="M348.353 144.412V151.117H349.471L348.353 144.412Z" fill="#727375"/>
<path d="M447.824 144.412L448.942 145.529L447.824 144.412Z" fill="#7E8082"/>
<path d="M552.137 145.158L552.511 145.902L552.137 145.158Z" fill="#717275"/>
<path d="M578.589 144.412V145.529H584.177L578.589 144.412Z" fill="#C5C6C8"/>
<path d="M584.177 144.412V145.529H593.118L584.177 144.412Z" fill="#9DA0A2"/>
<path d="M644.902 145.158L645.275 145.902L644.902 145.158Z" fill="#A3A5A7"/>
<path d="M996.589 144.412L997.707 145.529L996.589 144.412Z" fill="#808284"/>
<path d="M1087.12 144.412V145.529H1094.94L1087.12 144.412Z" fill="#B1B3B5"/>
<path d="M1094.94 144.412V145.529H1105L1094.94 144.412Z" fill="#6B6D6F"/>
<path d="M450.059 145.53L451.177 146.647L450.059 145.53Z" fill="#ABADB0"/>
<path d="M554.001 145.53V146.647H562.942L554.001 145.53Z" fill="#CECFD1"/>
<path d="M562.942 145.53V146.647H573L562.942 145.53Z" fill="#7D7F81"/>
<path d="M704.883 145.53L706 146.647L704.883 145.53Z" fill="#8B8D8F"/>
<path d="M1059.18 145.53V146.647H1068.12L1059.18 145.53Z" fill="#CFD1D2"/>
<path d="M1068.12 145.53V146.647H1078.18L1068.12 145.53Z" fill="#7E8082"/>
<path d="M1149.71 145.53V148.883H1150.82L1149.71 145.53Z" fill="#6D6E71"/>
<path d="M383 146.647V156.705H384.118L383 146.647Z" fill="#B9BBBD"/>
<path d="M518.608 147.393L518.981 148.137L518.608 147.393Z" fill="#727476"/>
<path d="M644.53 146.647V150H645.647L644.53 146.647Z" fill="#7C7D80"/>
<path d="M665.765 146.647V150H666.882L665.765 146.647Z" fill="#A2A4A7"/>
<path d="M993.236 146.647L994.353 147.765L993.236 146.647Z" fill="#828487"/>
<path d="M1023.78 147.393L1024.16 148.137L1023.78 147.393Z" fill="#919396"/>
<path d="M703.765 147.766L704.883 148.883L703.765 147.766Z" fill="#7E8082"/>
<path d="M789.824 148.882V164.529H790.942L789.824 148.882Z" fill="#C7C9CB"/>
<path d="M989.883 148.882L991.001 149.999L989.883 148.882Z" fill="#7A7C7E"/>
<path d="M413.177 150L414.295 151.118L413.177 150Z" fill="#7B7D7F"/>
<path d="M457.883 150L459 151.118L457.883 150Z" fill="#7C7D80"/>
<path d="M988.765 150L989.883 151.118L988.765 150Z" fill="#B6B8BA"/>
<path d="M348.353 151.118V155.589H349.471L348.353 151.118Z" fill="#C1C3C5"/>
<path d="M460.118 151.118L461.236 152.236L460.118 151.118Z" fill="#7A7C7E"/>
<path d="M517.118 151.118V154.471H518.236L517.118 151.118Z" fill="#919396"/>
<path d="M1022.29 151.118V154.471H1023.41L1022.29 151.118Z" fill="#B4B6B8"/>
<path d="M1150.82 151.118V155.589H1151.94L1150.82 151.118Z" fill="#B7B9BB"/>
<path d="M414.295 152.235L415.412 153.353L414.295 152.235Z" fill="#898B8D"/>
<path d="M912.765 152.235V158.941H913.883L912.765 152.235Z" fill="#656669"/>
<path d="M985.412 152.235L986.53 153.353L985.412 152.235Z" fill="#8A8C8F"/>
<path d="M645.647 153.354V165.647H646.765L645.647 153.354Z" fill="#B7B9BB"/>
<path d="M467.942 154.47L469.059 155.588L467.942 154.47Z" fill="#ABADB0"/>
<path d="M665.02 155.216L665.393 155.961L665.02 155.216Z" fill="#A3A5A7"/>
<path d="M701.53 154.47V157.823H702.647L701.53 154.47Z" fill="#989A9D"/>
<path d="M832.294 154.47V160.058H833.412L832.294 154.47Z" fill="#656669"/>
<path d="M197.471 155.588L198.588 156.706L197.471 155.588Z" fill="#92A6C5"/>
<path d="M470.177 155.588L471.294 156.706L470.177 155.588Z" fill="#A4A6A9"/>
<path d="M941.824 155.588V183.53H942.942L941.824 155.588Z" fill="#545556"/>
<path d="M980.942 155.588L982.059 156.706L980.942 155.588Z" fill="#898B8D"/>
<path d="M1150.82 155.588V165.647H1151.94L1150.82 155.588Z" fill="#97999B"/>
<path d="M383 156.706V163.412H384.118L383 156.706Z" fill="#909295"/>
<path d="M417.647 156.706L418.765 157.824L417.647 156.706Z" fill="#888A8C"/>
<path d="M472.412 156.706L473.53 157.824L472.412 156.706Z" fill="#A3A5A7"/>
<path d="M664.647 156.706V162.294H665.765L664.647 156.706Z" fill="#646567"/>
<path d="M321.53 157.824L322.647 158.941L321.53 157.824Z" fill="#98AAC9"/>
<path d="M474.648 157.824L475.765 158.941L474.648 157.824Z" fill="#A0A2A4"/>
<path d="M516 157.824V167.883H517.118L516 157.824Z" fill="#86888A"/>
<path d="M1021.18 157.824V167.883H1022.29L1021.18 157.824Z" fill="#A6A8AA"/>
<path d="M476.883 158.941L478 160.059L476.883 158.941Z" fill="#A0A3A5"/>
<path d="M479.118 160.059L480.236 161.177L479.118 160.059Z" fill="#9A9C9E"/>
<path d="M700.412 160.059V164.53H701.529L700.412 160.059Z" fill="#B2B4B6"/>
<path d="M56.6471 161.176V162.294H64.4705L56.6471 161.176Z" fill="#98C1E7"/>
<path d="M481.353 161.176L482.471 162.294L481.353 161.176Z" fill="#ABADAF"/>
<path d="M49.9411 162.817C26.3264 167.279 15.6482 196.993 26.3755 217.059C34.6494 232.706 51.0588 238.488 67.8233 235.695C97.2353 230.784 106.044 192.752 86.618 172.457C77.5156 162.949 62.5148 160.44 49.9411 162.817Z" fill="#1B96D3"/>
<path d="M68.5691 162.667L69.3133 163.04L68.5691 162.667Z" fill="#A7C8EA"/>
<path d="M201.941 163.412L203.059 164.529L201.941 163.412Z" fill="#8A9FC1"/>
<path d="M383 163.412V172.353H384.118L383 163.412Z" fill="#636466"/>
<path d="M484.706 163.412L485.824 164.529L484.706 163.412Z" fill="#7B7D7F"/>
<path d="M833.412 163.412V170.117H834.53L833.412 163.412Z" fill="#898B8D"/>
<path d="M486.941 164.529L488.059 165.647L486.941 164.529Z" fill="#9A9C9E"/>
<path d="M700.412 164.529V171.235H701.529L700.412 164.529Z" fill="#DDDEDF"/>
<path d="M913.883 165.646V171.235H915L913.883 165.646Z" fill="#C7C9CB"/>
<path d="M427.706 166.765L428.824 167.883L427.706 166.765Z" fill="#919395"/>
<path d="M492.53 167.882L493.647 169L492.53 167.882Z" fill="#A0A3A5"/>
<path d="M516 167.882V173.47H517.118L516 167.882Z" fill="#B8BABC"/>
<path d="M976.844 168.628L977.217 169.372L976.844 168.628Z" fill="#C4C5C7"/>
<path d="M1021.18 167.882V172.352H1022.29L1021.18 167.882Z" fill="#DDDEDF"/>
<path d="M664.647 169V176.824H665.765L664.647 169Z" fill="#646567"/>
<path d="M878.118 169V175.706H879.236L878.118 169Z" fill="#656669"/>
<path d="M432.177 170.118L433.294 171.236L432.177 170.118Z" fill="#949698"/>
<path d="M495.883 170.118L497 171.236L495.883 170.118Z" fill="#ABADAF"/>
<path d="M632.235 170.118V171.236H641.177L632.235 170.118Z" fill="#686A6C"/>
<path d="M641.177 170.118V171.236H645.647L641.177 170.118Z" fill="#888A8C"/>
<path d="M976.471 170.118V173.471H977.589L976.471 170.118Z" fill="#9A9C9E"/>
<path d="M1137.41 170.118V171.236H1150.82L1137.41 170.118Z" fill="#828386"/>
<path d="M497 171.235L498.118 172.353L497 171.235Z" fill="#787A7C"/>
<path d="M613.236 171.235V172.353H622.177L613.236 171.235Z" fill="#86888A"/>
<path d="M622.177 171.235V172.353H630L622.177 171.235Z" fill="#CED0D2"/>
<path d="M700.412 171.235V177.941H701.529L700.412 171.235Z" fill="#A5A7AA"/>
<path d="M790.942 171.235V175.706H792.059L790.942 171.235Z" fill="#656669"/>
<path d="M913.883 171.235V176.824H915L913.883 171.235Z" fill="#949699"/>
<path d="M1118.41 171.235V172.353H1124L1118.41 171.235Z" fill="#7B7D7F"/>
<path d="M1124 171.235V172.353H1132.94L1124 171.235Z" fill="#B7B9BB"/>
<path d="M110.294 172.354L111.412 173.471L110.294 172.354Z" fill="#95A7C7"/>
<path d="M435.53 172.354L436.647 173.471L435.53 172.354Z" fill="#AFB1B3"/>
<path d="M602.059 172.354V173.471H607.648L602.059 172.354Z" fill="#929497"/>
<path d="M607.648 172.354V173.471H611L607.648 172.354Z" fill="#CED0D2"/>
<path d="M834.902 173.098L835.275 173.842L834.902 173.098Z" fill="#898B8D"/>
<path d="M1107.24 172.354V173.471H1110.59L1107.24 172.354Z" fill="#6B6D6F"/>
<path d="M1110.59 172.354V173.471H1113.94L1110.59 172.354Z" fill="#A3A5A7"/>
<path d="M437.765 173.471L438.883 174.588L437.765 173.471Z" fill="#808284"/>
<path d="M589.765 173.471V174.588H593.118L589.765 173.471Z" fill="#656669"/>
<path d="M593.118 173.471V174.588H596.471L593.118 173.471Z" fill="#9A9C9F"/>
<path d="M976.471 173.471V176.824H977.589L976.471 173.471Z" fill="#636466"/>
<path d="M1094.94 173.471V174.588H1098.3L1094.94 173.471Z" fill="#646567"/>
<path d="M1098.3 173.471V174.588H1101.65L1098.3 173.471Z" fill="#97999C"/>
<path d="M1101.65 173.471V174.588H1105L1101.65 173.471Z" fill="#D1D2D4"/>
<path d="M440 174.588L441.118 175.706L440 174.588Z" fill="#7E8082"/>
<path d="M578.589 174.588V175.706H584.177L578.589 174.588Z" fill="#999B9E"/>
<path d="M584.177 174.588V175.706H587.53L584.177 174.588Z" fill="#D0D2D3"/>
<path d="M1022.67 175.333L1023.04 176.078L1022.67 175.333Z" fill="#858789"/>
<path d="M1083.77 174.588V175.706H1089.35L1083.77 174.588Z" fill="#96989B"/>
<path d="M1089.35 174.588V175.706H1092.71L1089.35 174.588Z" fill="#CDCED0"/>
<path d="M384.118 175.706V179.059H385.235L384.118 175.706Z" fill="#CBCDCE"/>
<path d="M442.236 175.706L443.353 176.823L442.236 175.706Z" fill="#909295"/>
<path d="M517.118 175.706V179.059H518.236L517.118 175.706Z" fill="#828487"/>
<path d="M570.393 176.078L571.137 176.451L570.393 176.078Z" fill="#757779"/>
<path d="M572.628 176.078L573.373 176.451L572.628 176.078Z" fill="#A7A9AB"/>
<path d="M790.942 175.706V179.059H792.059L790.942 175.706ZM878.118 175.706V182.412H879.236L878.118 175.706Z" fill="#949699"/>
<path d="M1074.82 175.706V176.823H1078.18L1074.82 175.706Z" fill="#727476"/>
<path d="M1078.92 176.078L1079.67 176.451L1078.92 176.078Z" fill="#BEC0C2"/>
<path d="M444.471 176.824L445.588 177.941L444.471 176.824Z" fill="#A2A4A7"/>
<path d="M560.706 176.824V177.941H564.059L560.706 176.824Z" fill="#6F7173"/>
<path d="M564.059 176.824V177.941H567.412L564.059 176.824Z" fill="#B8BABC"/>
<path d="M836.02 177.569L836.393 178.313L836.02 177.569Z" fill="#727476"/>
<path d="M914.255 177.569L914.628 178.313L914.255 177.569Z" fill="#656669"/>
<path d="M1022.67 177.569L1023.04 178.313L1022.67 177.569Z" fill="#C2C4C6"/>
<path d="M1065.88 176.824V177.941H1069.24L1065.88 176.824Z" fill="#6B6D6F"/>
<path d="M1069.24 176.824V177.941H1072.59L1069.24 176.824Z" fill="#B4B6B8"/>
<path d="M446.706 177.941L447.824 179.059L446.706 177.941Z" fill="#B6B8BA"/>
<path d="M552.883 177.941V179.059H556.236L552.883 177.941Z" fill="#86888A"/>
<path d="M556.981 178.312L557.726 178.686L556.981 178.312Z" fill="#D1D2D4"/>
<path d="M1059.18 177.941V179.059H1062.53L1059.18 177.941Z" fill="#9A9C9E"/>
<path d="M331.961 179.804L332.334 180.548L331.961 179.804Z" fill="#8399BD"/>
<path d="M384.118 179.06V182.412H385.235L384.118 179.06Z" fill="#949699"/>
<path d="M504.824 179.06L505.941 180.177L504.824 179.06Z" fill="#A8AAAD"/>
<path d="M977.589 179.06V184.648H978.706L977.589 179.06Z" fill="#A0A3A5"/>
<path d="M1058.43 179.804L1058.81 180.548L1058.43 179.804Z" fill="#626365"/>
<path d="M348.353 180.176V190.235H349.471L348.353 180.176Z" fill="#D0D2D3"/>
<path d="M452.295 180.176L453.412 181.294L452.295 180.176Z" fill="#888A8C"/>
<path d="M701.902 180.922L702.275 181.666L701.902 180.922Z" fill="#96989B"/>
<path d="M639.687 181.667L640.431 182.04L639.687 181.667Z" fill="#D1D2D4"/>
<path d="M666.137 182.039L666.51 182.784L666.137 182.039Z" fill="#8F9193"/>
<path d="M210.137 183.157L210.51 183.901L210.137 183.157Z" fill="#92A5C5"/>
<path d="M238.823 182.412L239.941 183.529L238.823 182.412Z" fill="#94A6C6"/>
<path d="M384.118 182.412V185.764H385.235L384.118 182.412Z" fill="#636466"/>
<path d="M518.608 183.157L518.981 183.901L518.608 183.157Z" fill="#A7A9AB"/>
<path d="M637.824 182.412L638.941 183.529L637.824 182.412Z" fill="#7D7E81"/>
<path d="M640.059 182.412V185.764H641.177L640.059 182.412Z" fill="#898B8E"/>
<path d="M878.118 182.412V186.882H879.236L878.118 182.412ZM915.001 182.412V185.764H916.118L915.001 182.412Z" fill="#C7C9CB"/>
<path d="M1023.78 183.157L1024.16 183.901L1023.78 183.157Z" fill="#CBCDCE"/>
<path d="M1059.55 183.157L1059.92 183.901L1059.55 183.157Z" fill="#757779"/>
<path d="M1143 182.412L1144.12 183.529L1143 182.412Z" fill="#8B8D8F"/>
<path d="M1145.24 182.412V185.764H1146.35L1145.24 182.412Z" fill="#6A6B6D"/>
<path d="M332.706 183.529V186.882H333.824L332.706 183.529Z" fill="#94A6C6"/>
<path d="M457.883 183.529L459 184.647L457.883 183.529Z" fill="#818385"/>
<path d="M634.471 183.529L635.589 184.647L634.471 183.529Z" fill="#9D9FA1"/>
<path d="M792.431 184.275L792.805 185.02L792.431 184.275Z" fill="#656669"/>
<path d="M1139.65 183.529L1140.77 184.647L1139.65 183.529Z" fill="#AAACAE"/>
<path d="M459 184.646L460.118 185.764L459 184.646Z" fill="#9A9C9F"/>
<path d="M761.883 184.646L763 185.764L761.883 184.646Z" fill="#87888B"/>
<path d="M837.883 184.646L839 185.764L837.883 184.646Z" fill="#949699"/>
<path d="M977.589 184.646V188H978.706L977.589 184.646Z" fill="#696A6D"/>
<path d="M1137.41 184.646L1138.53 185.764L1137.41 184.646Z" fill="#87898C"/>
<path d="M460.118 185.765L461.236 186.883L460.118 185.765Z" fill="#7A7C7E"/>
<path d="M508.177 185.765L509.295 186.883L508.177 185.765Z" fill="#858789"/>
<path d="M759.647 185.765L760.765 186.883L759.647 185.765Z" fill="#828386"/>
<path d="M792.059 185.765V189.118H793.177L792.059 185.765Z" fill="#949699"/>
<path d="M1024.9 186.51L1025.28 187.255L1024.9 186.51Z" fill="#9EA0A3"/>
<path d="M1060.29 185.765L1061.41 186.883L1060.29 185.765Z" fill="#ABADAF"/>
<path d="M1135.18 185.765L1136.29 186.883L1135.18 185.765Z" fill="#797A7D"/>
<path d="M519.725 187.628L520.099 188.372L519.725 187.628Z" fill="#B0B2B5"/>
<path d="M626.647 186.882L627.765 188L626.647 186.882Z" fill="#A2A4A7"/>
<path d="M667.255 187.628L667.628 188.372L667.255 187.628Z" fill="#AEB0B2"/>
<path d="M839 186.882L840.118 188L839 186.882Z" fill="#949699"/>
<path d="M210.882 188V191.353H212L210.882 188Z" fill="#B6C2D9"/>
<path d="M385.235 188V191.353H386.353L385.235 188Z" fill="#D1D2D4"/>
<path d="M509.667 188.746L510.04 189.49L509.667 188.746Z" fill="#87888B"/>
<path d="M754.059 188L755.177 189.118L754.059 188Z" fill="#A1A3A6"/>
<path d="M873.648 188L874.765 189.118L873.648 188Z" fill="#96989B"/>
<path d="M915.373 188.746L915.746 189.49L915.373 188.746Z" fill="#656669"/>
<path d="M1061.41 188L1062.53 189.118L1061.41 188Z" fill="#9A9C9F"/>
<path d="M621.059 189.118L622.177 190.236L621.059 189.118Z" fill="#86888A"/>
<path d="M706 189.118L707.118 190.236L706 189.118Z" fill="#919395"/>
<path d="M751.824 189.118L752.941 190.236L751.824 189.118Z" fill="#848689"/>
<path d="M1126.24 189.118L1127.35 190.236L1126.24 189.118Z" fill="#919395"/>
<path d="M1146.35 189.118V192.471H1147.47L1146.35 189.118Z" fill="#C7C9CB"/>
<path d="M348.353 190.235V193.589H349.471L348.353 190.235Z" fill="#808284"/>
<path d="M557.353 190.235L558.471 191.353L557.353 190.235Z" fill="#AEB0B2"/>
<path d="M617.706 190.235L618.824 191.353L617.706 190.235Z" fill="#999B9E"/>
<path d="M707.118 190.235L708.236 191.353L707.118 190.235Z" fill="#A0A3A5"/>
<path d="M841.236 190.235L842.353 191.353L841.236 190.235Z" fill="#949699"/>
<path d="M868.059 190.235L869.177 191.353L868.059 190.235Z" fill="#A2A4A7"/>
<path d="M978.706 190.235V193.589H979.824L978.706 190.235Z" fill="#B4B6B8"/>
<path d="M1025.65 190.235L1026.77 191.353L1025.65 190.235Z" fill="#919395"/>
<path d="M1062.53 190.235L1063.65 191.353L1062.53 190.235Z" fill="#8D8F92"/>
<path d="M1122.88 190.235L1124 191.353L1122.88 190.235Z" fill="#A4A6A9"/>
<path d="M210.882 191.353V203.647H212L210.882 191.353Z" fill="#738DB3"/>
<path d="M333.824 191.353V203.647H334.941L333.824 191.353Z" fill="#95A7C7"/>
<path d="M385.235 191.353V194.706H386.353L385.235 191.353Z" fill="#96989B"/>
<path d="M461.236 191.353L462.353 192.471L461.236 191.353Z" fill="#898B8D"/>
<path d="M842.353 191.353L843.471 192.471L842.353 191.353Z" fill="#898B8E"/>
<path d="M1063.65 191.353L1064.77 192.471L1063.65 191.353Z" fill="#B1B3B5"/>
<path d="M1120.28 191.725L1121.02 192.098L1120.28 191.725Z" fill="#656668"/>
<path d="M96.8824 192.471V204.765H97.9998L96.8824 192.471Z" fill="#C7DAF1"/>
<path d="M460.118 192.471L461.236 193.588L460.118 192.471Z" fill="#8D8F92"/>
<path d="M610.628 192.843L611.373 193.216L610.628 192.843Z" fill="#747578"/>
<path d="M641.549 193.217L641.922 193.961L641.549 193.217Z" fill="#606163"/>
<path d="M710.471 192.471L711.588 193.588L710.471 192.471Z" fill="#9DA0A2"/>
<path d="M742.511 192.843L743.255 193.216L742.511 192.843Z" fill="#7F8083"/>
<path d="M774.177 192.471L775.295 193.588L774.177 192.471Z" fill="#A6A8AA"/>
<path d="M793.177 192.471V195.824H794.295L793.177 192.471Z" fill="#898B8D"/>
<path d="M916.118 192.471V195.824H917.236L916.118 192.471Z" fill="#A1A3A6"/>
<path d="M1064.77 192.471L1065.88 193.588L1064.77 192.471Z" fill="#A6A8AA"/>
<path d="M1115.8 192.843L1116.55 193.216L1115.8 192.843Z" fill="#7D7E81"/>
<path d="M122.588 193.589L123.706 194.706L122.588 193.589Z" fill="#92A5C5"/>
<path d="M459 193.589L460.118 194.706L459 193.589Z" fill="#8E9092"/>
<path d="M521.589 193.589L522.706 194.706L521.589 193.589Z" fill="#7E8082"/>
<path d="M606.158 193.96L606.902 194.334L606.158 193.96Z" fill="#898B8E"/>
<path d="M712.706 193.589L713.824 194.706L712.706 193.589Z" fill="#9D9FA1"/>
<path d="M738.04 193.96L738.784 194.334L738.04 193.96Z" fill="#A2A4A7"/>
<path d="M775.295 193.589L776.412 194.706L775.295 193.589Z" fill="#989A9D"/>
<path d="M846.824 193.589V194.706H850.177L846.824 193.589Z" fill="#67686A"/>
<path d="M850.177 193.589V194.706H854.647L850.177 193.589Z" fill="#96989B"/>
<path d="M855.393 193.96L856.138 194.334L855.393 193.96Z" fill="#67686A"/>
<path d="M978.706 193.589V196.942H979.824L978.706 193.589Z" fill="#6B6D6F"/>
<path d="M1026.77 193.589L1027.88 194.706L1026.77 193.589Z" fill="#9DA0A2"/>
<path d="M1065.88 193.589L1067 194.706L1065.88 193.589Z" fill="#96989B"/>
<path d="M1112.45 193.96L1113.2 194.334L1112.45 193.96Z" fill="#5D5E60"/>
<path d="M457.883 194.706L459 195.823L457.883 194.706Z" fill="#828386"/>
<path d="M562.942 194.706L564.059 195.823L562.942 194.706Z" fill="#B0B2B5"/>
<path d="M600.942 194.706V195.823H604.295L600.942 194.706Z" fill="#9EA0A3"/>
<path d="M669.118 194.706L670.236 195.823L669.118 194.706Z" fill="#8D8F92"/>
<path d="M715.687 195.078L716.431 195.451L715.687 195.078Z" fill="#A7A9AB"/>
<path d="M729.471 194.706V195.823H732.824L729.471 194.706Z" fill="#CBCDCE"/>
<path d="M732.824 194.706V195.823H736.177L732.824 194.706Z" fill="#747678"/>
<path d="M776.412 194.706L777.53 195.823L776.412 194.706Z" fill="#87888B"/>
<path d="M940.706 194.706V201.412H941.824L940.706 194.706Z" fill="#C9CBCD"/>
<path d="M1068.12 194.706L1069.24 195.823L1068.12 194.706Z" fill="#A4A6A8"/>
<path d="M1107.98 195.078L1108.73 195.451L1107.98 195.078Z" fill="#747678"/>
<path d="M456.765 195.824L457.883 196.941L456.765 195.824Z" fill="#77787B"/>
<path d="M565.922 196.197L566.667 196.57L565.922 196.197Z" fill="#B8BABC"/>
<path d="M597.216 196.197L597.961 196.57L597.216 196.197Z" fill="#8B8D8F"/>
<path d="M642.667 196.568L643.04 197.313L642.667 196.568Z" fill="#888A8C"/>
<path d="M719.412 195.824V196.941H727.235L719.412 195.824Z" fill="#656669"/>
<path d="M777.53 195.824L778.647 196.941L777.53 195.824Z" fill="#797A7D"/>
<path d="M1070.35 195.824V196.941H1073.71L1070.35 195.824Z" fill="#AEB0B2"/>
<path d="M1102.39 196.197L1103.14 196.57L1102.39 196.197Z" fill="#939598"/>
<path d="M1147.84 196.568L1148.22 197.313L1147.84 196.568Z" fill="#686A6C"/>
<path d="M522.706 196.941L523.824 198.059L522.706 196.941Z" fill="#8D8F92"/>
<path d="M570.393 197.313L571.137 197.686L570.393 197.313Z" fill="#7C7D80"/>
<path d="M572.628 197.313L573.373 197.686L572.628 197.313Z" fill="#AFB1B4"/>
<path d="M587.158 197.313L587.902 197.686L587.158 197.313Z" fill="#CED0D2"/>
<path d="M588.648 196.941V198.059H592L588.648 196.941Z" fill="#A1A3A6"/>
<path d="M1027.88 196.941L1029 198.059L1027.88 196.941Z" fill="#AEB0B2"/>
<path d="M1075.57 197.313L1076.31 197.686L1075.57 197.313Z" fill="#77787B"/>
<path d="M1077.8 197.313L1078.55 197.686L1077.8 197.313Z" fill="#ABADB0"/>
<path d="M1092.71 196.941V198.059H1096.06L1092.71 196.941Z" fill="#BBBDBF"/>
<path d="M1096.06 196.941V198.059H1099.41L1096.06 196.941Z" fill="#717275"/>
<path d="M386.353 198.06V201.412H387.471L386.353 198.06Z" fill="#AFB1B4"/>
<path d="M453.412 198.06L454.53 199.177L453.412 198.06Z" fill="#929497"/>
<path d="M509.295 198.06V201.412H510.412L509.295 198.06Z" fill="#727476"/>
<path d="M794.667 198.804L795.04 199.548L794.667 198.804Z" fill="#898B8D"/>
<path d="M451.177 199.176L452.294 200.294L451.177 199.176Z" fill="#9B9DA0"/>
<path d="M523.824 199.176L524.942 200.294L523.824 199.176Z" fill="#8E9092"/>
<path d="M917.236 199.176V202.529H918.353L917.236 199.176Z" fill="#AEB0B2"/>
<path d="M979.824 199.176V202.529H980.942L979.824 199.176Z" fill="#B3B5B8"/>
<path d="M1029 199.176L1030.12 200.294L1029 199.176Z" fill="#AFB1B3"/>
<path d="M1148.59 199.176L1149.71 200.294L1148.59 199.176Z" fill="#B1B3B5"/>
<path d="M448.569 200.667L449.314 201.04L448.569 200.667Z" fill="#747578"/>
<path d="M643.412 200.294L644.53 201.412L643.412 200.294Z" fill="#8B8D8F"/>
<path d="M671.353 200.294L672.471 201.412L671.353 200.294Z" fill="#929497"/>
<path d="M386.725 202.157L387.099 202.902L386.725 202.157Z" fill="#5D5E60"/>
<path d="M444.099 201.784L444.843 202.157L444.099 201.784Z" fill="#898B8E"/>
<path d="M524.942 201.412L526.059 202.529L524.942 201.412Z" fill="#989A9D"/>
<path d="M940.706 201.412V208.118H941.824L940.706 201.412Z" fill="#A0A2A4"/>
<path d="M347.608 203.275L347.981 204.02L347.608 203.275Z" fill="#9D9FA1"/>
<path d="M434.412 202.529V203.647H437.765L434.412 202.529Z" fill="#C9CBCD"/>
<path d="M437.765 202.529V203.647H441.118L437.765 202.529Z" fill="#808284"/>
<path d="M795.784 203.275L796.158 204.02L795.784 203.275Z" fill="#BABCBE"/>
<path d="M980.196 203.275L980.57 204.02L980.196 203.275Z" fill="#686A6C"/>
<path d="M1149.71 202.529L1150.82 203.647L1149.71 202.529Z" fill="#9DA0A2"/>
<path d="M22 203.647V207H23.1174L22 203.647Z" fill="#9DC4E8"/>
<path d="M251.118 203.647L252.235 204.764L251.118 203.647Z" fill="#92A5C5"/>
<path d="M407.589 205.882L429.941 204.764C425.028 202.703 411.261 201.68 407.589 205.882Z" fill="#949699"/>
<path d="M508.549 204.392L508.922 205.136L508.549 204.392Z" fill="#CFD1D2"/>
<path d="M526.059 203.647L527.177 204.764L526.059 203.647Z" fill="#A3A5A7"/>
<path d="M347.608 205.51L347.981 206.255L347.608 205.51Z" fill="#717275"/>
<path d="M673.588 204.765L674.706 205.882L673.588 204.765Z" fill="#7A7C7E"/>
<path d="M332.706 205.882V209.235H333.824L332.706 205.882Z" fill="#859ABE"/>
<path d="M387.843 206.628L388.216 207.372L387.843 206.628Z" fill="#AEB0B2"/>
<path d="M527.177 205.882L528.295 207L527.177 205.882Z" fill="#AEB0B2"/>
<path d="M645.647 205.882L646.765 207L645.647 205.882Z" fill="#999B9E"/>
<path d="M796.53 205.882L797.647 207L796.53 205.882Z" fill="#7E8082"/>
<path d="M918.726 206.628L919.099 207.372L918.726 206.628Z" fill="#949699"/>
<path d="M130.412 207L131.529 208.118L130.412 207Z" fill="#8CA0C2"/>
<path d="M210.137 207.746L210.51 208.49L210.137 207.746Z" fill="#899EC0"/>
<path d="M408.706 207L409.824 208.118L408.706 207Z" fill="#939598"/>
<path d="M507.059 207L508.177 208.118L507.059 207Z" fill="#AEB0B2"/>
<path d="M674.706 207L675.824 208.118L674.706 207Z" fill="#898B8E"/>
<path d="M980.942 207V210.353H982.059L980.942 207Z" fill="#B1B3B5"/>
<path d="M387.471 208.118V211.471H388.589L387.471 208.118Z" fill="#77797B"/>
<path d="M782 208.118L783.118 209.236L782 208.118Z" fill="#919395"/>
<path d="M940.706 208.118V213.706H941.824L940.706 208.118Z" fill="#6B6C6E"/>
<path d="M1151.94 208.118L1153.06 209.236L1151.94 208.118Z" fill="#999B9E"/>
<path d="M254.471 209.235L255.588 210.353L254.471 209.235Z" fill="#92A6C5"/>
<path d="M409.824 209.235L410.941 210.353L409.824 209.235Z" fill="#AEB0B2"/>
<path d="M529.412 209.235L530.53 210.353L529.412 209.235Z" fill="#939598"/>
<path d="M675.824 209.235L676.941 210.353L675.824 209.235Z" fill="#9A9C9E"/>
<path d="M346.49 211.098L346.863 211.843L346.49 211.098Z" fill="#C0C1C3"/>
<path d="M504.824 210.354L505.941 211.471L504.824 210.354Z" fill="#888A8C"/>
<path d="M919.843 211.098L920.217 211.843L919.843 211.098Z" fill="#A1A3A6"/>
<path d="M1035.71 210.354L1036.82 211.471L1035.71 210.354Z" fill="#7E8082"/>
<path d="M1153.06 210.354L1154.18 211.471L1153.06 210.354Z" fill="#B3B5B8"/>
<path d="M647.883 211.47L649 212.588L647.883 211.47Z" fill="#808284"/>
<path d="M346.49 213.334L346.863 214.078L346.49 213.334Z" fill="#909295"/>
<path d="M503.706 212.588L504.824 213.706L503.706 212.588Z" fill="#AFB1B4"/>
<path d="M531.647 212.588L532.765 213.706L531.647 212.588Z" fill="#B1B3B5"/>
<path d="M678.059 212.588L679.177 213.706L678.059 212.588Z" fill="#8D8F92"/>
<path d="M388.589 213.706V217.059H389.706L388.589 213.706Z" fill="#9C9EA1"/>
<path d="M502.589 213.706L503.706 214.823L502.589 213.706Z" fill="#7C7D80"/>
<path d="M649 213.706L650.118 214.823L649 213.706Z" fill="#9A9C9E"/>
<path d="M1037.94 213.706L1039.06 214.823L1037.94 213.706Z" fill="#9A9C9F"/>
<path d="M1154.18 213.706L1155.29 214.823L1154.18 213.706Z" fill="#7A7C7E"/>
<path d="M346.49 215.568L346.863 216.313L346.49 215.568Z" fill="#626365"/>
<path d="M801.001 214.824L802.118 215.941L801.001 214.824Z" fill="#898B8D"/>
<path d="M982.06 214.824V218.177H983.177L982.06 214.824Z" fill="#A1A3A6"/>
<path d="M413.177 215.941L414.295 217.059L413.177 215.941Z" fill="#9A9C9E"/>
<path d="M650.118 215.941L651.236 217.059L650.118 215.941Z" fill="#AEB0B2"/>
<path d="M920.961 216.687L921.334 217.431L920.961 216.687Z" fill="#898B8D"/>
<path d="M1155.29 215.941L1156.41 217.059L1155.29 215.941Z" fill="#8D8F92"/>
<path d="M535.001 217.06L536.118 218.177L535.001 217.06Z" fill="#B1B3B5"/>
<path d="M681.412 217.06L682.53 218.177L681.412 217.06Z" fill="#8A8C8F"/>
<path d="M803.236 218.176L804.353 219.294L803.236 218.176Z" fill="#898B8D"/>
<path d="M1156.41 218.176L1157.53 219.294L1156.41 218.176Z" fill="#9DA0A2"/>
<path d="M328.236 219.294L329.353 220.412L328.236 219.294Z" fill="#98ABC9"/>
<path d="M345.372 220.039L345.746 220.783L345.372 220.039Z" fill="#B2B4B6"/>
<path d="M389.706 219.294V222.647H390.824L389.706 219.294Z" fill="#9D9FA1"/>
<path d="M414.295 219.294L415.412 220.412L414.295 219.294Z" fill="#ABADB0"/>
<path d="M771.941 219.294L773.059 220.412L771.941 219.294Z" fill="#B1B3B5"/>
<path d="M495.883 220.411L497 221.529L495.883 220.411Z" fill="#848688"/>
<path d="M922.078 221.157L922.452 221.902L922.078 221.157Z" fill="#898B8D"/>
<path d="M1157.9 221.157L1158.28 221.902L1157.9 221.157Z" fill="#C4C5C7"/>
<path d="M345.372 222.275L345.746 223.02L345.372 222.275Z" fill="#747678"/>
<path d="M415.412 221.529L416.53 222.647L415.412 221.529Z" fill="#77787B"/>
<path d="M494.765 221.529L495.883 222.647L494.765 221.529Z" fill="#B2B4B6"/>
<path d="M879.236 221.529L880.353 222.647L879.236 221.529Z" fill="#949699"/>
<path d="M881.471 221.529V226H882.589L881.471 221.529Z" fill="#D5D6D8"/>
<path d="M939.589 221.529V224.882H940.707L939.589 221.529Z" fill="#9DA0A2"/>
<path d="M983.177 221.529V224.882H984.295L983.177 221.529Z" fill="#97999B"/>
<path d="M326 222.647L327.118 223.765L326 222.647Z" fill="#8FA2C3"/>
<path d="M649 222.647L650.118 223.765L649 222.647Z" fill="#858789"/>
<path d="M877.001 222.647L878.118 223.765L877.001 222.647Z" fill="#7E8082"/>
<path d="M1154.18 222.647L1155.29 223.765L1154.18 222.647Z" fill="#787A7C"/>
<path d="M491.412 223.765L492.53 224.883L491.412 223.765Z" fill="#8D8F92"/>
<path d="M646.765 223.765L647.882 224.883L646.765 223.765Z" fill="#9A9C9F"/>
<path d="M688.118 223.765L689.236 224.883L688.118 223.765Z" fill="#858789"/>
<path d="M874.765 223.765L875.883 224.883L874.765 223.765Z" fill="#7E8082"/>
<path d="M1151.94 223.765L1153.06 224.883L1151.94 223.765Z" fill="#8F9194"/>
<path d="M390.824 224.882V228.235H391.941L390.824 224.882Z" fill="#9DA0A2"/>
<path d="M543.942 224.882L545.059 226L543.942 224.882Z" fill="#848689"/>
<path d="M689.236 224.882L690.353 226L689.236 224.882Z" fill="#AEB0B2"/>
<path d="M923.196 225.627L923.57 226.372L923.196 225.627Z" fill="#727476"/>
<path d="M939.961 225.627L940.334 226.372L939.961 225.627Z" fill="#616264"/>
<path d="M1049.12 224.882L1050.24 226L1049.12 224.882Z" fill="#9A9C9E"/>
<path d="M1149.71 224.882L1150.82 226L1149.71 224.882Z" fill="#A4A6A9"/>
<path d="M416.53 226V229.353H417.647L416.53 226Z" fill="#898B8D"/>
<path d="M641.177 226L642.294 227.118L641.177 226Z" fill="#7B7D7F"/>
<path d="M764.118 226L765.236 227.118L764.118 226Z" fill="#949699"/>
<path d="M199.706 227.118L200.824 228.236L199.706 227.118Z" fill="#8FA3C4"/>
<path d="M343.883 227.118V230.471H345L343.883 227.118Z" fill="#97999B"/>
<path d="M485.824 227.118L486.942 228.236L485.824 227.118Z" fill="#A3A5A7"/>
<path d="M547.294 227.118L548.412 228.236L547.294 227.118Z" fill="#787A7C"/>
<path d="M638.941 227.118L640.059 228.236L638.941 227.118Z" fill="#9B9DA0"/>
<path d="M692.588 227.118L693.706 228.236L692.588 227.118Z" fill="#A7AAAC"/>
<path d="M868.059 227.118L869.177 228.236L868.059 227.118Z" fill="#7E8082"/>
<path d="M984.295 227.118V230.471H985.412L984.295 227.118Z" fill="#A0A3A5"/>
<path d="M273.471 228.235L274.588 229.353L273.471 228.235Z" fill="#94A7C6"/>
<path d="M483.589 228.235L484.706 229.353L483.589 228.235Z" fill="#A7AAAC"/>
<path d="M635.589 228.235L636.706 229.353L635.589 228.235Z" fill="#7B7D7F"/>
<path d="M865.824 228.235L866.942 229.353L865.824 228.235Z" fill="#949699"/>
<path d="M882.961 228.981L883.334 229.726L882.961 228.981Z" fill="#656669"/>
<path d="M924.314 228.981L924.687 229.726L924.314 228.981Z" fill="#898B8D"/>
<path d="M1141.88 228.235L1143 229.353L1141.88 228.235Z" fill="#B2B4B6"/>
<path d="M364 229.354V230.471H374.059L364 229.354Z" fill="#595A5C"/>
<path d="M550.647 229.354L551.765 230.471L550.647 229.354Z" fill="#A2A4A7"/>
<path d="M633.353 229.354L634.471 230.471L633.353 229.354Z" fill="#A7AAAC"/>
<path d="M695.942 229.354L697.059 230.471L695.942 229.354Z" fill="#A1A3A6"/>
<path d="M814.412 229.354L815.53 230.471L814.412 229.354Z" fill="#7E8082"/>
<path d="M863.589 229.354L864.706 230.471L863.589 229.354Z" fill="#A1A3A6"/>
<path d="M1055.82 229.354L1056.94 230.471L1055.82 229.354Z" fill="#B5B7B9"/>
<path d="M1138.53 229.354L1139.65 230.471L1138.53 229.354Z" fill="#9B9DA0"/>
<path d="M356.177 230.47V231.588H359.529L356.177 230.47Z" fill="#7F8083"/>
<path d="M360.275 230.843L361.019 231.216L360.275 230.843Z" fill="#CECFD1"/>
<path d="M377.04 230.843L377.784 231.216L377.04 230.843Z" fill="#BBBDBF"/>
<path d="M378.53 230.47V231.588H381.883L378.53 230.47Z" fill="#828386"/>
<path d="M391.941 230.47V234.941H393.059L391.941 230.47Z" fill="#A0A2A4"/>
<path d="M478 230.47L479.118 231.588L478 230.47Z" fill="#828487"/>
<path d="M552.883 230.47L554.001 231.588L552.883 230.47Z" fill="#949699"/>
<path d="M698.177 230.47L699.294 231.588L698.177 230.47Z" fill="#9A9C9E"/>
<path d="M757.412 230.47L758.53 231.588L757.412 230.47Z" fill="#999B9E"/>
<path d="M815.53 230.47L816.648 231.588L815.53 230.47Z" fill="#A1A3A6"/>
<path d="M861.353 230.47L862.471 231.588L861.353 230.47Z" fill="#AEB0B2"/>
<path d="M882.589 230.47V233.823H883.706L882.589 230.47Z" fill="#949699"/>
<path d="M938.471 230.47V233.823H939.589L938.471 230.47Z" fill="#999B9E"/>
<path d="M1058.06 230.47L1059.18 231.588L1058.06 230.47Z" fill="#A7A9AB"/>
<path d="M1135.92 230.843L1136.67 231.216L1135.92 230.843Z" fill="#CFD1D2"/>
<path d="M349.471 231.588V232.706H352.824L349.471 231.588Z" fill="#828386"/>
<path d="M384.118 231.588V232.706H387.471L384.118 231.588Z" fill="#949698"/>
<path d="M475.765 231.588L476.883 232.706L475.765 231.588Z" fill="#ABADB0"/>
<path d="M555.118 231.588L556.236 232.706L555.118 231.588Z" fill="#87898C"/>
<path d="M626.275 231.96L627.019 232.334L626.275 231.96Z" fill="#B6B8BA"/>
<path d="M700.412 231.588L701.529 232.706L700.412 231.588Z" fill="#A4A6A8"/>
<path d="M755.177 231.588L756.295 232.706L755.177 231.588Z" fill="#919395"/>
<path d="M858 231.588L859.118 232.706L858 231.588Z" fill="#949699"/>
<path d="M1060.29 231.588L1061.41 232.706L1060.29 231.588Z" fill="#9A9C9E"/>
<path d="M1131.45 231.96L1132.2 232.334L1131.45 231.96Z" fill="#ABADAF"/>
<path d="M346.863 233.079L347.608 233.452L346.863 233.079Z" fill="#ADAFB1"/>
<path d="M388.589 232.706L389.706 233.824L388.589 232.706Z" fill="#B6B8BA"/>
<path d="M417.647 232.706V240.529H418.765L417.647 232.706Z" fill="#7D7E81"/>
<path d="M472.412 232.706L473.53 233.824L472.412 232.706Z" fill="#9C9EA1"/>
<path d="M557.353 232.706L558.471 233.824L557.353 232.706Z" fill="#919395"/>
<path d="M702.647 232.706L703.765 233.824L702.647 232.706Z" fill="#AEB0B2"/>
<path d="M752.941 232.706L754.059 233.824L752.941 232.706Z" fill="#9B9DA0"/>
<path d="M854.648 232.706L855.765 233.824L854.648 232.706Z" fill="#7E8082"/>
<path d="M925.432 233.451L925.805 234.195L925.432 233.451Z" fill="#727476"/>
<path d="M1062.53 232.706L1063.65 233.824L1062.53 232.706Z" fill="#A0A3A5"/>
<path d="M1128.1 233.079L1128.84 233.452L1128.1 233.079Z" fill="#C9CACC"/>
<path d="M469.059 233.824L470.177 234.941L469.059 233.824Z" fill="#8F9193"/>
<path d="M559.589 233.824L560.706 234.941L559.589 233.824Z" fill="#ADAFB1"/>
<path d="M618.451 234.196L619.196 234.57L618.451 234.196Z" fill="#C3C5C7"/>
<path d="M706 233.824L707.118 234.941L706 233.824Z" fill="#87898C"/>
<path d="M749.216 234.196L749.961 234.57L749.216 234.196Z" fill="#96989B"/>
<path d="M850.922 234.196L851.667 234.57L850.922 234.196Z" fill="#A1A3A6"/>
<path d="M972.001 233.824V234.941H979.824L972.001 233.824Z" fill="#646567"/>
<path d="M979.824 233.824V234.941H985.412L979.824 233.824Z" fill="#BCBEC0"/>
<path d="M1123.63 234.196L1124.37 234.57L1123.63 234.196Z" fill="#BBBDC0"/>
<path d="M165.804 235.313L166.549 235.687L165.804 235.313Z" fill="#869BBE"/>
<path d="M187.04 235.313L187.784 235.687L187.04 235.313Z" fill="#BDC7DC"/>
<path d="M288.746 235.313L289.49 235.687L288.746 235.313Z" fill="#7D95BA"/>
<path d="M612.864 235.313L613.608 235.687L612.864 235.313Z" fill="#A0A2A4"/>
<path d="M744.746 235.313L745.49 235.687L744.746 235.313Z" fill="#A4A6A8"/>
<path d="M826.334 235.313L827.078 235.687L826.334 235.313Z" fill="#949699"/>
<path d="M828.569 235.313L829.314 235.687L828.569 235.313Z" fill="#656669"/>
<path d="M845.706 234.941V236.059H849.059L845.706 234.941Z" fill="#BABCBE"/>
<path d="M937.354 234.941L944.059 237.176V236.059L937.354 234.941Z" fill="#828487"/>
<path d="M956.354 234.941V236.059H965.295L956.354 234.941Z" fill="#8A8C8F"/>
<path d="M1068.12 234.941L1069.24 236.059L1068.12 234.941Z" fill="#7F8184"/>
<path d="M1117.3 234.941V236.059H1120.65L1117.3 234.941Z" fill="#989A9D"/>
<path d="M52.1765 236.059V237.177H62.2353L52.1765 236.059Z" fill="#92BEE6"/>
<path d="M169.529 236.059V237.177H174L169.529 236.059Z" fill="#899EC0"/>
<path d="M174 236.059V237.177H182.941L174 236.059Z" fill="#6A87AF"/>
<path d="M292.471 236.059V237.177H304.765L292.471 236.059Z" fill="#8098BC"/>
<path d="M461.981 236.431L462.726 236.804L461.981 236.431Z" fill="#C0C2C4"/>
<path d="M565.922 236.431L566.667 236.804L565.922 236.431Z" fill="#848688"/>
<path d="M605.412 236.059V237.177H608.765L605.412 236.059Z" fill="#858789"/>
<path d="M713.452 236.431L714.196 236.804L713.452 236.431Z" fill="#747678"/>
<path d="M738.412 236.059V237.177H741.765L738.412 236.059Z" fill="#8D8F92"/>
<path d="M833.412 236.059V237.177H841.236L833.412 236.059Z" fill="#C7C9CB"/>
<path d="M883.706 236.059V237.177H917.236L883.706 236.059Z" fill="#949699"/>
<path d="M917.236 236.059V237.177H926.177L917.236 236.059Z" fill="#C7C9CB"/>
<path d="M944.059 236.059V237.177H949.648L944.059 236.059Z" fill="#D6D7D9"/>
<path d="M1071.1 236.431L1071.84 236.804L1071.1 236.431Z" fill="#8A8C8F"/>
<path d="M1110.59 236.059V237.177H1113.94L1110.59 236.059Z" fill="#808284"/>
<path d="M457.51 237.549L458.255 237.922L457.51 237.549Z" fill="#BABCBE"/>
<path d="M569.648 237.176V238.294H573L569.648 237.176Z" fill="#949698"/>
<path d="M595.354 237.176V238.294H598.706L595.354 237.176Z" fill="#6D6E71"/>
<path d="M598.706 237.176V238.294H602.059L598.706 237.176Z" fill="#AAACAE"/>
<path d="M717.922 237.549L718.667 237.922L717.922 237.549Z" fill="#828386"/>
<path d="M732.824 237.176V238.294H736.177L732.824 237.176Z" fill="#909295"/>
<path d="M1075.57 237.549L1076.31 237.922L1075.57 237.549Z" fill="#9A9C9E"/>
<path d="M1100.53 237.176V238.294H1103.88L1100.53 237.176Z" fill="#6A6B6D"/>
<path d="M1103.88 237.176V238.294H1107.24L1103.88 237.176Z" fill="#A6A8AA"/>
<path d="M451.177 238.295V239.413H454.53L451.177 238.295Z" fill="#9DA0A2"/>
<path d="M579.706 238.295V239.413H587.53L579.706 238.295Z" fill="#C7C9CB"/>
<path d="M723.883 238.295V239.413H729.471L723.883 238.295Z" fill="#D5D6D8"/>
<path d="M1081.53 238.295V239.413H1096.06L1081.53 238.295Z" fill="#C7C9CB"/>
<path d="M444.471 239.412V240.529H447.824L444.471 239.412Z" fill="#8A8C8F"/>
<path d="M439.628 240.902L440.372 241.275L439.628 240.902Z" fill="#9B9DA0"/>
<path d="M432.177 241.646V242.764H435.53L432.177 241.646Z" fill="#919396"/>
<path d="M425.471 242.765V243.883H428.824L425.471 242.765Z" fill="#8F9193"/>
<path d="M418.765 243.882V244.999H422.118L418.765 243.882Z" fill="#8B8D8F"/>
</svg>
