<?xml version="1.0" encoding="UTF-8"?>
<svg id="_圖層_1" data-name="圖層 1" xmlns="http://www.w3.org/2000/svg" viewBox="0 0 200 76">
  <defs>
    <style>
      .cls-1 {
        fill: #5bb431;
      }

      .cls-2 {
        fill: #007f41;
      }
    </style>
  </defs>
  <g>
    <g>
      <polygon class="cls-2" points="74.14 34.58 74.14 34.58 74.17 34.56 60.79 34.56 62.39 36.16 43.22 55.33 22.31 34.42 17.22 39.52 43.2 65.5 43.22 65.49 43.23 65.5 74.14 34.58"/>
      <polygon class="cls-2" points="92.71 46.26 87.62 41.17 73.45 55.33 65.12 47.01 60.03 52.1 73.43 65.5 73.45 65.48 73.47 65.5 92.71 46.26"/>
    </g>
    <g>
      <polygon class="cls-1" points="70.6 10.85 70.26 10.5 70.25 10.51 70.23 10.5 43.24 37.49 43.24 37.49 39.3 41.42 52.68 41.42 51.09 39.83 70.25 20.67 93.73 44.15 94.07 44.5 99.17 39.41 70.6 10.85"/>
      <polygon class="cls-1" points="49.06 28.15 54.16 23.06 44.62 13.53 44.62 13.53 41.99 10.89 15.3 37.58 20.39 42.67 41.99 21.08 49.06 28.15"/>
    </g>
  </g>
  <g>
    <g>
      <g>
        <path class="cls-2" d="M116.94,42.82h-.58c-.05-.39-.24-.59-.56-.59-.2,0-.36.05-.46.15-.11.1-.16.25-.16.44,0,.15.06.28.17.41l1.24,1.39c.23.26.34.53.34.82v.3c0,.32-.11.59-.34.82-.23.23-.5.34-.82.34h-.58c-.39,0-.68-.09-.88-.29-.2-.2-.29-.49-.29-.88h.59s0,.07,0,.1c0,.15.06.27.18.36.12.08.26.12.4.12.21,0,.36-.05.45-.15.09-.1.14-.24.14-.44,0-.15-.06-.29-.17-.41l-1.24-1.39c-.23-.25-.35-.53-.35-.82v-.3c0-.32.12-.59.35-.82.23-.23.5-.34.82-.34h.58c.73,0,1.12.39,1.17,1.16Z"/>
        <path class="cls-2" d="M118.39,41.65h1.17v1.16h.59v.59h-.59v2.34c0,.18.06.33.19.43.12.1.24.15.34.15h.06v.58h-.59c-.32,0-.6-.11-.82-.34-.23-.23-.34-.5-.34-.82v-2.34h-.59v-.59h.59v-1.16Z"/>
        <path class="cls-2" d="M122.16,46.91h-1.17v-4.09h1.17v1.17c.04-.39.17-.68.36-.88.19-.2.47-.3.81-.3h.58v1.17h-1.17c-.16,0-.3.06-.42.17-.11.12-.17.25-.17.41v2.34Z"/>
        <path class="cls-2" d="M125.35,42.82h1.17c.32,0,.59.12.82.35.23.23.34.51.34.83v1.75c0,.32-.11.59-.34.82-.23.23-.5.34-.82.34h-1.17c-.32,0-.59-.11-.82-.34-.23-.23-.34-.5-.34-.82v-1.75c0-.32.11-.6.34-.83.23-.23.51-.34.82-.34ZM125.35,43.99v1.75c0,.15.06.29.17.41.11.11.25.17.41.17s.3-.06.42-.17c.11-.12.17-.25.17-.41v-1.75c0-.16-.06-.3-.17-.42-.12-.11-.25-.17-.41-.17s-.3.06-.41.17c-.12.12-.17.26-.17.42Z"/>
        <path class="cls-2" d="M128.54,46.91v-4.09h1.17v.59c.02-.19.08-.35.18-.44.1-.1.23-.15.4-.15h.59c.32,0,.59.12.82.35.23.23.34.51.34.83v2.92h-1.17v-2.92c0-.16-.06-.3-.18-.42-.11-.11-.25-.17-.41-.17s-.3.06-.41.17c-.12.12-.17.26-.17.42v2.92h-1.17Z"/>
        <path class="cls-2" d="M136.4,42.82v4.68c0,.32-.11.59-.35.82-.23.23-.5.35-.82.35h-1.17c-.69,0-1.08-.39-1.17-1.17h.59c.03.39.22.58.58.58h.58c.16,0,.3-.06.41-.17.12-.11.18-.25.18-.41v-1.17c-.04.39-.24.58-.59.58h-.58c-.32,0-.59-.11-.82-.34-.23-.23-.35-.5-.35-.82v-1.75c0-.32.11-.6.35-.83.23-.23.5-.34.82-.34h2.34ZM135.24,43.4h-.59c-.16,0-.3.06-.41.17-.12.12-.17.26-.17.42v1.75c0,.15.06.29.17.41.11.11.25.17.41.17s.3-.06.42-.17c.11-.12.17-.25.17-.41v-2.34Z"/>
        <path class="cls-2" d="M142.39,44.57v-.58c0-.16-.06-.3-.18-.42-.11-.11-.25-.17-.41-.17h-.59c-.34,0-.54.19-.58.59h-.59c.09-.78.48-1.17,1.17-1.17h1.17c.32,0,.6.12.82.35.23.23.34.51.34.83v2.92h-1.17v-.58c-.04.39-.24.58-.59.58h-.59c-.32,0-.59-.11-.82-.34-.23-.23-.34-.5-.34-.82h0c0-.33.11-.6.34-.83.23-.23.51-.34.82-.34h1.17ZM142.39,45.16h-.59c-.16,0-.3.06-.41.17-.12.12-.17.25-.17.41h0c0,.16.06.3.17.41.11.11.25.17.41.17s.3-.06.41-.17c.11-.12.17-.25.17-.41v-.59Z"/>
        <path class="cls-2" d="M144.4,46.91v-4.09h1.17v.59c.02-.19.08-.35.18-.44.1-.1.23-.15.4-.15h.59c.32,0,.59.12.82.35.23.23.34.51.34.83v2.92h-1.16v-2.92c0-.16-.06-.3-.18-.42-.12-.11-.25-.17-.41-.17s-.3.06-.41.17c-.12.12-.17.26-.17.42v2.92h-1.17Z"/>
        <path class="cls-2" d="M152.27,46.91h-1.17v-.58c-.05.39-.24.58-.59.58h-.59c-.32,0-.6-.11-.82-.34-.23-.23-.35-.5-.35-.82v-1.75c0-.32.12-.6.35-.83.23-.23.5-.34.82-.34h1.17v-1.16h1.17v5.26ZM151.1,43.4h-.59c-.16,0-.3.06-.42.17-.11.12-.17.26-.17.42v1.75c0,.15.06.29.17.41.11.11.25.17.42.17s.3-.06.41-.17c.11-.12.17-.25.17-.41v-2.34Z"/>
        <path class="cls-2" d="M155.91,41.65h1.17v4.67h.58c.17,0,.3-.06.42-.17.11-.12.17-.25.17-.41v-4.09h1.17v4.67h.59c.16,0,.3-.06.41-.17.12-.12.17-.25.17-.41v-4.09h1.17v3.26c0,.54-.2,1.01-.59,1.41-.39.39-.86.59-1.41.59h-1.51v-.18c-.23.13-.5.18-.83.18h-1.51v-5.26Z"/>
        <path class="cls-2" d="M162.61,42.24v-.58h1.17v.58h-1.17ZM162.61,46.91v-4.09h1.17v4.09h-1.17Z"/>
        <path class="cls-2" d="M167.55,43.99h-.58c-.05-.39-.24-.59-.56-.59-.2,0-.36.05-.46.12-.1.08-.16.2-.16.36,0,.17.29.41.85.7.46.25.73.46.8.62.07.16.11.34.11.52,0,.33-.12.6-.34.83-.23.23-.5.34-.82.34h-.58c-.78,0-1.17-.39-1.17-1.16h.58c.05.39.23.58.55.58.21,0,.36-.04.47-.12.11-.08.16-.2.16-.36,0-.17-.28-.4-.85-.71-.46-.25-.73-.45-.8-.62-.07-.17-.1-.34-.1-.52,0-.33.11-.61.35-.84.23-.23.5-.34.82-.34h.58c.73,0,1.12.39,1.17,1.17Z"/>
        <path class="cls-2" d="M171.92,45.16h-2.34v.59c0,.15.06.29.17.41.11.11.25.17.41.17h.59c.39,0,.58-.19.58-.58h.59c-.09.78-.48,1.16-1.17,1.16h-1.17c-.32,0-.59-.11-.82-.34-.23-.23-.35-.5-.35-.82v-1.75c0-.32.12-.6.35-.83.23-.23.5-.34.82-.34h1.17c.32,0,.59.12.82.35.23.23.34.51.34.83v1.17ZM169.58,44.57h1.17v-.58c0-.16-.06-.3-.18-.42-.12-.11-.25-.17-.41-.17s-.3.06-.41.17c-.12.12-.17.26-.17.42v.58Z"/>
      </g>
      <g>
        <path class="cls-2" d="M101.24,57.02v-5.26h.27l2.5,2.49,2.5-2.49h.59v5.26h-1.17v-3.21l-2.05,2.05-2.03-2.05v3.21h-.59Z"/>
        <path class="cls-2" d="M110.28,54.68v-.58c0-.16-.06-.3-.17-.42-.11-.11-.25-.17-.41-.17h-.59c-.34,0-.54.19-.58.59h-.59c.09-.78.48-1.17,1.17-1.17h1.17c.32,0,.6.12.82.35.23.23.34.51.34.83v2.92h-1.17v-.58c-.04.39-.24.58-.58.58h-.59c-.32,0-.59-.11-.82-.34-.23-.23-.35-.5-.35-.82h0c0-.33.12-.6.35-.83.23-.23.51-.34.82-.34h1.17ZM110.28,55.27h-.58c-.16,0-.3.06-.41.17-.12.12-.17.25-.17.41h0c0,.16.06.3.17.41.11.11.25.17.41.17s.3-.06.41-.17c.11-.12.17-.25.17-.41v-.59Z"/>
        <path class="cls-2" d="M112.89,51.76h1.16v1.16h.59v.59h-.59v2.34c0,.19.06.33.19.43.12.1.24.15.34.15h.06v.58h-.59c-.32,0-.6-.11-.82-.34-.23-.23-.34-.5-.34-.82v-2.34h-.59v-.59h.59v-1.16Z"/>
        <path class="cls-2" d="M118.99,55.27h-2.34v.59c0,.15.06.29.17.41.11.11.25.17.41.17h.59c.39,0,.58-.2.58-.58h.58c-.09.78-.48,1.16-1.16,1.16h-1.17c-.32,0-.59-.11-.82-.34-.23-.23-.34-.5-.34-.82v-1.75c0-.32.11-.6.34-.83.23-.23.5-.35.82-.35h1.17c.32,0,.6.12.82.35.23.23.34.51.34.83v1.16ZM116.65,54.68h1.17v-.58c0-.16-.06-.3-.18-.42-.12-.11-.25-.17-.41-.17s-.3.06-.41.17c-.12.12-.17.25-.17.42v.58Z"/>
        <path class="cls-2" d="M121.02,57.02h-1.17v-4.09h1.17v1.17c.04-.39.16-.68.36-.88.2-.19.47-.29.81-.29h.58v1.17h-1.17c-.16,0-.3.06-.42.17-.11.12-.17.25-.17.41v2.34Z"/>
        <path class="cls-2" d="M123.04,52.35v-.58h1.17v.58h-1.17ZM123.04,57.02v-4.09h1.17v4.09h-1.17Z"/>
        <path class="cls-2" d="M127.4,54.68v-.58c0-.16-.05-.3-.17-.42-.12-.11-.25-.17-.41-.17h-.59c-.35,0-.54.19-.58.59h-.59c.09-.78.48-1.17,1.17-1.17h1.17c.32,0,.59.12.82.35.23.23.34.51.34.83v2.92h-1.17v-.58c-.04.39-.24.58-.58.58h-.59c-.32,0-.59-.11-.82-.34-.23-.23-.35-.5-.35-.82h0c0-.33.12-.6.35-.83.23-.23.5-.34.82-.34h1.17ZM127.4,55.27h-.58c-.16,0-.3.06-.42.17-.11.12-.17.25-.17.41h0c0,.16.06.3.17.41.12.11.25.17.42.17s.3-.06.42-.17c.11-.12.17-.25.17-.41v-.59Z"/>
        <path class="cls-2" d="M129.42,57.02v-5.26h1.17v5.26h-1.17Z"/>
        <path class="cls-2" d="M134.81,57.02v-4.67h-1.16v-.58h3.51v.58h-1.17v4.67h-1.17Z"/>
        <path class="cls-2" d="M140.93,55.27h-2.34v.59c0,.15.06.29.17.41.12.11.25.17.42.17h.59c.39,0,.58-.2.58-.58h.59c-.09.78-.48,1.16-1.17,1.16h-1.17c-.32,0-.6-.11-.82-.34-.23-.23-.35-.5-.35-.82v-1.75c0-.32.12-.6.35-.83.23-.23.5-.35.82-.35h1.17c.32,0,.6.12.82.35.23.23.34.51.34.83v1.16ZM138.59,54.68h1.17v-.58c0-.16-.06-.3-.17-.42-.12-.11-.25-.17-.42-.17s-.3.06-.42.17c-.11.12-.17.25-.17.42v.58Z"/>
        <path class="cls-2" d="M144.7,54.1h-.58c-.05-.39-.24-.59-.59-.59-.16,0-.3.06-.42.17-.11.12-.17.25-.17.42v1.75c0,.15.06.29.17.41.11.11.25.17.42.17.34,0,.54-.2.59-.58h.58c-.05.78-.44,1.16-1.17,1.16h-.59c-.32,0-.59-.11-.82-.34-.23-.23-.34-.5-.34-.82v-1.75c0-.32.11-.6.34-.83.23-.23.5-.35.82-.35h.59c.73,0,1.12.4,1.17,1.17Z"/>
        <path class="cls-2" d="M145.56,57.02v-5.26h1.17v1.75c.02-.19.08-.35.18-.44.1-.1.23-.15.4-.15h.59c.32,0,.6.12.82.35.23.23.34.51.34.83v2.92h-1.17v-2.92c0-.16-.06-.3-.17-.42-.12-.11-.25-.17-.41-.17s-.3.06-.41.17c-.12.12-.17.25-.17.42v2.92h-1.17Z"/>
        <path class="cls-2" d="M156.21,55.85c-.05.78-.44,1.16-1.17,1.16h-1.17c-.32,0-.59-.11-.82-.34-.23-.23-.35-.5-.35-.82v-2.93c0-.31.11-.58.34-.82.22-.23.5-.35.83-.35h1.17c.73,0,1.12.39,1.17,1.16h-.59c-.05-.38-.24-.58-.58-.58h-.59c-.16,0-.3.06-.41.17-.12.11-.17.25-.17.41v2.93c0,.15.06.29.17.41.11.11.25.17.41.17h.59c.35,0,.53-.2.58-.58h.59Z"/>
        <path class="cls-2" d="M158.23,52.93h1.17c.32,0,.59.12.82.35.23.23.34.51.34.83v1.75c0,.32-.12.59-.34.82-.23.23-.5.35-.82.35h-1.17c-.32,0-.59-.11-.82-.34-.23-.23-.35-.5-.35-.82v-1.75c0-.32.12-.6.35-.83.23-.23.5-.35.82-.35ZM158.23,54.1v1.75c0,.15.06.29.17.41.11.11.25.17.42.17s.3-.06.41-.17c.11-.12.17-.25.17-.41v-1.75c0-.16-.06-.3-.18-.42-.12-.11-.25-.17-.41-.17s-.3.06-.42.17c-.11.12-.17.25-.17.42Z"/>
        <path class="cls-2" d="M164.93,57.02h-1.16v-2.92c0-.16-.06-.3-.18-.42-.11-.11-.25-.17-.41-.17s-.3.06-.41.17c-.11.12-.17.25-.17.42v2.92h-1.16v-4.09h1.16v.59c.03-.19.09-.35.18-.44.1-.1.23-.15.4-.15h.59c.39,0,.68.14.87.42.09-.14.21-.24.35-.31.15-.07.33-.11.52-.11h.58c.32,0,.59.12.82.35.23.23.34.51.34.83v2.92h-1.17v-2.92c0-.16-.06-.3-.18-.41-.11-.12-.25-.17-.41-.17s-.3.06-.41.17c-.12.12-.18.25-.18.42v2.92Z"/>
        <path class="cls-2" d="M168.12,52.93h1.17v.59c0-.19.05-.35.15-.44.1-.1.24-.15.44-.15h.59c.32,0,.6.12.82.35.23.23.34.51.34.83v1.75c0,.32-.12.59-.34.82-.23.23-.5.34-.82.34h-1.17v1.17h-1.17v-5.26ZM169.29,56.43h.58c.16,0,.3-.06.41-.17.12-.11.17-.25.17-.41v-1.75c0-.16-.06-.3-.17-.41-.12-.11-.25-.17-.41-.17-.16,0-.3.06-.41.17-.11.12-.17.25-.17.42v2.33Z"/>
        <path class="cls-2" d="M174.82,54.68v-.58c0-.16-.06-.3-.18-.42-.11-.11-.25-.17-.41-.17h-.59c-.35,0-.54.19-.58.59h-.58c.09-.78.48-1.17,1.17-1.17h1.17c.32,0,.59.12.82.35.23.23.34.51.34.83v2.92h-1.16v-.58c-.05.39-.24.58-.59.58h-.59c-.32,0-.6-.11-.83-.34-.23-.23-.34-.5-.34-.82h0c0-.33.11-.6.34-.83.23-.23.51-.34.83-.34h1.17ZM174.82,55.27h-.59c-.16,0-.3.06-.42.17-.11.12-.17.25-.17.41h0c0,.16.06.3.17.41.12.11.25.17.42.17s.3-.06.41-.17c.11-.12.18-.25.18-.41v-.59Z"/>
        <path class="cls-2" d="M176.84,57.02v-4.09h1.16v.59c.02-.19.08-.35.18-.44.1-.1.23-.15.4-.15h.59c.32,0,.59.12.82.35.23.23.34.51.34.83v2.92h-1.16v-2.92c0-.16-.06-.3-.18-.42-.12-.11-.25-.17-.41-.17s-.3.06-.41.17c-.12.12-.18.25-.18.42v2.92h-1.16Z"/>
        <path class="cls-2" d="M181.78,57.61c.03.39.22.58.58.58h.59c.16,0,.29-.06.41-.17.12-.11.17-.25.17-.41v-1.17c-.05.39-.24.58-.58.58h-.59c-.32,0-.6-.11-.82-.34-.23-.23-.35-.5-.35-.82v-2.93h1.17v2.93c0,.15.06.29.17.41.12.11.25.17.42.17s.3-.06.41-.17c.11-.12.17-.25.17-.41v-2.93h1.17v4.68c0,.32-.12.59-.35.82-.23.23-.5.35-.82.35h-1.17c-.69,0-1.08-.39-1.17-1.17h.59Z"/>
      </g>
    </g>
    <g>
      <rect class="cls-2" x="103.73" y="34.99" width="3.74" height="1.49"/>
      <polygon class="cls-2" points="101.24 32.28 103.23 21.06 104.71 21.06 102.73 32.28 101.24 32.28"/>
      <polygon class="cls-2" points="102.87 35 104.6 25.26 106.08 25.26 104.35 35 102.87 35"/>
      <g>
        <path class="cls-2" d="M104.43,22.65h-2.81c0,.82.67,1.49,1.49,1.49h1.06l.26-1.49Z"/>
        <polygon class="cls-2" points="104.97 22.65 104.71 24.14 107.35 24.14 107.35 22.65 104.97 22.65"/>
      </g>
      <polygon class="cls-2" points="113.97 22.65 113.7 21.07 112.21 21.07 112.49 22.65 113.97 22.65"/>
      <g>
        <path class="cls-2" d="M107.7,34.57v-4.91c0-.82-.67-1.49-1.49-1.49v6.4h1.49Z"/>
        <rect class="cls-2" x="106.22" y="34.99" width="1.49" height="1.49"/>
      </g>
      <path class="cls-2" d="M113.98,34.4v-2.4h1.98v-1.49h-1.98v-2.23h1.98v-1.49h-1.98v-2.23h2.27v-1.49h-6.76l.35-2.01h-1.49l-.37,2.17s-.28,1.17.86,1.17h.25v12.08h1.49v-.59h5.96v-1.49h-2.56ZM111.52,34.22c-.64,0-1.17-.52-1.17-1.17s.52-1.17,1.17-1.17,1.17.52,1.17,1.17-.52,1.17-1.17,1.17ZM111.52,30.52c-.64,0-1.17-.52-1.17-1.17s.52-1.17,1.17-1.17,1.17.52,1.17,1.17-.52,1.17-1.17,1.17ZM111.52,26.81c-.64,0-1.17-.52-1.17-1.17s.52-1.17,1.17-1.17,1.17.52,1.17,1.17-.52,1.17-1.17,1.17Z"/>
      <path class="cls-2" d="M102.87,35c-.04.24-.08.49-.07.74.01.2.08.4.23.55.14.13.29.17.46.19h.55l.31-1.47s-1.49,0-1.49,0Z"/>
    </g>
    <g>
      <path class="cls-2" d="M124.68,23.07h6.94v1.49h-6.69c-.14,0-.25-.11-.25-.25v-1.24h0Z"/>
      <polygon class="cls-2" points="124.68 35.24 126.66 24.02 128.15 24.02 126.16 35.24 124.68 35.24"/>
      <polygon class="cls-2" points="132.02 36.26 134 25.04 135.49 25.04 133.51 36.26 132.02 36.26"/>
      <path class="cls-2" d="M129.98,34.07v-8.31h1.24c.14,0,.25.11.25.25v8.06h-1.49Z"/>
      <rect class="cls-2" x="120.72" y="28.03" width="15.4" height="1.49" transform="translate(157.19 -99.64) rotate(90)"/>
      <rect class="cls-2" x="129.05" y="28.03" width="15.4" height="1.49" transform="translate(165.53 -107.98) rotate(90)"/>
      <polygon class="cls-2" points="136.2 34.91 134.88 34.91 136.01 36.48 136.2 34.91"/>
      <g>
        <path class="cls-2" d="M135.58,23.07h-3.47s0,1.49,1.49,1.49h1.98v-1.49Z"/>
        <rect class="cls-2" x="136.79" y="23.07" width="2.26" height="1.49"/>
      </g>
      <path class="cls-2" d="M134.65,34.91s.03,1.57,1.36,1.57v-1.57h-1.36Z"/>
    </g>
    <g>
      <rect class="cls-2" x="151.21" y="23.36" width="10.7" height="1.49"/>
      <polygon class="cls-2" points="147.6 36.48 154.25 21.08 155.99 21.08 149.34 36.48 147.6 36.48"/>
      <path class="cls-2" d="M147.53,23.36s0,1.49,1.49,1.49h5.45v-1.49h-6.94Z"/>
      <path class="cls-2" d="M156.7,25.48s1.08,6.79,5.44,9.92l-.85,1.07s-4.44-2.2-6.08-11h1.48Z"/>
    </g>
    <g>
      <rect class="cls-2" x="172.5" y="21.88" width="5.05" height="1.49"/>
      <path class="cls-2" d="M177.55,26.22h-5.36c-.79,0-1.38-.71-1.25-1.49h6.61v1.49Z"/>
      <rect class="cls-2" x="173.38" y="32.24" width="7.98" height="1.49"/>
      <rect class="cls-2" x="178.05" y="21.72" width="5.16" height="1.49"/>
      <rect class="cls-2" x="175.19" y="24.65" width="7.23" height="1.49" transform="translate(204.2 -153.41) rotate(90)"/>
      <path class="cls-2" d="M180.56,24.62h7.04v1.49h-7.29v-1.24c0-.14.11-.25.25-.25Z" transform="translate(209.32 -158.59) rotate(90)"/>
      <polygon class="cls-2" points="171.53 21.98 171.69 21.06 173.18 21.06 173.01 21.98 171.53 21.98"/>
      <polygon class="cls-2" points="177.12 29.03 176.67 26.55 175.19 26.55 175.64 29.03 177.12 29.03"/>
      <polygon class="cls-2" points="172.03 29.03 172.98 23.66 174.47 23.66 173.52 29.03 172.03 29.03"/>
      <polygon class="cls-2" points="183.23 31.26 171.93 31.26 171.93 29.77 182.55 29.77 183.23 31.26"/>
      <rect class="cls-2" x="171.93" y="34.99" width="10.17" height="1.49"/>
      <rect class="cls-2" x="169.35" y="32.41" width="6.65" height="1.49" transform="translate(205.83 -139.52) rotate(90)"/>
      <path class="cls-2" d="M180.19,32.38h6.46v1.49h-6.7v-1.24c0-.14.11-.25.25-.25Z" transform="translate(216.42 -150.17) rotate(90)"/>
      <rect class="cls-2" x="178.15" y="27.52" width="4.64" height="1.49"/>
      <path class="cls-2" d="M171.53,21.98s-.38,1.38.8,1.38h.51l.02-1.38h-1.33Z"/>
    </g>
  </g>
</svg>