<?xml version="1.0" encoding="UTF-8"?>
<svg id="_圖層_1" data-name="圖層 1" xmlns="http://www.w3.org/2000/svg" xmlns:xlink="http://www.w3.org/1999/xlink" viewBox="0 0 240 76">
  <defs>
    <style>
      .cls-1 {
        fill: #3d3a39;
      }

      .cls-2 {
        fill: url(#_未命名漸層_17);
      }

      .cls-3 {
        fill: #ec6c00;
      }

      .cls-4 {
        fill: #717071;
      }

      .cls-5 {
        fill: #00b3ec;
      }
    </style>
    <linearGradient id="_未命名漸層_17" data-name="未命名漸層 17" x1="24.88" y1="24.62" x2="57.74" y2="57.49" gradientUnits="userSpaceOnUse">
      <stop offset="0" stop-color="#00b3ec"/>
      <stop offset=".92" stop-color="#005bab"/>
    </linearGradient>
  </defs>
  <g>
    <g>
      <rect class="cls-1" x="89.57" y="21.49" width="3.14" height="12.03"/>
      <path class="cls-1" d="M106.55,22.06c-.17-.17-.37-.31-.58-.41-.21-.1-.41-.15-.61-.15h-10.92v2.89h9.56v6.24h-6.44v-4.42h-3.12v7.31h10.92c.2,0,.4-.05.61-.15.22-.1.41-.24.58-.42.17-.17.31-.37.41-.58.1-.21.15-.42.15-.63v-8.46c0-.22-.05-.42-.15-.63-.1-.22-.24-.41-.42-.58Z"/>
      <path class="cls-1" d="M118.89,30.63h-6.44v-9.13h-3.12v10.24c0,.21.05.43.15.63.1.22.24.41.42.58.17.17.37.31.58.41.21.1.41.15.61.15h9.16c.2,0,.4-.05.61-.15.22-.1.41-.24.58-.41.17-.17.31-.37.41-.58.1-.21.15-.42.15-.63v-10.24h-3.12v9.13Z"/>
      <path class="cls-1" d="M136.09,22.06c-.17-.17-.37-.31-.58-.42-.21-.1-.41-.15-.61-.15h-9.16c-.2,0-.4.05-.61.15-.22.1-.41.24-.58.42-.17.17-.31.37-.42.58-.1.21-.15.42-.15.63v8.46c0,.21.05.43.15.63.1.22.24.41.42.58.17.17.37.31.58.41h0c.21.1.41.15.61.15h9.16c.2,0,.4-.05.61-.15.22-.1.41-.24.58-.41.17-.17.31-.37.41-.58.1-.21.15-.42.15-.63v-2.6h-3.12v1.49h-6.44v-6.24h6.44v1.49h3.12v-2.6c0-.21-.05-.42-.15-.63-.1-.22-.24-.41-.41-.58Z"/>
      <rect class="cls-1" x="138.62" y="21.49" width="3.14" height="12.03"/>
      <path class="cls-1" d="M153.73,21.89c-.3-.26-.69-.39-1.2-.39h-1.59c-1.05,0-1.82.54-2.35,1.66l-4.96,10.37h3.47l.99-2.08h7.01l.99,2.08h3.47l-4.96-10.37c-.27-.57-.56-.99-.87-1.27ZM149.32,28.91l2.29-4.31,2.32,4.31h-4.61Z"/>
      <path class="cls-1" d="M212.79,26.21v2.6h5.88c.2,0,.4-.05.61-.15.22-.1.41-.24.58-.41s.31-.37.42-.58c.1-.21.15-.42.15-.63v-3.75c0-.21-.05-.42-.15-.63-.1-.22-.24-.41-.42-.58-.17-.17-.37-.31-.58-.42-.21-.1-.41-.15-.61-.15h-9.06c-.2,0-.4.05-.61.15-.22.1-.41.24-.58.42-.17.17-.31.37-.42.58-.1.21-.15.42-.15.63v8.46c0,.21.05.43.15.63.1.22.24.41.42.58.17.17.37.31.58.41.21.1.41.15.61.15h10.82v-2.89h-9.46v-6.24h6.34v1.82h-4.52Z"/>
      <path class="cls-1" d="M191.37,22.06c-.17-.17-.37-.31-.58-.42-.21-.1-.41-.15-.61-.15h-10.92v2.89h9.56v6.24h-6.44v-4.42h-3.12v7.31h10.92c.2,0,.4-.05.61-.15.22-.1.41-.24.58-.41.17-.17.31-.37.41-.58.1-.21.15-.42.15-.63v-8.46c0-.21-.05-.42-.15-.63-.1-.22-.24-.41-.41-.58Z"/>
      <path class="cls-1" d="M194.7,21.65c-.22.1-.41.24-.58.42-.17.17-.31.37-.42.58-.1.21-.15.42-.15.63v8.46c0,.21.05.43.15.63.1.22.24.41.42.58.17.17.37.31.58.41.21.1.41.15.61.15h9.16c.2,0,.4-.05.61-.15.22-.1.41-.24.58-.41.17-.17.31-.37.41-.58.1-.21.15-.42.15-.63v-3.75c0-.21-.05-.42-.15-.63-.1-.22-.24-.41-.41-.58-.17-.17-.37-.31-.58-.42-.21-.1-.41-.15-.61-.15h-5.04v2.6h3.68v1.82h-6.44v-6.24h9.56v-2.89h-10.92c-.2,0-.4.05-.61.15Z"/>
      <path class="cls-1" d="M74.06,17.83c-.26.12-.49.29-.69.49-.2.2-.37.44-.49.69-.11.23-.17.46-.17.69v13.77h3.47v-12.65h11.29v-3.16h-12.75c-.21,0-.43.06-.66.17Z"/>
      <path class="cls-1" d="M162.99,17.83c-.26.12-.49.29-.69.49-.2.2-.37.44-.49.69-.11.23-.17.46-.17.69v11.72c0,.23.06.46.17.69.12.26.29.49.49.69.2.2.44.37.69.49.23.11.45.17.66.17h12.75v-3.16h-11.29v-9.49h11.29v-3.16h-12.75c-.21,0-.43.06-.66.17Z"/>
      <rect class="cls-5" x="168.36" y="23.83" width="6.32" height="3.49"/>
      <rect class="cls-5" x="78.97" y="24.48" width="6.32" height="3.49"/>
    </g>
    <g>
      <path class="cls-4" d="M73.28,58.86v-5.02h3.39v.59h-2.72v1.55h2.35v.59h-2.35v2.28h-.66Z"/>
      <path class="cls-4" d="M78.61,54.55v-.71h.62v.71h-.62ZM78.61,58.86v-3.63h.62v3.63h-.62Z"/>
      <path class="cls-4" d="M83.68,58.86v-.46c-.23.36-.57.54-1.02.54-.29,0-.56-.08-.8-.24-.24-.16-.43-.38-.56-.67-.13-.29-.2-.62-.2-.99s.06-.69.18-.99c.12-.3.3-.52.54-.68s.51-.24.81-.24c.22,0,.41.05.59.14.17.09.31.21.42.36v-1.8h.61v5.02h-.57ZM81.73,57.05c0,.47.1.81.29,1.04.2.23.43.35.69.35s.5-.11.69-.33c.19-.22.28-.56.28-1.01,0-.5-.1-.86-.29-1.1-.19-.23-.43-.35-.71-.35s-.5.11-.69.34c-.18.22-.27.58-.27,1.06Z"/>
      <path class="cls-4" d="M88.75,58.86v-.53c-.28.41-.67.62-1.15.62-.21,0-.41-.04-.6-.12-.19-.08-.32-.19-.41-.31-.09-.12-.15-.28-.19-.46-.03-.12-.04-.31-.04-.57v-2.25h.62v2.02c0,.32.01.54.04.65.04.16.12.29.25.38.13.09.28.14.47.14s.36-.05.52-.14c.16-.09.28-.22.34-.39.07-.16.1-.4.1-.71v-1.95h.62v3.63h-.55Z"/>
      <path class="cls-4" d="M93.8,57.53l.61.08c-.07.42-.24.74-.51.98-.27.24-.61.35-1,.35-.5,0-.9-.16-1.2-.49-.3-.33-.45-.79-.45-1.4,0-.39.07-.74.2-1.03.13-.29.33-.51.59-.66.27-.15.55-.22.87-.22.39,0,.72.1.97.3.25.2.41.48.48.85l-.6.09c-.06-.24-.16-.43-.3-.55-.15-.12-.32-.19-.53-.19-.31,0-.56.11-.76.33-.19.22-.29.57-.29,1.06s.09.84.28,1.06c.19.22.43.33.73.33.24,0,.44-.07.61-.22.16-.15.26-.38.31-.68Z"/>
      <path class="cls-4" d="M96.09,54.55v-.71h.62v.71h-.62ZM96.09,58.86v-3.63h.62v3.63h-.62Z"/>
      <path class="cls-4" d="M101.17,58.41c-.23.19-.45.33-.66.41-.21.08-.44.12-.68.12-.4,0-.71-.1-.92-.29-.21-.2-.32-.44-.32-.75,0-.18.04-.34.12-.49.08-.15.19-.27.32-.35.13-.09.28-.16.44-.2.12-.03.3-.06.55-.09.5-.06.86-.13,1.1-.21,0-.08,0-.14,0-.16,0-.25-.06-.43-.17-.53-.16-.14-.39-.21-.7-.21-.29,0-.5.05-.64.15-.14.1-.24.28-.31.54l-.6-.08c.05-.26.15-.47.27-.62.13-.16.31-.28.54-.37.24-.09.51-.13.82-.13s.56.04.76.11c.19.07.34.16.43.28.09.11.16.25.19.42.02.1.03.29.03.57v.82c0,.57.01.93.04,1.09.03.15.08.3.16.44h-.64c-.06-.13-.11-.28-.12-.45ZM101.12,57.04c-.22.09-.56.17-1.01.23-.25.04-.43.08-.54.12s-.19.11-.24.2c-.06.09-.09.19-.09.29,0,.16.06.3.19.41.12.11.31.16.55.16s.45-.05.63-.16c.18-.1.32-.25.41-.43.07-.14.1-.34.1-.62v-.23Z"/>
      <path class="cls-4" d="M103.95,58.86v-5.02h3.63v.59h-2.96v1.54h2.78v.59h-2.78v1.71h3.08v.59h-3.74Z"/>
      <path class="cls-4" d="M112.05,58.86v-.46c-.23.36-.57.54-1.02.54-.29,0-.56-.08-.8-.24-.24-.16-.43-.38-.56-.67-.13-.29-.2-.62-.2-.99s.06-.69.18-.99c.12-.3.3-.52.54-.68s.51-.24.81-.24c.22,0,.41.05.59.14.17.09.31.21.42.36v-1.8h.61v5.02h-.57ZM110.1,57.05c0,.47.1.81.29,1.04.2.23.43.35.69.35s.5-.11.69-.33c.19-.22.28-.56.28-1.01,0-.5-.1-.86-.29-1.1-.19-.23-.43-.35-.71-.35s-.5.11-.69.34c-.18.22-.27.58-.27,1.06Z"/>
      <path class="cls-4" d="M114.63,59.16l.6.09c.03.18.09.32.21.4.15.11.36.17.63.17.29,0,.51-.06.66-.17.15-.11.26-.27.32-.48.03-.13.05-.39.04-.79-.27.32-.6.48-1.01.48-.5,0-.89-.18-1.16-.54-.27-.36-.41-.79-.41-1.3,0-.35.06-.67.19-.96.13-.29.31-.52.55-.68.24-.16.52-.24.84-.24.43,0,.78.17,1.06.52v-.44h.57v3.14c0,.57-.06.97-.17,1.2-.12.24-.3.42-.55.56-.25.14-.56.21-.92.21-.43,0-.78-.1-1.05-.29-.27-.2-.4-.49-.39-.88ZM115.14,56.98c0,.48.09.82.28,1.04.19.22.43.33.71.33s.52-.11.71-.33c.19-.22.29-.56.29-1.03s-.1-.78-.3-1.01c-.2-.23-.44-.34-.71-.34s-.51.11-.7.33c-.19.22-.29.55-.29.99Z"/>
      <path class="cls-4" d="M122.29,57.69l.64.08c-.1.37-.29.66-.56.87-.27.21-.62.31-1.04.31-.53,0-.95-.16-1.26-.49-.31-.33-.47-.79-.47-1.38s.16-1.09.47-1.42c.31-.34.72-.51,1.23-.51s.88.17,1.19.5c.31.33.46.8.46,1.4,0,.04,0,.09,0,.16h-2.71c.02.4.14.7.34.92.2.21.46.32.76.32.23,0,.42-.06.58-.18.16-.12.29-.31.38-.57ZM120.26,56.69h2.03c-.03-.31-.11-.53-.23-.69-.2-.24-.45-.36-.76-.36-.28,0-.52.09-.71.28-.19.19-.3.44-.32.76Z"/>
      <path class="cls-4" d="M129.19,58.86v-4.42h-1.65v-.59h3.98v.59h-1.66v4.42h-.66Z"/>
      <path class="cls-4" d="M134.98,57.69l.64.08c-.1.37-.29.66-.56.87-.27.21-.62.31-1.04.31-.53,0-.95-.16-1.26-.49-.31-.33-.47-.79-.47-1.38s.16-1.09.47-1.42c.31-.34.72-.51,1.23-.51s.88.17,1.19.5c.31.33.46.8.46,1.4,0,.04,0,.09,0,.16h-2.71c.02.4.14.7.34.92.2.21.46.32.76.32.23,0,.42-.06.58-.18.16-.12.29-.31.38-.57ZM132.96,56.69h2.03c-.03-.31-.11-.53-.23-.69-.2-.24-.45-.36-.76-.36-.28,0-.52.09-.71.28-.19.19-.3.44-.32.76Z"/>
      <path class="cls-4" d="M139.92,57.53l.61.08c-.07.42-.24.74-.51.98-.27.24-.61.35-1,.35-.5,0-.9-.16-1.2-.49-.3-.33-.45-.79-.45-1.4,0-.39.07-.74.2-1.03.13-.29.33-.51.59-.66.27-.15.55-.22.87-.22.39,0,.72.1.97.3.25.2.41.48.48.85l-.6.09c-.06-.24-.16-.43-.3-.55-.15-.12-.32-.19-.53-.19-.31,0-.56.11-.76.33-.19.22-.29.57-.29,1.06s.09.84.28,1.06.43.33.73.33c.24,0,.44-.07.61-.22.16-.15.26-.38.31-.68Z"/>
      <path class="cls-4" d="M142.21,58.86v-5.02h.62v1.8c.29-.33.65-.5,1.09-.5.27,0,.5.05.7.16.2.11.34.25.43.44.09.19.13.46.13.82v2.3h-.62v-2.3c0-.31-.07-.53-.2-.67-.13-.14-.32-.21-.57-.21-.18,0-.35.05-.52.14-.16.09-.27.22-.34.39-.07.16-.1.39-.1.67v1.99h-.62Z"/>
      <path class="cls-4" d="M147.26,58.86v-3.63h.55v.52c.27-.4.65-.6,1.16-.6.22,0,.42.04.6.12.18.08.32.18.41.31.09.13.15.28.19.45.02.11.03.31.03.6v2.23h-.62v-2.21c0-.25-.02-.44-.07-.56-.05-.12-.13-.22-.26-.3-.12-.07-.27-.11-.43-.11-.26,0-.49.08-.68.25-.19.17-.29.48-.29.95v1.99h-.62Z"/>
      <path class="cls-4" d="M152.09,57.04c0-.67.19-1.17.56-1.5.31-.27.69-.4,1.14-.4.5,0,.91.16,1.23.49.32.33.48.78.48,1.36,0,.47-.07.84-.21,1.1-.14.27-.34.48-.61.62-.27.15-.56.22-.88.22-.51,0-.92-.16-1.23-.49-.31-.33-.47-.8-.47-1.41ZM152.72,57.04c0,.47.1.81.3,1.05.2.23.46.35.77.35s.56-.12.76-.35.3-.59.3-1.06c0-.45-.1-.79-.31-1.02-.2-.23-.46-.35-.76-.35s-.56.12-.77.35c-.2.23-.3.58-.3,1.04Z"/>
      <path class="cls-4" d="M157.36,58.86v-5.02h.62v5.02h-.62Z"/>
      <path class="cls-4" d="M159.86,57.04c0-.67.19-1.17.56-1.5.31-.27.69-.4,1.14-.4.5,0,.91.16,1.23.49.32.33.48.78.48,1.36,0,.47-.07.84-.21,1.1-.14.27-.34.48-.61.62-.27.15-.56.22-.88.22-.51,0-.92-.16-1.23-.49-.31-.33-.47-.8-.47-1.41ZM160.49,57.04c0,.47.1.81.3,1.05.2.23.46.35.77.35s.56-.12.76-.35.3-.59.3-1.06c0-.45-.1-.79-.31-1.02-.2-.23-.46-.35-.76-.35s-.56.12-.77.35c-.2.23-.3.58-.3,1.04Z"/>
      <path class="cls-4" d="M165.03,59.16l.6.09c.03.18.09.32.21.4.15.11.36.17.63.17.29,0,.51-.06.66-.17.15-.11.26-.27.32-.48.03-.13.05-.39.04-.79-.27.32-.6.48-1.01.48-.5,0-.89-.18-1.16-.54-.27-.36-.41-.79-.41-1.3,0-.35.06-.67.19-.96.13-.29.31-.52.55-.68.24-.16.52-.24.84-.24.43,0,.78.17,1.06.52v-.44h.57v3.14c0,.57-.06.97-.17,1.2-.12.24-.3.42-.55.56-.25.14-.56.21-.92.21-.43,0-.78-.1-1.05-.29-.27-.2-.4-.49-.39-.88ZM165.54,56.98c0,.48.09.82.28,1.04.19.22.43.33.71.33s.52-.11.71-.33c.19-.22.29-.56.29-1.03s-.1-.78-.3-1.01c-.2-.23-.44-.34-.71-.34s-.51.11-.7.33c-.19.22-.29.55-.29.99Z"/>
      <path class="cls-4" d="M170.2,54.55v-.71h.62v.71h-.62ZM170.2,58.86v-3.63h.62v3.63h-.62Z"/>
      <path class="cls-4" d="M175.4,57.69l.64.08c-.1.37-.29.66-.56.87-.27.21-.62.31-1.04.31-.53,0-.95-.16-1.26-.49-.31-.33-.47-.79-.47-1.38s.16-1.09.47-1.42c.31-.34.72-.51,1.23-.51s.88.17,1.19.5c.31.33.46.8.46,1.4,0,.04,0,.09,0,.16h-2.71c.02.4.14.7.34.92.2.21.46.32.76.32.23,0,.42-.06.58-.18.16-.12.29-.31.38-.57ZM173.37,56.69h2.03c-.03-.31-.11-.53-.23-.69-.2-.24-.45-.36-.76-.36-.28,0-.52.09-.71.28-.19.19-.3.44-.32.76Z"/>
      <path class="cls-4" d="M177.72,57.78l.61-.1c.03.24.13.43.29.56.16.13.38.2.66.2s.49-.06.63-.17c.14-.11.21-.25.21-.41,0-.14-.06-.25-.18-.33-.08-.05-.29-.12-.63-.21-.45-.11-.76-.21-.94-.3-.17-.08-.31-.2-.4-.35-.09-.15-.14-.31-.14-.49,0-.16.04-.31.11-.45.07-.14.18-.25.3-.34.1-.07.23-.13.39-.18.17-.05.34-.07.53-.07.29,0,.54.04.75.12.22.08.37.19.48.33.1.14.17.33.21.56l-.6.08c-.03-.19-.11-.33-.24-.44-.13-.1-.32-.16-.56-.16-.28,0-.49.05-.61.14s-.18.2-.18.33c0,.08.03.15.08.22.05.07.13.12.24.16.06.02.24.08.54.16.44.12.74.21.91.29.17.07.31.18.41.32.1.14.15.32.15.53s-.06.4-.18.58c-.12.18-.29.32-.52.42-.23.1-.48.15-.77.15-.47,0-.83-.1-1.08-.29-.25-.2-.41-.49-.47-.87Z"/>
      <path class="cls-4" d="M189.39,57.1l.66.17c-.14.55-.39.96-.75,1.25-.36.29-.8.43-1.33.43s-.98-.11-1.32-.33c-.34-.22-.6-.54-.77-.96-.18-.42-.27-.87-.27-1.35,0-.52.1-.98.3-1.37.2-.39.48-.69.85-.89.37-.2.77-.3,1.22-.3.5,0,.92.13,1.27.38.34.26.58.62.72,1.08l-.65.15c-.12-.37-.28-.63-.51-.8-.22-.17-.5-.25-.83-.25-.39,0-.71.09-.97.28-.26.18-.44.43-.55.74-.1.31-.16.63-.16.96,0,.43.06.8.19,1.12.12.32.32.56.58.71s.55.24.85.24c.37,0,.69-.11.94-.32.26-.21.43-.53.52-.95Z"/>
      <path class="cls-4" d="M191.72,57.04c0-.67.19-1.17.56-1.5.31-.27.69-.4,1.14-.4.5,0,.91.16,1.23.49.32.33.48.78.48,1.36,0,.47-.07.84-.21,1.1-.14.27-.34.48-.61.62-.27.15-.56.22-.88.22-.51,0-.92-.16-1.23-.49-.31-.33-.47-.8-.47-1.41ZM192.35,57.04c0,.47.1.81.3,1.05.2.23.46.35.77.35s.56-.12.76-.35.3-.59.3-1.06c0-.45-.1-.79-.31-1.02-.2-.23-.46-.35-.76-.35s-.56.12-.77.35c-.2.23-.3.58-.3,1.04Z"/>
      <path class="cls-4" d="M197.18,58.86v-.7h.7v.7h-.7Z"/>
      <path class="cls-4" d="M200.27,58.86v-.7h.7v.7c0,.26-.05.47-.14.62-.09.16-.24.28-.43.37l-.17-.26c.13-.06.23-.14.29-.25.06-.11.1-.27.1-.48h-.35Z"/>
      <path class="cls-4" d="M206.36,58.86v-5.02h.66v4.42h2.47v.59h-3.13Z"/>
      <path class="cls-4" d="M212.71,58.31l.09.54c-.17.04-.33.05-.47.05-.22,0-.4-.04-.52-.11s-.21-.16-.26-.28c-.05-.12-.08-.36-.08-.73v-2.09h-.45v-.48h.45v-.9l.61-.37v1.27h.62v.48h-.62v2.13c0,.18.01.29.03.34.02.05.06.09.11.12.05.03.12.04.21.04.07,0,.16,0,.27-.02Z"/>
      <path class="cls-4" d="M216.83,58.86v-.46c-.23.36-.57.54-1.02.54-.29,0-.56-.08-.8-.24-.24-.16-.43-.38-.56-.67-.13-.29-.2-.62-.2-.99s.06-.69.18-.99c.12-.3.3-.52.54-.68s.51-.24.81-.24c.22,0,.41.05.59.14.17.09.31.21.42.36v-1.8h.61v5.02h-.57ZM214.88,57.05c0,.47.1.81.29,1.04.2.23.43.35.69.35s.5-.11.69-.33c.19-.22.28-.56.28-1.01,0-.5-.1-.86-.29-1.1-.19-.23-.43-.35-.71-.35s-.5.11-.69.34c-.18.22-.27.58-.27,1.06Z"/>
      <path class="cls-4" d="M219.7,58.86v-.7h.7v.7h-.7Z"/>
    </g>
    <g>
      <path class="cls-4" d="M74.92,42.01v.57c-.33.63-.74,1.23-1.2,1.83h1.35v.49c-.15.84-.32,1.54-.53,2.09.08.06.18.15.27.23.31.31.63.54.95.71.31.13.76.2,1.35.22.54,0,1.16.01,1.86.01.8,0,1.83-.02,3.12-.05l-.16.69h-2.87c-.75,0-1.42,0-2-.03-.68-.02-1.2-.12-1.56-.28-.42-.19-.8-.47-1.13-.85-.08-.08-.17-.11-.25-.11-.25,0-.6.47-1.06,1.41l-.52-.48c.46-.91.91-1.43,1.34-1.57.22-.55.4-1.17.52-1.86h-1.51v-.54c.5-.62.92-1.22,1.27-1.81h-1.51v-.66h2.26ZM75.04,40.89l-.49.49c-.41-.44-.97-.9-1.7-1.38l.49-.46c.67.45,1.23.9,1.7,1.35ZM78.38,45.13c-.08-.21-.18-.39-.27-.54l.61-.1c.1.2.21.42.29.65h2.88v.5h-3.79c-.06.17-.13.33-.19.48h3.39c0,.71-.14,1.16-.39,1.37-.25.19-.71.29-1.37.29-.25,0-.46-.01-.63-.02l-.14-.51c.27.03.51.05.73.05.54,0,.87-.08.96-.23.07-.17.11-.33.11-.51h-2.92c-.06.08-.13.17-.19.24-.33.36-.84.67-1.49.94l-.43-.54c.59-.22,1.03-.46,1.32-.71.23-.22.42-.5.54-.85h-2.04v-.5h2.99ZM77.93,39.85c.07-.19.13-.39.17-.58l.74.1c-.04.17-.1.32-.17.47h2.48v3.01h-2.25l.14.43h2.76v1.34h-.62v-.89h-1.42v.44c0,.09.06.15.2.15h.83v.37h-.97c-.42,0-.62-.15-.62-.43v-.52h-.95c-.1.23-.24.42-.39.58-.23.2-.57.38-1.02.53l-.3-.38c.38-.12.67-.24.87-.39.13-.09.22-.21.3-.35h-1.6v.89h-.62v-1.34h2.89l-.15-.43h-2.06v-3.01h1.76ZM80.5,40.75v-.47h-3.68v.47h3.68ZM80.5,41.59v-.47h-3.68v.47h3.68ZM80.5,41.95h-3.68v.49h3.68v-.49Z"/>
      <path class="cls-4" d="M86.6,44.43l-.24-.81c1.03-1.27,1.77-2.72,2.24-4.35l.7.32c-.25.81-.56,1.56-.92,2.27v7.12h-.74v-5.88c-.31.46-.66.91-1.04,1.33ZM92.48,40.74c-.16-.42-.33-.82-.54-1.21l.72-.2c.22.46.39.88.51,1.27l-.4.15h3.3v.71h-6.81v-.71h3.22ZM95.36,48.96h-.73v-.57h-3.87v.57h-.73v-3.63h5.34v3.63ZM95.17,42.3v.68h-4.95v-.68h4.95ZM95.17,43.78v.69h-4.95v-.69h4.95ZM94.62,47.68v-1.65h-3.87v1.65h3.87Z"/>
      <path class="cls-4" d="M104.04,39.8v.69h-.6v8.52h-.69v-1.99c-.69.28-1.41.52-2.19.71l-.18-.7c.17-.04.35-.07.51-.11v-6.43h-.45v-.69h3.59ZM102.76,42.04v-1.55h-1.16v1.55h1.16ZM102.76,44.26v-1.55h-1.16v1.55h1.16ZM102.76,46.32v-1.39h-1.16v1.8c.4-.11.78-.25,1.16-.41ZM106.86,44.09l-.53.14c-.04-.17-.07-.33-.1-.48-.8.15-1.53.26-2.2.35l-.15-.54c.39-.22.89-.77,1.5-1.67l-1.34.13-.16-.56c.09-.04.18-.13.26-.24.38-.54.71-1.18.99-1.89l.62.24c-.35.75-.7,1.37-1.06,1.85.36-.04.7-.07,1.06-.12.17-.28.35-.58.52-.87l.58.23c-.83,1.38-1.51,2.31-2.03,2.79l1.26-.22c-.08-.3-.17-.59-.25-.85l.51-.17c.2.54.38,1.17.52,1.88ZM104.89,44.61v1.75h.9c.03-.2.05-.41.05-.62v-1.36h.68v1.36c-.02.85-.2,1.53-.53,2.04-.33.48-.89.85-1.64,1.11l-.38-.6c.69-.24,1.18-.55,1.47-.95.06-.12.13-.23.18-.36h-1.38v-2.38h.66ZM110.03,44.12l-.53.14c-.04-.2-.09-.39-.14-.58-.77.1-1.48.2-2.13.27l-.14-.54c.33-.21.76-.75,1.29-1.61l-1.33.13-.16-.54c.09-.04.18-.13.26-.24.31-.51.6-1.1.84-1.77l.62.24c-.31.71-.63,1.28-.92,1.71.33-.02.68-.05,1.03-.09.15-.27.29-.57.46-.87l.58.23c-.74,1.38-1.34,2.29-1.8,2.75.37-.05.78-.12,1.27-.19-.08-.31-.18-.63-.28-.93l.51-.16c.21.6.41,1.29.58,2.06ZM109.6,44.64v2.45h-1.58v1.93h-.69v-4.64h.69v2.08h.92v-1.82h.66Z"/>
      <path class="cls-4" d="M116.3,42.19v-1.55c-.5.07-1.02.14-1.56.19l-.15-.71c1.36-.1,2.57-.32,3.62-.64l.26.71c-.45.13-.92.23-1.42.32v1.67h1.44v.72h-1.44v.51c.59.47,1.19,1,1.8,1.59l-.43.64c-.54-.64-.99-1.14-1.37-1.51v4.78h-.75v-4.89c-.42,1.03-.97,1.96-1.69,2.8l-.32-.84c.89-.9,1.53-1.94,1.93-3.09h-1.63v-.72h1.72ZM123.98,45.77l-1.06.17v2.99h-.76v-2.87l-3.27.53-.1-.73,3.37-.54v-5.91h.76v5.79l.94-.16.12.73ZM121.41,44.04l-.53.53c-.47-.53-1.12-1.1-1.94-1.71l.53-.51c.76.57,1.41,1.12,1.94,1.69ZM121.68,41.56l-.51.52c-.46-.51-1.1-1.06-1.92-1.62l.53-.51c.75.53,1.38,1.07,1.89,1.61Z"/>
      <path class="cls-4" d="M128.65,48.84l-.16-.71c.27.03.53.05.78.05.28,0,.43-.16.43-.47v-2.5c-.42.17-.84.32-1.28.47l-.19-.74c.5-.13.98-.28,1.47-.46v-2.47h-1.27v-.72h1.27v-1.92h.73v1.92h1.11v.72h-1.11v2.17c.39-.19.76-.38,1.13-.59v.73c-.38.21-.75.4-1.13.58v3c0,.63-.3.94-.91.94h-.88ZM134.44,40.88v-1.49h.73v1.49h2.52v.72h-2.52v1.71h2.11v.67c-.37,1.15-.97,2.14-1.82,2.95.69.53,1.54,1,2.53,1.41l-.4.63c-1.05-.46-1.94-.99-2.65-1.58-.82.65-1.81,1.18-2.98,1.6l-.36-.63c1.11-.37,2.05-.85,2.82-1.44-.88-.86-1.46-1.82-1.75-2.9h-.56v-.71h2.31v-1.71h-2.51v-.72h2.51ZM134.93,46.48c.72-.7,1.26-1.52,1.6-2.46h-3.15c.27.92.8,1.74,1.55,2.46Z"/>
      <path class="cls-4" d="M146.08,48.01c0,.6-.29.9-.88.9h-.86l-.18-.67c.29.02.58.04.83.04s.38-.18.38-.52v-2.44c-.53.13-1.1.24-1.7.32-.1,1.34-.39,2.45-.87,3.34l-.57-.51c.5-.96.75-2.18.77-3.65v-5.07h3.07v8.26ZM145.37,42.56v-2.14h-1.66v1.79c.58.08,1.13.2,1.66.35ZM145.37,44.65v-1.43c-.54-.15-1.1-.27-1.66-.37v2.09c.61-.08,1.16-.18,1.66-.29ZM151.1,43.82v.7c-.27.99-.74,1.84-1.39,2.55.61.47,1.34.88,2.22,1.24l-.41.65c-.92-.42-1.7-.88-2.31-1.39-.68.58-1.51,1.04-2.47,1.38l-.42-.64c.92-.33,1.7-.75,2.32-1.27-.72-.73-1.21-1.57-1.47-2.49h-.51v-.73h4.44ZM150.59,39.76v2.28c0,.21.1.32.32.32h.82v.7h-1c-.59,0-.88-.29-.88-.88v-1.72h-1.78v.64c0,1-.38,1.78-1.11,2.32l-.5-.58c.58-.4.87-.95.87-1.67v-1.42h3.27ZM149.14,46.57c.55-.59.97-1.26,1.25-2.02h-2.5c.23.75.65,1.42,1.26,2.02Z"/>
      <path class="cls-4" d="M159.29,39.66c-.27.8-.61,1.54-1.02,2.25v7.06h-.77v-5.9c-.34.46-.72.9-1.13,1.32l-.24-.79c1.13-1.24,1.95-2.66,2.47-4.26l.69.31ZM161.36,39.88c-.4,1.61-1.15,2.96-2.26,4.06l-.48-.63c.99-.98,1.66-2.18,2.01-3.6l.73.17ZM164.31,47.59c-.09.81-.53,1.21-1.33,1.21-.22,0-.59,0-1.11-.03l-.18-.71c.45.02.85.04,1.18.04.42,0,.65-.27.71-.82.07-.33.11-1.37.14-3.1h-2.04v.38c0,1.63-.69,3.08-2.07,4.33l-.63-.53c1.3-1.11,1.95-2.38,1.95-3.8v-.38h-1.06v-.73h4.6c0,2.23-.05,3.61-.16,4.13ZM163.68,39.71c.4,1.52,1.11,2.73,2.13,3.63l-.45.62c-1-.88-1.75-2.06-2.24-3.55h-1.1v-.7h1.65Z"/>
      <path class="cls-4" d="M172.27,48.97l-.56-.5c.63-.67.95-1.52.97-2.56v-2.44c-.59.72-1.26,1.39-2.02,2.01l-.48-.63c1.31-1.05,2.32-2.24,3.05-3.6h-2.77v-.72h3.12c.18-.41.33-.82.46-1.22l.76.08c-.12.4-.25.77-.4,1.14h5.2v.72h-5.52c-.21.42-.44.83-.69,1.22h4.88v5.6c0,.57-.31.85-.92.85h-1.1l-.18-.68c.38.02.73.03,1.06.03.27,0,.42-.16.42-.45v-1.12h-4.23c-.15.9-.5,1.66-1.06,2.27ZM173.39,45.86c0,.06-.01.12-.01.18h4.18v-1.11h-4.17v.93ZM177.55,43.13h-4.17v1.14h4.17v-1.14Z"/>
      <path class="cls-4" d="M187.78,39.78v.6c-.31.94-.69,1.93-1.13,2.95.67.92,1.04,1.76,1.08,2.51,0,.45-.12.77-.32.97-.29.25-.82.38-1.57.38l-.25-.76c.17.02.3.04.41.04.39-.02.65-.07.78-.16.13-.09.2-.25.2-.47,0-.71-.37-1.52-1.1-2.4.49-1.09.88-2.07,1.15-2.95h-1.73v8.48h-.73v-9.19h3.21ZM189.01,47.85c.63-.19,1.26-.42,1.87-.71l.18.7c-.75.32-1.7.64-2.84.94l-.19-.66c.15-.04.23-.13.23-.24v-8.09h4.56v4.48h-3.82v3.58ZM192.1,40.5h-3.09v1.2h3.09v-1.2ZM189.01,43.58h3.09v-1.19h-3.09v1.19ZM193.49,45.21c-.48.57-1.02,1-1.6,1.31.52.71,1.15,1.28,1.89,1.7l-.44.64c-1.36-.8-2.34-2.04-2.96-3.74l.58-.32c.17.43.36.83.58,1.19.51-.28,1-.7,1.47-1.27l.49.49Z"/>
      <path class="cls-4" d="M201.8,40.05c-.75,2.07-1.76,3.66-2.99,4.76l-.6-.51c1.28-1.13,2.24-2.64,2.89-4.53l.7.28ZM206.74,48.63l-.7.31c-.16-.36-.31-.68-.47-.99-1.85.28-3.91.5-6.18.65l-.14-.73c.83-.44,1.87-2.09,3.13-4.96l.74.25c-.89,1.97-1.79,3.53-2.7,4.67,1.7-.1,3.3-.28,4.8-.52-.41-.75-.83-1.44-1.27-2.07l.69-.22c.81,1.13,1.5,2.34,2.08,3.62ZM205.05,39.73c.36,1.85,1.21,3.35,2.56,4.5l-.6.54c-1.28-1.15-2.13-2.6-2.55-4.34h-1.76v-.7h2.34Z"/>
      <path class="cls-4" d="M218.79,41.86v.68h-6.44v-.68h6.44ZM218.13,48.89l-.19-.72,1.47.02c.31,0,.48-.21.48-.63v-7.02h-7.12v-.73h7.87v7.97c0,.74-.36,1.12-1.07,1.12h-1.44ZM217.76,43.83v3.22h-4.62v-3.22h4.62ZM217.03,44.51h-3.16v1.87h3.16v-1.87Z"/>
    </g>
  </g>
  <g>
    <path class="cls-2" d="M39.41,16l-20.05,11.58v23.15l12,6.93c.57.33,1.27-.08,1.27-.74v-21.34c0-.61.49-1.11,1.11-1.11h10.5c.58,0,1.13-.22,1.56-.61l3.15-2.92c.28-.26.1-.73-.29-.73h-18.63c-.91,0-1.65.74-1.65,1.65v19.15l-4.75-2.75v-18.23l15.79-9.12,15.79,9.12v18.23l-15.79,9.12v4.18c0,.33.35.53.64.37l19.41-11.21v-23.15l-20.05-11.58Z"/>
    <rect class="cls-3" x="37.87" y="39.11" width="7.26" height="7.26" rx=".65" ry=".65"/>
  </g>
</svg>