<?xml version="1.0" encoding="UTF-8"?>
<svg id="_圖層_1" data-name="圖層 1" xmlns="http://www.w3.org/2000/svg" viewBox="0 0 240 76">
  <defs>
    <style>
      .cls-1 {
        fill: #8bc56c;
      }

      .cls-2 {
        fill: #227faa;
      }
    </style>
  </defs>
  <g>
    <path class="cls-2" d="M116.16,52.13l3.91-.02c.45,0,.82-.37.82-.82v-5.81c0-.45-.37-.82-.82-.82h-3.91v-2.61h4.91c.45,0,.82-.37.82-.82v-1.18h-17.04c-.45,0-.82.37-.82.82v1.18h5.55v2.63h-3.8c-.45,0-.82.37-.82.82v5.8c0,.45.37.82.82.82h3.8v3.1h-5.28c-.45,0-.82.37-.82.82v1.16h18.09c.45,0,.82-.37.82-.82v-1.16h-6.23v-3.1ZM114.1,55.23h-2.46v-5.01h-4.62v-3.61h4.6v-4.54h2.48v4.5h4.66v3.63h-4.66v5.03Z"/>
    <path class="cls-2" d="M159.03,52.25h5.51c.45,0,.82-.37.82-.82v-6.89c0-.45-.37-.82-.82-.82h-5.51v-1.27h6.97c.45,0,.82-.37.82-.82v-1.16h-7.79v-1.85h-2.12v1.85h-6.87c-.45,0-.82.37-.82.82v1.16h7.69v1.27h-5.34c-.45,0-.82.37-.82.82v6.89c0,.45.37.82.82.82h5.34v1.28h-7.48c-.45,0-.82.37-.82.82v1.14h8.3v2.52h2.12v-2.52h7.67c.45,0,.82-.37.82-.82v-1.14h-8.49v-1.28ZM159.03,45.57h4.23v1.52h-4.23v-1.52ZM159.03,48.88h4.23v1.54h-4.23v-1.54ZM156.91,50.42h-4.13v-1.54h4.13v1.54ZM156.91,47.09h-4.13v-1.52h4.13v1.52Z"/>
    <g>
      <path class="cls-2" d="M178.1,42.9l-.27.59h1.17v4.1h2.06v-4.1h2.5l.27-.59h2.11l-.27.59h1.31v4.1h2.08s0-4.94,0-4.94c0-.45-.37-.82-.82-.82h-7.17v-.74h6.23c.45,0,.82-.37.82-.82v-.85h-15.25c-.45,0-.82.37-.82.82v.85h6.97v.74h-7.03c-.45,0-.82.37-.82.82v4.95h1.83v-4.1h2.73l.27-.59h2.11Z"/>
      <path class="cls-2" d="M172.93,49.16v5.01c0,.45.37.82.82.82h5.2s0,.34,0,.34c0,1.99,1.04,2.34,3.23,2.34h4.73c2.22,0,2.69-.89,2.92-3.39l.05-.51-1.96-.02c-.11,2.11-.34,2.11-1.11,2.11h-4.56c-1.23,0-1.23-.1-1.23-.53v-.35h5.53c.45,0,.82-.37.82-.82v-5c0-.45-.37-.82-.82-.82h-12.79c-.45,0-.82.37-.82.82ZM181.01,50.03h4.27v.82h-4.27v-.82ZM181.01,52.45h4.27v.84h-4.27v-.84ZM178.95,53.29h-3.96v-.84h3.96v.84ZM178.95,50.85h-3.96v-.82h3.96v.82Z"/>
      <path class="cls-2" d="M177.71,46.11c.12-.27-.08-.58-.37-.58h-.42l.92-2.04h-2.11l-1.06,2.35c-.12.27.08.58.37.58h.42l-.86,1.92h2.11l1-2.23Z"/>
      <polygon class="cls-2" points="176.39 49.06 176.71 48.34 174.6 48.34 174.28 49.06 176.39 49.06"/>
      <polygon class="cls-2" points="178.1 42.9 175.99 42.9 175.73 43.49 177.84 43.49 178.1 42.9"/>
      <path class="cls-2" d="M183.57,43.49l-1.06,2.35c-.12.27.08.58.37.58h.42l-.86,1.92h2.11l1-2.23c.12-.27-.08-.58-.37-.58h-.42l.92-2.04h-2.11Z"/>
      <polygon class="cls-2" points="183.84 42.9 183.57 43.49 184.98 43.49 185.68 43.49 185.94 42.9 183.84 42.9"/>
      <polygon class="cls-2" points="182.12 49.06 184.23 49.06 184.55 48.34 182.44 48.34 182.12 49.06"/>
    </g>
    <g>
      <path class="cls-2" d="M136.9,40.97v-1.09h-9.64c-.45,0-.82.37-.82.82v1.09h9.64c.45,0,.82-.37.82-.82Z"/>
      <path class="cls-2" d="M144.36,43.37h-3.64l.03-4.5h-1.22c-.45,0-.82.36-.82.81l-.03,3.69h-1.84c-.45,0-.82.37-.82.82v1.2h2.6c-.15,2.89-.54,6.08-2.01,8.5l-.02-.48-.32.05c-.45.07-.9.15-1.35.23-.8.14-1.61.27-2.38.4v-3.07h3.15c.45,0,.82-.37.82-.82v-1.09h-9.05c-.45,0-.82.37-.82.82v1.09h3.84v3.41l-3.43.52c-.46.07-.77.5-.69.95l.22,1.25.28-.05c2.26-.38,5.3-.91,8.32-1.43-.28.26-1.28.8-1.28.8l1.54,1.5.24-.18c3.9-2.91,4.71-7.55,4.95-12.39h2.49c-.16,5.75-.37,9.69-.86,10.3-.14.18-.23.22-.51.22h-2.66c-.39.52-1.01,1.29-1.75,1.91h5.07c.64-.06,1.16-.24,1.58-.88.75-.95.93-3.68,1.16-12.5v-.23c.02-.46-.35-.84-.81-.84Z"/>
      <path class="cls-2" d="M128.49,48.6l.96-.28-1.7-2.88,1.41-2.79-.98-.17c-.36-.06-.72.12-.88.44l-1.28,2.56,1.52,2.72c.19.33.58.49.94.39Z"/>
      <path class="cls-2" d="M131.35,42.49c-.36-.06-.72.12-.88.44l-1.28,2.56,1.52,2.72c.19.33.58.49.94.39l.96-.28-1.7-2.88,1.41-2.79-.98-.17Z"/>
      <path class="cls-2" d="M135.8,48.32l-1.7-2.88,1.41-2.79-.98-.17c-.36-.06-.72.12-.88.44l-1.28,2.56,1.84,3.29,1.58-.46Z"/>
    </g>
  </g>
  <g>
    <polygon class="cls-2" points="67.02 40.76 70.15 40.76 87.99 18 84.97 18 67.02 40.76"/>
    <polygon class="cls-2" points="71.65 40.76 74.78 40.76 92.61 18 89.49 18 71.65 40.76"/>
    <g>
      <polygon class="cls-2" points="97.28 18 94.16 18 62.61 58 65.73 58 97.28 18"/>
      <polygon class="cls-2" points="85.07 35.24 67.23 58 70.36 58 88.2 35.24 85.07 35.24"/>
      <polygon class="cls-2" points="71.72 58 74.96 58 92.86 35.24 89.74 35.24 71.72 58"/>
    </g>
    <polygon class="cls-1" points="60.59 31.31 72.95 31.31 62.44 18 50.13 18 60.59 31.31"/>
  </g>
  <polygon class="cls-2" points="107.99 23.75 113.33 23.75 108.79 18 103.48 18 107.99 23.75"/>
  <g>
    <path class="cls-2" d="M189.86,18h-4.19v10.82c0,.43-.55.61-.81.26,0,0-7.47-9.54-7.64-9.74-1.49-1.77-4.61-1.77-5.78-.11-.39.55-.63,1.22-.63,1.89,0,0,0,14.12,0,14.12h4.19v-10.82c0-.43.49-.59.74-.25,0,0,7.57,9.57,7.71,9.73,1.49,1.77,4.61,1.77,5.78.11.39-.55.63-1.22.63-1.89,0,0,0-14.12,0-14.12Z"/>
    <rect class="cls-2" x="162.41" y="18" width="4.21" height="17.24"/>
    <polygon class="cls-2" points="119.62 18 110.48 29.5 110.48 35.24 115.77 35.24 115.86 29.5 124.9 18 119.62 18"/>
    <path class="cls-2" d="M117.51,35.24h5.33l9.67-12.24c.44-.53,1.13-.46,1.4.26l2.26,7.27c.2.58-.23,1.19-.84,1.19h-4.38l-2.77,3.52h14.18s-4.9-14.56-4.9-14.56c-.56-1.6-2.07-2.68-3.77-2.68h0c-1.32,0-2.72.26-3.88,1.66l-12.31,15.58Z"/>
    <path class="cls-2" d="M153.74,18v10.1c0,1.72.2,3.57-1.52,3.57h-7.15l1.2,3.58h5.6c6.42,0,6.07-3.49,6.07-5.59v-11.65h-4.2Z"/>
  </g>
</svg>