<svg width="225" height="49" viewBox="0 0 225 49" fill="none" xmlns="http://www.w3.org/2000/svg">
<g clip-path="url(#clip0_214_40277)">
<path d="M137.023 16.1255V30.3101C137.023 31.2037 136.352 31.8738 135.458 31.8738H131.993V17.8008C131.993 16.9073 132.664 16.2372 133.558 16.2372H137.023V16.1255Z" fill="#595757"/>
<path d="M173.122 31.9854H169.658V19.8112H163.287V17.8007C163.287 16.9072 163.958 16.2371 164.852 16.2371H181.281V18.2475C181.281 19.141 180.61 19.8112 179.716 19.8112H174.799V30.4217C174.687 31.2036 174.016 31.9854 173.122 31.9854Z" fill="#595757"/>
<path d="M209.781 16.1253V23.2735L216.71 16.7955C217.157 16.3487 217.828 16.0137 218.61 16.0137H223.528L215.145 23.7203L224.086 31.8737H219.057C218.386 31.8737 217.716 31.6503 217.269 31.0918L209.892 24.167V30.1983C209.892 31.0918 209.222 31.762 208.328 31.762H204.863V17.8007C204.863 16.9072 205.534 16.237 206.428 16.237H209.781V16.1253Z" fill="#595757"/>
<path d="M199.834 25.8422H184.187V23.2734C184.187 22.7149 184.634 22.1565 185.304 22.1565H200.951V24.7253C200.951 25.3955 200.392 25.8422 199.834 25.8422Z" fill="#595757"/>
<path d="M199.834 19.8113H184.187V17.2424C184.187 16.6839 184.634 16.1255 185.304 16.1255H200.951V18.6944C200.951 19.3645 200.392 19.8113 199.834 19.8113Z" fill="#595757"/>
<path d="M199.834 31.8738H184.187V29.3049C184.187 28.7465 184.634 28.188 185.304 28.188H200.951V30.7569C200.951 31.427 200.392 31.8738 199.834 31.8738Z" fill="#595757"/>
<path d="M153.34 16.1255H142.722C141.828 16.1255 141.158 16.7956 141.158 17.6891V31.9855H144.622C145.516 31.9855 146.187 31.3153 146.187 30.4218V19.8113H152.111C154.122 19.8113 155.24 20.5931 155.24 22.1568V25.9542C155.24 27.5179 154.234 28.2997 152.111 28.2997H149.652C148.758 28.2997 148.087 28.9699 148.087 29.8634V31.9855H153.34C158.034 31.9855 160.381 30.5335 160.381 27.6296V20.4814C160.381 17.5775 158.034 16.1255 153.34 16.1255Z" fill="#595757"/>
<path d="M123.164 16.1255H110.87C109.976 16.1255 109.305 16.7956 109.305 17.6891V31.9855H112.77C113.664 31.9855 114.334 31.3153 114.334 30.4218V19.8113H121.376C122.493 19.8113 123.052 20.0346 123.052 21.8217C123.052 23.497 122.493 24.0555 121.487 24.0555H117.911C117.017 24.0555 116.346 24.7256 116.346 25.6191V27.7413H123.276C126.517 27.7413 128.193 26.2893 128.193 23.6087V20.4814C128.081 17.5775 126.405 16.1255 123.164 16.1255Z" fill="#595757"/>
<path d="M80.0229 16.1255H67.7289C66.8348 16.1255 66.1642 16.7956 66.1642 17.6891V31.9855H69.6289C70.523 31.9855 71.1936 31.3153 71.1936 30.4218V19.8113H78.2347C79.3523 19.8113 79.7994 20.1463 79.7994 22.0451C79.7994 23.9438 79.2406 24.0555 78.2347 24.0555H72.0877L78.1229 31.092C78.57 31.6504 79.3523 31.9855 80.1347 31.9855H84.8287L81.1405 27.9646C81.1405 27.9646 82.817 27.853 83.8229 27.0711C84.717 26.2893 84.8287 24.949 84.8287 23.497V20.258C84.8287 17.4658 83.264 16.1255 80.0229 16.1255Z" fill="#595757"/>
<path d="M98.7993 16.1255H95.1111C94.5522 16.1255 93.9934 16.4606 93.6581 17.019L86.5052 31.9855H90.6405C91.1993 31.9855 91.7581 31.6504 91.9817 31.092L96.8993 20.8165L99.2463 25.7308H97.2346C96.564 25.7308 96.0052 26.0659 95.7816 26.6244L94.5522 29.3049H100.923L101.705 30.9803C101.929 31.5387 102.487 31.8738 103.046 31.8738H107.182L100.14 17.019C99.9169 16.5722 99.3581 16.1255 98.7993 16.1255Z" fill="#595757"/>
<path d="M49.8467 17.2422C49.6232 16.6837 49.1762 16.1253 48.6173 15.7902C48.0585 15.4552 47.4997 15.3435 46.9409 15.3435C46.0468 15.3435 45.0409 15.6785 44.2585 16.1253C44.2585 16.1253 44.4821 16.5721 44.3703 17.4656C44.2585 19.6994 42.8056 21.7098 40.9056 22.9384C39.4527 23.9436 37.888 24.6137 36.2116 24.8371C31.9645 25.2839 29.7293 22.3799 30.3998 19.6994C30.7351 18.4708 31.0704 17.5773 32.7469 16.1253L30.9587 16.3487C27.3822 16.9071 23.9175 18.5825 22.9117 22.3799C22.0175 25.5073 22.5764 28.1878 25.594 30.1983C27.3822 31.4268 29.841 31.9853 32.8586 31.9853C35.6527 31.9853 38.6704 31.2035 41.2409 30.0866C43.588 29.0814 45.935 27.5177 47.7232 25.619C49.0644 24.167 50.182 22.1566 50.4056 20.1461C50.4056 19.1409 50.2938 18.1357 49.8467 17.2422Z" fill="#F39700"/>
<path d="M37.8879 14.4502C39.5644 13.6683 41.1291 12.3281 41.5761 10.4293C42.2467 7.41373 41.9114 4.2864 38.782 2.16429C36.7703 0.824011 34.4233 0.37725 31.8527 0.26556C26.5998 0.15387 19.1116 3.05781 15.1999 7.97218C11.2881 12.8865 10.1705 17.4658 7.7117 23.2737C5.69995 27.9647 1.78822 29.5283 0 29.5283C0.223528 30.4219 1.45293 31.2037 2.23528 31.5388C5.81172 32.7673 9.94698 30.4219 12.294 27.853C18.1057 21.2633 18.441 11.2112 27.0468 8.53063C31.1821 7.19035 34.535 8.97739 33.8644 12.3281C33.5291 13.8917 32.635 15.0086 31.1821 16.2372L32.9703 16.0138C34.8703 15.5671 35.5409 15.5671 37.8879 14.4502Z" fill="#4F2D8D"/>
</g>
<defs>
<clipPath id="clip0_214_40277">
<rect width="225" height="48" fill="white" transform="translate(0 0.265381)"/>
</clipPath>
</defs>
</svg>
