<?xml version="1.0" encoding="UTF-8"?>
<svg id="_圖層_1" data-name="圖層 1" xmlns="http://www.w3.org/2000/svg" viewBox="0 0 300 76">
  <defs>
    <style>
      .cls-1 {
        fill: #1e3085;
      }

      .cls-2 {
        fill: #040000;
      }

      .cls-3 {
        fill: #e50012;
      }
    </style>
  </defs>
  <path class="cls-1" d="M75.84,20.59v22.42h5.57v-17.93h11.42v17.82h5.19v-18.53s-.89-3.54-4.45-3.78c-3.57-.23-17.73,0-17.73,0Z"/>
  <path class="cls-1" d="M101.68,20.49v22.42h5.57v-17.93h11.42v17.82h5.19v-18.53s-.89-3.54-4.45-3.78c-3.57-.23-17.73,0-17.73,0Z"/>
  <path class="cls-1" d="M201.97,20.59v22.42h5.57v-17.93h11.42v17.82h5.19v-18.53s-.89-3.54-4.45-3.78c-3.57-.23-17.73,0-17.73,0Z"/>
  <path class="cls-1" d="M227.34,20.59v22.42h5.57v-17.93h11.42v17.82h5.19v-18.53s-.89-3.54-4.45-3.78c-3.57-.23-17.73,0-17.73,0Z"/>
  <path class="cls-1" d="M148.64,24.25c-.12-2.42-3.78-3.89-3.78-3.89,0,0-10.86.12-13.81,0-2.95-.12-4.13,3.8-4.13,3.8v13.92c.59,4.51,4.25,4.69,4.25,4.69h13.1c3.19,0,4.37-3.66,4.37-3.66,0,0,.12-12.45,0-14.87ZM143.45,38.05h-10.97l.24-12.74h10.74v12.74Z"/>
  <path class="cls-1" d="M198.67,24.25c-.12-2.42-3.78-3.89-3.78-3.89,0,0-10.86.12-13.81,0-2.95-.12-4.13,3.8-4.13,3.8v13.92c.59,4.51,4.25,4.69,4.25,4.69h13.1c3.19,0,4.37-3.66,4.37-3.66,0,0,.12-12.45,0-14.87ZM193.48,38.05h-10.97l.24-12.74h10.74v12.74Z"/>
  <path class="cls-1" d="M173.3,25.19v-4.61h-17.23s-4.09,1.33-4.09,4.09v13.64s1.1,4.39,4.39,4.39h17.16v-4.54h-16.05v-12.98h15.81Z"/>
  <rect class="cls-1" x="50.78" y="11" width="7.9" height="32.01"/>
  <rect class="cls-1" x="62.8" y="11" width="8.14" height="7.47"/>
  <rect class="cls-3" x="62.8" y="23.1" width="8.14" height="7.52"/>
  <rect class="cls-1" x="62.8" y="35.49" width="8.14" height="7.52"/>
  <g>
    <path class="cls-2" d="M55.95,53.71l-.85,1.27c-.21-.5-.44-.96-.7-1.4v7.21h-1.55v-6.5c-.37.84-.88,1.7-1.55,2.59l-.83-1.51c1.14-1.4,1.9-2.79,2.29-4.18h-2.09l.02-1.31h2.16v-2.79h1.55v2.79h1.29v1.31h-1.29v.09c.71,1.01,1.23,1.82,1.55,2.43ZM66.8,56.69h-4.7v1.05h4.32v1.21h-4.32v1.86h-1.57v-1.86h-4.14v-1.21h4.14v-1.05h-4.7v-1.19h4.7v-3.8h-4.28v-1.18h10.18v1.18h-4.33v3.8h4.7v1.19ZM60.92,49.43h-1.25v.75h-1.55v-.75h-2.16v-1.18h2.16v-1.16h1.55v1.16h1.25v1.18ZM59.94,54h-.94v1h-1.51v-1h-1.31v-1.16h1.31v-.72h1.51v.72h.94v1.16ZM66.75,49.43h-2.32v.75h-1.59v-.75h-1.13v-1.18h1.13v-1.16h1.59v1.16h2.32v1.18ZM66.8,54h-1.66v1h-1.55v-1h-.9v-1.16h.9v-.72h1.55v.72h1.66v1.16Z"/>
    <path class="cls-2" d="M72.8,55.72c-.62,1.86-1.42,3.62-2.4,5.28l-1.42-.89c1.02-1.74,1.81-3.48,2.38-5.24l1.44.85ZM73.08,53.23l-1.16,1.05c-.7-.71-1.65-1.45-2.85-2.21l1.13-1.07c1.29.85,2.25,1.59,2.88,2.24ZM73.26,49.19l-1.22,1.05c-.69-.69-1.59-1.42-2.71-2.19l1.22-1.02c.79.5,1.7,1.22,2.71,2.16ZM85.25,58.03h-6.15c-.96,1.48-2.81,2.45-5.53,2.91l-.81-1.19c2.23-.38,3.73-.95,4.5-1.72h-4.28v-1.12h4.98c.1-.27.17-.54.21-.79h-4.5v-1.09h4.61c.04-.17.05-.42.05-.76h-4.26v-2.84h4.23v-.66h-2.49v-1.77h-2.44v-1.11h2.42v-.75h1.64v.75h3.4v-.75h1.6v.75h2.59v1.11h-2.59v1.77h-2.59v.66h4.33v2.84h-4.33c0,.35-.01.6-.04.76h4.84v1.09h-4.91c-.04.19-.1.46-.19.79h5.7v1.12ZM78.32,53.21v-.7h-2.66v.7h2.66ZM80.83,49.71v-.7h-3.4v.7h3.4ZM85.55,59.78l-.87,1.18c-1.17-.56-2.88-1.11-5.12-1.64l.74-1.13c1.98.43,3.72.96,5.24,1.6ZM82.61,53.21v-.7h-2.75v.7h2.75Z"/>
    <path class="cls-2" d="M95.18,48.18c-.84.24-1.75.43-2.73.56v2.02h2.32v1.31h-2.32v.44c.97.86,1.79,1.74,2.47,2.66l-1.14,1.03c-.44-.74-.88-1.38-1.32-1.9v6.47h-1.6v-6.19c-.86,1.42-1.69,2.46-2.5,3.12l-.94-1.24c1.29-1.1,2.4-2.56,3.34-4.38h-3.16v-1.31h3.25v-1.8c-.78.1-1.6.18-2.46.22l-.69-1.27c2.35-.1,4.58-.4,6.69-.91l.79,1.18ZM103.67,56.82l-1.71.22v3.75h-1.63v-3.57l-5.55.63-.14-1.37,5.69-.66v-8.66h1.63v8.48l1.66-.18.05,1.36ZM99.52,54.04l-1.11,1.05c-.77-.84-1.93-1.74-3.45-2.69l1.07-1.02c1.49.93,2.65,1.82,3.49,2.66ZM99.78,50.26l-1.11,1.02c-1.03-.99-2.12-1.84-3.26-2.57l1.14-.99c1.23.81,2.31,1.65,3.23,2.54Z"/>
    <path class="cls-2" d="M112.01,54.1c-.7.27-1.34.5-1.92.69v4.54c0,.45-.13.79-.39,1.04s-.69.37-1.3.38c-.61,0-1.13,0-1.57-.01l-.51-1.36c.65.02,1.21.03,1.68.03.11,0,.22-.04.33-.13.11-.09.16-.19.16-.3v-3.66c-.68.2-1.38.38-2.11.54l-.44-1.28c1.15-.3,2-.53,2.55-.72v-2.89h-2.34v-1.33h2.34v-2.54h1.6v2.54h1.69v1.33h-1.69v2.35c.48-.13,1.01-.32,1.59-.57l.33,1.36ZM122.29,59.75l-.95,1.18c-1.74-.65-3.18-1.37-4.32-2.16-1.32.84-2.9,1.56-4.74,2.16l-.91-1.25c1.78-.51,3.27-1.13,4.49-1.85-1.03-.96-1.9-2.3-2.62-4.03h-.63v-1.31h3.66v-2.03h-3.91v-1.31h3.91v-1.99h1.66v1.99h3.87v1.31h-3.87v2.03h3.41v1.31c-.86,1.75-1.89,3.11-3.08,4.06,1.01.71,2.36,1.34,4.03,1.89ZM119.54,53.79h-4.53c.46,1.17,1.16,2.21,2.12,3.13,1-.86,1.81-1.9,2.41-3.13Z"/>
  </g>
  <g>
    <path class="cls-2" d="M127.69,56.43l.95-.13v.36c0,.4.05.77.18,1.1.13.33.34.59.64.77.3.18.65.27,1.06.27.58,0,1.02-.18,1.33-.55.31-.36.46-.78.46-1.25,0-.33-.08-.62-.24-.89-.17-.26-.62-.62-1.35-1.08-.57-.35-.96-.63-1.17-.82-.33-.31-.57-.64-.72-1-.16-.36-.23-.77-.23-1.24,0-.53.1-1.02.31-1.45s.5-.76.9-.99c.39-.23.84-.34,1.34-.34.59,0,1.09.14,1.5.43s.7.66.88,1.14c.18.47.27.92.27,1.35,0,.04,0,.11,0,.21l-.94.11c0-.29-.02-.52-.05-.69-.07-.29-.17-.53-.31-.73s-.33-.36-.57-.48c-.24-.12-.51-.18-.81-.18-.53,0-.94.17-1.23.51-.22.26-.34.61-.34,1.04,0,.26.05.48.14.68.09.2.26.4.5.59.17.14.58.41,1.22.82.52.33.88.59,1.08.78.26.25.47.55.61.91.14.36.21.76.21,1.22,0,.56-.12,1.08-.36,1.56-.24.47-.57.84-.99,1.1s-.91.39-1.45.39c-.82,0-1.49-.26-2.01-.77-.52-.51-.78-1.44-.79-2.77Z"/>
    <path class="cls-2" d="M134.24,56.94c0-1.47.3-2.69.91-3.65.5-.79,1.15-1.19,1.96-1.19.63,0,1.15.28,1.53.85.39.57.58,1.33.58,2.3,0,.87-.12,1.67-.37,2.42-.24.75-.59,1.32-1.04,1.71s-.93.6-1.42.6c-.41,0-.78-.13-1.12-.38s-.59-.61-.77-1.06c-.18-.46-.27-.99-.27-1.59ZM135.14,56.81c0,.71.12,1.25.36,1.61.24.37.54.55.91.55.19,0,.38-.06.57-.17s.36-.28.53-.51c.16-.23.3-.49.41-.78.11-.29.21-.6.28-.94.1-.47.15-.92.15-1.35,0-.68-.12-1.21-.36-1.59-.24-.38-.54-.56-.9-.56-.28,0-.54.1-.77.29-.23.19-.44.47-.63.84-.19.37-.32.8-.41,1.29-.09.49-.13.93-.13,1.31Z"/>
    <path class="cls-2" d="M139.66,59.8l1.52-10.4h.9l-1.52,10.4h-.9Z"/>
    <path class="cls-2" d="M145.57,58.43c-.63,1.02-1.28,1.53-1.94,1.53-.41,0-.73-.17-.98-.5-.25-.33-.37-.74-.37-1.22,0-.32.06-.86.17-1.63l.63-4.35h.9l-.7,4.82c-.06.4-.09.71-.09.94,0,.28.06.5.18.66.12.16.3.24.53.24.25,0,.5-.09.74-.26.24-.17.45-.41.62-.71s.31-.65.42-1.06c.07-.26.16-.72.25-1.37l.48-3.26h.9l-1.1,7.53h-.83l.2-1.36Z"/>
    <path class="cls-2" d="M149.72,58.75l-.15,1.05c-.21.08-.42.12-.62.12-.36,0-.64-.13-.85-.38-.16-.19-.24-.45-.24-.77,0-.17.04-.55.13-1.14l.64-4.38h-.71l.14-.99h.71l.27-1.85,1.03-.89-.4,2.74h.88l-.15.99h-.88l-.61,4.16c-.08.53-.11.85-.11.95,0,.15.03.27.09.35s.16.12.3.12c.2,0,.37-.03.53-.09Z"/>
    <path class="cls-2" d="M150.41,59.8l1.1-7.53h.9l-1.1,7.53h-.9ZM151.72,50.85l.21-1.45h.89l-.21,1.45h-.89Z"/>
    <path class="cls-2" d="M152.86,56.94c0-1.47.3-2.69.91-3.65.5-.79,1.15-1.19,1.96-1.19.63,0,1.15.28,1.53.85.39.57.58,1.33.58,2.3,0,.87-.12,1.67-.37,2.42-.24.75-.59,1.32-1.04,1.71s-.93.6-1.42.6c-.41,0-.78-.13-1.12-.38s-.59-.61-.77-1.06c-.18-.46-.27-.99-.27-1.59ZM153.75,56.81c0,.71.12,1.25.36,1.61.24.37.54.55.91.55.19,0,.38-.06.57-.17s.36-.28.53-.51c.16-.23.3-.49.41-.78.11-.29.21-.6.28-.94.1-.47.15-.92.15-1.35,0-.68-.12-1.21-.36-1.59-.24-.38-.54-.56-.9-.56-.28,0-.54.1-.77.29-.23.19-.44.47-.63.84-.19.37-.32.8-.41,1.29-.09.49-.13.93-.13,1.31Z"/>
    <path class="cls-2" d="M158.34,59.8l1.1-7.53h.81l-.19,1.31c.35-.52.68-.89.99-1.13.31-.24.62-.35.94-.35.43,0,.76.17,1,.5s.36.77.36,1.33c0,.28-.04.72-.13,1.32l-.67,4.56h-.9l.7-4.77c.07-.46.1-.81.1-1.03,0-.25-.06-.45-.18-.61-.12-.16-.29-.23-.52-.23-.46,0-.87.24-1.23.71s-.62,1.28-.79,2.43l-.51,3.5h-.9Z"/>
    <path class="cls-2" d="M164.07,57.22l.9-.08c0,.37.04.68.12.94s.23.47.44.64c.21.17.46.25.75.25.4,0,.69-.11.89-.34.2-.23.3-.49.3-.8,0-.22-.06-.43-.18-.63-.12-.2-.42-.44-.89-.73s-.78-.5-.91-.61c-.22-.19-.39-.42-.5-.68s-.17-.56-.17-.9c0-.6.17-1.11.5-1.53.33-.43.79-.64,1.39-.64.66,0,1.16.22,1.51.66.35.44.52,1.01.54,1.73l-.88.09c-.01-.45-.13-.81-.34-1.08s-.51-.4-.9-.4c-.31,0-.55.1-.72.3-.17.2-.26.42-.26.66s.07.44.22.62c.1.12.36.31.77.57.69.43,1.12.76,1.3,1.01.28.39.43.87.43,1.43,0,.37-.08.74-.24,1.1s-.4.65-.73.86c-.33.22-.72.32-1.16.32-.61,0-1.12-.22-1.55-.65-.43-.43-.63-1.13-.6-2.1Z"/>
    <path class="cls-2" d="M172,59.8l1.52-10.4h4.72l-.17,1.18h-3.75l-.48,3.31h3.82l-.17,1.18h-3.82l-.69,4.72h-.97Z"/>
    <path class="cls-2" d="M178.24,56.94c0-1.47.3-2.69.91-3.65.5-.79,1.15-1.19,1.96-1.19.63,0,1.15.28,1.53.85.39.57.58,1.33.58,2.3,0,.87-.12,1.67-.37,2.42-.24.75-.59,1.32-1.04,1.71s-.93.6-1.42.6c-.41,0-.78-.13-1.12-.38s-.59-.61-.77-1.06c-.18-.46-.27-.99-.27-1.59ZM179.13,56.81c0,.71.12,1.25.36,1.61.24.37.54.55.91.55.19,0,.38-.06.57-.17s.36-.28.53-.51c.16-.23.3-.49.41-.78.11-.29.21-.6.28-.94.1-.47.15-.92.15-1.35,0-.68-.12-1.21-.36-1.59-.24-.38-.54-.56-.9-.56-.28,0-.54.1-.77.29-.23.19-.44.47-.63.84-.19.37-.32.8-.41,1.29-.09.49-.13.93-.13,1.31Z"/>
    <path class="cls-2" d="M183.72,59.8l1.1-7.53h.79l-.22,1.54c.27-.58.54-1.01.8-1.29s.52-.42.8-.42c.18,0,.4.09.66.28l-.37,1.19c-.16-.16-.33-.24-.51-.24-.31,0-.64.25-.97.75-.33.5-.59,1.4-.78,2.7l-.45,3.02h-.85Z"/>
    <path class="cls-2" d="M190.29,56.43l.95-.13v.36c0,.4.05.77.18,1.1.13.33.34.59.64.77.3.18.65.27,1.06.27.58,0,1.02-.18,1.33-.55.31-.36.46-.78.46-1.25,0-.33-.08-.62-.24-.89-.17-.26-.62-.62-1.35-1.08-.57-.35-.96-.63-1.17-.82-.33-.31-.57-.64-.72-1-.16-.36-.23-.77-.23-1.24,0-.53.1-1.02.31-1.45s.5-.76.9-.99c.39-.23.84-.34,1.34-.34.59,0,1.09.14,1.5.43s.7.66.88,1.14c.18.47.27.92.27,1.35,0,.04,0,.11,0,.21l-.94.11c0-.29-.02-.52-.05-.69-.07-.29-.17-.53-.31-.73s-.33-.36-.57-.48c-.24-.12-.51-.18-.81-.18-.53,0-.94.17-1.23.51-.22.26-.34.61-.34,1.04,0,.26.05.48.14.68.09.2.26.4.5.59.17.14.58.41,1.22.82.52.33.88.59,1.08.78.26.25.47.55.61.91.14.36.21.76.21,1.22,0,.56-.12,1.08-.36,1.56-.24.47-.57.84-.99,1.1s-.91.39-1.45.39c-.82,0-1.49-.26-2.01-.77-.52-.51-.78-1.44-.79-2.77Z"/>
    <path class="cls-2" d="M196.68,59.8l1.1-7.53h.9l-.18,1.24c.33-.53.63-.9.89-1.11s.55-.3.85-.3c.33,0,.6.12.82.37.22.25.36.59.43,1.04.27-.47.55-.83.84-1.06.3-.23.61-.35.93-.35.44,0,.77.15.99.45.22.3.33.72.33,1.26,0,.23-.04.61-.11,1.15l-.71,4.85h-.9l.72-4.98c.06-.41.09-.7.09-.87,0-.25-.05-.44-.16-.58-.11-.14-.26-.21-.46-.21-.27,0-.54.12-.82.35-.28.23-.49.54-.65.91-.15.38-.29.95-.4,1.73l-.54,3.65h-.9l.74-5.09c.05-.35.08-.59.08-.74,0-.25-.05-.44-.16-.6-.11-.15-.25-.23-.42-.23-.25,0-.52.12-.8.35-.28.23-.51.55-.68.97-.18.41-.32,1-.43,1.77l-.52,3.56h-.9Z"/>
    <path class="cls-2" d="M208.69,58.86c-.31.38-.61.66-.9.84s-.59.27-.92.27c-.49,0-.88-.2-1.17-.61-.3-.41-.45-.93-.45-1.57,0-.42.07-.79.2-1.12s.31-.58.53-.78c.22-.2.49-.34.81-.42.2-.06.58-.1,1.15-.13s.97-.12,1.21-.26c.07-.35.1-.64.1-.87,0-.3-.08-.53-.23-.7-.21-.24-.51-.35-.91-.35-.38,0-.68.12-.92.36-.24.24-.41.58-.52,1.02l-.91-.11c.18-.75.48-1.32.88-1.72.4-.4.91-.6,1.52-.6.65,0,1.17.22,1.55.67.29.33.44.76.44,1.29,0,.4-.04.87-.12,1.4l-.29,1.87c-.09.6-.14,1.08-.14,1.45,0,.24.04.58.11,1.02h-.91c-.05-.25-.08-.56-.1-.94ZM209.02,55.98c-.13.07-.26.13-.4.16-.14.04-.38.08-.72.12-.52.07-.89.15-1.1.25-.21.1-.38.26-.49.49-.11.22-.16.47-.16.74,0,.36.09.65.26.89.17.23.42.35.74.35.3,0,.58-.11.86-.34s.49-.54.65-.94c.16-.4.28-.97.37-1.72Z"/>
    <path class="cls-2" d="M210.78,59.8l1.1-7.53h.79l-.22,1.54c.27-.58.54-1.01.8-1.29s.52-.42.8-.42c.18,0,.4.09.66.28l-.37,1.19c-.16-.16-.33-.24-.51-.24-.31,0-.64.25-.97.75-.33.5-.59,1.4-.78,2.7l-.45,3.02h-.85Z"/>
    <path class="cls-2" d="M216.26,58.75l-.15,1.05c-.21.08-.42.12-.62.12-.36,0-.64-.13-.85-.38-.16-.19-.24-.45-.24-.77,0-.17.04-.55.13-1.14l.64-4.38h-.71l.14-.99h.71l.27-1.85,1.03-.89-.4,2.74h.88l-.15.99h-.88l-.61,4.16c-.08.53-.11.85-.11.95,0,.15.03.27.09.35.06.08.16.12.3.12.2,0,.37-.03.53-.09Z"/>
    <path class="cls-2" d="M219.92,59.8l1.52-10.4h4.72l-.17,1.18h-3.75l-.48,3.31h3.82l-.17,1.18h-3.82l-.69,4.72h-.97Z"/>
    <path class="cls-2" d="M229.59,58.43c-.63,1.02-1.28,1.53-1.94,1.53-.41,0-.73-.17-.98-.5-.25-.33-.37-.74-.37-1.22,0-.32.06-.86.17-1.63l.63-4.35h.9l-.7,4.82c-.06.4-.09.71-.09.94,0,.28.06.5.18.66s.3.24.53.24c.25,0,.5-.09.74-.26.24-.17.45-.41.62-.71s.31-.65.42-1.06c.07-.26.16-.72.25-1.37l.48-3.26h.9l-1.1,7.53h-.83l.2-1.36Z"/>
    <path class="cls-2" d="M233.74,58.75l-.15,1.05c-.21.08-.42.12-.62.12-.36,0-.64-.13-.85-.38-.16-.19-.24-.45-.24-.77,0-.17.04-.55.13-1.14l.64-4.38h-.71l.14-.99h.71l.27-1.85,1.03-.89-.4,2.74h.88l-.15.99h-.88l-.61,4.16c-.08.53-.11.85-.11.95,0,.15.03.27.09.35.06.08.16.12.3.12.2,0,.37-.03.53-.09Z"/>
    <path class="cls-2" d="M238.05,58.43c-.63,1.02-1.28,1.53-1.94,1.53-.41,0-.73-.17-.98-.5-.25-.33-.37-.74-.37-1.22,0-.32.06-.86.17-1.63l.63-4.35h.9l-.7,4.82c-.06.4-.09.71-.09.94,0,.28.06.5.18.66s.3.24.53.24c.25,0,.5-.09.74-.26.24-.17.45-.41.62-.71s.31-.65.42-1.06c.07-.26.16-.72.25-1.37l.48-3.26h.9l-1.1,7.53h-.83l.2-1.36Z"/>
    <path class="cls-2" d="M240.1,59.8l1.1-7.53h.79l-.22,1.54c.27-.58.54-1.01.8-1.29.26-.28.52-.42.8-.42.18,0,.4.09.66.28l-.37,1.19c-.16-.16-.33-.24-.51-.24-.31,0-.64.25-.97.75-.33.5-.59,1.4-.78,2.7l-.45,3.02h-.85Z"/>
    <path class="cls-2" d="M247.35,57.24l.87.13c-.13.62-.41,1.21-.86,1.77-.45.56-.99.84-1.61.84-.39,0-.75-.13-1.07-.39s-.57-.63-.74-1.12c-.17-.49-.26-1.05-.26-1.68,0-.82.13-1.62.4-2.39.27-.77.61-1.35,1.03-1.72.42-.38.88-.56,1.37-.56.63,0,1.13.28,1.5.84.37.56.56,1.32.56,2.28,0,.37-.02.75-.07,1.13h-3.87c-.01.15-.02.28-.02.4,0,.7.11,1.24.34,1.61.23.37.5.56.83.56.31,0,.61-.14.91-.43.3-.29.53-.7.69-1.25ZM244.74,55.37h2.95c0-.13,0-.23,0-.28,0-.64-.11-1.14-.34-1.48-.22-.34-.51-.51-.87-.51-.38,0-.73.19-1.05.57-.32.38-.55.95-.71,1.71Z"/>
  </g>
</svg>