<svg width="320" height="103" viewBox="0 0 320 103" fill="none" xmlns="http://www.w3.org/2000/svg">
<g clip-path="url(#clip0_211_38747)">
<path d="M246.019 71.0019H236.364C236.023 71.0019 235.744 71.2806 235.744 71.6246V74.3473C235.744 74.6953 236.023 74.9739 236.364 74.9739H241.735C242.086 74.9739 242.366 75.2539 242.366 75.5979V95.9233C242.366 96.2713 242.643 96.5499 242.992 96.5499H246.019C246.36 96.5499 246.642 96.2713 246.642 95.9233V77.8126V74.9739V71.6246C246.642 71.2806 246.36 71.0019 246.019 71.0019Z" fill="#19335F"/>
<path d="M252.644 71.002H248.67C248.315 71.002 248.035 71.2807 248.035 71.6247V74.3473C248.035 74.6953 248.315 74.974 248.67 74.974H252.644C252.986 74.974 253.266 74.6953 253.266 74.3473V71.6247C253.266 71.2807 252.986 71.002 252.644 71.002Z" fill="#19335F"/>
<path d="M294.263 88.9728H290.381C290.264 88.9728 290.156 89.0368 290.096 89.1474C289.125 91.3194 287.716 92.3701 285.775 92.3701C284.972 92.3701 284.279 92.2021 283.716 91.8594C283.708 91.8514 283.699 91.8474 283.692 91.8394C283.105 91.5474 282.625 91.1608 282.271 90.6768C282.267 90.6768 282.259 90.6688 282.255 90.6661C281.82 90.1701 281.528 89.5114 281.38 88.7048C281.208 87.8621 281.125 86.2021 281.125 83.7781C281.125 81.3514 281.208 79.6861 281.38 78.8154C281.528 78.0288 281.82 77.3821 282.255 76.8914C282.259 76.8834 282.267 76.8834 282.271 76.8674C282.625 76.3954 283.109 75.9928 283.699 75.6728C284.273 75.3661 284.965 75.2021 285.775 75.1781C286.863 75.2021 287.792 75.5288 288.555 76.1488C289.288 76.8154 289.8 77.6341 290.08 78.5714C290.124 78.7034 290.241 78.7914 290.381 78.7914H294.263C294.36 78.7914 294.448 78.7514 294.507 78.6794C294.564 78.6114 294.588 78.5248 294.569 78.4248C294.175 76.2834 293.211 74.4674 291.697 73.0141C290.179 71.5648 288.188 70.8221 285.78 70.7981C283.824 70.8221 282.161 71.3088 280.853 72.2594C279.532 73.1781 278.549 74.2488 277.939 75.4341C277.565 76.0688 277.28 76.8994 277.095 77.9141C276.925 78.9194 276.845 80.8394 276.845 83.7781C276.845 86.6688 276.925 88.5821 277.095 89.6074C277.188 90.1621 277.304 90.6248 277.444 90.9968V91.0088C277.589 91.3568 277.757 91.7234 277.931 92.1074C278.541 93.3048 279.528 94.3701 280.845 95.2648C282.161 96.2074 283.824 96.7141 285.775 96.7621H285.78C287.944 96.7621 289.847 96.1154 291.429 94.8501C292.964 93.5674 294.029 91.7114 294.564 89.3434C294.588 89.2514 294.564 89.1568 294.512 89.0874C294.448 89.0128 294.36 88.9728 294.263 88.9728Z" fill="#19335F"/>
<path d="M257.03 95.9233C257.03 96.2713 257.309 96.5499 257.653 96.5499H272.453C272.801 96.5499 273.081 96.2713 273.081 95.9233V93.0046C273.081 92.6619 272.801 92.3699 272.453 92.3699H261.941C261.589 92.3699 261.306 92.0939 261.306 91.7473V86.2846C261.306 85.9419 261.589 85.6633 261.941 85.6633H270.73C271.072 85.6633 271.353 85.3833 271.353 85.0326V82.3166C271.353 81.9739 271.072 81.6899 270.73 81.6899H261.941C261.589 81.6899 261.306 81.4113 261.306 81.0593V77.2019C261.306 76.8553 261.028 76.5793 260.684 76.5793H257.653C257.309 76.5793 257.03 76.8553 257.03 77.2019V95.9233Z" fill="#19335F"/>
<path d="M272.453 75.1786C272.8 75.1786 273.08 74.8986 273.08 74.5559V71.6253C273.08 71.2813 272.8 71.0026 272.453 71.0026H257.653C257.309 71.0026 257.031 71.2813 257.031 71.6253V74.5559C257.031 74.8986 257.309 75.1786 257.653 75.1786H261.307H272.453Z" fill="#19335F"/>
<path d="M309.585 81.6904H303.244C302.9 81.6904 302.62 81.4117 302.62 81.0597V71.6251C302.62 71.2811 302.336 71.0024 301.993 71.0024H298.968C298.62 71.0024 298.34 71.2811 298.34 71.6251V95.9237C298.34 96.2717 298.62 96.5504 298.968 96.5504H301.993C302.336 96.5504 302.62 96.2717 302.62 95.9237V86.2851C302.62 85.9424 302.9 85.6624 303.244 85.6624H310.947C311.296 85.6624 311.576 85.9424 311.576 86.2851V95.9237C311.576 96.2717 311.853 96.5504 312.196 96.5504H315.228C315.572 96.5504 315.849 96.2717 315.849 95.9237V82.3171C315.849 81.9731 315.572 81.6904 315.228 81.6904H311.576H309.585Z" fill="#19335F"/>
<path d="M315.85 71.6251C315.85 71.2811 315.573 71.0024 315.229 71.0024H312.197C311.853 71.0024 311.575 71.2811 311.575 71.6251V79.6704C311.575 80.0131 311.853 80.2931 312.197 80.2931H315.229C315.573 80.2931 315.85 80.0131 315.85 79.6704V71.6251Z" fill="#19335F"/>
<path d="M229.368 72.7467C229.368 72.7707 229.387 72.7867 229.425 72.7867H229.687C229.845 72.7867 229.969 72.7587 230.053 72.6827C230.148 72.6067 230.188 72.5147 230.188 72.3801C230.188 72.1001 230.033 71.9681 229.705 71.9681H229.425C229.387 71.9681 229.368 71.9841 229.368 72.0201V72.7467ZM229.275 74.0201C229.219 74.0841 229.147 74.1121 229.059 74.1121C228.979 74.1121 228.907 74.0841 228.855 74.0201C228.791 73.9654 228.769 73.8921 228.769 73.8121V71.8961C228.769 71.7801 228.803 71.6894 228.885 71.6054C228.967 71.5254 229.059 71.4894 229.164 71.4894H229.809C230.113 71.4894 230.356 71.5521 230.548 71.6921C230.739 71.8401 230.84 72.0561 230.84 72.3401C230.84 72.4921 230.799 72.6227 230.717 72.7507C230.644 72.8747 230.532 72.9667 230.397 73.0387C230.368 73.0507 230.356 73.0787 230.373 73.0947L230.781 73.8174C230.823 73.8881 230.823 73.9521 230.781 74.0161C230.748 74.0801 230.688 74.1121 230.612 74.1121C230.392 74.1121 230.235 74.0161 230.136 73.8174L229.863 73.2774C229.851 73.2467 229.821 73.2294 229.799 73.2294H229.425C229.387 73.2294 229.368 73.2467 229.368 73.2774V73.8121C229.368 73.8921 229.339 73.9654 229.275 74.0201ZM229.752 74.8947C230.299 74.8947 230.759 74.7067 231.124 74.3161C231.485 73.9441 231.665 73.4494 231.665 72.8347C231.665 72.2241 231.485 71.7281 231.124 71.3374C230.759 70.9547 230.299 70.7627 229.752 70.7627C229.195 70.7627 228.728 70.9547 228.372 71.3374C228.012 71.7281 227.827 72.2241 227.827 72.8347C227.827 73.4494 228.012 73.9441 228.372 74.3161C228.728 74.7067 229.195 74.8947 229.752 74.8947ZM229.752 75.4054C229.048 75.4054 228.46 75.1627 227.973 74.6907C227.493 74.2081 227.251 73.5894 227.251 72.8347C227.251 72.0881 227.493 71.4654 227.973 70.9814C228.46 70.4907 229.048 70.2507 229.752 70.2507C230.44 70.2507 231.027 70.4907 231.513 70.9814C231.997 71.4654 232.243 72.0881 232.243 72.8347C232.243 73.5894 231.997 74.2081 231.513 74.6907C231.031 75.1627 230.444 75.4054 229.752 75.4054Z" fill="#19335F"/>
<path d="M156.999 95.4045L152.043 85.9858C151.984 85.8898 151.972 85.7792 152.014 85.6672C152.048 85.5632 152.124 85.4832 152.218 85.4392C152.408 85.3592 152.595 85.2672 152.782 85.1712C153.968 84.5285 154.899 83.5992 155.556 82.4045C156.215 81.2352 156.544 79.8578 156.544 78.3125C156.544 76.7832 156.219 75.4098 155.567 74.2325C154.916 73.0392 153.986 72.1125 152.792 71.4658C151.618 70.8258 150.239 70.5032 148.691 70.5032H138.814C138.412 70.5032 138.086 70.8258 138.086 71.2218V96.3312C138.086 96.7338 138.412 97.0538 138.814 97.0538H141.711C142.106 97.0538 142.432 96.7338 142.432 96.3312V87.4712V86.8605V81.2472V79.4418V75.3938C142.432 74.9952 142.758 74.6672 143.159 74.6672H148.836C149.459 74.6672 150.012 74.8192 150.476 75.1152C150.943 75.4058 151.31 75.8245 151.571 76.3725C151.834 76.9232 151.967 77.5938 151.967 78.3125C151.967 79.0472 151.834 79.7098 151.571 80.2605C151.31 80.8085 150.943 81.2352 150.472 81.5178C149.995 81.8178 149.448 81.9738 148.836 81.9738H144.608C144.207 81.9738 143.887 82.2938 143.887 82.6885V85.4112C143.887 85.8152 144.207 86.1338 144.608 86.1338H146.992C147.144 86.1338 147.278 86.2218 147.354 86.3538L152.438 96.4338C152.63 96.8178 153.014 97.0538 153.439 97.0538H156.138C156.254 97.0538 156.371 97.0298 156.47 96.9778C157.104 96.6338 157.284 95.9472 156.999 95.4045Z" fill="#19335F"/>
<path d="M132.984 74.9389C132.181 73.4975 131 72.3802 129.47 71.6295C127.964 70.8895 126.113 70.5069 124.002 70.5069H121.977C121.57 70.5069 121.25 70.8349 121.25 71.2335V73.9562C121.25 74.3522 121.57 74.6829 121.977 74.6829H124.112C125.91 74.6829 127.318 75.1429 128.289 76.0562C129.256 76.9749 129.749 78.2922 129.749 79.9855V87.5829C129.749 89.2642 129.256 90.5815 128.289 91.4922C127.318 92.4109 125.91 92.8815 124.112 92.8815H120.529C120.128 92.8815 119.802 92.5535 119.802 92.1589V71.2335C119.802 70.8349 119.482 70.5069 119.081 70.5069H116.182C115.782 70.5069 115.456 70.8349 115.456 71.2335V96.3189C115.456 96.7215 115.782 97.0455 116.182 97.0455H123.984C126.101 97.0455 127.94 96.6735 129.464 95.9229C130.994 95.1762 132.181 94.0629 132.984 92.6175C133.776 91.1842 134.182 89.4362 134.182 87.4309V80.1175C134.182 78.1122 133.781 76.3642 132.984 74.9389Z" fill="#19335F"/>
<path d="M183.823 72.172C183.519 71.6413 183.687 70.9547 184.319 70.5867C184.416 70.5227 184.538 70.504 184.662 70.504H187.352C187.762 70.504 188.132 70.7187 188.331 71.0693L191.904 77.4253C192.026 77.6453 192.026 77.9053 191.904 78.1333L190.17 81.2107C189.896 81.7053 189.184 81.7053 188.907 81.2107L183.823 72.172Z" fill="#19335F"/>
<path d="M195.585 83.5867C195.515 83.7067 195.515 83.8547 195.585 83.9747L202.003 95.384C202.299 95.92 202.137 96.6067 201.508 96.9653C201.403 97.0293 201.275 97.0533 201.159 97.0533H198.472C198.064 97.0533 197.685 96.8373 197.493 96.4827L193.253 88.952C193.153 88.7733 192.977 88.756 192.911 88.756C192.84 88.756 192.671 88.7733 192.567 88.952L188.331 96.4827C188.133 96.8373 187.761 97.0533 187.353 97.0533H184.661C184.537 97.0533 184.416 97.0293 184.319 96.9653C183.688 96.6067 183.52 95.92 183.823 95.384L190.235 83.9747L195.433 74.724L197.493 71.0693C197.685 70.7187 198.064 70.5027 198.472 70.5027H201.159C201.275 70.5027 201.403 70.5227 201.508 70.5867C202.137 70.9547 202.299 71.6413 202.003 72.172L195.585 83.5867Z" fill="#19335F"/>
<path d="M223.742 74.9508C222.97 73.4575 221.846 72.2921 220.414 71.4655C219.402 70.8908 218.262 70.5108 217.022 70.3428C216.594 70.2868 216.209 70.6308 216.209 71.0655V73.9735C216.209 74.3121 216.442 74.6041 216.773 74.6788C217.257 74.7868 217.704 74.9708 218.11 75.2028C218.856 75.6455 219.445 76.2801 219.856 77.0988C220.269 77.9255 220.478 78.8948 220.478 79.9975V87.5628C220.478 88.6655 220.269 89.6268 219.856 90.4535C219.445 91.2681 218.856 91.9108 218.11 92.3468C217.36 92.7935 216.482 93.0215 215.476 93.0215C214.486 93.0215 213.604 92.7935 212.853 92.3468C212.106 91.9108 211.52 91.2681 211.112 90.4535C210.701 89.6268 210.477 88.6655 210.477 87.5628V79.9975C210.477 78.8948 210.701 77.9255 211.112 77.0988C211.52 76.2801 212.106 75.6455 212.853 75.2028C213.26 74.9708 213.708 74.7868 214.19 74.6788C214.516 74.6041 214.753 74.3121 214.753 73.9735V71.0655C214.753 70.6308 214.376 70.2868 213.938 70.3428C212.701 70.5108 211.56 70.8908 210.544 71.4655C209.124 72.2921 208 73.4575 207.216 74.9508C206.441 76.4401 206.046 78.1801 206.046 80.1175V87.4308C206.046 89.3801 206.441 91.1135 207.216 92.5975C208 94.0988 209.124 95.2735 210.544 96.0881C211.966 96.8935 213.625 97.3121 215.476 97.3121C217.337 97.3121 218.996 96.8935 220.414 96.0881C221.846 95.2735 222.962 94.0988 223.742 92.5975C224.522 91.1135 224.918 89.3801 224.918 87.4308V80.1175C224.918 78.1801 224.522 76.4401 223.742 74.9508Z" fill="#19335F"/>
<path d="M178.513 74.9506C177.733 73.4573 176.617 72.292 175.184 71.4653C173.764 70.6586 172.101 70.252 170.251 70.252C168.396 70.252 166.737 70.6586 165.319 71.4653C163.887 72.292 162.771 73.4573 161.988 74.9506C161.205 76.44 160.816 78.18 160.816 80.1173V87.4306C160.816 89.38 161.205 91.1133 161.988 92.5973C162.771 94.0906 163.887 95.264 165.319 96.088C166.328 96.6626 167.467 97.0453 168.716 97.2093C169.139 97.2733 169.531 96.9253 169.531 96.4946V93.584C169.531 93.248 169.287 92.9573 168.953 92.8813C168.476 92.7653 168.029 92.5893 167.623 92.3466C166.875 91.9106 166.296 91.268 165.881 90.4533C165.464 89.6266 165.255 88.6653 165.255 87.5626V79.9973C165.255 78.8946 165.464 77.9253 165.881 77.0986C166.296 76.28 166.875 75.6453 167.623 75.2026C168.373 74.7586 169.257 74.54 170.251 74.54C171.247 74.54 172.129 74.7586 172.88 75.2026C173.627 75.6453 174.213 76.28 174.624 77.0986C175.04 77.9253 175.253 78.8946 175.253 79.9973V87.5626C175.253 88.6653 175.04 89.6266 174.624 90.4533C174.213 91.268 173.627 91.9106 172.88 92.3466C172.473 92.5893 172.025 92.7653 171.543 92.8813C171.211 92.9573 170.98 93.248 170.98 93.584V96.4946C170.98 96.9253 171.355 97.2693 171.793 97.2093C173.037 97.0453 174.173 96.6626 175.184 96.088C176.617 95.264 177.733 94.0906 178.513 92.5973C179.292 91.1133 179.681 89.38 179.681 87.4306V80.1173C179.681 78.18 179.292 76.44 178.513 74.9506Z" fill="#19335F"/>
<path d="M161.425 20.4613C161.425 20.944 161.245 21.368 160.884 21.7226C160.524 22.0826 160.1 22.2626 159.621 22.2626H141.733C141.56 22.2626 141.46 22.3333 141.425 22.4733C140.839 25.0173 140.152 27.528 139.361 29.9986C139.331 30.1666 139.4 30.2546 139.564 30.2546H158.429C158.953 30.2546 159.389 30.4307 159.756 30.7733C160.111 31.1173 160.297 31.5413 160.297 32.06V34.224C160.297 34.7066 160.111 35.1266 159.756 35.4853C159.389 35.8493 158.953 36.028 158.429 36.028H151.373C151.24 36.028 151.169 36.116 151.169 36.284V47.6266C151.169 47.8013 151.24 47.8813 151.373 47.8813H159.621C160.1 47.8813 160.524 48.0573 160.884 48.4013C161.245 48.744 161.425 49.168 161.425 49.6866V51.9106C161.425 52.4213 161.245 52.852 160.884 53.196C160.524 53.54 160.1 53.7106 159.621 53.7106H135.189C134.672 53.7106 134.229 53.54 133.875 53.196C133.513 52.852 133.333 52.4213 133.333 51.9106V49.6866C133.333 49.168 133.513 48.744 133.875 48.4013C134.229 48.0573 134.672 47.8813 135.189 47.8813H144.672C144.847 47.8813 144.933 47.8013 144.933 47.6266V36.284C144.933 36.116 144.847 36.028 144.672 36.028H139.209C138.831 36.028 138.517 35.9 138.255 35.6453C138 35.3813 137.865 35.0613 137.865 34.6826H137.765C135.568 40.496 132.937 45.3226 129.877 49.168C129.569 49.5186 129.18 49.6866 128.715 49.6866C128.255 49.6866 127.853 49.5186 127.504 49.168C126.72 48.3213 125.859 47.4706 124.933 46.652C124.897 46.616 124.859 46.604 124.828 46.628C124.793 46.64 124.771 46.68 124.771 46.748V53.452C124.771 53.9346 124.595 54.3533 124.235 54.7133C123.873 55.072 123.437 55.256 122.913 55.256H120.599C120.116 55.256 119.697 55.072 119.336 54.7133C118.976 54.3533 118.801 53.9346 118.801 53.452V27.628C118.801 27.592 118.779 27.568 118.744 27.544C118.707 27.532 118.673 27.54 118.639 27.576C117.707 28.7453 116.736 29.896 115.7 31.0293C115.392 31.3373 115.025 31.4573 114.595 31.3893C114.159 31.324 113.863 31.0773 113.693 30.6613C113.135 29.492 112.605 28.4466 112.093 27.528C111.891 27.1453 111.785 26.7493 111.785 26.3426V26.0266C111.855 25.508 112.059 25.0693 112.403 24.6853C114.503 22.4893 116.492 19.9306 118.383 17.004C120.273 14.0893 121.868 11.0626 123.176 7.93598C123.385 7.45732 123.711 7.11065 124.153 6.90665C124.427 6.77065 124.707 6.69465 124.98 6.69465C125.188 6.69465 125.393 6.73465 125.596 6.79865L127.917 7.57332C128.395 7.71332 128.744 8.00398 128.947 8.44798C129.156 8.89465 129.156 9.35065 128.947 9.78932C127.679 12.78 126.317 15.5427 124.88 18.0853C124.811 18.2333 124.771 18.3813 124.771 18.5573V44.28C124.771 44.312 124.793 44.332 124.828 44.356C124.859 44.368 124.897 44.364 124.933 44.328C129.227 39.3093 132.56 32.024 134.928 22.4733C134.961 22.3333 134.911 22.2626 134.771 22.2626H128.801C128.279 22.2626 127.853 22.0826 127.504 21.7226C127.16 21.368 126.992 20.944 126.992 20.4613V18.1893C126.992 17.6786 127.16 17.236 127.504 16.884C127.853 16.5173 128.279 16.3293 128.801 16.3293H136.009C136.184 16.3293 136.288 16.2733 136.324 16.1333C136.765 13.9333 137.184 11.3906 137.557 8.50398C137.625 7.98931 137.86 7.57332 138.255 7.25865C138.649 6.95065 139.111 6.83465 139.621 6.90665L142.408 7.16132C142.921 7.22665 143.333 7.46532 143.641 7.85198C143.951 8.25598 144.055 8.69065 143.951 9.17465C143.607 11.7493 143.229 14.0733 142.816 16.1333C142.781 16.2733 142.833 16.3293 142.967 16.3293H159.621C160.1 16.3293 160.524 16.5173 160.884 16.884C161.245 17.236 161.425 17.6786 161.425 18.1893V20.4613Z" fill="#19335F"/>
<path d="M201.578 33.3528C201.752 33.3528 201.84 33.2768 201.84 33.1408V31.7435C201.84 31.5755 201.752 31.4888 201.578 31.4888H192.404C192.236 31.4888 192.148 31.5755 192.148 31.7435V33.1408C192.148 33.2768 192.236 33.3528 192.404 33.3528H201.578ZM201.578 28.1382C201.752 28.1382 201.84 28.0582 201.84 27.8822V26.5462C201.84 26.4062 201.752 26.3422 201.578 26.3422H192.404C192.236 26.3422 192.148 26.4062 192.148 26.5462V27.8822C192.148 28.0582 192.236 28.1382 192.404 28.1382H201.578ZM185.185 42.5235C185.05 42.5235 184.981 42.6115 184.981 42.7835V44.1128C184.981 44.2608 185.05 44.3275 185.185 44.3275H193.493C193.661 44.3275 193.749 44.2608 193.749 44.1128V42.7835C193.749 42.6115 193.661 42.5235 193.493 42.5235H185.185ZM185.185 36.9582C185.05 36.9582 184.981 37.0262 184.981 37.1608V38.4475C184.981 38.5915 185.05 38.6555 185.185 38.6555H193.493C193.661 38.6555 193.749 38.5915 193.749 38.4475V37.1608C193.749 37.0262 193.661 36.9582 193.493 36.9582H185.185ZM177.144 31.4888C176.976 31.4888 176.888 31.5755 176.888 31.7435V33.1408C176.888 33.2768 176.976 33.3528 177.144 33.3528H186.068C186.237 33.3528 186.33 33.2768 186.33 33.1408V31.7435C186.33 31.5755 186.237 31.4888 186.068 31.4888H177.144ZM177.144 26.3422C176.976 26.3422 176.888 26.4062 176.888 26.5462V27.8822C176.888 28.0582 176.976 28.1382 177.144 28.1382H186.068C186.237 28.1382 186.33 28.0582 186.33 27.8822V26.5462C186.33 26.4062 186.237 26.3422 186.068 26.3422H177.144ZM178.074 15.4102C178.522 15.3102 178.953 15.3822 179.36 15.6422C179.774 15.9062 180.034 16.2728 180.134 16.7475V16.8515C180.241 17.3982 180.153 17.9022 179.885 18.3488C179.605 18.7875 179.21 19.1035 178.697 19.2702L178.074 19.4822C178.04 19.5195 178.022 19.5382 178.022 19.5622C178.022 19.5742 178.04 19.5822 178.074 19.5822C178.833 19.6502 179.466 19.6862 179.982 19.6862C180.362 19.6862 180.688 19.6662 180.961 19.6342C181.2 19.6342 181.362 19.5982 181.45 19.5062C181.538 19.4222 181.584 19.2702 181.584 19.0675V12.0608C181.584 11.8888 181.508 11.7968 181.374 11.7968H173.433C173.404 11.7968 173.381 11.8208 173.381 11.8488V11.9528C174.068 12.4035 174.689 12.8395 175.244 13.2382C175.618 13.5182 175.818 13.9008 175.83 14.4048C175.846 14.9035 175.666 15.3222 175.296 15.6662L174.625 16.2888C174.625 16.3248 174.645 16.3528 174.673 16.3888C175.253 16.2208 176.393 15.8848 178.074 15.4102ZM213.08 46.4915C213.08 47.0115 212.893 47.4462 212.533 47.8142C212.178 48.1728 211.741 48.3488 211.224 48.3488H201.788C201.752 48.3488 201.734 48.3528 201.734 48.3728C201.734 48.3888 201.752 48.4008 201.788 48.4008C205.498 49.4662 208.781 50.4968 211.634 51.4942C211.974 51.6302 212.154 51.8782 212.178 52.2422C212.194 52.6008 212.05 52.8675 211.741 53.0355L209.158 54.5328C208.577 54.8408 207.99 54.9955 207.413 54.9955C206.888 54.9955 206.396 54.8928 205.912 54.6888C202.614 53.3515 198.764 52.0622 194.364 50.8195C193.986 50.7195 193.758 50.4888 193.694 50.1288C193.625 49.7622 193.749 49.4822 194.056 49.2782L195.138 48.5048C195.174 48.4635 195.178 48.4368 195.162 48.4008C195.144 48.3648 195.12 48.3488 195.086 48.3488H183.905C183.864 48.3488 183.852 48.3528 183.852 48.3728C183.852 48.3888 183.864 48.4208 183.905 48.4528L184.73 48.7595C185.069 48.8995 185.254 49.1515 185.289 49.5302C185.325 49.9062 185.173 50.1848 184.829 50.3568C181.496 52.1822 177.08 53.7822 171.582 55.1555C171.302 55.2235 171.032 55.2555 170.756 55.2555C169.925 55.2555 169.193 54.9088 168.54 54.2248C167.925 53.5675 167.318 52.9675 166.732 52.4208C166.458 52.1822 166.37 51.8902 166.476 51.5422C166.574 51.1995 166.801 51.0075 167.15 50.9715C171.338 50.2928 174.9 49.4302 177.818 48.4008C177.818 48.3648 177.797 48.3488 177.766 48.3488H167.761C167.25 48.3488 166.812 48.1728 166.452 47.8142C166.093 47.4462 165.905 47.0115 165.905 46.4915V46.1848C165.905 45.6648 166.093 45.2302 166.452 44.8715C166.812 44.5075 167.25 44.3275 167.761 44.3275H178.745C178.878 44.3275 178.953 44.2608 178.953 44.1128V42.7835C178.953 42.6115 178.878 42.5235 178.745 42.5235H169.773C169.262 42.5235 168.826 42.3395 168.465 41.9848C168.097 41.6248 167.925 41.2062 167.925 40.7142V40.5115C167.925 39.9995 168.097 39.5568 168.465 39.1982C168.826 38.8382 169.262 38.6555 169.773 38.6555H178.745C178.878 38.6555 178.953 38.5915 178.953 38.4475V37.1608C178.953 37.0262 178.878 36.9582 178.745 36.9582H172.922C172.405 36.9582 171.973 36.7782 171.636 36.4142C171.292 36.0555 171.112 35.6128 171.112 35.1022V24.6368C171.112 24.1262 171.292 23.6835 171.636 23.3195C171.973 22.9608 172.405 22.7848 172.922 22.7848H178.79C178.937 22.7848 178.982 22.7088 178.953 22.5768C178.569 21.5435 178.198 20.6328 177.818 19.8422C177.75 19.7102 177.633 19.6502 177.46 19.6862C174.573 20.7155 171.973 21.6102 169.67 22.3688C169.193 22.5088 168.708 22.4728 168.233 22.2622C167.749 22.0582 167.382 21.7142 167.15 21.2315L166.732 20.3608C166.528 19.9062 166.528 19.4702 166.732 19.0395C166.941 18.6168 167.285 18.3488 167.761 18.2408C169.446 17.7942 171.152 17.3462 172.864 16.9035C172.94 16.8715 172.968 16.8235 172.968 16.7755C172.968 16.7235 172.952 16.6795 172.922 16.6435C172.129 15.9622 171.065 15.1662 169.721 14.2768C169.35 14.0368 169.138 13.6782 169.105 13.2222C169.076 12.7555 169.226 12.3915 169.564 12.1128L169.721 11.9528C169.758 11.9208 169.762 11.8888 169.758 11.8488C169.734 11.8208 169.704 11.7968 169.67 11.7968H168.069C167.558 11.7968 167.121 11.6208 166.76 11.2622C166.4 10.8942 166.22 10.4755 166.22 9.9915V9.43016C166.22 8.91016 166.4 8.4755 166.76 8.1155C167.121 7.74883 167.558 7.57283 168.069 7.57283H185.393C185.912 7.57283 186.346 7.74883 186.71 8.1155C187.069 8.4755 187.257 8.91016 187.257 9.43016V19.0675C187.257 20.0342 187.173 20.7795 187.017 21.3075C186.865 21.8382 186.562 22.3048 186.121 22.6768C186.078 22.6768 186.076 22.7008 186.092 22.7288C186.109 22.7648 186.132 22.7848 186.166 22.7848H202.614C202.748 22.7848 202.8 22.7088 202.772 22.5768C202.633 22.1302 202.474 21.6822 202.305 21.2315C202.165 20.8555 202.213 20.4928 202.429 20.1502C202.654 19.8102 202.98 19.6342 203.382 19.6342C204.073 19.6662 204.557 19.6662 204.83 19.6342C205.068 19.6342 205.232 19.5982 205.32 19.5062C205.408 19.4222 205.446 19.2702 205.446 19.0675V12.0608C205.446 11.8888 205.377 11.7968 205.244 11.7968H196.792C196.756 11.7968 196.728 11.8208 196.716 11.8488C196.69 11.8888 196.697 11.9208 196.737 11.9528C197.354 12.3275 197.97 12.7275 198.594 13.1422C198.97 13.4422 199.174 13.8488 199.21 14.3275C199.245 14.8115 199.07 15.2182 198.697 15.5622L198.338 15.9208V15.9968C198.338 16.0208 198.348 16.0328 198.384 16.0328C199.245 15.8222 200.257 15.5422 201.426 15.1982C201.91 15.0675 202.356 15.1235 202.772 15.3822C203.184 15.6422 203.438 16.0328 203.538 16.5448V16.6435C203.642 17.1582 203.554 17.6502 203.289 18.1208C203.004 18.5795 202.633 18.8955 202.149 19.0675C198.368 20.3768 195.305 21.4075 192.974 22.1648C192.456 22.3328 191.956 22.3222 191.473 22.1102C190.996 21.9062 190.634 21.5822 190.397 21.1275L189.88 20.1502C189.677 19.7382 189.664 19.3195 189.848 18.8835C190.048 18.4648 190.362 18.1888 190.81 18.0848C192.084 17.7422 193.813 17.2822 196.01 16.6955C196.052 16.6675 196.074 16.6195 196.093 16.5728C196.108 16.5168 196.097 16.4915 196.062 16.4915C195.272 15.8102 194.23 15.0502 192.922 14.2288C192.544 13.9448 192.328 13.5822 192.276 13.1422C192.224 12.6995 192.376 12.3168 192.718 12.0048L192.77 11.9528C192.806 11.9208 192.81 11.8888 192.794 11.8488C192.777 11.8208 192.746 11.7968 192.718 11.7968H191.27C190.793 11.7968 190.376 11.6208 190.008 11.2622C189.653 10.8942 189.465 10.4755 189.465 9.9915V9.43016C189.465 8.91016 189.653 8.4755 190.008 8.1155C190.376 7.74883 190.793 7.57283 191.27 7.57283H209.42C209.933 7.57283 210.368 7.74883 210.729 8.1155C211.088 8.4755 211.276 8.91016 211.276 9.43016V19.0675C211.276 20.2368 211.13 21.1235 210.862 21.7222C210.582 22.3248 210.066 22.7968 209.316 23.1395C208.972 23.3155 208.558 23.4675 208.076 23.6062C207.906 23.6422 207.818 23.7222 207.818 23.8622V35.1022C207.818 35.6128 207.646 36.0555 207.304 36.4142C206.96 36.7782 206.529 36.9582 206.018 36.9582H200.089C199.949 36.9582 199.88 37.0262 199.88 37.1608V38.4475C199.88 38.5915 199.949 38.6555 200.089 38.6555H209.264C209.781 38.6555 210.217 38.8382 210.577 39.1982C210.933 39.5568 211.118 39.9995 211.118 40.5115V40.7142C211.118 41.2062 210.933 41.6248 210.577 41.9848C210.217 42.3395 209.781 42.5235 209.264 42.5235H200.089C199.949 42.5235 199.88 42.6115 199.88 42.7835V44.1128C199.88 44.2608 199.949 44.3275 200.089 44.3275H211.224C211.741 44.3275 212.178 44.5075 212.533 44.8715C212.893 45.2302 213.08 45.6648 213.08 46.1848V46.4915Z" fill="#19335F"/>
<path d="M252.405 15.4624C252.754 15.8331 252.901 16.2891 252.846 16.7957C252.794 17.3104 252.578 17.7424 252.202 18.0851L250.554 19.5824C250.171 19.9024 249.747 20.0211 249.265 19.9784C248.786 19.9184 248.39 19.7104 248.077 19.3264C246.634 17.5744 244.849 15.8104 242.719 14.0131C242.378 13.7064 242.19 13.3224 242.178 12.8544C242.162 12.3957 242.323 11.9891 242.667 11.6411L244.058 10.4597C244.442 10.1171 244.895 9.93708 245.425 9.91708C245.959 9.89708 246.43 10.0651 246.843 10.4117C249.253 12.2957 251.101 13.9851 252.405 15.4624ZM250.863 29.3237C251.206 29.7037 251.369 30.1504 251.353 30.6611C251.335 31.1891 251.137 31.6157 250.758 31.9597L249.107 33.4571C248.77 33.7917 248.357 33.9517 247.874 33.9157C247.39 33.8797 246.983 33.6757 246.634 33.2931C245.157 31.6157 243.221 29.7757 240.811 27.7837C240.469 27.4677 240.287 27.0851 240.27 26.6211C240.254 26.1624 240.422 25.7464 240.759 25.4117L242.05 24.2691C242.461 23.9304 242.934 23.7464 243.47 23.7077C243.993 23.6757 244.47 23.8104 244.883 24.1264C247.329 25.9744 249.317 27.7157 250.863 29.3237ZM266.943 39.1704C266.979 39.2731 266.995 39.3784 266.995 39.4811C266.995 39.8611 266.874 40.2037 266.637 40.5117C266.361 40.9264 265.965 41.1824 265.446 41.2904L261.277 42.0091C261.137 42.0411 261.074 42.1491 261.074 42.3157V53.5544C261.074 54.0344 260.893 54.4571 260.526 54.8171C260.166 55.1797 259.735 55.3597 259.21 55.3597H256.687C256.21 55.3597 255.785 55.1797 255.43 54.8171C255.065 54.4571 254.882 54.0344 254.882 53.5544V43.3984C254.882 43.2624 254.797 43.1944 254.627 43.1944L240.713 45.6144C240.23 45.6851 239.782 45.5731 239.367 45.2824C238.957 44.9877 238.717 44.6037 238.649 44.1131L238.227 41.7451C238.198 41.6451 238.182 41.5411 238.182 41.4411C238.182 41.0584 238.303 40.7144 238.543 40.4157C238.817 39.9997 239.211 39.7411 239.723 39.6411L254.627 37.0584C254.797 37.0584 254.882 36.9744 254.882 36.8024V7.93574C254.882 7.41708 255.065 6.99441 255.43 6.64241C255.785 6.30774 256.21 6.13174 256.687 6.13174H259.21C259.735 6.13174 260.166 6.30774 260.526 6.64241C260.893 6.99441 261.074 7.41708 261.074 7.93574V35.7717C261.074 35.9117 261.137 35.9637 261.277 35.9237L264.47 35.4091C264.954 35.3051 265.403 35.4051 265.81 35.6877C266.221 35.9877 266.485 36.3957 266.582 36.9064L266.943 39.1704ZM237.511 33.4571C237.886 33.8277 238.078 34.2957 238.078 34.8464C238.078 35.3931 237.926 35.8717 237.61 36.2837L236.122 38.3477C235.878 38.6557 235.553 38.7944 235.139 38.7624C234.726 38.7264 234.417 38.5184 234.21 38.1397C233.662 37.0731 232.923 35.7517 231.991 34.1717C231.961 34.1357 231.93 34.1317 231.894 34.1477C231.858 34.1677 231.842 34.1957 231.842 34.2237V53.6144C231.842 54.0864 231.659 54.5091 231.306 54.8691C230.939 55.2237 230.519 55.4117 230.037 55.4117H227.618C227.099 55.4117 226.663 55.2237 226.295 54.8691C225.941 54.5091 225.757 54.0864 225.757 53.6144V36.6504C225.757 36.6144 225.749 36.5984 225.733 36.5984C225.715 36.5984 225.709 36.6144 225.709 36.6504C224.162 40.2197 222.627 43.1224 221.119 45.3584C220.874 45.7024 220.573 45.8531 220.195 45.8011C219.81 45.7411 219.537 45.5344 219.369 45.1544C218.995 44.3277 218.543 43.4344 218.03 42.4717C217.783 42.0251 217.663 41.5771 217.663 41.1304C217.663 40.5837 217.871 40.0277 218.287 39.4811C220.794 36.1157 222.991 31.9357 224.882 26.9571C224.918 26.8171 224.867 26.7491 224.727 26.7491H219.625C219.142 26.7491 218.722 26.5704 218.367 26.2064C218.002 25.8477 217.821 25.4277 217.821 24.9411V22.7291C217.821 22.2171 218.002 21.7744 218.367 21.4157C218.722 21.0517 219.142 20.8731 219.625 20.8731H225.553C225.685 20.8731 225.757 20.8037 225.757 20.6691V15.1557C225.757 15.0157 225.685 14.9437 225.553 14.9437C223.627 15.2504 222.323 15.4624 221.637 15.5624C221.154 15.6384 220.701 15.5144 220.269 15.1984C219.841 14.8917 219.537 14.4957 219.369 14.0131C219.229 13.5304 219.059 13.0544 218.85 12.5717C218.715 12.1651 218.75 11.7491 218.954 11.3384C219.157 10.9224 219.485 10.6797 219.933 10.6157C225.022 9.74908 229.526 8.63974 233.441 7.25841C233.918 7.05841 234.417 7.02641 234.93 7.18908C235.447 7.34108 235.859 7.64508 236.17 8.09174L237.61 10.1957C237.886 10.5837 237.962 10.9944 237.822 11.4371C237.681 11.8891 237.385 12.1771 236.947 12.3171C235.498 12.7917 233.882 13.2264 232.097 13.6051C231.93 13.6424 231.842 13.7411 231.842 13.9131V20.6691C231.842 20.8037 231.93 20.8731 232.097 20.8731H236.995C237.511 20.8731 237.942 21.0517 238.286 21.4157C238.629 21.7744 238.798 22.2171 238.798 22.7291V24.9411C238.798 25.4277 238.629 25.8477 238.286 26.2064C237.942 26.5704 237.511 26.7491 236.995 26.7491H232.049C231.905 26.7491 231.842 26.8171 231.842 26.9571C231.842 27.0931 231.894 27.2131 231.991 27.3117C233.131 28.4464 234.963 30.4944 237.511 33.4571Z" fill="#19335F"/>
<path d="M310.039 31.5958C310.108 31.4572 310.055 31.3892 309.887 31.3892H297.56C297.399 31.3892 297.347 31.4572 297.411 31.5958C298.857 34.9572 300.84 37.9518 303.389 40.5705C303.495 40.6718 303.593 40.6718 303.699 40.5705C306.42 37.9158 308.525 34.9265 310.039 31.5958ZM313.133 25.7185C313.372 25.6545 313.616 25.6198 313.856 25.6198C314.227 25.6198 314.628 25.6998 315.036 25.8745L316.431 26.4372C316.913 26.6452 317.265 26.9932 317.484 27.4678C317.712 27.9585 317.736 28.4332 317.567 28.9132C315.64 35.1372 312.597 40.3438 308.44 44.5318C308.34 44.6358 308.352 44.7345 308.497 44.8398C311.376 46.8358 314.78 48.4012 318.701 49.5305C319.113 49.6745 319.369 49.9292 319.475 50.3052C319.509 50.4492 319.527 50.5652 319.527 50.6638C319.527 50.9478 319.439 51.1798 319.269 51.3905C318.649 52.1505 318.025 52.9838 317.409 53.9105C317.101 54.3652 316.705 54.6892 316.223 54.8932C315.949 54.9958 315.676 55.0518 315.403 55.0518C315.193 55.0518 314.972 54.9958 314.733 54.8932C310.371 53.4158 306.617 51.4425 303.495 48.9718C303.389 48.8598 303.267 48.8598 303.128 48.9718C299.66 51.3398 295.676 53.2598 291.175 54.7412C290.691 54.9078 290.212 54.8932 289.729 54.6892C289.253 54.4812 288.887 54.1385 288.647 53.6545C288.2 52.7612 287.705 51.9105 287.153 51.0838C287.013 50.8718 286.951 50.6278 286.951 50.3572C286.951 50.2212 286.965 50.0812 286.996 49.9492C287.136 49.5305 287.415 49.2785 287.82 49.1678C291.848 48.0332 295.396 46.5118 298.492 44.5838C298.632 44.4838 298.653 44.3798 298.544 44.2798C295.797 41.1105 293.521 37.4332 291.737 33.2412C291.603 32.8705 291.616 32.5065 291.765 32.1625C291.925 31.8158 292.184 31.5758 292.567 31.4358C292.599 31.4358 292.621 31.4318 292.621 31.4212C292.621 31.4012 292.599 31.3892 292.567 31.3892H291.848C291.324 31.3892 290.899 31.2092 290.551 30.8452C290.212 30.4905 290.044 30.0705 290.044 29.5878V27.5758C290.044 27.0572 290.212 26.6332 290.551 26.2825C290.899 25.9385 291.324 25.7705 291.848 25.7705H300.195C300.329 25.7705 300.399 25.6825 300.399 25.5078V19.6345C300.399 19.4945 300.329 19.4305 300.195 19.4305H290.916C290.4 19.4305 289.963 19.2518 289.601 18.8838C289.241 18.5292 289.055 18.0852 289.055 17.5745V15.4625C289.055 14.9438 289.241 14.5038 289.601 14.1492C289.963 13.7852 290.4 13.6052 290.916 13.6052H300.195C300.329 13.6052 300.399 13.5305 300.399 13.3985V7.87982C300.399 7.36916 300.584 6.93449 300.94 6.59583C301.307 6.25583 301.743 6.07183 302.256 6.07183H304.832C305.316 6.07183 305.735 6.25583 306.1 6.59583C306.455 6.93449 306.641 7.36916 306.641 7.87982V13.3985C306.641 13.5305 306.723 13.6052 306.897 13.6052H316.635C317.153 13.6052 317.589 13.7852 317.956 14.1492C318.312 14.5038 318.491 14.9438 318.491 15.4625V17.5745C318.491 18.0852 318.312 18.5292 317.956 18.8838C317.589 19.2518 317.153 19.4305 316.635 19.4305H306.897C306.723 19.4305 306.641 19.4945 306.641 19.6345V25.5078C306.641 25.6825 306.723 25.7705 306.897 25.7705H312.877C312.941 25.7705 313.029 25.7465 313.133 25.7185ZM286.276 28.9692C286.763 28.8612 287.205 28.9492 287.617 29.2292C288.032 29.4918 288.269 29.8785 288.34 30.3545L288.595 32.4745C288.659 32.9852 288.561 33.4692 288.288 33.9158C288.008 34.3625 287.617 34.6545 287.101 34.7905C285.761 35.1652 284.535 35.4972 283.44 35.7718C283.301 35.8038 283.237 35.9118 283.237 36.0798V48.4532C283.237 49.9932 283.057 51.1798 282.699 52.0105C282.331 52.8318 281.727 53.4865 280.865 53.9705C279.624 54.6532 277.565 55.0318 274.673 55.0958H274.629C274.147 55.0958 273.703 54.9292 273.284 54.5932C272.876 54.2412 272.597 53.8105 272.463 53.3038C272.253 52.5772 272.016 51.8385 271.743 51.0838C271.603 50.6638 271.649 50.2932 271.895 49.9492C272.133 49.6065 272.481 49.4305 272.935 49.4305H275.967C276.385 49.4305 276.653 49.3585 276.793 49.2278C276.925 49.0878 276.997 48.8158 276.997 48.4012V37.7252C276.997 37.5852 276.915 37.5412 276.739 37.5732L273.645 38.3465C273.168 38.4865 272.701 38.4238 272.253 38.1678C271.807 37.9078 271.515 37.5212 271.375 37.0105L270.712 34.5825C270.673 34.4145 270.655 34.2598 270.655 34.1198C270.655 33.8118 270.748 33.5198 270.916 33.2412C271.156 32.8332 271.533 32.5705 272.049 32.4745C273.356 32.1625 274.919 31.7878 276.739 31.3372C276.915 31.3052 276.997 31.2212 276.997 31.0772V22.1652C276.997 22.0265 276.915 21.9545 276.739 21.9545H272.772C272.253 21.9545 271.812 21.7745 271.457 21.4158C271.096 21.0518 270.916 20.6172 270.916 20.0972V17.9852C270.916 17.4705 271.096 17.0318 271.457 16.6718C271.812 16.3132 272.253 16.1332 272.772 16.1332H276.739C276.915 16.1332 276.997 16.0692 276.997 15.9212V7.93582C276.997 7.41716 277.177 6.99449 277.544 6.64249C277.903 6.30783 278.323 6.13183 278.799 6.13183H281.376C281.896 6.13183 282.331 6.30783 282.699 6.64249C283.057 6.99449 283.237 7.41716 283.237 7.93582V15.9212C283.237 16.0692 283.301 16.1332 283.44 16.1332H286.535C287.048 16.1332 287.485 16.3132 287.851 16.6718C288.205 17.0318 288.392 17.4705 288.392 17.9852V20.0972C288.392 20.6172 288.205 21.0518 287.851 21.4158C287.485 21.7745 287.048 21.9545 286.535 21.9545H283.44C283.301 21.9545 283.237 22.0265 283.237 22.1652V29.5358C283.237 29.6758 283.301 29.7198 283.44 29.6878L286.276 28.9692Z" fill="#19335F"/>
<path d="M34.1853 47.4227L29.9173 51.6867L25.6467 47.4227C26.816 48.604 27.4093 50.1454 27.4093 51.6867C27.4093 53.236 26.816 54.78 25.64 55.9627L14.7147 66.04C12.1133 68.636 12.1133 72.8467 14.7147 75.4414C16.012 76.74 17.712 77.3827 19.416 77.3827C21.1147 77.3827 22.8133 76.74 24.1107 75.4414L42.732 55.9627C45.0933 53.6027 45.0933 49.7787 42.732 47.4227C41.5533 46.2427 40.0067 45.6534 38.4587 45.6534C36.9107 45.6534 35.364 46.2427 34.1853 47.4227Z" fill="url(#paint0_linear_211_38747)"/>
<path d="M2.224 15.4706C-0.741333 18.44 -0.741333 23.2559 2.224 26.2386L34.1853 55.9626C35.368 57.1439 36.9147 57.7306 38.456 57.7306C40.004 57.7306 41.5507 57.1439 42.732 55.9626C45.0933 53.6026 45.0933 49.7786 42.732 47.4226L12.9987 15.4706C11.5133 13.9813 9.564 13.2373 7.61467 13.2373C5.664 13.2373 3.71333 13.9813 2.224 15.4706Z" fill="url(#paint1_linear_211_38747)"/>
<path d="M57.9907 47.4227C55.6294 49.7787 55.6294 53.6027 57.9907 55.9627L87.7241 87.9267C89.2081 89.408 91.1574 90.1547 93.1054 90.1547C95.0534 90.1547 97.0094 89.408 98.4921 87.9267C101.465 84.952 101.465 80.1293 98.4921 77.1507L75.0774 55.9627C73.9014 54.78 73.3147 53.236 73.3147 51.6934C73.3147 50.1454 73.9014 48.604 75.0841 47.4227L70.8081 51.6934L66.5374 47.4227C65.3587 46.2427 63.8134 45.6534 62.2667 45.6534C60.7201 45.6534 59.1721 46.2427 57.9907 47.4227Z" fill="url(#paint2_linear_211_38747)"/>
<path d="M76.636 27.9226L57.9907 47.4226C55.6294 49.7786 55.6294 53.6026 57.9907 55.9626C59.1721 57.1439 60.7214 57.7306 62.2614 57.7306C63.8081 57.7306 65.3561 57.1439 66.5374 55.9626L86.0321 37.3266C88.6321 34.7253 88.6321 30.5226 86.0321 27.9226C84.7374 26.6239 83.0374 25.9733 81.3361 25.9733C79.6347 25.9733 77.9334 26.6239 76.636 27.9226Z" fill="url(#paint3_linear_211_38747)"/>
<path d="M75.8213 3.16537L54.628 26.5747C53.448 27.7547 51.9067 28.3467 50.3587 28.3467C48.8107 28.3467 47.2693 27.7547 46.0827 26.5747L50.3587 30.8454L46.0827 35.1174C43.728 37.4774 43.728 41.3107 46.0827 43.6573C47.2693 44.84 48.8107 45.4347 50.3587 45.4347C51.9067 45.4347 53.4533 44.84 54.6347 43.6573L86.5907 13.9334C89.5573 10.9547 89.5573 6.13603 86.5907 3.16537C85.104 1.67603 83.1547 0.93205 81.2067 0.93205C79.2573 0.93205 77.308 1.67603 75.8213 3.16537Z" fill="url(#paint4_linear_211_38747)"/>
<path d="M27.0134 16.0453C24.4187 18.6333 24.4187 22.8453 27.0134 25.444L46.0827 43.6573C47.2694 44.84 48.8107 45.4347 50.3587 45.4347C51.9067 45.4347 53.4534 44.84 54.6347 43.6573C56.996 41.3107 56.996 37.4774 54.6347 35.1174L36.4134 16.0453C35.1174 14.744 33.4161 14.0933 31.7134 14.0933C30.0121 14.0933 28.3094 14.744 27.0134 16.0453Z" fill="url(#paint5_linear_211_38747)"/>
<path d="M46.0827 59.7227L14.1334 89.4561C11.1547 92.4334 11.1547 97.2561 14.1334 100.223C15.6227 101.712 17.5707 102.455 19.5201 102.455C21.4641 102.455 23.4174 101.712 24.9014 100.223L46.1654 76.7401C47.3334 75.6134 48.8467 75.0387 50.3587 75.0387C51.9067 75.0387 53.4481 75.6374 54.6281 76.816L50.3587 72.5427L54.6347 68.2667C56.9961 65.9121 56.9961 62.0841 54.6347 59.7227C53.4507 58.5414 51.9041 57.9507 50.3574 57.9507C48.8107 57.9507 47.2641 58.5414 46.0827 59.7227Z" fill="url(#paint6_linear_211_38747)"/>
<path d="M46.0827 59.7227C43.728 62.084 43.728 65.912 46.0827 68.2666L64.3093 87.344C65.6 88.6413 67.3067 89.288 69.0027 89.288C70.708 89.288 72.408 88.6413 73.7093 87.344C76.3053 84.748 76.3053 80.5373 73.7093 77.9413L54.6347 59.7227C53.4507 58.5413 51.904 57.9506 50.3573 57.9506C48.8107 57.9506 47.264 58.5413 46.0827 59.7227Z" fill="url(#paint7_linear_211_38747)"/>
</g>
<defs>
<linearGradient id="paint0_linear_211_38747" x1="12.7652" y1="61.5178" x2="44.5035" y2="61.5178" gradientUnits="userSpaceOnUse">
<stop stop-color="#19335F"/>
<stop offset="0.465571" stop-color="#004EA2"/>
<stop offset="1" stop-color="#004EA2"/>
</linearGradient>
<linearGradient id="paint1_linear_211_38747" x1="41.9006" y1="55.1434" x2="1.78443" y2="15.0272" gradientUnits="userSpaceOnUse">
<stop stop-color="#19335F"/>
<stop offset="0.478357" stop-color="#004EA2"/>
<stop offset="1" stop-color="#004EA2"/>
</linearGradient>
<linearGradient id="paint2_linear_211_38747" x1="59.9618" y1="46.232" x2="100.302" y2="86.5718" gradientUnits="userSpaceOnUse">
<stop stop-color="#19335F"/>
<stop offset="0.463704" stop-color="#004EA2"/>
<stop offset="1" stop-color="#004EA2"/>
</linearGradient>
<linearGradient id="paint3_linear_211_38747" x1="86.1917" y1="27.7691" x2="57.6145" y2="56.3463" gradientUnits="userSpaceOnUse">
<stop stop-color="#19335F"/>
<stop offset="0.45544" stop-color="#004EA2"/>
<stop offset="1" stop-color="#004EA2"/>
</linearGradient>
<linearGradient id="paint4_linear_211_38747" x1="45.4292" y1="41.3036" x2="84.8269" y2="1.63799" gradientUnits="userSpaceOnUse">
<stop stop-color="#EB623C"/>
<stop offset="0.461221" stop-color="#F39945"/>
<stop offset="1" stop-color="#F39945"/>
</linearGradient>
<linearGradient id="paint5_linear_211_38747" x1="27.846" y1="16.9026" x2="54.8954" y2="43.7693" gradientUnits="userSpaceOnUse">
<stop stop-color="#EB623C"/>
<stop offset="0.461221" stop-color="#F39945"/>
<stop offset="1" stop-color="#F39945"/>
</linearGradient>
<linearGradient id="paint6_linear_211_38747" x1="15.2796" y1="102.112" x2="56.286" y2="61.3739" gradientUnits="userSpaceOnUse">
<stop stop-color="#F39945"/>
<stop offset="0.538779" stop-color="#F39945"/>
<stop offset="1" stop-color="#EB623C"/>
</linearGradient>
<linearGradient id="paint7_linear_211_38747" x1="48.161" y1="61.1929" x2="73.5708" y2="87.334" gradientUnits="userSpaceOnUse">
<stop stop-color="#F39945"/>
<stop offset="0.538779" stop-color="#F39945"/>
<stop offset="1" stop-color="#EB623C"/>
</linearGradient>
<clipPath id="clip0_211_38747">
<rect width="320" height="102" fill="white" transform="translate(0 0.932007)"/>
</clipPath>
</defs>
</svg>
