<svg width="4561" height="1191" viewBox="0 0 4561 1191" fill="none" xmlns="http://www.w3.org/2000/svg">
<g clip-path="url(#clip0_208_38033)">
<path d="M1688.06 932.496L1738.59 812.824L1786.76 932.496H1688.06ZM1760.57 744.405H1719.03L1584.25 1050.18H1638.53L1668.64 978.412H1805.52L1835.22 1050.18H1890.65L1762.37 748.529L1760.57 744.405Z" fill="black"/>
<mask id="mask0_208_38033" style="mask-type:luminance" maskUnits="userSpaceOnUse" x="0" y="0" width="4561" height="1191">
<path d="M0 0.000111675H4560.93V1190.93H0V0.000111675Z" fill="white"/>
</mask>
<g mask="url(#mask0_208_38033)">
<path d="M2068.96 862.643C2062.32 855.086 2053.79 849.064 2043.57 844.742C2033.54 840.564 2021.6 838.447 2008.08 838.447C1999.37 838.447 1991.22 839.584 1983.89 841.822C1976.51 844.012 1969.7 847.047 1963.63 850.84C1958.14 854.282 1953.3 858.164 1949.23 862.408C1949.05 858.016 1948.96 854.02 1948.96 850.267V843.398H1904.71V850.267C1904.71 856.926 1904.98 864.172 1905.53 871.812C1906.06 879.178 1906.33 887.331 1906.33 896.043V1050.18H1952.27V949.239C1952.27 938.93 1953.38 929.374 1955.59 920.811C1957.59 912.792 1960.82 905.68 1965.21 899.671C1969.32 894.031 1974.68 889.622 1981.14 886.57C1987.73 883.462 1995.84 881.887 2005.23 881.887C2018.21 881.887 2027.34 885.591 2033.15 893.21C2039.35 901.342 2042.49 912.847 2042.49 927.404V1050.18H2088.41V924.076C2088.41 911.967 2086.85 900.567 2083.79 890.199C2080.63 879.491 2075.64 870.218 2068.96 862.643Z" fill="black"/>
</g>
<mask id="mask1_208_38033" style="mask-type:luminance" maskUnits="userSpaceOnUse" x="0" y="0" width="4561" height="1191">
<path d="M0 0.000111675H4560.93V1190.93H0V0.000111675Z" fill="white"/>
</mask>
<g mask="url(#mask1_208_38033)">
<path d="M2187.66 900.38C2192.41 894.604 2198.45 890.043 2205.61 886.827C2212.97 883.549 2221.6 881.887 2231.26 881.887C2239.82 881.887 2247.72 883.541 2254.76 886.805C2261.78 890.064 2268.45 895.488 2274.6 902.925L2279.1 908.385L2315.36 876.308L2310.54 871.159C2300.2 859.96 2288.02 851.603 2274.32 846.324C2260.8 841.097 2246.31 838.447 2231.26 838.447C2215.55 838.447 2200.99 841.179 2187.99 846.571C2174.88 852.048 2163.48 859.725 2154.1 869.396C2144.75 879.077 2137.39 890.672 2132.23 903.861C2127.1 917.084 2124.5 931.528 2124.5 946.792C2124.5 962.319 2127.1 976.887 2132.23 990.095C2137.38 1003.3 2144.66 1014.89 2153.88 1024.54C2163.18 1034.27 2174.6 1041.9 2187.83 1047.22C2201.02 1052.47 2215.63 1055.13 2231.26 1055.13C2246.06 1055.13 2260.35 1052.47 2273.73 1047.23C2287.36 1041.92 2299.37 1033.38 2309.44 1021.85L2313.8 1016.89L2279.28 984.237L2274.77 990.613C2264.51 1004.79 2250.28 1011.69 2231.26 1011.69C2222.35 1011.69 2214.31 1010.03 2207.36 1006.77C2200.24 1003.45 2194.15 998.832 2189.24 993.049C2184.16 987.117 2180.13 980.133 2177.27 972.28C2174.4 964.5 2172.95 955.924 2172.95 946.792C2172.95 937.567 2174.22 928.896 2176.74 921.015C2179.2 913.243 2182.88 906.293 2187.66 900.38Z" fill="black"/>
</g>
<mask id="mask2_208_38033" style="mask-type:luminance" maskUnits="userSpaceOnUse" x="0" y="0" width="4561" height="1191">
<path d="M0 0.000111675H4560.93V1190.93H0V0.000111675Z" fill="white"/>
</mask>
<g mask="url(#mask2_208_38033)">
<path d="M2360.36 744.405C2351.88 744.405 2344.61 747.467 2338.75 753.503C2332.92 759.49 2329.97 766.646 2329.97 774.769C2329.97 783.518 2332.88 790.842 2338.59 796.523C2344.25 802.243 2351.58 805.143 2360.36 805.143C2369.1 805.143 2376.44 802.247 2382.17 796.537C2387.88 790.83 2390.78 783.507 2390.78 774.769C2390.78 766.637 2387.82 759.481 2381.98 753.509C2376.12 747.467 2368.85 744.405 2360.36 744.405Z" fill="black"/>
</g>
<mask id="mask3_208_38033" style="mask-type:luminance" maskUnits="userSpaceOnUse" x="0" y="0" width="4561" height="1191">
<path d="M0 0.000111675H4560.93V1190.93H0V0.000111675Z" fill="white"/>
</mask>
<g mask="url(#mask3_208_38033)">
<path d="M2337.37 1050.18H2383.31V843.399H2337.37V1050.18Z" fill="black"/>
</g>
<mask id="mask4_208_38033" style="mask-type:luminance" maskUnits="userSpaceOnUse" x="0" y="0" width="4561" height="1191">
<path d="M0 0.000111675H4560.93V1190.93H0V0.000111675Z" fill="white"/>
</mask>
<g mask="url(#mask4_208_38033)">
<path d="M2436.36 1050.18H2482.28V724.605H2436.36V1050.18Z" fill="black"/>
</g>
<mask id="mask5_208_38033" style="mask-type:luminance" maskUnits="userSpaceOnUse" x="0" y="0" width="4561" height="1191">
<path d="M0 0.000111675H4560.93V1190.93H0V0.000111675Z" fill="white"/>
</mask>
<g mask="url(#mask5_208_38033)">
<path d="M2535.41 1050.18H2581.32V724.605H2535.41V1050.18Z" fill="black"/>
</g>
<mask id="mask6_208_38033" style="mask-type:luminance" maskUnits="userSpaceOnUse" x="0" y="0" width="4561" height="1191">
<path d="M0 0.000111675H4560.93V1190.93H0V0.000111675Z" fill="white"/>
</mask>
<g mask="url(#mask6_208_38033)">
<path d="M2741.3 999.126C2737.41 1003.54 2732.3 1007.22 2726.12 1010.04C2720.02 1012.76 2712.7 1014.14 2704.35 1014.14C2693.6 1014.14 2684.64 1011.93 2677.71 1007.57C2671.6 1003.74 2668.75 997.405 2668.75 987.637C2668.75 977.055 2673.28 969.987 2683.01 965.382C2694.02 960.075 2709.53 957.383 2729.11 957.383H2754.42L2754.42 962.625C2754.15 969.985 2752.9 976.857 2750.7 983.041C2748.44 989.333 2745.29 994.731 2741.3 999.126ZM2801.13 1026.36C2800.6 1020.85 2800.34 1015.3 2800.34 1009.88V926.987C2800.34 897.809 2793.32 875.546 2779.49 860.821C2765.52 845.974 2743.03 838.446 2712.65 838.446C2697.89 838.446 2683.16 840.999 2668.88 846.039C2654.23 851.247 2641.47 859.383 2630.97 870.221L2626.35 874.978L2655.84 905.733L2660.76 901.079C2667.74 894.638 2675.87 889.785 2684.93 886.659C2694.23 883.493 2703.83 881.886 2713.46 881.886C2726.8 881.886 2737.14 884.939 2744.19 890.974C2750.86 896.619 2754.21 904.945 2754.41 916.398H2748.94C2736.85 916.398 2723.55 916.961 2709.41 918.071C2694.79 919.197 2680.86 922.107 2668.02 926.721C2654.78 931.45 2643.51 938.867 2634.53 948.758C2625.13 959.065 2620.36 973.251 2620.36 990.923C2620.36 1001.42 2622.57 1010.84 2626.93 1018.91C2631.22 1026.9 2637.08 1033.7 2644.35 1039.11C2651.52 1044.43 2659.91 1048.48 2669.28 1051.14C2678.49 1053.79 2688.5 1055.13 2699.03 1055.13C2715.01 1055.13 2729.02 1051.61 2740.71 1044.66C2746.67 1041.08 2752.07 1036.93 2756.84 1032.27C2757.15 1036.88 2757.79 1041.14 2758.75 1044.93L2760 1050.18H2804.42L2803.15 1042.17C2802.38 1037.67 2801.72 1032.5 2801.13 1026.36Z" fill="black"/>
</g>
<mask id="mask7_208_38033" style="mask-type:luminance" maskUnits="userSpaceOnUse" x="0" y="0" width="4561" height="1191">
<path d="M0 0.000111675H4560.93V1190.93H0V0.000111675Z" fill="white"/>
</mask>
<g mask="url(#mask7_208_38033)">
<path d="M3068.8 983.675L3015.12 847.735L3013.41 843.398H2967.67L2967.72 842.723L2962.94 840.93C2960.26 839.907 2957.57 839.246 2954.75 838.911C2951.89 838.549 2948.93 838.366 2945.96 838.366C2938.34 838.366 2930.64 839.53 2923.08 841.823C2915.7 844.033 2908.89 847.065 2902.84 850.833C2897.53 854.134 2892.7 858.002 2888.43 862.407C2888.26 857.71 2888.18 853.874 2888.18 850.266V843.398H2843.95V850.266C2843.95 857.445 2844.22 864.695 2844.75 871.815C2845.29 879.214 2845.57 887.366 2845.57 896.042V1050.18H2891.49V949.239C2891.49 928.529 2895.59 912.159 2903.67 900.591C2911.33 889.657 2923.58 884.342 2941.1 884.342C2946.38 884.342 2951.56 885.089 2956.5 886.559L2964.69 889.005L2966.76 857.366L3043.87 1044.7L3031.6 1078.45C3028.36 1087.29 3024.46 1094.34 3020 1099.46C3016.4 1103.68 3010.56 1105.73 3002.16 1105.73C2997.84 1105.73 2993.95 1105.54 2990.58 1105.15C2987.7 1104.82 2984.77 1104.07 2982.11 1102.95L2973.95 1099.59L2967.85 1141.26L2972.28 1143.5C2977.38 1146.06 2982.94 1147.68 2988.84 1148.32C2994.17 1148.89 2999.34 1149.17 3004.22 1149.17C3014.59 1149.17 3023.69 1147.7 3031.27 1144.79C3038.87 1141.82 3045.49 1137.55 3050.94 1132.1C3056.22 1126.82 3060.81 1120.41 3064.59 1113.04C3068.06 1106.26 3071.55 1098.5 3074.98 1089.96L3171.88 843.398H3121.98L3068.8 983.675Z" fill="black"/>
</g>
<mask id="mask8_208_38033" style="mask-type:luminance" maskUnits="userSpaceOnUse" x="-1" y="0" width="4562" height="1191">
<path d="M-0.000244141 0.000111675H4560.93V1190.93H-0.000244141V0.000111675Z" fill="white"/>
</mask>
<g mask="url(#mask8_208_38033)">
<path d="M3461.79 831.7C3461.79 845.982 3457.38 856.098 3448.32 862.626C3438.71 869.575 3425.86 873.099 3410.12 873.099H3358.36V790.292L3410.12 790.294C3425.85 790.294 3438.7 793.818 3448.32 800.77C3457.38 807.294 3461.79 817.412 3461.79 831.7ZM3478.42 762.61C3468.29 756.02 3456.54 751.268 3443.5 748.482C3430.89 745.776 3417.42 744.404 3403.49 744.404H3309.97V1050.18H3358.36V919.036H3410.12C3420.55 919.036 3431.86 917.72 3443.75 915.123C3455.78 912.492 3467.02 907.89 3477.15 901.438C3487.55 894.763 3496.15 885.642 3502.71 874.323C3509.34 862.822 3512.7 848.339 3512.7 831.278C3512.7 815.123 3509.56 801.178 3503.37 789.83C3497.23 778.59 3488.84 769.434 3478.42 762.61Z" fill="black"/>
</g>
<mask id="mask9_208_38033" style="mask-type:luminance" maskUnits="userSpaceOnUse" x="-1" y="0" width="4562" height="1191">
<path d="M-0.000244141 0.000111675H4560.93V1190.93H-0.000244141V0.000111675Z" fill="white"/>
</mask>
<g mask="url(#mask9_208_38033)">
<path d="M3647.71 1011.69C3638.23 1011.69 3629.65 1010.01 3622.2 1006.7C3614.65 1003.36 3608.12 998.766 3602.8 993.047C3597.38 987.221 3593.21 980.378 3590.41 972.714C3587.54 964.818 3586.09 956.095 3586.09 946.791C3586.09 937.441 3587.54 928.722 3590.4 920.879C3593.23 913.153 3597.4 906.309 3602.8 900.537C3608.18 894.761 3614.71 890.167 3622.2 886.879C3629.66 883.567 3638.24 881.887 3647.71 881.887C3657.14 881.887 3665.71 883.566 3673.18 886.886C3680.64 890.146 3687.17 894.741 3692.59 900.529C3697.98 906.339 3702.13 913.187 3704.94 920.858C3707.81 928.878 3709.27 937.602 3709.27 946.791C3709.27 955.949 3707.81 964.677 3704.95 972.707C3702.16 980.342 3698 987.189 3692.6 993.037C3687.21 998.774 3680.67 1003.37 3673.16 1006.71C3665.72 1010.01 3657.16 1011.69 3647.71 1011.69ZM3726.35 868.686C3716.61 859.117 3704.87 851.597 3691.43 846.327C3677.96 841.099 3663.25 838.447 3647.71 838.447C3632.11 838.447 3617.38 841.099 3603.91 846.331C3590.43 851.626 3578.7 859.15 3569.05 868.683C3559.32 878.217 3551.6 889.718 3546.08 902.859C3540.52 915.969 3537.7 930.75 3537.7 946.791C3537.7 962.826 3540.52 977.614 3546.08 990.743C3551.68 1003.96 3559.41 1015.45 3569.04 1024.9C3578.77 1034.46 3590.5 1041.98 3603.91 1047.22C3617.32 1052.47 3632.06 1055.13 3647.71 1055.13C3663.26 1055.13 3677.98 1052.47 3691.44 1047.22C3704.89 1041.95 3716.63 1034.44 3726.35 1024.9C3736.04 1015.37 3743.76 1003.88 3749.32 990.729C3754.88 977.438 3757.69 962.657 3757.69 946.791C3757.69 930.921 3754.88 916.143 3749.31 902.87C3743.8 889.749 3736.07 878.249 3726.35 868.686Z" fill="black"/>
</g>
<mask id="mask10_208_38033" style="mask-type:luminance" maskUnits="userSpaceOnUse" x="0" y="0" width="4561" height="1191">
<path d="M0 0.000111675H4560.93V1190.93H0V0.000111675Z" fill="white"/>
</mask>
<g mask="url(#mask10_208_38033)">
<path d="M3990.83 977.355L3946.65 848.071L3945.07 843.399H3901.35L3856.37 977.315L3818.01 848.395L3816.65 843.399H3766.52L3832.14 1045.41L3833.67 1050.18H3876.61L3921.12 914.497L3971.24 1050.18H4012.76L4079.51 843.399H4030.25L3990.83 977.355Z" fill="black"/>
</g>
<mask id="mask11_208_38033" style="mask-type:luminance" maskUnits="userSpaceOnUse" x="0" y="0" width="4561" height="1191">
<path d="M0 0.000111675H4560.93V1190.93H0V0.000111675Z" fill="white"/>
</mask>
<g mask="url(#mask11_208_38033)">
<path d="M4243.7 922.592H4138.17C4140.96 911.375 4146.37 902.092 4154.3 894.952C4163.89 886.284 4176.91 881.888 4193.01 881.888C4208.94 881.888 4221.49 886.227 4230.31 894.779C4237.65 901.92 4242.14 911.265 4243.7 922.592ZM4265.48 867.207C4256.69 857.845 4246.08 850.629 4233.95 845.764C4221.91 840.908 4208.55 838.448 4194.23 838.448C4179.14 838.448 4164.94 841.115 4152.04 846.376C4139.12 851.647 4127.81 859.175 4118.4 868.745C4108.97 878.32 4101.52 889.913 4096.26 903.212C4091.02 916.481 4088.37 931.143 4088.37 946.791C4088.37 961.584 4090.8 975.697 4095.58 988.736C4100.43 1001.95 4107.42 1013.55 4116.36 1023.2C4125.3 1032.91 4136.42 1040.74 4149.4 1046.48C4162.34 1052.22 4177.01 1055.13 4193.01 1055.13C4212.02 1055.13 4229.03 1051.96 4243.57 1045.7C4258.34 1039.35 4272.03 1028.16 4284.25 1012.45L4288.48 1007.04L4253.36 979.725L4249.08 984.961C4242.03 993.823 4234.04 1000.57 4225.31 1005.03C4216.78 1009.45 4205.91 1011.69 4193.01 1011.69C4185.22 1011.69 4177.96 1010.21 4171.4 1007.3C4164.89 1004.45 4159.1 1000.45 4154.21 995.4C4149.28 990.332 4145.23 984.323 4142.15 977.527C4140.08 973.016 4138.58 968.336 4137.68 963.564H4292.65V946.375C4292.65 929.691 4290.31 914.564 4285.69 901.404C4280.96 888.037 4274.16 876.535 4265.48 867.207Z" fill="black"/>
</g>
<mask id="mask12_208_38033" style="mask-type:luminance" maskUnits="userSpaceOnUse" x="0" y="0" width="4561" height="1191">
<path d="M0 0.000111675H4560.93V1190.93H0V0.000111675Z" fill="white"/>
</mask>
<g mask="url(#mask12_208_38033)">
<path d="M4446.19 840.92C4443.42 839.892 4440.72 839.234 4437.98 838.911C4435.12 838.55 4432.16 838.366 4429.2 838.366C4421.58 838.366 4413.89 839.531 4406.35 841.824C4398.95 844.039 4392.14 847.071 4386.09 850.836C4380.73 854.178 4375.92 858.042 4371.7 862.392C4371.54 858.232 4371.46 854.167 4371.46 850.267V843.399H4327.18V850.267C4327.18 857.024 4327.47 864.275 4328.02 871.816C4328.57 879.238 4328.85 887.39 4328.85 896.043V1050.18H4374.79V949.239C4374.79 928.488 4378.87 912.12 4386.93 900.595C4394.6 889.659 4406.85 884.342 4424.37 884.342C4429.66 884.342 4434.84 885.088 4439.76 886.56L4447.97 888.998L4450.97 842.73L4446.19 840.92Z" fill="black"/>
</g>
<mask id="mask13_208_38033" style="mask-type:luminance" maskUnits="userSpaceOnUse" x="0" y="0" width="4561" height="1191">
<path d="M0 0.000111675H4560.93V1190.93H0V0.000111675Z" fill="white"/>
</mask>
<g mask="url(#mask13_208_38033)">
<path d="M957.254 521.112L687.63 54.1344L62.5099 1136.8H270.987L610.926 548.017C627.706 520.689 658.625 521.112 658.625 521.112H957.254Z" fill="#113285"/>
</g>
<mask id="mask14_208_38033" style="mask-type:luminance" maskUnits="userSpaceOnUse" x="0" y="0" width="4561" height="1191">
<path d="M0 0.000111675H4560.93V1190.93H0V0.000111675Z" fill="white"/>
</mask>
<g mask="url(#mask14_208_38033)">
<path d="M928.053 781.717C973.947 777.264 982.517 734.753 982.517 734.753C979.512 741.732 1013.83 646.266 938.291 646.266H732.389C732.389 646.266 721.567 646.094 715.657 655.696L437.932 1136.8H1312.7L1102.62 772.884C1102.62 772.884 1078.1 893.834 947.635 906.405H690.687L762.704 781.717H928.053Z" fill="#F7C242"/>
</g>
<mask id="mask15_208_38033" style="mask-type:luminance" maskUnits="userSpaceOnUse" x="-1" y="0" width="4562" height="1191">
<path d="M-0.00012207 0.000111675H4560.93V1190.93H-0.00012207V0.000111675Z" fill="white"/>
</mask>
<g mask="url(#mask15_208_38033)">
<path d="M1655.87 162.967H1998.43V234.513H2046.39V118.673H1860.82C1847.81 92.6952 1836.99 72.4552 1827.82 56.8925L1825.65 53.0699L1778.45 65.5978L1781.82 71.9805C1791.8 90.7765 1799.46 106.118 1805.12 118.673H1608.88V234.513H1655.87V162.967Z" fill="black"/>
</g>
<mask id="mask16_208_38033" style="mask-type:luminance" maskUnits="userSpaceOnUse" x="0" y="0" width="4561" height="1191">
<path d="M0 0.000111675H4560.93V1190.93H0V0.000111675Z" fill="white"/>
</mask>
<g mask="url(#mask16_208_38033)">
<path d="M1732.21 366.66C1742.98 350.347 1753.99 332.46 1764.68 315.044H1898.07C1884.43 353.251 1866.93 383.563 1844.67 407.521C1806.5 392.439 1767.77 378.365 1732.21 366.66ZM2061.26 315.044V269.72H1963.12C1966.9 253.54 1969.68 239.531 1971.62 226.996L1972.51 220.999L1920.22 216.247L1919.5 221.619C1916.89 240.077 1913.97 255.848 1910.61 269.72H1789.47C1806.45 237.596 1817.97 213.023 1826.63 190.556L1829.01 184.229L1779.63 174.591L1777.8 178.999C1766.69 206.857 1751.63 238.191 1734.18 269.72H1595.65V315.044H1708.4C1691.57 342.965 1676.35 365.504 1663.12 382.1L1657.89 388.711L1665.95 391.103C1705.75 403.165 1752.44 420.132 1804.82 441.564C1758.03 473.609 1694.06 494.335 1604.26 506.624L1593.75 508.107L1600.76 516.085C1607.71 523.969 1619.69 540.004 1623.12 548.279L1624.79 552.684L1629.38 551.844C1734.31 533.317 1804.22 505.987 1855.61 463.34C1926.42 495.209 1982.66 525.1 2018.35 549.833L2022.6 552.773L2056.71 513.168L2051.19 509.632C2012.92 484.573 1956.59 455.463 1892.21 427.459C1917.86 396.656 1937.16 359.811 1951.1 315.044H2061.26Z" fill="black"/>
</g>
<mask id="mask17_208_38033" style="mask-type:luminance" maskUnits="userSpaceOnUse" x="0" y="0" width="4561" height="1191">
<path d="M0 0.000111675H4560.93V1190.93H0V0.000111675Z" fill="white"/>
</mask>
<g mask="url(#mask17_208_38033)">
<path d="M2861.86 254.336H2757.99V208.016H2843.29V167.441H2757.99V125.34H2854.44V84.2196H2621.52V125.34H2712.6V167.441H2629.99V208.016H2712.6V254.336H2613.51V295.976H2861.86V254.336Z" fill="black"/>
</g>
<mask id="mask18_208_38033" style="mask-type:luminance" maskUnits="userSpaceOnUse" x="0" y="0" width="4561" height="1191">
<path d="M0 -1.03951e-05H4560.93V1190.93H0V-1.03951e-05Z" fill="white"/>
</mask>
<g mask="url(#mask18_208_38033)">
<path d="M2434.15 306.557C2466.86 302.684 2512.01 297.337 2558.61 291.712L2532.93 315.597L2540.47 319.256C2576.17 336.312 2617.92 363.21 2637.56 381.79L2641.6 385.737L2673.57 353.726L2669.26 349.637C2649.32 331.166 2609.55 306.56 2573.1 289.96C2584.34 288.597 2595.59 287.226 2606.72 285.862L2611.68 285.246V245.22L2556.26 251.029C2544.46 252.265 2532.71 253.496 2521.1 254.746V208.016H2602.22V166.882H2521.1V125.34H2608.53V84.2197H2388.84V125.34H2475.76V166.882H2399.47V208.016H2475.76V259.65C2467.14 260.513 2458.74 261.376 2450.56 262.218L2449.5 262.326C2425.19 264.809 2402.23 267.153 2383.48 268.666L2377.27 269.174L2384.55 312.485L2434.15 306.557Z" fill="black"/>
</g>
<mask id="mask19_208_38033" style="mask-type:luminance" maskUnits="userSpaceOnUse" x="0" y="0" width="4561" height="1191">
<path d="M0 0.000111675H4560.93V1190.93H0V0.000111675Z" fill="white"/>
</mask>
<g mask="url(#mask19_208_38033)">
<path d="M2870.74 481.131C2852.32 444.145 2809.49 396.394 2775.16 365.434L2772.3 362.967L2729.9 383.098L2736.24 388.787C2772.57 422.095 2810.82 469.986 2827.18 502.639L2829.67 507.719L2873.47 486.198L2870.74 481.131Z" fill="black"/>
</g>
<mask id="mask20_208_38033" style="mask-type:luminance" maskUnits="userSpaceOnUse" x="0" y="0" width="4561" height="1191">
<path d="M0 0.000111675H4560.93V1190.93H0V0.000111675Z" fill="white"/>
</mask>
<g mask="url(#mask20_208_38033)">
<path d="M2417.3 489.669C2444.78 466.582 2467.2 428.653 2485.87 373.676L2487.53 368.542L2446 352.07L2444.23 357.952C2437.39 379.302 2417.42 432.206 2379.81 462.256L2373.52 467.321L2414.17 492.305L2417.3 489.669Z" fill="black"/>
</g>
<mask id="mask21_208_38033" style="mask-type:luminance" maskUnits="userSpaceOnUse" x="0" y="0" width="4561" height="1191">
<path d="M0 0.000111675H4560.93V1190.93H0V0.000111675Z" fill="white"/>
</mask>
<g mask="url(#mask21_208_38033)">
<path d="M2732.95 442.618L2724.32 435.774L2723.76 446.854C2721.07 503.374 2716.31 505.526 2696.6 505.526H2591.2C2563.01 505.526 2560.99 502.853 2560.85 494.203C2656.94 449.045 2730.57 390.999 2779.73 321.635L2783.71 315.927L2739.64 296.337L2736.96 300.253C2697.75 356.759 2638.51 405.199 2560.83 444.274V353.434H2515.5V465.082C2477.98 481.179 2436.37 494.989 2388.36 507.273L2376.97 510.187L2386.32 517.355C2394.4 523.557 2406.47 537.954 2412.32 545.478L2414.72 548.577L2418.39 547.467C2451.99 538.095 2485.23 526.662 2517.23 513.466C2523.52 542.721 2546.73 548.226 2589.03 548.226H2698.75C2747.55 548.226 2761.47 530.249 2766.47 460.782L2766.8 455.93L2762.2 454.847C2752.42 452.25 2738.83 447.066 2732.95 442.618Z" fill="black"/>
</g>
<mask id="mask22_208_38033" style="mask-type:luminance" maskUnits="userSpaceOnUse" x="0" y="0" width="4561" height="1191">
<path d="M0 0.000111675H4560.93V1190.93H0V0.000111675Z" fill="white"/>
</mask>
<g mask="url(#mask22_208_38033)">
<path d="M3377.96 232.396H3439.66V279.251H3377.96V232.396ZM3377.96 147.609H3439.66V193.915H3377.96V147.609ZM3208.77 259.907C3198.11 272.591 3188.04 284.571 3180.71 286.283L3174.02 287.808L3176.79 294.088C3179.97 301.611 3184.98 315.64 3185.93 321.392L3187.32 330.016L3194.63 325.276C3201.07 321.148 3218.27 317.985 3295.95 306.763C3296.58 310.931 3297.17 315.176 3297.75 319.672C3297.91 320.813 3298.06 321.943 3298.21 323.044C3298.4 324.464 3298.58 325.841 3298.77 327.051L3299.53 333.363L3336.6 324.309L3336.05 319.288C3336.03 319.123 3336.01 318.949 3335.99 318.783H3482.9V199.889C3484.55 204.497 3486.78 211.808 3489.63 223.399L3491.47 229.924L3497.63 227.112C3503.42 224.419 3514.25 221.907 3555.4 216.097C3539.42 239.573 3525.75 257.281 3519.79 264.5C3514.4 271.445 3500.1 289.895 3490.67 292.12L3483.74 293.792L3486.91 300.257C3490.42 307.212 3494.96 321.517 3495.95 326.812L3497.28 334.061L3503.97 330.968C3511.25 327.553 3527.29 324.601 3606.88 314.081C3607.07 314.868 3607.25 315.637 3607.44 316.371C3608.9 322.379 3610.16 327.568 3610.88 332.091L3612.08 338.541L3649.21 326.427L3648.11 321.335C3642.65 296.585 3629.69 259.788 3622.45 240.073L3620.56 234.839L3586.14 246.308L3587.77 251.629C3589.42 257.071 3591.25 262.735 3593.2 268.4C3593.7 269.947 3594.21 271.505 3594.72 273.076C3595.41 275.199 3596.11 277.344 3596.8 279.508L3551.15 284.587C3583.62 245.039 3615.59 197.336 3641.72 149.367L3644.46 144.305L3606.99 124.497L3604.5 129.849C3595.91 147.567 3587.95 162.765 3580.2 176.253L3538.57 180.544C3557.13 150.135 3575.53 112.668 3589.53 76.6613L3591.76 71.016L3550.72 57.7946L3549.06 63.4266C3536.07 107.672 3510.05 154.553 3501.93 167.532C3492.12 183.776 3487.25 186.761 3485.2 187.101L3482.9 187.5V108.056H3420.57L3423.18 100.409C3426.77 89.9813 3430.48 79.2 3434.33 69.1814L3436.7 62.8067L3390.52 54.024L3389.91 60.168C3388.59 72.0814 3384.77 90.6414 3380.06 108.056H3335.79V317.071C3332.92 293.927 3324.78 259.084 3315.69 231.205L3314.01 226.256L3278.77 234.676L3281.09 243.18C3283.78 252.899 3286.37 262.443 3288.51 272.072L3239.8 278.035C3271.14 240.217 3303.36 192.631 3331.12 143.115L3334.08 137.96L3297.04 118.724L3294.54 124.003C3287.08 139.307 3278.13 155.204 3270.24 169.213L3268.06 173.035L3234.61 176.331C3252.51 147.509 3270.08 112.155 3283.34 78.1321L3285.18 72.804L3246.25 58.116L3244.34 63.8694C3231.25 106.311 3205.31 152.208 3197.84 163.248L3197.71 163.468C3191.07 175.147 3185.81 181.145 3181.65 181.805L3174.64 182.885L3177.2 189.587C3180.28 197.216 3185.01 211.831 3186.59 217.612L3188.53 224.532L3194.83 221.099C3199.1 218.751 3207.43 216.772 3243.4 211.788C3229.03 233.391 3216.02 251.548 3209.5 259.043L3208.77 259.907Z" fill="black"/>
</g>
<mask id="mask23_208_38033" style="mask-type:luminance" maskUnits="userSpaceOnUse" x="0" y="0" width="4561" height="1191">
<path d="M0 0.000111675H4560.93V1190.93H0V0.000111675Z" fill="white"/>
</mask>
<g mask="url(#mask23_208_38033)">
<path d="M3328.29 404.034C3290.81 444.846 3218.29 478.123 3163.07 492.994L3152.66 495.724L3160.78 502.827C3168.03 509.12 3177.72 521.251 3182.85 530.466L3185.15 534.52L3189.57 533.123C3247.18 514.55 3324.09 473.699 3366.03 424.316L3371.05 418.464L3330.98 401.011L3328.29 404.034Z" fill="black"/>
</g>
<mask id="mask24_208_38033" style="mask-type:luminance" maskUnits="userSpaceOnUse" x="0" y="0" width="4561" height="1191">
<path d="M0 0.000111675H4560.93V1190.93H0V0.000111675Z" fill="white"/>
</mask>
<g mask="url(#mask24_208_38033)">
<path d="M3649.29 353.936H3432.04V321.139H3385.61V353.936H3167.82V396.148H3385.61V550.863H3432.04V396.148H3649.29V353.936Z" fill="black"/>
</g>
<mask id="mask25_208_38033" style="mask-type:luminance" maskUnits="userSpaceOnUse" x="0" y="0" width="4561" height="1191">
<path d="M0 0.000111675H4560.93V1190.93H0V0.000111675Z" fill="white"/>
</mask>
<g mask="url(#mask25_208_38033)">
<path d="M3646.11 499.372C3611.62 471.565 3542.15 428.457 3484.54 399.123L3480.64 397.056L3452.2 429.78L3458.6 433.083C3516.28 463.052 3584.17 506.931 3616.48 535.111L3620.87 539.079L3650.65 502.968L3646.11 499.372Z" fill="black"/>
</g>
<mask id="mask26_208_38033" style="mask-type:luminance" maskUnits="userSpaceOnUse" x="0" y="0" width="4561" height="1191">
<path d="M0 0.000111675H4560.93V1190.93H0V0.000111675Z" fill="white"/>
</mask>
<g mask="url(#mask26_208_38033)">
<path d="M4169.18 342.099C4163.3 366.528 4154.85 388.536 4144 407.623C4128.25 398.983 4112.78 391.007 4097.93 383.869C4102.13 373.741 4106.3 362.613 4110.34 351.833L4111.82 347.947C4112.55 346.001 4113.29 344.049 4114.05 342.099H4169.18ZM4203.38 495.844L4237.36 467.669L4231.77 463.253C4219.36 453.588 4201.93 441.976 4179.94 428.712C4194.22 404.631 4204.68 376.949 4212.7 342.099H4245.64V304.144H4220.17C4221.38 296.771 4222.52 289.727 4223.34 281.9L4224.01 276.44L4182.14 269.96L4181.2 275.719C4180.49 281.095 4179.76 286.251 4179.04 291.341C4178.73 293.581 4178.41 295.809 4178.11 298.023L4177.23 304.144H4127.52C4132.95 286.941 4138.1 269.231 4142.55 252.515H4242.96V211.939H4041.33V252.515H4100.66C4096.97 267.084 4091.77 284.044 4084.83 304.144H4035V342.099H4071.53C4064.51 359.667 4056.85 377.516 4048.17 396.532L4045.79 401.849L4051.13 404.133C4071.72 413.092 4095 425.173 4120.36 440.067C4096.06 466.963 4063.65 486.753 4021.43 500.496L4012.07 503.541L4019.37 510.136C4025.15 515.444 4032.12 525.839 4035.54 532.875L4037.84 537.385L4042.61 535.711C4091.28 518.445 4128.51 494.328 4156.33 462.033C4173.27 472.769 4188.22 483.392 4199.71 492.868L4203.38 495.844Z" fill="black"/>
</g>
<mask id="mask27_208_38033" style="mask-type:luminance" maskUnits="userSpaceOnUse" x="0" y="0" width="4561" height="1191">
<path d="M0 0.000111675H4560.93V1190.93H0V0.000111675Z" fill="white"/>
</mask>
<g mask="url(#mask27_208_38033)">
<path d="M4435.53 430.155C4427.52 426.853 4416.3 420.388 4409.3 413.393L4400.09 404.116L4399.54 417.224C4398.77 436.416 4397.5 460.851 4394.49 479.611C4390.39 505.116 4385.1 507.097 4383.58 507.097C4364.39 507.097 4345.45 480.951 4331.5 435.292C4367.19 380.184 4393.16 313.179 4410.89 230.455L4412.02 224.588L4367.84 217.501L4366.78 222.885C4355.48 279.945 4338.44 330.824 4316.08 374.292C4305.84 320.768 4298.63 253.352 4295.13 178.352H4429.54V134.573H4397.9L4417.12 113.365L4412.79 109.556C4396.64 94.8987 4363.75 71.7747 4334.61 57.7974L4330.92 56.0067L4303.82 83.8054L4310.18 87.488C4334.73 101.729 4361.93 120.544 4378.53 134.573H4293.76C4293.38 111.531 4293.38 88.1507 4293.38 63.4614V57.744H4246.95V63.4614C4246.95 87.8 4247.4 111.704 4248.28 134.573H3981.95V290.781C3981.95 363.691 3976.99 455.875 3938.26 522.113L3935.28 527.197L3940.48 530.067C3946.46 533.273 3959.92 543.491 3965.48 549.532L3970.6 555.172L3974.56 548.669C4009.34 491.735 4026.25 407.379 4026.25 290.781V178.352H4249.86C4255.05 284.416 4265.83 368.693 4281.89 428.92C4254.84 464.763 4221.58 494.356 4183.05 516.892L4175.73 521.117L4182.32 526.309C4189.49 531.965 4201.28 544.329 4206.25 550.765L4209.43 554.977L4213.81 552.068C4245.67 531.517 4273.58 507.488 4298.99 478.717C4319.24 528.003 4346.4 552.98 4379.78 552.98C4400.59 552.98 4413.76 545.053 4422.48 527.276C4430.89 510.144 4435.84 482.804 4439.04 435.809L4439.26 431.753L4435.53 430.155Z" fill="black"/>
</g>
</g>
<defs>
<clipPath id="clip0_208_38033">
<rect width="4560.93" height="1190.93" fill="white"/>
</clipPath>
</defs>
</svg>
