<?xml version="1.0" encoding="UTF-8"?>
<svg id="_圖層_1" data-name="圖層 1" xmlns="http://www.w3.org/2000/svg" viewBox="0 0 1180 300">
  <defs>
    <style>
      .cls-1 {
        fill: #446a97;
      }

      .cls-2 {
        fill: #1b96d3;
      }

      .cls-3 {
        fill: #2d2a2b;
      }
    </style>
  </defs>
  <path class="cls-3" d="M358.55,56.37c-15.19,4.02-23.86,23.25-12.82,35.99,6.73,7.77,18.85,9.71,28.46,7.24,31.29-8.09,13.41-50.96-15.65-43.23Z"/>
  <path class="cls-1" d="M107.08,59.52c-27.19,4.41-31.75,35.5-25.83,57.63,3.96,14.82,13.8,28.19,21.36,41.35,18.16,31.6,38,85.37,83.82,76.59,24.13-4.64,27.82-35.77,23.21-55.36-3.12-13.25-12.03-25.21-18.74-36.88-17.23-30.18-39.43-90.53-83.82-83.33Z"/>
  <path class="cls-1" d="M230.02,59.52c-27.31,4.39-31.96,34.17-26.4,56.51,3.88,15.65,14.11,29.89,22.38,43.59,18.36,30.98,37.85,84.94,83.38,75.46,25.07-5.05,27.1-36.55,22.56-56.46-3.02-13.26-12.25-25.22-18.89-36.88-17.15-30.1-38.95-89.3-83.02-82.21Z"/>
  <path class="cls-3" d="M408.84,204.33c4.22,14.65,10.06,24.59,8.94,40.24,26.31-6.48,55.73-6.11,78.23-23.36,13.85-10.61,19.65-30.6,7.46-44.77-11.12-12.92-29.81-18.62-44.34-26.29-5.59-2.81-15.37-6.94-16.76-13.99-.93-5.96,5.23-12.3,10.06-14.53,12.98-6.31,26.38,2.98,38,7.82,2.48-10.31,10.75-16.42,19-22.35-6.71-7.74-19.3-11.11-29.06-12.76-31.77-5.38-83.82,7.66-69.02,50.76,5.65,16.76,21.72,26.12,36.61,33.2,4.35,2.07,15.29,6.01,13.12,12.63-5.31,16.17-39.46,13.41-52.24,13.41Z"/>
  <path class="cls-3" d="M786.61,204.33v-1.12c-5.01-4.91-15.15-17.86-22.35-18.22-19-.78-36.62,22.08-55.68,5.34-15.54-13.65-8.38-44.98,7.62-54.99,14.53-9.14,32.41-6.38,48.06-1.42l1.12-34.65c-16.77-3.24-33.53-4.91-50.29-1.72-70.92,13.38-64.55,132.49,6.7,140.12,10.02,1.07,21.87-1.52,31.29-4.89,14.22-4.98,23.67-17.74,33.53-28.45Z"/>
  <path class="cls-3" d="M937.49,97.03c5.34,16.84,4.06,35.09,4.47,52.53.71,28.5,1.97,57.83-3.35,86.06l46.94-2.24c-2.27-17.55-6.71-34.65-7.85-52.53-.4-5.93-2.58-13.2-.42-19,5.13-13.75,29.83-23,42.91-25.71l-11.18-33.53c-12.56,3.59-23.23,11.18-32.41,20.12l2.23-26.82-41.35,1.12Z"/>
  <path class="cls-3" d="M879.37,99.27c0,20.84-1.36,41.67-1.12,62.59,0,6.46,3.73,17.2-.03,23.03-7.58,11.77-33.86,12.4-39.53-.68-9.61-22.05-9.61-57.33-4.02-80.47l-39.12-2.24c-5.73,30.84-7.82,66.51-.39,97.24,3.26,13.79,12.68,30.42,27.21,35.04,22.95,7.43,39.77-6.63,60.35-12.69l1.12,14.53h42.47c-12.86-45.33-13.41-89.41-13.41-136.35h-33.53Z"/>
  <path class="cls-3" d="M345.14,114.92c5.17,40.72,4.05,77.83-1.12,118.47,17.33-3.96,30.79-4.47,48.06,0l-8.94-65.94,2.23-53.65c-14.81,3.96-25.21,3.06-40.23,1.12Z"/>
  <path class="cls-3" d="M640.19,181.97c-26.04,8.49-74.62,34.05-87.18-4.47l92.76-7.82c0-14.52-.25-28.69-5.59-42.47-16.15-42.73-70.67-44.71-101.71-17.56-34.65,30.4-26.25,98.24,13.41,120.03,12.59,7.05,24.89,8.75,39.12,8.17,22.3-1.02,40.56-9.67,61.47-15.65l-12.29-40.24ZM613.37,142.86l-60.35,3.35c2.73-31.29,54.71-34.6,60.35-3.35Z"/>
  <path class="cls-3" d="M1145.38,181.97c-24.91,8.48-74.49,33.93-87.18-3.35,29.06-7.16,62.93-8.94,92.76-8.94,0-14.39,0-28.81-5.16-42.47-16.09-41.88-69.94-45.23-101.01-18.51-35.77,30.8-27.94,99.73,13.41,121.58,12.54,6.65,25.05,8.44,39.12,7.58,21.89-1.6,39.77-9.72,60.35-15.65l-12.29-40.24ZM1118.55,142.86l-60.35,3.35c4.11-30.49,54.63-35.45,60.35-3.35Z"/>
  <path class="cls-2" d="M50.08,162.38c-23.61,4.46-34.29,34.18-23.57,54.24,8.27,15.65,24.68,21.43,41.45,18.64,29.41-4.91,38.22-42.94,18.79-63.24-9.1-9.51-24.1-12.02-36.68-9.64Z"/>
</svg>