<?xml version="1.0" encoding="UTF-8"?>
<svg id="_圖層_1" data-name="圖層 1" xmlns="http://www.w3.org/2000/svg" xmlns:xlink="http://www.w3.org/1999/xlink" viewBox="0 0 240 76">
  <defs>
    <style>
      .cls-1 {
        fill: #1a325e;
      }

      .cls-2 {
        fill: url(#_未命名漸層_37);
      }

      .cls-3 {
        fill: url(#_未命名漸層_32);
      }

      .cls-4 {
        fill: url(#_未命名漸層_33);
      }

      .cls-5 {
        fill: url(#_未命名漸層_35);
      }

      .cls-6 {
        fill: url(#_未命名漸層_30);
      }

      .cls-7 {
        fill: url(#_未命名漸層_31);
      }

      .cls-8 {
        fill: url(#_未命名漸層_37-2);
      }

      .cls-9 {
        fill: url(#_未命名漸層_35-2);
      }

      .cls-10 {
        fill: #19325f;
      }
    </style>
    <linearGradient id="_未命名漸層_33" data-name="未命名漸層 33" x1="53.4" y1="42.45" x2="67.78" y2="42.45" gradientUnits="userSpaceOnUse">
      <stop offset="0" stop-color="#19325f"/>
      <stop offset=".05" stop-color="#163566"/>
      <stop offset=".28" stop-color="#0c4080"/>
      <stop offset=".51" stop-color="#054793"/>
      <stop offset=".74" stop-color="#014c9e"/>
      <stop offset="1" stop-color="#004ea2"/>
    </linearGradient>
    <linearGradient id="_未命名漸層_32" data-name="未命名漸層 32" x1="66.6" y1="39.56" x2="48.42" y2="21.39" gradientUnits="userSpaceOnUse">
      <stop offset="0" stop-color="#19325f"/>
      <stop offset=".04" stop-color="#163464"/>
      <stop offset=".27" stop-color="#0c3f7f"/>
      <stop offset=".51" stop-color="#054792"/>
      <stop offset=".75" stop-color="#014c9e"/>
      <stop offset="1" stop-color="#004ea2"/>
    </linearGradient>
    <linearGradient id="_未命名漸層_31" data-name="未命名漸層 31" x1="74.78" y1="35.53" x2="93.06" y2="53.8" gradientUnits="userSpaceOnUse">
      <stop offset="0" stop-color="#19325f"/>
      <stop offset=".06" stop-color="#163566"/>
      <stop offset=".28" stop-color="#0c4080"/>
      <stop offset=".5" stop-color="#054793"/>
      <stop offset=".74" stop-color="#014c9e"/>
      <stop offset="1" stop-color="#004ea2"/>
    </linearGradient>
    <linearGradient id="_未命名漸層_30" data-name="未命名漸層 30" x1="86.66" y1="27.16" x2="73.72" y2="40.11" gradientUnits="userSpaceOnUse">
      <stop offset="0" stop-color="#19325f"/>
      <stop offset=".06" stop-color="#153567"/>
      <stop offset=".28" stop-color="#0c4081"/>
      <stop offset=".5" stop-color="#054793"/>
      <stop offset=".74" stop-color="#014c9e"/>
      <stop offset="1" stop-color="#004ea2"/>
    </linearGradient>
    <linearGradient id="_未命名漸層_35" data-name="未命名漸層 35" x1="68.2" y1="33.29" x2="86.05" y2="15.32" gradientUnits="userSpaceOnUse">
      <stop offset="0" stop-color="#eb613b"/>
      <stop offset=".22" stop-color="#ee773f"/>
      <stop offset=".46" stop-color="#f08a42"/>
      <stop offset=".72" stop-color="#f29544"/>
      <stop offset="1" stop-color="#f39945"/>
    </linearGradient>
    <linearGradient id="_未命名漸層_35-2" data-name="未命名漸層 35" x1="60.23" y1="22.24" x2="72.48" y2="34.41" xlink:href="#_未命名漸層_35"/>
    <linearGradient id="_未命名漸層_37" data-name="未命名漸層 37" x1="54.53" y1="60.84" x2="73.11" y2="42.39" gradientUnits="userSpaceOnUse">
      <stop offset="0" stop-color="#f39945"/>
      <stop offset=".28" stop-color="#f29544"/>
      <stop offset=".54" stop-color="#f08a42"/>
      <stop offset=".78" stop-color="#ee773f"/>
      <stop offset="1" stop-color="#eb613b"/>
    </linearGradient>
    <linearGradient id="_未命名漸層_37-2" data-name="未命名漸層 37" x1="69.43" y1="42.3" x2="80.95" y2="54.15" xlink:href="#_未命名漸層_37"/>
  </defs>
  <g>
    <g>
      <g>
        <path class="cls-1" d="M159.08,46.75h-4.37c-.15,0-.28.13-.28.28v1.23c0,.16.13.28.28.28h2.43c.16,0,.29.13.29.28v9.21c0,.16.13.28.28.28h1.37c.15,0,.28-.13.28-.28v-11.01c0-.16-.13-.28-.28-.28Z"/>
        <path class="cls-1" d="M162.08,46.75h-1.8c-.16,0-.29.13-.29.28v1.23c0,.16.13.28.29.28h1.8c.15,0,.28-.13.28-.28v-1.23c0-.16-.13-.28-.28-.28Z"/>
        <path class="cls-1" d="M180.94,54.89h-1.76c-.05,0-.1.03-.13.08-.44.98-1.08,1.46-1.96,1.46-.36,0-.68-.08-.93-.23,0,0,0,0-.01,0-.27-.13-.48-.31-.64-.53,0,0,0,0,0,0-.2-.22-.33-.52-.4-.89-.08-.38-.12-1.13-.12-2.23s.04-1.85.12-2.25c.07-.36.2-.65.4-.87,0,0,0,0,0-.01.16-.21.38-.4.65-.54.26-.14.57-.21.94-.22.49.01.91.16,1.26.44.33.3.56.67.69,1.1.02.06.07.1.14.1h1.76s.08-.02.11-.05c.03-.03.04-.07.03-.12-.18-.97-.62-1.79-1.3-2.45-.69-.66-1.59-.99-2.68-1-.89.01-1.64.23-2.23.66-.6.42-1.04.9-1.32,1.44-.17.29-.3.66-.38,1.12-.08.46-.11,1.33-.11,2.66s.04,2.18.11,2.64c.04.25.09.46.16.63h0c.07.16.14.33.22.5.28.54.72,1.03,1.32,1.43.6.43,1.35.66,2.23.68h0c.98,0,1.84-.29,2.56-.87.7-.58,1.18-1.42,1.42-2.49.01-.04,0-.09-.02-.12-.03-.03-.07-.05-.11-.05Z"/>
        <g>
          <path class="cls-1" d="M164.07,58.04c0,.16.13.28.28.28h6.71c.16,0,.28-.13.28-.28v-1.32c0-.16-.13-.29-.28-.29h-4.76c-.16,0-.29-.12-.29-.28v-2.47c0-.16.13-.28.29-.28h3.98c.15,0,.28-.13.28-.29v-1.23c0-.16-.13-.28-.28-.28h-3.98c-.16,0-.29-.13-.29-.29v-1.75c0-.16-.13-.28-.28-.28h-1.37c-.16,0-.28.12-.28.28v8.48Z"/>
          <path class="cls-1" d="M171.06,48.64c.16,0,.28-.13.28-.28v-1.33c0-.16-.13-.28-.28-.28h-6.71c-.16,0-.28.13-.28.28v1.33c0,.16.13.28.28.28h6.71Z"/>
        </g>
        <g>
          <path class="cls-1" d="M187.88,51.59h-2.87c-.16,0-.28-.13-.28-.29v-4.27c0-.16-.13-.28-.28-.28h-1.37c-.16,0-.28.13-.28.28v11.01c0,.16.13.28.28.28h1.37c.16,0,.28-.13.28-.28v-4.37c0-.16.13-.28.28-.28h3.49c.16,0,.28.13.28.28v4.37c0,.16.13.28.28.28h1.37c.16,0,.28-.13.28-.28v-6.16c0-.16-.13-.28-.28-.28h-2.56Z"/>
          <path class="cls-1" d="M189.07,46.75h1.37c.16,0,.28.13.28.28v3.65c0,.16-.13.28-.28.28h-1.37c-.16,0-.28-.13-.28-.28v-3.65c0-.16.13-.28.28-.28Z"/>
        </g>
      </g>
      <g>
        <path class="cls-1" d="M151.71,48.74c-.32,0-.59-.11-.81-.32-.22-.22-.33-.5-.33-.84s.11-.62.33-.84c.22-.22.49-.33.81-.33s.58.11.8.33c.22.22.33.5.33.84s-.11.62-.33.84c-.22.21-.48.32-.8.32ZM151.71,48.51c.25,0,.46-.08.62-.26.16-.17.25-.39.25-.67s-.08-.5-.25-.68c-.17-.17-.37-.26-.62-.26s-.46.09-.63.26c-.16.18-.25.4-.25.68s.08.5.25.67c.16.18.37.26.63.26ZM151.5,48.12s-.06.04-.1.04c-.04,0-.07-.01-.09-.04-.03-.03-.04-.06-.04-.09v-.87c0-.05.02-.09.05-.13.04-.04.08-.05.13-.05h.29c.14,0,.25.03.33.09.09.07.13.16.13.29,0,.07-.02.13-.06.19-.03.06-.08.1-.14.13-.01,0-.02.02-.01.03l.18.33s.02.06,0,.09c-.02.03-.04.04-.08.04-.1,0-.17-.04-.22-.13l-.12-.24s-.02-.02-.03-.02h-.17s-.03,0-.03.02v.24s-.01.07-.04.09ZM151.54,47.54s0,.02.03.02h.12c.07,0,.13-.01.17-.05.04-.03.06-.08.06-.14,0-.13-.07-.19-.22-.19h-.13s-.03,0-.03.02v.33Z"/>
        <path class="cls-1" d="M118.75,57.81l-2.25-4.27s-.03-.09-.01-.14c.02-.05.05-.08.09-.1.09-.04.17-.08.26-.12.54-.29.96-.71,1.26-1.25.3-.53.45-1.15.45-1.85s-.15-1.32-.44-1.85c-.29-.54-.72-.96-1.26-1.25-.53-.29-1.16-.44-1.86-.44h-4.48c-.18,0-.33.15-.33.33v11.38c0,.18.15.33.33.33h1.31c.18,0,.33-.14.33-.33v-9.49c0-.18.15-.33.33-.33h2.57c.28,0,.53.07.74.2.21.13.38.32.5.57.12.25.18.55.18.88s-.06.63-.18.88c-.12.25-.28.44-.5.57-.22.14-.46.21-.74.21h-1.92c-.18,0-.33.14-.33.32v1.23c0,.18.15.33.33.33h1.08c.07,0,.13.04.16.1l2.3,4.57c.09.17.26.28.45.28h1.22c.05,0,.11-.01.15-.03.29-.16.37-.47.24-.71Z"/>
        <path class="cls-1" d="M107.87,48.53c-.36-.65-.9-1.16-1.59-1.5-.68-.33-1.52-.51-2.48-.51h-.92c-.18,0-.33.15-.33.33v1.23c0,.18.15.33.33.33h.97c.82,0,1.45.21,1.89.62.44.42.66,1.01.66,1.78v3.44c0,.76-.22,1.36-.66,1.77-.44.42-1.08.63-1.89.63h-1.62c-.18,0-.33-.15-.33-.33v-9.48c0-.18-.15-.33-.33-.33h-1.31c-.18,0-.33.15-.33.33v11.37c0,.18.15.33.33.33h3.53c.96,0,1.79-.17,2.48-.51.69-.34,1.23-.84,1.59-1.5.36-.65.54-1.44.54-2.35v-3.31c0-.91-.18-1.7-.54-2.35Z"/>
        <g>
          <path class="cls-1" d="M130.9,47.28c-.14-.24-.06-.55.22-.72.04-.03.1-.04.16-.04h1.22c.19,0,.35.1.44.26l1.62,2.88c.06.1.06.22,0,.32l-.79,1.39c-.12.22-.45.22-.57,0l-2.3-4.1Z"/>
          <path class="cls-1" d="M136.23,52.45c-.03.05-.03.12,0,.18l2.91,5.17c.13.24.06.55-.22.72-.05.03-.11.04-.16.04h-1.22c-.18,0-.36-.1-.44-.26l-1.92-3.41c-.05-.08-.12-.09-.16-.09s-.11,0-.16.09l-1.92,3.41c-.09.16-.26.26-.44.26h-1.22c-.06,0-.11-.01-.16-.04-.29-.16-.36-.47-.22-.72l2.91-5.17h0l2.36-4.19.93-1.66c.09-.16.26-.26.44-.26h1.22c.05,0,.11,0,.16.04.28.17.36.48.22.72l-2.91,5.17Z"/>
        </g>
        <path class="cls-1" d="M148.99,48.54c-.35-.68-.86-1.2-1.51-1.58-.46-.26-.98-.43-1.54-.51-.19-.03-.37.13-.37.33v1.32c0,.15.11.29.26.32.22.05.42.13.61.24.34.2.6.49.79.86.19.37.28.81.28,1.31v3.43c0,.5-.09.94-.28,1.31-.19.37-.45.66-.79.86-.34.2-.74.31-1.19.31s-.85-.1-1.19-.31c-.34-.2-.6-.49-.79-.86-.19-.37-.29-.81-.29-1.31v-3.43c0-.5.1-.94.29-1.31.18-.37.45-.66.79-.86.18-.1.39-.19.61-.24.15-.03.26-.17.26-.32v-1.32c0-.2-.17-.35-.37-.33-.56.08-1.08.25-1.54.51-.64.37-1.15.9-1.51,1.58-.35.67-.53,1.46-.53,2.34v3.31c0,.88.18,1.67.53,2.34.36.68.86,1.21,1.51,1.58.64.37,1.4.56,2.24.56s1.59-.19,2.24-.56c.65-.37,1.15-.9,1.51-1.58.35-.67.53-1.46.53-2.34v-3.31c0-.88-.18-1.67-.53-2.34Z"/>
        <path class="cls-1" d="M128.5,48.54c-.35-.68-.86-1.2-1.51-1.58-.64-.37-1.4-.55-2.24-.55s-1.59.18-2.24.55c-.65.37-1.15.9-1.51,1.58-.36.67-.53,1.46-.53,2.34v3.31c0,.88.18,1.67.53,2.34.35.68.86,1.21,1.51,1.58.46.26.97.43,1.54.51.19.03.37-.13.37-.32v-1.32c0-.15-.11-.28-.26-.32-.22-.05-.42-.13-.6-.24-.34-.2-.6-.49-.79-.86-.19-.37-.28-.81-.28-1.31v-3.43c0-.5.09-.94.28-1.31.19-.37.45-.66.79-.86.34-.2.74-.3,1.19-.3s.85.1,1.19.3c.34.2.6.49.79.86.19.37.28.81.28,1.31v3.43c0,.5-.1.94-.28,1.31-.19.37-.45.66-.79.86-.18.11-.39.19-.61.24-.15.03-.26.17-.26.32v1.32c0,.2.17.35.37.32.56-.07,1.08-.25,1.54-.51.65-.37,1.15-.9,1.51-1.58.35-.67.53-1.46.53-2.34v-3.31c0-.88-.18-1.67-.53-2.34Z"/>
      </g>
    </g>
    <g>
      <path class="cls-10" d="M120.75,23.85c0,.22-.08.41-.25.57-.16.16-.36.24-.57.24h-8.11c-.08,0-.12.03-.14.1-.27,1.15-.58,2.29-.94,3.41-.01.08.02.12.09.12h8.55c.24,0,.43.08.6.24.16.16.25.35.25.58v.98c0,.22-.08.41-.25.57-.17.16-.36.25-.6.25h-3.2c-.06,0-.09.04-.09.12v5.14c0,.08.03.12.09.12h3.74c.22,0,.41.08.57.24.16.16.25.35.25.58v1.01c0,.23-.08.43-.25.58-.16.16-.36.23-.57.23h-11.07c-.23,0-.44-.08-.6-.23-.16-.16-.25-.35-.25-.58v-1.01c0-.24.08-.43.25-.58.16-.16.36-.24.6-.24h4.3c.08,0,.12-.04.12-.12v-5.14c0-.08-.04-.12-.12-.12h-2.48c-.17,0-.31-.06-.43-.17-.12-.12-.18-.26-.18-.44h-.05c-1,2.63-2.19,4.82-3.57,6.56-.14.16-.32.24-.53.24s-.39-.08-.55-.24c-.36-.38-.75-.77-1.16-1.14-.02-.02-.03-.02-.05-.01-.02,0-.03.02-.03.05v3.04c0,.22-.08.41-.24.57-.16.16-.36.25-.6.25h-1.05c-.22,0-.41-.08-.57-.25-.16-.16-.24-.35-.24-.57v-11.7s-.01-.03-.03-.04c-.02,0-.03,0-.05.01-.42.53-.86,1.05-1.33,1.56-.14.14-.31.19-.5.16-.2-.03-.33-.14-.41-.33-.25-.53-.49-1-.72-1.42-.09-.17-.14-.35-.14-.54v-.14c.03-.24.12-.43.28-.61.95-.99,1.85-2.15,2.71-3.48.86-1.32,1.58-2.69,2.17-4.11.09-.22.24-.37.44-.47.12-.06.25-.1.37-.1.09,0,.19.02.28.05l1.05.35c.22.06.37.2.47.4.1.2.1.41,0,.61-.57,1.35-1.19,2.61-1.84,3.76-.03.07-.05.13-.05.21v11.66s.01.02.03.03c.01,0,.03,0,.05-.01,1.95-2.27,3.46-5.58,4.53-9.9.02-.06,0-.1-.07-.1h-2.7c-.24,0-.43-.08-.59-.24-.16-.16-.23-.35-.23-.57v-1.03c0-.23.08-.43.23-.59.16-.17.35-.25.59-.25h3.27c.08,0,.13-.03.14-.09.2-1,.39-2.15.56-3.46.03-.23.14-.42.32-.56.18-.14.39-.19.62-.16l1.26.12c.23.03.42.14.56.31.14.18.19.38.14.6-.16,1.17-.33,2.22-.51,3.15-.02.06,0,.09.07.09h7.55c.22,0,.41.09.57.25.16.16.25.36.25.59v1.03Z"/>
      <path class="cls-10" d="M144.16,35.64c0,.24-.08.43-.25.6-.16.16-.36.24-.59.24h-4.28s-.02,0-.02.01c0,0,0,.01.02.01,1.68.48,3.17.95,4.46,1.4.15.06.24.17.25.34,0,.16-.06.28-.2.36l-1.17.68c-.26.14-.53.21-.79.21-.24,0-.46-.05-.68-.14-1.49-.61-3.24-1.19-5.23-1.75-.17-.05-.27-.15-.3-.31-.03-.17.02-.29.16-.39l.49-.35s.02-.03.01-.05c0-.02-.02-.02-.03-.02h-5.07s-.02,0-.02.01c0,0,0,.02.02.04l.37.14c.15.06.24.18.25.35.02.17-.05.3-.21.37-1.51.83-3.51,1.55-6,2.17-.13.03-.25.05-.37.05-.38,0-.71-.16-1-.47-.28-.3-.55-.57-.82-.82-.12-.11-.16-.24-.12-.4.04-.16.15-.24.31-.26,1.9-.31,3.51-.7,4.83-1.16,0-.02-.01-.02-.02-.02h-4.53c-.23,0-.43-.08-.59-.24-.16-.17-.25-.36-.25-.6v-.14c0-.24.08-.43.25-.6.16-.16.36-.25.59-.25h4.98c.06,0,.09-.03.09-.1v-.6c0-.08-.03-.12-.09-.12h-4.06c-.23,0-.43-.08-.59-.24-.17-.16-.24-.35-.24-.58v-.09c0-.23.08-.43.24-.59.16-.16.36-.25.59-.25h4.06c.06,0,.09-.03.09-.09v-.58c0-.06-.03-.09-.09-.09h-2.64c-.23,0-.43-.08-.58-.25-.16-.16-.24-.36-.24-.6v-4.74c0-.23.08-.43.24-.6.15-.16.35-.24.58-.24h2.66c.07,0,.09-.03.07-.09-.17-.47-.34-.88-.51-1.24-.03-.06-.08-.09-.16-.07-1.31.47-2.49.87-3.53,1.22-.22.06-.44.05-.65-.05-.22-.09-.39-.25-.49-.47l-.19-.39c-.09-.21-.09-.4,0-.6.09-.19.25-.31.47-.36.76-.2,1.54-.41,2.31-.61.03-.01.05-.04.05-.06,0-.02,0-.04-.02-.06-.36-.31-.84-.67-1.45-1.07-.17-.11-.26-.27-.28-.48-.01-.21.06-.38.21-.5l.07-.07s.02-.03.02-.05c-.01-.01-.02-.02-.04-.02h-.73c-.23,0-.43-.08-.59-.24-.16-.17-.24-.36-.24-.58v-.25c0-.24.08-.43.24-.6.16-.17.36-.25.59-.25h7.85c.24,0,.43.08.6.25.16.16.25.36.25.6v4.37c0,.44-.04.78-.11,1.01-.07.24-.21.45-.41.62-.02,0-.02.01-.01.02,0,.02.02.03.03.03h7.45c.06,0,.08-.03.07-.09-.06-.2-.13-.41-.21-.61-.06-.17-.04-.33.06-.49.1-.15.25-.23.43-.23.31.01.53.01.66,0,.11,0,.18-.02.22-.06.04-.04.06-.11.06-.2v-3.17c0-.08-.03-.12-.09-.12h-3.83s-.03.01-.03.02c-.01.02,0,.03.01.05.28.17.56.35.84.54.17.14.26.32.28.54.02.22-.06.4-.23.56l-.16.16v.03s0,.02.02.02c.39-.1.85-.22,1.38-.38.22-.06.42-.03.61.08.19.12.3.29.35.53v.05c.05.23,0,.46-.11.67-.13.21-.3.35-.52.43-1.71.59-3.1,1.06-4.16,1.4-.24.08-.46.07-.68-.03-.22-.09-.38-.24-.49-.45l-.23-.44c-.09-.19-.1-.38-.01-.57.09-.19.23-.32.44-.36.58-.16,1.36-.36,2.36-.63.02-.01.03-.03.04-.06,0-.03,0-.04-.01-.04-.36-.31-.83-.65-1.42-1.03-.17-.13-.27-.29-.29-.49-.02-.2.05-.37.2-.52l.02-.02s.02-.03.01-.05c0-.01-.02-.02-.03-.02h-.66c-.22,0-.41-.08-.57-.24-.16-.17-.25-.36-.25-.58v-.25c0-.24.08-.43.25-.6.17-.17.36-.25.57-.25h8.22c.23,0,.43.08.59.25.16.16.25.36.25.6v4.37c0,.53-.07.93-.19,1.2-.13.27-.36.49-.7.64-.16.08-.34.15-.56.21-.08.02-.12.05-.12.12v5.09c0,.23-.08.43-.23.6-.16.16-.35.25-.58.25h-2.69c-.06,0-.1.03-.1.09v.58c0,.07.03.09.1.09h4.16c.23,0,.43.08.6.25.16.16.25.36.25.59v.09c0,.22-.08.41-.25.58-.16.16-.36.24-.6.24h-4.16c-.06,0-.1.04-.1.12v.6c0,.07.03.1.1.1h5.05c.23,0,.43.08.59.25.16.16.25.36.25.6v.14ZM128.3,21.56c.2-.05.4-.01.58.1.19.12.31.29.35.5v.05c.05.25,0,.48-.11.68-.13.2-.31.34-.54.42l-.28.1s-.02.03-.02.04c0,0,0,0,.02,0,.34.03.63.05.86.05.17,0,.32,0,.44-.02.11,0,.18-.02.22-.06.04-.04.06-.11.06-.2v-3.17c0-.08-.03-.12-.1-.12h-3.6s-.02.01-.02.02v.05c.31.2.59.4.84.58.17.13.26.3.27.53,0,.23-.07.42-.24.57l-.3.28s0,.03.02.05c.26-.08.78-.23,1.54-.44ZM127.88,26.51c-.08,0-.12.03-.12.09v.61c0,.08.04.12.12.12h4.04c.08,0,.12-.04.12-.12v-.61c0-.06-.04-.09-.12-.09h-4.04ZM127.88,28.85c-.08,0-.12.04-.12.12v.63c0,.06.04.1.12.1h4.04c.08,0,.12-.03.12-.1v-.63c0-.08-.04-.12-.12-.12h-4.04ZM131.52,31.32c-.06,0-.09.03-.09.09v.58c0,.07.03.09.09.09h3.76c.08,0,.12-.03.12-.09v-.58c0-.06-.04-.09-.12-.09h-3.76ZM131.52,33.85c-.06,0-.09.04-.09.12v.6c0,.07.03.1.09.1h3.76c.08,0,.12-.03.12-.1v-.6c0-.08-.04-.12-.12-.12h-3.76ZM138.95,27.33c.08,0,.12-.04.12-.12v-.61c0-.06-.04-.09-.12-.09h-4.16c-.08,0-.12.03-.12.09v.61c0,.08.04.12.12.12h4.16ZM138.95,29.69c.08,0,.12-.03.12-.1v-.63c0-.08-.04-.12-.12-.12h-4.16c-.08,0-.12.04-.12.12v.63c0,.06.04.1.12.1h4.16Z"/>
      <path class="cls-10" d="M155.23,29.74c.17.17.26.38.26.63s-.07.46-.21.65l-.67.94c-.11.14-.26.2-.45.19-.19-.02-.33-.11-.42-.28-.25-.48-.58-1.08-1.01-1.8-.01-.02-.03-.02-.04-.01-.02,0-.02.02-.02.03v8.79c0,.21-.08.41-.24.57-.17.16-.36.25-.58.25h-1.1c-.24,0-.43-.08-.6-.25-.16-.16-.24-.35-.24-.57v-7.69s0-.02-.01-.02c0,0-.01,0-.01.02-.7,1.62-1.4,2.93-2.08,3.95-.11.16-.25.22-.42.2-.17-.03-.3-.12-.37-.29-.17-.37-.37-.78-.61-1.22-.11-.2-.17-.41-.17-.61,0-.25.09-.5.28-.75,1.14-1.53,2.13-3.42,2.99-5.67.02-.06,0-.09-.07-.09h-2.31c-.22,0-.41-.08-.57-.25-.17-.16-.25-.35-.25-.57v-1c0-.23.08-.43.25-.59.16-.16.35-.25.57-.25h2.69c.06,0,.09-.03.09-.09v-2.5c0-.06-.03-.1-.09-.1-.87.14-1.46.24-1.77.28-.22.03-.42-.02-.62-.16-.19-.14-.33-.32-.41-.54-.06-.22-.14-.43-.24-.65-.06-.18-.05-.37.05-.56.09-.19.24-.3.44-.33,2.31-.39,4.35-.9,6.12-1.52.22-.09.44-.1.67-.03.23.07.42.21.56.41l.65.95c.13.18.16.36.1.56-.06.2-.2.33-.4.4-.66.22-1.39.41-2.2.58-.08.02-.12.06-.12.14v3.06c0,.06.04.09.12.09h2.22c.23,0,.43.08.58.25.16.16.23.36.23.59v1c0,.22-.08.41-.23.57-.16.16-.35.25-.58.25h-2.24c-.07,0-.09.03-.09.09s.02.12.07.16c.52.51,1.35,1.44,2.5,2.78ZM168.56,32.33s.02.09.02.14c0,.17-.06.33-.16.47-.12.19-.3.3-.54.35l-1.89.33c-.06.01-.09.06-.09.14v5.09c0,.22-.08.41-.25.57-.16.16-.36.25-.6.25h-1.14c-.22,0-.41-.08-.57-.25-.17-.16-.25-.35-.25-.57v-4.6c0-.06-.04-.09-.12-.09l-6.3,1.1c-.22.03-.42-.02-.61-.15-.19-.13-.29-.31-.33-.53l-.19-1.07s-.02-.09-.02-.14c0-.17.06-.33.16-.46.12-.19.3-.31.53-.35l6.75-1.17c.08,0,.12-.04.12-.12v-13.08c0-.24.08-.43.25-.59.16-.15.35-.23.57-.23h1.14c.24,0,.43.08.6.23.17.16.25.35.25.59v12.61c0,.06.03.09.09.07l1.45-.23c.22-.05.42,0,.61.13.19.14.31.32.35.55l.16,1.03ZM161.28,27.86c.15.17.23.37.22.61,0,.24-.1.43-.27.59l-.75.68c-.15.15-.34.22-.56.21-.22-.02-.4-.11-.56-.28-.67-.76-1.55-1.59-2.64-2.5-.15-.14-.24-.32-.25-.53,0-.21.07-.4.22-.55l.59-.52c.19-.15.4-.24.64-.25.24-.01.45.05.64.19,1.11.84,2.01,1.63,2.71,2.36ZM161.98,21.58c.16.17.22.37.2.6-.02.23-.12.43-.29.58l-.75.68c-.17.14-.37.2-.58.18-.22-.03-.4-.12-.54-.29-.65-.79-1.46-1.59-2.43-2.41-.15-.14-.24-.31-.25-.52,0-.21.07-.39.22-.55l.63-.54c.17-.16.38-.24.62-.25.24,0,.46.07.64.22,1.09.85,1.93,1.62,2.52,2.29Z"/>
      <path class="cls-10" d="M177.32,27.7c.22-.05.42,0,.61.12.19.12.3.29.33.51l.12.96c.03.23-.02.45-.14.65-.13.2-.3.33-.54.4-.61.17-1.16.32-1.66.45-.06.01-.09.06-.09.14v5.61c0,.7-.08,1.24-.24,1.61-.17.37-.44.67-.83.89-.56.31-1.5.48-2.81.51h-.02c-.22,0-.42-.08-.61-.23-.18-.16-.31-.35-.37-.58-.09-.33-.2-.66-.33-1.01-.06-.19-.04-.36.07-.51.11-.16.27-.24.47-.24h1.37c.19,0,.31-.03.37-.09.06-.06.09-.19.09-.37v-4.84c0-.06-.04-.08-.12-.07l-1.4.35c-.22.06-.43.03-.63-.08-.2-.12-.33-.29-.4-.52l-.3-1.1c-.02-.08-.03-.15-.03-.21,0-.14.04-.27.12-.4.11-.18.28-.3.51-.35.59-.14,1.3-.31,2.12-.52.08-.01.12-.05.12-.12v-4.04c0-.06-.04-.1-.12-.1h-1.8c-.24,0-.44-.08-.6-.24-.16-.16-.25-.36-.25-.6v-.96c0-.23.08-.43.25-.6.16-.16.36-.24.6-.24h1.8c.08,0,.12-.03.12-.1v-3.62c0-.24.08-.43.25-.59.16-.15.35-.23.57-.23h1.17c.24,0,.43.08.6.23.16.16.24.35.24.59v3.62c0,.07.03.1.09.1h1.4c.23,0,.43.08.6.24.16.16.25.36.25.6v.96c0,.24-.08.43-.25.6-.17.16-.36.24-.6.24h-1.4c-.06,0-.09.03-.09.1v3.34c0,.06.03.08.09.07l1.28-.33ZM189.49,26.23c.11-.03.22-.05.33-.05.17,0,.35.04.53.12l.63.25c.22.09.38.25.48.47.1.22.11.44.04.65-.87,2.82-2.25,5.18-4.14,7.08-.05.05-.04.09.03.14,1.3.9,2.85,1.61,4.62,2.13.19.06.3.18.35.35.02.07.02.12.02.16,0,.13-.04.23-.12.33-.28.34-.56.72-.84,1.14-.14.21-.32.35-.54.45-.12.05-.25.07-.37.07-.09,0-.2-.03-.3-.07-1.98-.67-3.68-1.56-5.09-2.68-.05-.05-.1-.05-.17,0-1.57,1.07-3.38,1.94-5.42,2.61-.22.08-.44.07-.65-.02-.22-.09-.38-.25-.49-.47-.2-.41-.43-.79-.68-1.16-.06-.1-.09-.21-.09-.33,0-.06,0-.12.02-.18.06-.19.19-.3.37-.35,1.83-.51,3.43-1.2,4.84-2.08.06-.05.07-.09.02-.14-1.24-1.44-2.28-3.1-3.08-5-.06-.17-.06-.33.01-.49.07-.16.19-.27.36-.33.01,0,.02,0,.02,0,0,0-.01-.01-.02-.01h-.33c-.24,0-.43-.08-.59-.25-.15-.16-.23-.35-.23-.57v-.91c0-.24.08-.43.23-.59.16-.16.35-.23.59-.23h3.78c.06,0,.09-.04.09-.12v-2.66c0-.06-.03-.09-.09-.09h-4.2c-.23,0-.43-.08-.6-.25-.16-.16-.25-.36-.25-.59v-.96c0-.24.08-.43.25-.6.16-.16.36-.25.6-.25h4.2c.06,0,.09-.03.09-.09v-2.5c0-.23.08-.43.25-.58.17-.15.36-.24.6-.24h1.17c.22,0,.41.08.57.24.16.15.25.35.25.58v2.5c0,.06.04.09.12.09h4.41c.24,0,.43.08.6.25.16.16.24.36.24.6v.96c0,.23-.08.43-.24.59-.17.17-.36.25-.6.25h-4.41c-.08,0-.12.03-.12.09v2.66c0,.08.04.12.12.12h2.71s.07-.01.12-.02ZM188.09,28.89c.03-.06,0-.09-.07-.09h-5.59c-.07,0-.1.03-.07.09.66,1.52,1.55,2.88,2.71,4.07.05.05.09.05.14,0,1.23-1.2,2.19-2.56,2.87-4.07Z"/>
    </g>
  </g>
  <g>
    <path class="cls-4" d="M66.97,36.06c-1.07-1.07-2.8-1.07-3.87,0l-1.93,1.93h0l-1.93-1.93c.53.54.8,1.23.8,1.93s-.27,1.4-.8,1.94l-4.95,4.57c-1.18,1.18-1.18,3.08,0,4.26.59.59,1.36.88,2.13.88s1.54-.29,2.13-.88l8.44-8.83c1.07-1.07,1.07-2.8,0-3.87Z"/>
    <path class="cls-3" d="M65.04,40.74c-.7,0-1.4-.27-1.93-.8l-14.48-13.47c-1.34-1.35-1.34-3.53,0-4.88,1.35-1.35,3.53-1.35,4.88,0l13.47,14.48c1.07,1.07,1.07,2.8,0,3.87-.54.54-1.24.8-1.94.8Z"/>
    <path class="cls-7" d="M92.24,49.53l-10.61-9.6c-.53-.54-.8-1.24-.8-1.93s.27-1.4.8-1.94l-1.94,1.94-1.93-1.94c-1.07-1.07-2.8-1.07-3.87,0-1.07,1.07-1.07,2.8,0,3.87l13.47,14.48c.67.67,1.56,1.01,2.44,1.01s1.77-.34,2.44-1.01c1.35-1.35,1.35-3.53,0-4.88Z"/>
    <path class="cls-6" d="M75.82,40.74c-.7,0-1.4-.27-1.93-.8-1.07-1.07-1.07-2.8,0-3.87l8.45-8.84c1.18-1.18,3.08-1.18,4.26,0,1.18,1.18,1.18,3.08,0,4.26l-8.83,8.44c-.54.54-1.24.8-1.94.8Z"/>
    <path class="cls-5" d="M86.85,16.01c-1.35-1.35-3.53-1.35-4.88,0l-9.6,10.61c-.53.54-1.23.8-1.93.8s-1.4-.27-1.94-.8l1.94,1.94-1.94,1.94c-1.07,1.07-1.07,2.81,0,3.87.54.54,1.24.81,1.94.81s1.4-.27,1.94-.81l14.48-13.47c1.34-1.35,1.34-3.53,0-4.88Z"/>
    <path class="cls-9" d="M70.43,35.16c-.7,0-1.4-.27-1.94-.81l-8.64-8.25c-1.18-1.18-1.18-3.09,0-4.26,1.18-1.18,3.08-1.18,4.26,0l8.26,8.64c1.07,1.07,1.07,2.81,0,3.87-.54.54-1.24.81-1.94.81Z"/>
    <path class="cls-2" d="M72.37,41.64c-1.07-1.07-2.8-1.07-3.87,0l-14.48,13.47c-1.35,1.35-1.35,3.53,0,4.88.67.67,1.56,1.01,2.44,1.01s1.77-.34,2.44-1.01l9.63-10.64c.53-.51,1.22-.77,1.9-.77s1.4.27,1.93.81l-1.93-1.94,1.94-1.94c1.07-1.07,1.07-2.8,0-3.87Z"/>
    <path class="cls-8" d="M78.88,55.03c-.77,0-1.54-.29-2.13-.88l-8.26-8.64c-1.07-1.07-1.07-2.8,0-3.87,1.07-1.07,2.8-1.07,3.87,0l8.64,8.25c1.18,1.18,1.18,3.08,0,4.26-.59.59-1.36.88-2.13.88Z"/>
  </g>
</svg>