<svg width="610" height="124" viewBox="0 0 610 124" fill="none" xmlns="http://www.w3.org/2000/svg">
<path d="M67.0716 18.0241H6.79718V11.8876H30.5873V9.99085H0V3.40805H30.5873V0H42.6746V3.40805H74.0205V10.001H42.6746V11.8977H67.0716V18.0343V18.0241ZM73.1911 70.4431H0.910337V63.2517H30.5974V61.9636H8.91118V55.8271H30.5873V54.4679C28.9993 54.4679 27.4112 54.549 25.8232 54.549H24.9938C24.3161 54.549 23.7092 54.549 23.0315 54.6201H20.9883C16.0017 54.7012 11.1668 54.7012 7.31304 54.7012H6.70615L6.25098 48.4937L18.2573 48.5748C18.5608 48.1184 18.935 47.5098 19.2384 46.9824H9.34612V45.0146H0.455168V33.269H73.4945V45.0146H63.3695V46.9824H59.5967C62.3884 48.6458 65.3318 50.5426 67.2233 51.9017L61.8624 55.8372H66.2422V61.9737H42.6746V63.2619H73.1911V70.4533V70.4431ZM65.261 31.5853H9.36635V19.7687H65.261V31.5853ZM62.3884 41.4342V39.9228H11.0252V41.4342H62.3884ZM53.5581 26.5848V24.8402H20.3207V26.5848H53.5581ZM47.206 48.5444C46.1541 48.017 45.0111 47.4794 44.0299 47.0331L44.1109 46.9621H32.3979C31.8719 47.5707 31.3459 48.0981 30.8908 48.5545H47.206V48.5444ZM58.7673 55.8169C58.0896 55.2895 57.1793 54.6809 56.279 54.0723L42.6847 54.2955V55.8068H58.7774L58.7673 55.8169Z" fill="#1D4843"/>
<path d="M98.3616 37.1186C95.8582 35.3072 90.2305 31.6743 86.5059 29.4885L92.968 21.8583C96.6927 23.7507 102.463 26.999 105.282 28.7396L98.3718 37.1288L98.3616 37.1186ZM160.215 14.2889L159.686 14.8151C159.157 15.4222 158.546 16.0294 158.017 16.6265L163.187 14.7341C164.632 17.6081 166.077 21.8381 166.606 24.4084L160.683 26.6752C160.683 26.2198 160.612 25.5418 160.459 24.9347L158.18 25.0156V28.1932L162.973 26.6853C164.418 29.4783 166.087 33.8601 166.769 36.2787L160.694 38.1711C160.317 36.1269 159.401 32.6559 158.19 30.0147V39.8408H150.893V32.666C149.978 34.9328 148.919 37.4323 147.932 39.0919C146.945 38.4848 145.042 37.4323 143.526 36.6734V39.3955H127.111V35.1656L121.788 36.5216C121.564 34.781 120.872 31.907 120.272 29.6403V39.8408H112.446V32.3624C111.53 34.781 110.238 37.4222 108.945 39.4664L103.246 35.9954C104.763 33.8804 106.289 29.873 107.042 26.6955L112.436 27.8997V25.3293L104.763 25.8555L104.152 19.4296L109.922 19.2778C110.228 18.5998 111.367 17.8408 111.897 17.0819C109.922 15.4222 107.185 13.0037 104.976 11.6375L105.658 10.575L99.8067 17.5271C97.5984 15.1085 92.0521 11.253 88.1748 9.06715L94.8609 1.50782C98.6568 3.24839 104.132 6.7194 106.788 8.98619L108.538 6.26402L109.902 7.02299C111.194 4.82704 113.016 1.88224 113.779 0L120.394 3.17755C119.712 4.08831 118.949 5.14075 118.114 6.12235L117.657 6.80036C116.598 8.08555 115.601 9.44157 114.766 10.575C115.224 10.7976 116.059 11.4048 116.435 11.6375C117.646 10.2005 118.939 8.45997 119.783 6.95215L124.719 9.74516V8.23734H144.93V9.28978L146.904 6.56761L147.973 7.24562C149.184 5.13063 150.629 2.18583 151.463 0.364305L158.078 3.4609C157.468 4.13891 156.857 4.96872 156.257 5.87948L155.799 6.48665C154.659 8.07543 153.519 9.73504 152.532 10.8684C152.99 11.2429 153.214 11.931 153.672 12.3054C155.117 10.494 156.562 8.22722 157.62 6.48665L163.93 10.1904C162.709 11.3947 161.497 12.8316 160.205 14.2686L160.215 14.2889ZM105.2 55.7791L104.895 56.5381C104.824 56.7607 104.742 56.9935 104.671 57.2161L104.366 57.9751C103.989 58.8859 103.684 59.8675 103.307 60.8491L103.002 61.5271L102.697 62.2051C102.626 62.5795 102.473 62.964 102.32 63.2575L102.015 64.0165C101.028 66.5869 100.041 69.0763 99.1249 71.424L88.4801 66.1315C90.2305 62.2759 92.6627 56.5381 95.1662 50.7194L95.4715 49.9604L95.7768 49.2014C96.0007 48.827 96.1533 48.4424 96.306 48.068L96.6113 47.3091C96.9878 46.3983 97.2931 45.5685 97.6798 44.6678L97.9851 43.9898C98.2904 43.3827 98.5143 42.7856 98.7484 42.1784L108.243 47.6936C107.256 50.3348 106.269 53.057 105.2 55.7791ZM135.364 72.102L134.835 64.4719C137.949 64.6945 143.729 64.6945 145.775 64.6945C147.372 64.6945 148.431 64.6945 149.194 64.1683C149.805 63.7939 150.405 63.2575 150.944 62.0533H120.699C120.394 62.7313 120.241 63.6421 120.018 64.2492L108.844 62.964C110.207 59.0376 112.344 52.9861 113.331 48.3008H148.136V46.8638H111.123V40.9742H159.075V54.1195H122.898L122.44 55.6273H163.177C163.177 55.6273 162.953 58.2686 162.566 59.402C161.579 64.9171 160.205 68.3983 158.078 69.987C155.87 71.5758 152.99 72.0312 149.642 72.183C146.904 72.2639 141.511 72.2639 135.354 72.1122L135.364 72.102ZM143.495 27.8896V33.3339L143.648 33.0303C144.482 31.138 145.164 28.7194 145.622 26.6853L150.863 27.8896V25.4002L144.33 25.8555L143.495 19.4296L147.372 19.3588C147.983 18.8325 148.431 18.1444 148.97 17.5474C147.983 16.3431 146.385 14.4508 144.94 13.2364V13.6918H124.729V12.0322C123.895 12.9429 122.908 13.9954 121.992 15.0579L121.463 15.6651C120.404 16.7985 119.336 17.9319 118.349 18.9135L120.71 18.8325C120.557 18.3063 120.252 17.6283 120.099 17.2438L125.035 15.655C125.869 17.5474 126.551 20.1886 127.09 22.0809V21.5547H143.505V26.2401H127.09V25.1876L122.307 26.8473C122.307 26.2401 122.155 25.4103 122.083 24.7323L120.262 24.8031V28.2033L125.279 26.999C125.889 28.6587 126.571 31.3808 127.1 33.1922V27.8997H143.515L143.495 27.8896ZM143.495 20.1076H127.08V15.4222H143.495V20.1076ZM142.742 6.50689H127.691V1.66973H142.742V6.50689ZM136.504 34.9227V32.5041H134.224V34.9227H136.504ZM155.585 19.126L158.546 19.0552C158.241 18.3772 158.088 17.4664 157.783 16.8592C157.02 17.689 156.267 18.448 155.575 19.126H155.585Z" fill="#1D4843"/>
<path d="M198 72.237H188.314V63.0153C186.966 65.7383 185.236 68.6131 183.204 70.8805C181.776 69.2204 177.421 65.5156 175.469 64.4527C182.158 56.2837 183.134 43.59 183.204 35.5021V27.1104L181.776 27.9405C180.428 25.673 176.968 21.5126 174.795 19.9234C183.959 15.2366 191.1 7.45235 194.772 1.78369H205.816C210.845 5.33672 218.741 11.3091 222.493 14.9329V10.1753H233.839V53.5608H222.493V15.3885L214.828 23.3246C213.923 22.3427 212.575 20.7534 211.147 19.397V22.95H192.217V20.3789C190.487 21.7353 188.535 23.5574 186.654 24.843H218.349V50.0179H191.985C191.915 50.6961 191.834 51.3743 191.684 51.9816H219.707V72.0851H209.336V70.2732H197.99V72.237H198ZM207.697 42.6081V40.6443H193.052L192.83 42.6081H207.707H207.697ZM207.697 34.3683V32.4754H193.202V34.3683H207.697ZM207.244 15.7731C205.594 14.2649 203.643 12.2201 201.983 11.0155C200.857 12.3719 198.906 14.3458 197.477 15.7731H207.244ZM209.346 62.6407V59.6141H198V62.6407H209.346ZM229.624 72.237L228.799 61.2033C229.775 61.2033 231.052 61.2843 232.4 61.2843H238.114C239.391 61.2843 239.844 60.9098 239.844 59.6951V2.23921H251.491V59.8368C251.491 65.2827 250.284 68.4511 246.905 70.1213C243.455 71.8624 237.671 72.237 229.634 72.237H229.624Z" fill="#1D4843"/>
<path d="M310.81 72.2369H298.583V60.7507C291.401 65.3839 281.006 69.4163 270.089 71.9314L266.651 62.1254C272.534 61.2089 282.234 58.6225 288.659 55.7407H267.112V46.841H298.594V44.784H274.601V36.9534H298.594V34.8252H270.55V26.3124H285.068C284.607 24.7952 283.768 22.5142 283.083 21.1395H267.265V12.1685H277.046C275.982 9.58203 274.141 5.70238 272.688 3.1974L283.083 0C285.221 3.1974 287.892 8.28881 288.966 11.028L285.221 12.1685H291.565V0H302.87V12.1685H306.994V0H318.688V12.1685H323.957L321.594 11.5575C323.272 8.66558 325.185 3.42143 326.177 0.305485L338.864 3.04466C336.798 6.1606 334.588 9.73477 332.91 12.1685H342.23V21.1395H327.405C326.177 22.8095 325.113 24.8664 324.192 26.3124H339.018V34.8252H310.82V36.9534H335.345V44.784H310.82V46.841H342.455V55.7407H321.522C327.784 58.3985 336.572 60.6081 342.384 61.3718L338.946 71.9416C327.487 69.5079 317.552 65.4042 310.83 60.4554V72.2369H310.81ZM311.956 26.3124C312.723 24.8664 313.48 22.7382 314.094 21.1395H296.292C297.131 22.7382 298.051 24.9377 298.43 26.1597L297.438 26.3124H311.956Z" fill="#1D4843"/>
<path d="M380.836 72.0724C380.614 69.5678 379.403 65.6888 377.818 62.9501C374.951 64.2431 371.71 65.5361 368.399 66.7477L367.722 66.9716C366.521 67.3483 365.309 67.8065 364.108 68.1832L363.351 68.4072C362.594 68.7126 361.917 68.9366 361.16 69.1708L357.617 59.519C367.268 57.3912 382.341 51.4556 390.185 45.8356C389.963 45.4589 389.731 44.9193 389.428 44.4713C382.866 48.2689 372.084 52.83 363.795 55.4975L360.555 46.5992C366.733 45.3061 378.272 41.4271 383.996 38.0877C383.693 37.7823 383.32 37.4768 383.017 37.1714C379.403 38.6171 375.254 39.9814 370.801 41.2744L370.044 41.4984C369.671 41.5697 369.287 41.7224 368.914 41.8038L368.156 42.0278C366.198 42.5572 364.159 43.0968 362.129 43.5448L359.192 34.341C364.926 33.4247 373.669 31.0729 379.999 28.4869H371.851V19.2118H416.029V28.4869H409.548C410.225 30.6147 410.982 33.048 411.81 34.9519C415.05 32.8953 418.675 30.014 421.007 27.8862L430.355 35.3388C426.135 38.2302 420.855 41.4984 416.554 43.6975C420.552 49.4804 426.125 54.7237 431.637 57.0756L425.61 67.5723C411.214 59.6616 402.764 44.9905 398.393 28.4971C396.737 29.7901 394.698 31.3071 392.658 32.4473C407.135 44.3084 406.53 63.5406 398.615 68.7126C395.525 71.2986 392.204 72.2048 387.681 72.2048C385.793 72.2862 383.078 72.2048 380.816 72.052L380.836 72.0724ZM370.054 24.1802H358.293V5.7829H387.691V0H400.28V5.77272H429.759V24.1701H417.473V15.6586H370.054V24.1701V24.1802ZM384.834 61.9625H385.511C387.318 61.9625 388.903 61.6571 390.104 60.3641C391.154 59.6819 392.214 57.7781 392.366 55.4975C388.822 57.7068 384.229 59.9059 380.079 61.8811C381.735 61.9523 383.471 61.9523 384.824 61.9523L384.834 61.9625Z" fill="#1D4843"/>
<path d="M465.752 72.1656H454.423V53.3783C452.576 57.7162 450.027 62.1254 448.645 63.6426L440.556 54.977C445.488 49.6514 449.646 42.4318 451.957 36.648H443.249V26.3022H454.423V22.504L446.096 24.4795C446.024 20.1416 444.559 12.0055 442.784 6.83267L451.255 4.92848C452.793 8.80814 453.793 14.4291 454.412 18.4614V0H465.741V16.2721C465.896 15.5899 466.051 14.8262 466.278 14.0625L466.433 13.2988C467.279 10.1828 468.052 6.83267 468.434 4.39898L478.37 6.2217V5.45799H493.011V0.0814626H504.804V5.47836H519.755V13.9199H504.804V15.9768H518.052V23.7361H504.804V25.7116H522.602V34.9882H476.678V25.7116H493.011V23.7361H480.372V15.9768H493.011V13.9199H478.37V7.53528C476.441 13.0849 473.903 20.5387 472.211 24.4184L465.741 22.9724V26.3226H475.76V36.6683H465.741V37.3506C468.672 39.8555 475.915 46.3216 477.452 47.8491L470.137 56.7488C469.208 55.0789 467.206 52.7164 465.741 50.5882V72.186L465.752 72.1656ZM490.556 72.2369H479.154V36.9534H518.837V62.5021C518.837 66.6873 517.753 69.2737 514.596 70.6382C511.511 72.0027 506.889 72.1554 500.265 72.1554L499.645 63.2557C500.729 63.3269 503.649 63.3269 505.196 63.3269H505.97C506.899 63.2557 507.353 63.1029 507.353 62.2679V59.0705H490.556V72.2267V72.2369ZM494.022 50.1911V45.5579H490.556V50.1911H494.022ZM507.353 50.1911V45.5579H503.886V50.1911H507.353Z" fill="#1D4843"/>
<path d="M543.423 42.2495C543.423 49.7107 542.671 59.5264 539.302 66.376C537.958 64.9286 534.438 62.4925 532.413 61.5038C534.88 55.7143 535.411 47.723 535.411 41.7908V32.8109H543.423V42.2495ZM555.558 72.1554H545.148V29.7632H534.218V20.1003H566.268V29.7632H555.558V72.1554ZM565.295 14.3108H536.163V4.7193H565.295V14.3108ZM565.967 58.8435H557.954V32.658H565.967V58.8435ZM593.975 72.2369H583.045V53.4311H567.692V13.2507H583.045V0H593.975V13.2405H610V53.4311H593.975V72.2369ZM583.045 28.3158V22.832H578.321V28.3158H583.045ZM583.045 43.9211V37.5302H578.321V43.9211H583.045ZM599.22 28.3158V22.832H593.975V28.3158H599.22ZM599.22 43.9211V37.5302H593.975V43.9211H599.22Z" fill="#1D4843"/>
<path d="M3.80957 87.6572H13.6664V101.375L24.6572 87.6572H35.7837L22.7285 103.818L36.7239 123.682H25.3648L16.4383 110.439L13.6664 113.309V123.691H3.80957V87.6669V87.6572Z" fill="#1D4843"/>
<path d="M73.8152 123.682H48.1797V87.6572H73.3985V96.2949H58.0462V101.365H71.1499V109.353H58.0462V115.034H73.8249V123.672L73.8152 123.682Z" fill="#1D4843"/>
<path d="M113.495 123.682H87.8594V87.6572H113.078V96.2949H97.7259V101.365H110.83V109.353H97.7259V115.034H113.505V123.672L113.495 123.682Z" fill="#1D4843"/>
<path d="M127.538 87.6572H143.036C150.082 87.6572 155.151 93.9974 155.151 100.153C155.151 106.309 150.411 112.649 143.317 112.649H137.395V123.682H127.538V87.6572ZM142.658 104.002C143.879 104.002 145.149 103.013 145.149 100.153C145.149 97.148 143.598 96.3046 142.377 96.3046H137.395V104.012H142.658V104.002Z" fill="#1D4843"/>
<path d="M189.325 87.6572H199.182V123.682H189.325V87.6572Z" fill="#1D4843"/>
<path d="M224.634 123.682H214.777V87.6572H222.482L236.943 105.97V87.6572H246.799V123.682H238.959L224.634 105.98V123.682Z" fill="#1D4843"/>
<path d="M272.25 123.682H262.394V87.6572H270.099L284.559 105.97V87.6572H294.416V123.682H286.575L272.25 105.98V123.682Z" fill="#1D4843"/>
<path d="M326.439 87.4722C337.382 87.4722 344.564 96.6334 344.564 105.833C344.564 115.033 336.955 123.962 326.207 123.962C315.458 123.962 308.034 114.898 308.034 105.649C308.034 96.4007 315.739 87.4722 326.439 87.4722ZM334.561 105.649C334.561 100.763 331.838 96.2553 326.294 96.2553C320.75 96.2553 318.075 100.996 318.075 105.746C318.075 110.496 320.702 115.237 326.343 115.237C331.983 115.237 334.561 110.351 334.561 105.659V105.649Z" fill="#1D4843"/>
<path d="M371.517 112.271L378.466 87.6572H388.846L376.45 123.682H366.593L354.013 87.6572H364.48L371.526 112.271H371.517Z" fill="#1D4843"/>
<path d="M419.124 87.6572L430.629 123.682H420.578L418.368 116.634H408.793L406.68 123.682H396.581L408.085 87.6572H419.124ZM413.629 97.3322L410.246 110.013H416.818L413.629 97.3322Z" fill="#1D4843"/>
<path d="M455.848 96.3037V123.681H445.942V96.3037H435.562V87.666H466.179V96.3037H455.848Z" fill="#1D4843"/>
<path d="M479.186 87.6572H489.043V123.682H479.186V87.6572Z" fill="#1D4843"/>
<path d="M514.494 123.682H504.637V87.6572H512.342L526.803 105.97V87.6572H536.66V123.682H528.819L514.494 105.98V123.682Z" fill="#1D4843"/>
<path d="M584.829 104.514V123.679H576.659V120.674C574.032 122.933 571.261 123.912 567.781 123.912C558.438 123.912 550.316 117.107 550.316 105.357C550.316 95.2554 558.389 87.4126 568.77 87.4126C575.254 87.4126 580.885 90.4179 583.463 95.2554L576.136 100.888C574.682 98.0667 571.532 96.1957 568.392 96.1957C563.701 96.1957 560.367 100.141 560.367 105.725C560.367 111.309 563.701 115.168 568.682 115.168C571.454 115.168 574.081 113.898 576.291 111.6H570.049V104.504H584.839L584.829 104.514Z" fill="#1D4843"/>
<path d="M600.375 87.3257H609.999V108.459H600.375V87.3257ZM600.375 114.334H609.999V123.68H600.375V114.334Z" fill="#1D4843"/>
</svg>
