<svg width="459" height="106" viewBox="0 0 459 106" fill="none" xmlns="http://www.w3.org/2000/svg">
<g clip-path="url(#clip0_211_40276)">
<path d="M160.069 40.0439H167.244V12.5893H160.069V40.0439Z" fill="#3E3B3A"/>
<path d="M198.835 13.8815C198.444 13.4922 197.996 13.1735 197.504 12.9349C197.03 12.7055 196.562 12.5895 196.115 12.5895H171.186V19.1975H193.01V33.4362H178.303V23.3535H171.186V40.0442H196.115C196.563 40.0442 197.03 39.9282 197.504 39.6989C197.995 39.4629 198.443 39.1429 198.838 38.7509C199.226 38.3615 199.543 37.9122 199.783 37.4189C200.012 36.9469 200.127 36.4615 200.127 35.9749V16.6589C200.127 16.1669 200.015 15.6935 199.783 15.2135C199.543 14.7215 199.226 14.2735 198.835 13.8815Z" fill="#3E3B3A"/>
<path d="M226.998 33.4362H212.291V12.5895H205.172V35.9749C205.172 36.4615 205.288 36.9469 205.518 37.4202C205.755 37.9135 206.075 38.3615 206.466 38.7522C206.856 39.1429 207.303 39.4629 207.796 39.6989C208.27 39.9282 208.738 40.0442 209.186 40.0442H230.103C230.551 40.0442 231.019 39.9282 231.492 39.6989C231.984 39.4629 232.432 39.1429 232.824 38.7522C233.214 38.3615 233.532 37.9122 233.771 37.4202C234 36.9469 234.116 36.4602 234.116 35.9749V12.5895H226.998V33.4362Z" fill="#3E3B3A"/>
<path d="M266.261 13.8829C265.869 13.4922 265.421 13.1735 264.928 12.9349C264.454 12.7055 263.985 12.5895 263.54 12.5895H242.622C242.176 12.5895 241.708 12.7055 241.233 12.9349C240.738 13.1735 240.29 13.4922 239.901 13.8829C239.51 14.2735 239.192 14.7215 238.954 15.2135C238.722 15.6935 238.609 16.1669 238.609 16.6589V35.9749C238.609 36.4615 238.725 36.9469 238.954 37.4202C239.192 37.9135 239.51 38.3615 239.901 38.7522C240.29 39.1429 240.738 39.4629 241.233 39.6989C241.706 39.9282 242.173 40.0442 242.622 40.0442H263.54C263.988 40.0442 264.454 39.9282 264.928 39.6989C265.42 39.4629 265.869 39.1429 266.261 38.7522C266.65 38.3615 266.969 37.9122 267.208 37.4202C267.437 36.9469 267.553 36.4602 267.553 35.9749V30.0375H260.434V33.4362H245.728V19.1975H260.434V22.5962H267.553V16.6589C267.553 16.1695 267.44 15.6949 267.208 15.2135C266.969 14.7215 266.65 14.2735 266.261 13.8829Z" fill="#3E3B3A"/>
<path d="M272.045 40.0439H279.22V12.5893H272.045V40.0439Z" fill="#3E3B3A"/>
<path d="M296.457 29.5273L301.68 19.6927L306.972 29.5273H296.457ZM306.524 13.4807C305.84 12.882 304.943 12.59 303.78 12.59H300.152C297.745 12.59 295.989 13.8273 294.789 16.37L283.473 40.0447H291.385L293.652 35.2847H309.657L311.924 40.0447H319.836L308.521 16.3727C307.912 15.0833 307.24 14.11 306.524 13.4807Z" fill="#3E3B3A"/>
<path d="M441.357 23.3529V29.2809H454.788C455.236 29.2809 455.702 29.1649 456.176 28.9356C456.669 28.6996 457.117 28.3809 457.508 27.9903C457.898 27.5996 458.218 27.1516 458.456 26.6569C458.685 26.1836 458.801 25.6969 458.801 25.2129V16.6583C458.801 16.1689 458.688 15.6956 458.456 15.2143C458.218 14.7209 457.897 14.2729 457.508 13.8823C457.117 13.4916 456.669 13.1729 456.176 12.9356C455.701 12.7063 455.233 12.5903 454.788 12.5903H434.097C433.65 12.5903 433.181 12.7063 432.708 12.9356C432.214 13.1729 431.766 13.4916 431.377 13.8823C430.985 14.2729 430.665 14.7209 430.429 15.2143C430.197 15.6943 430.084 16.1663 430.084 16.6583V35.9756C430.084 36.4609 430.2 36.9463 430.429 37.4209C430.665 37.9143 430.985 38.3623 431.377 38.7529C431.766 39.1436 432.214 39.4623 432.708 39.6996C433.181 39.9289 433.648 40.0449 434.097 40.0449H458.801V33.4356H437.202V19.1983H451.682V23.3529H441.357Z" fill="#3E3B3A"/>
<path d="M392.452 13.8829C392.06 13.4922 391.612 13.1735 391.119 12.9349C390.644 12.7055 390.176 12.5895 389.731 12.5895H364.8V19.1975H386.625V33.4362H371.919V23.3535H364.8V40.0442H389.731C390.179 40.0442 390.645 39.9282 391.119 39.6989C391.611 39.4629 392.06 39.1429 392.452 38.7522C392.841 38.3615 393.16 37.9122 393.399 37.4202C393.628 36.9469 393.744 36.4602 393.744 35.9749V16.6589C393.744 16.1695 393.631 15.6949 393.399 15.2135C393.16 14.7215 392.841 14.2735 392.452 13.8829Z" fill="#3E3B3A"/>
<path d="M400.065 12.9349C399.572 13.1735 399.125 13.4922 398.735 13.8829C398.344 14.2735 398.025 14.7215 397.787 15.2135C397.555 15.6935 397.443 16.1669 397.443 16.6589V35.9749C397.443 36.4615 397.557 36.9469 397.787 37.4202C398.025 37.9135 398.344 38.3615 398.735 38.7522C399.125 39.1429 399.572 39.4629 400.065 39.6989C400.539 39.9282 401.007 40.0442 401.455 40.0442H422.372C422.82 40.0442 423.288 39.9282 423.761 39.6989C424.255 39.4629 424.703 39.1429 425.093 38.7522C425.483 38.3615 425.803 37.9122 426.04 37.4202C426.269 36.9469 426.385 36.4602 426.385 35.9749V27.4215C426.385 26.9322 426.272 26.4602 426.04 25.9762C425.803 25.4842 425.483 25.0362 425.093 24.6455C424.703 24.2549 424.255 23.9362 423.761 23.6975C423.287 23.4682 422.817 23.3522 422.372 23.3522H410.869V29.2815H419.267V33.4362H404.56V19.1975H426.385V12.5895H401.455C401.008 12.5895 400.54 12.7055 400.065 12.9349Z" fill="#3E3B3A"/>
<path d="M124.649 4.22813C124.064 4.51213 123.532 4.88947 123.072 5.35213C122.605 5.81746 122.225 6.35213 121.942 6.93613C121.686 7.46546 121.562 7.9828 121.562 8.51613V39.9495H129.486V11.0668H155.253V3.8468H126.153C125.681 3.8468 125.176 3.9748 124.649 4.22813Z" fill="#3E3B3A"/>
<path d="M327.671 4.22813C327.088 4.50946 326.558 4.88813 326.092 5.3548C325.627 5.8188 325.248 6.35213 324.967 6.93346C324.708 7.46546 324.584 7.9828 324.584 8.51613V35.2815C324.584 35.8081 324.712 36.3375 324.966 36.8575C325.247 37.4455 325.624 37.9775 326.09 38.4401C326.558 38.9081 327.088 39.2868 327.671 39.5668C328.195 39.8201 328.699 39.9495 329.175 39.9495H358.276V32.7308H332.51V30.6628V25.0361V18.7588V11.0668H358.276V3.8468H329.175C328.702 3.8468 328.198 3.9748 327.671 4.22813Z" fill="#3E3B3A"/>
<path d="M339.927 25.8853H354.356V17.9106H339.927V25.8853Z" fill="#00B4ED"/>
<path d="M135.864 27.3745H150.294V19.4012H135.864V27.3745Z" fill="#00B4ED"/>
<path d="M122.876 97.8894V86.4361H130.604V87.7881H124.392V91.3334H129.767V92.6854H124.392V97.8894H122.876Z" fill="#727071"/>
<path d="M135.04 89.5918H136.447V97.8892H135.04V89.5918ZM135.04 86.4358H136.447V88.0518H135.04V86.4358Z" fill="#727071"/>
<path d="M142.166 93.7489C142.166 94.8116 142.388 95.6062 142.838 96.1316C143.286 96.6582 143.814 96.9196 144.423 96.9196C145.038 96.9196 145.56 96.6676 145.99 96.1649C146.419 95.6649 146.636 94.8969 146.636 93.8662C146.636 92.7289 146.416 91.8969 145.979 91.3662C145.54 90.8342 145.002 90.5676 144.36 90.5676C143.736 90.5676 143.214 90.8236 142.794 91.3329C142.375 91.8436 142.166 92.6502 142.166 93.7489ZM146.611 97.8889V96.8409C146.086 97.6662 145.311 98.0769 144.29 98.0769C143.63 98.0769 143.022 97.8929 142.466 97.5289C141.912 97.1662 141.48 96.6569 141.178 96.0009C140.872 95.3476 140.719 94.5982 140.719 93.7489C140.719 92.9209 140.859 92.1689 141.134 91.4942C141.411 90.8196 141.824 90.3036 142.376 89.9436C142.928 89.5836 143.546 89.4036 144.228 89.4036C144.728 89.4036 145.174 89.5089 145.566 89.7209C145.955 89.9316 146.272 90.2076 146.518 90.5462V86.4369H147.915V97.8889H146.611Z" fill="#727071"/>
<path d="M158.205 97.8894V96.6694C157.559 97.6081 156.681 98.0774 155.571 98.0774C155.082 98.0774 154.625 97.9814 154.201 97.7961C153.777 97.6081 153.461 97.3721 153.255 97.0881C153.049 96.8041 152.903 96.4561 152.822 96.0454C152.765 95.7694 152.735 95.3321 152.735 94.7334V89.5921H154.142V94.1947C154.142 94.9281 154.17 95.4227 154.227 95.6787C154.317 96.0481 154.505 96.3387 154.79 96.5494C155.075 96.7601 155.431 96.8654 155.853 96.8654C156.275 96.8654 156.671 96.7561 157.041 96.5414C157.41 96.3254 157.674 96.0307 157.826 95.6587C157.979 95.2867 158.057 94.7467 158.057 94.0374V89.5921H159.462V97.8894H158.205Z" fill="#727071"/>
<path d="M169.721 94.8502L171.105 95.0289C170.953 95.9822 170.566 96.7276 169.943 97.2662C169.321 97.8062 168.555 98.0769 167.649 98.0769C166.515 98.0769 165.601 97.7062 164.913 96.9636C164.221 96.2209 163.875 95.1569 163.875 93.7716C163.875 92.8756 164.026 92.0929 164.322 91.4196C164.618 90.7489 165.071 90.2436 165.678 89.9089C166.285 89.5729 166.943 89.4036 167.658 89.4036C168.559 89.4036 169.297 89.6316 169.867 90.0876C170.442 90.5436 170.809 91.1916 170.97 92.0289L169.603 92.2396C169.471 91.6836 169.243 91.2636 168.913 90.9836C168.582 90.7022 168.182 90.5596 167.713 90.5596C167.005 90.5596 166.429 90.8156 165.986 91.3222C165.543 91.8302 165.322 92.6342 165.322 93.7329C165.322 94.8462 165.534 95.6556 165.963 96.1622C166.39 96.6676 166.947 96.9196 167.635 96.9196C168.187 96.9196 168.647 96.7516 169.018 96.4129C169.387 96.0742 169.622 95.5529 169.721 94.8502Z" fill="#727071"/>
<path d="M174.956 89.5918H176.361V97.8892H174.956V89.5918ZM174.956 86.4358H176.361V88.0518H174.956V86.4358Z" fill="#727071"/>
<path d="M186.439 93.7241C185.929 93.9334 185.163 94.1107 184.142 94.2547C183.565 94.3401 183.154 94.4334 182.915 94.5361C182.677 94.6401 182.491 94.7947 182.359 94.9947C182.231 95.1961 182.166 95.4187 182.166 95.6627C182.166 96.0374 182.307 96.3494 182.591 96.6001C182.874 96.8507 183.291 96.9747 183.837 96.9747C184.378 96.9747 184.859 96.8574 185.283 96.6201C185.705 96.3827 186.015 96.0587 186.211 95.6454C186.363 95.3281 186.439 94.8614 186.439 94.2414V93.7241ZM186.557 96.8654C186.035 97.3081 185.534 97.6214 185.053 97.8041C184.571 97.9854 184.054 98.0774 183.501 98.0774C182.59 98.0774 181.889 97.8547 181.401 97.4094C180.911 96.9641 180.665 96.3947 180.665 95.7014C180.665 95.2961 180.758 94.9227 180.942 94.5881C181.127 94.2521 181.369 93.9827 181.67 93.7801C181.969 93.5774 182.306 93.4227 182.681 93.3174C182.958 93.2454 183.373 93.1747 183.931 93.1067C185.067 92.9721 185.903 92.8094 186.439 92.6241C186.443 92.4307 186.447 92.3081 186.447 92.2561C186.447 91.6841 186.314 91.2801 186.047 91.0441C185.69 90.7281 185.155 90.5681 184.446 90.5681C183.786 90.5681 183.297 90.6841 182.982 90.9161C182.667 91.1467 182.434 91.5587 182.283 92.1467L180.909 91.9587C181.033 91.3694 181.239 90.8961 181.525 90.5321C181.81 90.1721 182.225 89.8921 182.766 89.6974C183.307 89.5027 183.935 89.4041 184.649 89.4041C185.358 89.4041 185.933 89.4867 186.375 89.6534C186.819 89.8214 187.145 90.0294 187.354 90.2827C187.562 90.5361 187.707 90.8561 187.791 91.2414C187.838 91.4801 187.861 91.9121 187.861 92.5361V94.4121C187.861 95.7201 187.891 96.5467 187.951 96.8921C188.011 97.2387 188.13 97.5721 188.306 97.8894H186.838C186.691 97.5974 186.597 97.2561 186.557 96.8654Z" fill="#727071"/>
<path d="M192.893 97.8894V86.4361H201.174V87.7881H194.409V91.2947H200.743V92.6387H194.409V96.5374H201.438V97.8894H192.893Z" fill="#727071"/>
<path d="M206.933 93.7489C206.933 94.8116 207.155 95.6062 207.603 96.1316C208.053 96.6582 208.581 96.9196 209.19 96.9196C209.805 96.9196 210.327 96.6676 210.755 96.1649C211.186 95.6649 211.402 94.8969 211.402 93.8662C211.402 92.7289 211.182 91.8969 210.745 91.3662C210.307 90.8342 209.769 90.5676 209.127 90.5676C208.503 90.5676 207.979 90.8236 207.561 91.3329C207.142 91.8436 206.933 92.6502 206.933 93.7489ZM211.378 97.8889V96.8409C210.851 97.6662 210.078 98.0769 209.057 98.0769C208.397 98.0769 207.787 97.8929 207.233 97.5289C206.679 97.1662 206.247 96.6569 205.943 96.0009C205.639 95.3476 205.486 94.5982 205.486 93.7489C205.486 92.9209 205.625 92.1689 205.901 91.4942C206.178 90.8196 206.59 90.3036 207.143 89.9436C207.695 89.5836 208.313 89.4036 208.995 89.4036C209.494 89.4036 209.941 89.5089 210.331 89.7209C210.722 89.9316 211.038 90.2076 211.285 90.5462V86.4369H212.682V97.8889H211.378Z" fill="#727071"/>
<path d="M218.44 93.5913C218.44 94.6793 218.655 95.4753 219.088 95.9739C219.522 96.4739 220.063 96.7259 220.712 96.7259C221.358 96.7259 221.9 96.4753 222.339 95.9793C222.776 95.4806 222.995 94.7006 222.995 93.6379C222.995 92.6233 222.768 91.8579 222.319 91.3419C221.868 90.8273 221.326 90.5673 220.69 90.5673C220.064 90.5673 219.534 90.8219 219.096 91.3299C218.658 91.8393 218.44 92.5926 218.44 93.5913ZM217.275 98.5766L218.643 98.7806C218.7 99.2019 218.858 99.5086 219.119 99.7019C219.468 99.9619 219.946 100.093 220.548 100.093C221.2 100.093 221.703 99.9619 222.056 99.7019C222.411 99.4419 222.651 99.0766 222.776 98.6086C222.848 98.3219 222.883 97.7206 222.876 96.8033C222.263 97.5273 221.496 97.8899 220.579 97.8899C219.439 97.8899 218.558 97.4779 217.931 96.6553C217.306 95.8326 216.995 94.8433 216.995 93.6939C216.995 92.9019 217.138 92.1713 217.423 91.5033C217.71 90.8326 218.126 90.3166 218.67 89.9513C219.215 89.5859 219.854 89.4033 220.587 89.4033C221.568 89.4033 222.374 89.7993 223.01 90.5913V89.5926H224.307V96.7646C224.307 98.0566 224.176 98.9713 223.912 99.5099C223.648 100.05 223.232 100.475 222.662 100.787C222.091 101.101 221.39 101.257 220.556 101.257C219.567 101.257 218.768 101.034 218.158 100.587C217.548 100.142 217.255 99.4726 217.275 98.5766Z" fill="#727071"/>
<path d="M230.136 92.9427H234.769C234.705 92.2467 234.528 91.7227 234.237 91.3721C233.788 90.8307 233.208 90.5601 232.494 90.5601C231.848 90.5601 231.305 90.7774 230.865 91.2081C230.426 91.6401 230.182 92.2187 230.136 92.9427ZM234.752 95.2174L236.206 95.3961C235.976 96.2454 235.552 96.9054 234.933 97.3721C234.313 97.8427 233.521 98.0774 232.557 98.0774C231.342 98.0774 230.381 97.7014 229.669 96.9561C228.958 96.2081 228.604 95.1601 228.604 93.8107C228.604 92.4147 228.962 91.3307 229.682 90.5601C230.4 89.7894 231.333 89.4041 232.48 89.4041C233.589 89.4041 234.494 89.7827 235.197 90.5374C235.9 91.2921 236.253 92.3547 236.253 93.7241C236.253 93.8081 236.249 93.9334 236.245 94.1001H230.057C230.108 95.0107 230.368 95.7094 230.83 96.1934C231.294 96.6774 231.873 96.9187 232.564 96.9187C233.081 96.9187 233.521 96.7841 233.885 96.5134C234.249 96.2441 234.538 95.8094 234.752 95.2174Z" fill="#727071"/>
<path d="M250.503 97.8894V87.7881H246.729V86.4361H255.809V87.7881H252.019V97.8894H250.503Z" fill="#727071"/>
<path d="M259.112 92.9427H263.746C263.683 92.2467 263.504 91.7227 263.214 91.3721C262.766 90.8307 262.184 90.5601 261.471 90.5601C260.824 90.5601 260.282 90.7774 259.843 91.2081C259.403 91.6401 259.159 92.2187 259.112 92.9427ZM263.728 95.2174L265.183 95.3961C264.952 96.2454 264.528 96.9054 263.91 97.3721C263.29 97.8427 262.498 98.0774 261.534 98.0774C260.319 98.0774 259.358 97.7014 258.647 96.9561C257.935 96.2081 257.58 95.1601 257.58 93.8107C257.58 92.4147 257.939 91.3307 258.659 90.5601C259.376 89.7894 260.31 89.4041 261.456 89.4041C262.566 89.4041 263.472 89.7827 264.175 90.5374C264.876 91.2921 265.23 92.3547 265.23 93.7241C265.23 93.8081 265.227 93.9334 265.222 94.1001H259.034C259.084 95.0107 259.344 95.7094 259.807 96.1934C260.271 96.6774 260.85 96.9187 261.542 96.9187C262.058 96.9187 262.498 96.7841 262.863 96.5134C263.226 96.2441 263.515 95.8094 263.728 95.2174Z" fill="#727071"/>
<path d="M275.003 94.8502L276.385 95.0289C276.233 95.9822 275.847 96.7276 275.225 97.2662C274.601 97.8062 273.837 98.0769 272.931 98.0769C271.797 98.0769 270.883 97.7062 270.193 96.9636C269.503 96.2209 269.157 95.1569 269.157 93.7716C269.157 92.8756 269.308 92.0929 269.603 91.4196C269.9 90.7489 270.353 90.2436 270.96 89.9089C271.567 89.5729 272.225 89.4036 272.94 89.4036C273.84 89.4036 274.579 89.6316 275.149 90.0876C275.724 90.5436 276.091 91.1916 276.252 92.0289L274.885 92.2396C274.753 91.6836 274.524 91.2636 274.195 90.9836C273.864 90.7022 273.463 90.5596 272.995 90.5596C272.285 90.5596 271.711 90.8156 271.268 91.3222C270.825 91.8302 270.604 92.6342 270.604 93.7329C270.604 94.8462 270.816 95.6556 271.244 96.1622C271.672 96.6676 272.228 96.9196 272.917 96.9196C273.469 96.9196 273.929 96.7516 274.3 96.4129C274.668 96.0742 274.904 95.5529 275.003 94.8502Z" fill="#727071"/>
<path d="M280.228 97.8894V86.4361H281.635V90.5454C282.291 89.7854 283.119 89.4041 284.12 89.4041C284.733 89.4041 285.268 89.5254 285.721 89.7667C286.175 90.0094 286.497 90.3454 286.695 90.7707C286.889 91.1974 286.987 91.8187 286.987 92.6321V97.8894H285.58V92.6321C285.58 91.9281 285.427 91.4174 285.124 91.0961C284.817 90.7747 284.388 90.6161 283.831 90.6161C283.415 90.6161 283.021 90.7227 282.653 90.9387C282.287 91.1561 282.027 91.4481 281.869 91.8187C281.712 92.1894 281.635 92.6987 281.635 93.3494V97.8894H280.228Z" fill="#727071"/>
<path d="M291.767 97.8894V89.5921H293.034V90.7707C293.642 89.8614 294.522 89.4041 295.674 89.4041C296.174 89.4041 296.634 89.4947 297.053 89.6734C297.473 89.8534 297.786 90.0881 297.995 90.3814C298.202 90.6734 298.349 91.0201 298.431 91.4187C298.485 91.6801 298.51 92.1374 298.51 92.7881V97.8894H297.103V92.8427C297.103 92.2681 297.05 91.8414 296.939 91.5561C296.83 91.2721 296.635 91.0467 296.357 90.8761C296.078 90.7067 295.751 90.6241 295.378 90.6241C294.778 90.6241 294.261 90.8121 293.826 91.1947C293.391 91.5734 293.174 92.2961 293.174 93.3574V97.8894H291.767Z" fill="#727071"/>
<path d="M304.228 93.7409C304.228 94.8036 304.46 95.5982 304.923 96.1276C305.387 96.6569 305.971 96.9196 306.674 96.9196C307.372 96.9196 307.952 96.6556 308.416 96.1236C308.879 95.5929 309.111 94.7822 309.111 93.6942C309.111 92.6676 308.878 91.8902 308.414 91.3609C307.946 90.8316 307.367 90.5676 306.674 90.5676C305.971 90.5676 305.387 90.8302 304.923 91.3582C304.46 91.8822 304.228 92.6782 304.228 93.7409ZM302.783 93.7409C302.783 92.2049 303.21 91.0662 304.064 90.3249C304.778 89.7116 305.647 89.4036 306.674 89.4036C307.815 89.4036 308.747 89.7769 309.471 90.5262C310.195 91.2716 310.558 92.3049 310.558 93.6236C310.558 94.6902 310.396 95.5302 310.076 96.1436C309.756 96.7556 309.29 97.2289 308.678 97.5689C308.067 97.9076 307.398 98.0769 306.674 98.0769C305.512 98.0769 304.574 97.7049 303.858 96.9582C303.142 96.2142 302.783 95.1422 302.783 93.7409Z" fill="#727071"/>
<path d="M314.813 86.4358H316.22V97.8892H314.813V86.4358Z" fill="#727071"/>
<path d="M321.963 93.7409C321.963 94.8036 322.195 95.5982 322.657 96.1276C323.121 96.6569 323.707 96.9196 324.408 96.9196C325.107 96.9196 325.687 96.6556 326.151 96.1236C326.613 95.5929 326.845 94.7822 326.845 93.6942C326.845 92.6676 326.612 91.8902 326.148 91.3609C325.68 90.8316 325.101 90.5676 324.408 90.5676C323.707 90.5676 323.121 90.8302 322.657 91.3582C322.195 91.8822 321.963 92.6782 321.963 93.7409ZM320.517 93.7409C320.517 92.2049 320.944 91.0662 321.799 90.3249C322.512 89.7116 323.381 89.4036 324.408 89.4036C325.549 89.4036 326.481 89.7769 327.205 90.5262C327.929 91.2716 328.292 92.3049 328.292 93.6236C328.292 94.6902 328.131 95.5302 327.811 96.1436C327.491 96.7556 327.024 97.2289 326.412 97.5689C325.801 97.9076 325.132 98.0769 324.408 98.0769C323.247 98.0769 322.308 97.7049 321.592 96.9582C320.876 96.2142 320.517 95.1422 320.517 93.7409Z" fill="#727071"/>
<path d="M333.486 93.5913C333.486 94.6793 333.702 95.4753 334.134 95.9739C334.567 96.4739 335.109 96.7259 335.759 96.7259C336.405 96.7259 336.947 96.4753 337.385 95.9793C337.823 95.4806 338.041 94.7006 338.041 93.6379C338.041 92.6233 337.815 91.8579 337.365 91.3419C336.915 90.8273 336.371 90.5673 335.735 90.5673C335.111 90.5673 334.581 90.8219 334.142 91.3299C333.705 91.8393 333.486 92.5926 333.486 93.5913ZM332.321 98.5766L333.689 98.7806C333.746 99.2019 333.905 99.5086 334.166 99.7019C334.514 99.9619 334.991 100.093 335.595 100.093C336.246 100.093 336.749 99.9619 337.103 99.7019C337.458 99.4419 337.698 99.0766 337.823 98.6086C337.895 98.3219 337.93 97.7206 337.923 96.8033C337.309 97.5273 336.543 97.8899 335.626 97.8899C334.486 97.8899 333.603 97.4779 332.977 96.6553C332.353 95.8326 332.041 94.8433 332.041 93.6939C332.041 92.9019 332.183 92.1713 332.47 91.5033C332.757 90.8326 333.173 90.3166 333.717 89.9513C334.262 89.5859 334.901 89.4033 335.634 89.4033C336.614 89.4033 337.421 89.7993 338.057 90.5913V89.5926H339.353V96.7646C339.353 98.0566 339.223 98.9713 338.958 99.5099C338.695 100.05 338.279 100.475 337.709 100.787C337.138 101.101 336.437 101.257 335.603 101.257C334.614 101.257 333.814 101.034 333.205 100.587C332.595 100.142 332.301 99.4726 332.321 98.5766Z" fill="#727071"/>
<path d="M344.127 89.5918H345.533V97.8892H344.127V89.5918ZM344.127 86.4358H345.533V88.0518H344.127V86.4358Z" fill="#727071"/>
<path d="M351.377 92.9427H356.011C355.947 92.2467 355.77 91.7227 355.479 91.3721C355.03 90.8307 354.45 90.5601 353.737 90.5601C353.09 90.5601 352.547 90.7774 352.107 91.2081C351.669 91.6401 351.423 92.2187 351.377 92.9427ZM355.994 95.2174L357.449 95.3961C357.218 96.2454 356.793 96.9054 356.175 97.3721C355.554 97.8427 354.762 98.0774 353.798 98.0774C352.585 98.0774 351.623 97.7014 350.911 96.9561C350.199 96.2081 349.846 95.1601 349.846 93.8107C349.846 92.4147 350.205 91.3307 350.925 90.5601C351.642 89.7894 352.575 89.4041 353.721 89.4041C354.83 89.4041 355.737 89.7827 356.439 90.5374C357.142 91.2921 357.494 92.3547 357.494 93.7241C357.494 93.8081 357.491 93.9334 357.487 94.1001H351.298C351.35 95.0107 351.61 95.7094 352.073 96.1934C352.537 96.6774 353.115 96.9187 353.806 96.9187C354.323 96.9187 354.762 96.7841 355.127 96.5134C355.491 96.2441 355.781 95.8094 355.994 95.2174Z" fill="#727071"/>
<path d="M361.291 95.4129L362.681 95.1929C362.76 95.7516 362.977 96.1769 363.333 96.4742C363.691 96.7729 364.189 96.9196 364.829 96.9196C365.476 96.9196 365.955 96.7889 366.267 96.5249C366.58 96.2636 366.736 95.9542 366.736 95.5996C366.736 95.2822 366.597 95.0329 366.321 94.8502C366.129 94.7249 365.651 94.5649 364.884 94.3729C363.855 94.1116 363.14 93.8876 362.74 93.6969C362.341 93.5076 362.039 93.2436 361.833 92.9089C361.628 92.5729 361.525 92.2009 361.525 91.7942C361.525 91.4262 361.609 91.0822 361.777 90.7689C361.948 90.4516 362.179 90.1916 362.471 89.9822C362.689 89.8222 362.987 89.6836 363.365 89.5729C363.743 89.4596 364.148 89.4036 364.58 89.4036C365.231 89.4036 365.804 89.4969 366.296 89.6862C366.788 89.8729 367.151 90.1262 367.385 90.4462C367.619 90.7689 367.781 91.1956 367.871 91.7329L366.493 91.9196C366.431 91.4942 366.251 91.1596 365.951 90.9196C365.652 90.6809 365.228 90.5596 364.681 90.5596C364.036 90.5596 363.575 90.6662 363.299 90.8809C363.023 91.0956 362.884 91.3436 362.884 91.6302C362.884 91.8129 362.941 91.9769 363.056 92.1222C363.171 92.2742 363.351 92.3996 363.596 92.4969C363.736 92.5502 364.151 92.6702 364.839 92.8569C365.832 93.1236 366.528 93.3396 366.92 93.5102C367.313 93.6782 367.621 93.9262 367.845 94.2476C368.071 94.5716 368.181 94.9716 368.181 95.4516C368.181 95.9209 368.044 96.3609 367.772 96.7742C367.497 97.1889 367.103 97.5089 366.588 97.7369C366.073 97.9622 365.488 98.0769 364.839 98.0769C363.76 98.0769 362.937 97.8529 362.373 97.4049C361.807 96.9569 361.447 96.2916 361.291 95.4129Z" fill="#727071"/>
<path d="M387.931 93.8738L389.447 94.2551C389.129 95.5005 388.559 96.4511 387.733 97.1031C386.907 97.7578 385.898 98.0845 384.706 98.0845C383.471 98.0845 382.467 97.8338 381.694 97.3311C380.919 96.8285 380.331 96.0991 379.929 95.1471C379.525 94.1938 379.322 93.1711 379.322 92.0751C379.322 90.8845 379.55 89.8445 380.007 88.9565C380.461 88.0685 381.11 87.3925 381.951 86.9311C382.793 86.4698 383.718 86.2391 384.729 86.2391C385.875 86.2391 386.839 86.5325 387.621 87.1151C388.402 87.6991 388.945 88.5191 389.253 89.5751L387.759 89.9285C387.495 89.0938 387.11 88.4871 386.603 88.1071C386.098 87.7285 385.462 87.5365 384.698 87.5365C383.818 87.5365 383.081 87.7485 382.49 88.1698C381.899 88.5911 381.483 89.1578 381.243 89.8698C381.005 90.5791 380.886 91.3125 380.886 92.0685C380.886 93.0418 381.026 93.8938 381.31 94.6205C381.594 95.3458 382.035 95.8885 382.634 96.2485C383.234 96.6085 383.882 96.7885 384.581 96.7885C385.43 96.7885 386.147 96.5431 386.737 96.0525C387.325 95.5645 387.725 94.8365 387.931 93.8738Z" fill="#727071"/>
<path d="M394.697 93.7409C394.697 94.8036 394.929 95.5982 395.392 96.1276C395.856 96.6569 396.441 96.9196 397.144 96.9196C397.841 96.9196 398.421 96.6556 398.885 96.1236C399.348 95.5929 399.58 94.7822 399.58 93.6942C399.58 92.6676 399.346 91.8902 398.882 91.3609C398.416 90.8316 397.836 90.5676 397.144 90.5676C396.441 90.5676 395.856 90.8302 395.392 91.3582C394.929 91.8822 394.697 92.6782 394.697 93.7409ZM393.253 93.7409C393.253 92.2049 393.68 91.0662 394.533 90.3249C395.246 89.7116 396.116 89.4036 397.144 89.4036C398.284 89.4036 399.217 89.7769 399.941 90.5262C400.665 91.2716 401.026 92.3049 401.026 93.6236C401.026 94.6902 400.866 95.5302 400.545 96.1436C400.225 96.7556 399.76 97.2289 399.146 97.5689C398.536 97.9076 397.868 98.0769 397.144 98.0769C395.981 98.0769 395.042 97.7049 394.328 96.9582C393.612 96.2142 393.253 95.1422 393.253 93.7409Z" fill="#727071"/>
<path d="M405.712 96.2878H407.315V97.8892H405.712V96.2878Z" fill="#727071"/>
<path d="M412.767 97.8892V96.2879H414.369V97.8892C414.369 98.4772 414.265 98.9532 414.057 99.3145C413.849 99.6772 413.517 99.9572 413.065 100.155L412.673 99.5532C412.97 99.4225 413.189 99.2319 413.329 98.9785C413.47 98.7265 413.549 98.3625 413.565 97.8892H412.767Z" fill="#727071"/>
<path d="M426.689 97.8894V86.4361H428.205V96.5374H433.845V97.8894H426.689Z" fill="#727071"/>
<path d="M441.181 96.6303L441.384 97.8743C440.988 97.957 440.633 97.9983 440.321 97.9983C439.812 97.9983 439.416 97.9183 439.135 97.757C438.853 97.5956 438.653 97.3823 438.54 97.1196C438.425 96.857 438.368 96.3023 438.368 95.4596V90.685H437.337V89.593H438.368V87.537L439.765 86.693V89.593H441.181V90.685H439.765V95.5383C439.765 95.9383 439.792 96.1956 439.84 96.3103C439.889 96.4263 439.972 96.5156 440.083 96.585C440.196 96.653 440.355 96.6863 440.564 96.6863C440.719 96.6863 440.925 96.6676 441.181 96.6303Z" fill="#727071"/>
<path d="M446.134 93.7489C446.134 94.8116 446.357 95.6062 446.806 96.1316C447.254 96.6582 447.782 96.9196 448.392 96.9196C449.006 96.9196 449.529 96.6676 449.958 96.1649C450.388 95.6649 450.605 94.8969 450.605 93.8662C450.605 92.7289 450.385 91.8969 449.948 91.3662C449.509 90.8342 448.97 90.5676 448.329 90.5676C447.705 90.5676 447.182 90.8236 446.762 91.3329C446.344 91.8436 446.134 92.6502 446.134 93.7489ZM450.58 97.8889V96.8409C450.054 97.6662 449.28 98.0769 448.26 98.0769C447.598 98.0769 446.99 97.8929 446.434 97.5289C445.881 97.1662 445.449 96.6569 445.146 96.0009C444.841 95.3476 444.688 94.5982 444.688 93.7489C444.688 92.9209 444.828 92.1689 445.102 91.4942C445.38 90.8196 445.793 90.3036 446.345 89.9436C446.897 89.5836 447.514 89.4036 448.197 89.4036C448.697 89.4036 449.142 89.5089 449.534 89.7209C449.924 89.9316 450.241 90.2076 450.486 90.5462V86.4369H451.884V97.8889H450.58Z" fill="#727071"/>
<path d="M457.133 96.2878H458.736V97.8892H457.133V96.2878Z" fill="#727071"/>
<path d="M139.368 59.2759H130.957V60.3986H139.368V59.2759ZM139.368 57.3879H130.957V58.4652H139.368V57.3879ZM139.368 55.4772H130.957V56.5545H139.368V55.4772ZM133.489 54.4959C133.656 54.0666 133.776 53.6132 133.872 53.1825L135.569 53.4225C135.475 53.8052 135.329 54.1626 135.187 54.4959H140.851V61.3785H135.711L136.024 62.3586H142.332V65.4172H140.921V63.3866H137.672V64.3892C137.672 64.6039 137.813 64.7252 138.127 64.7252H140.013V65.5599H137.792C136.835 65.5599 136.381 65.2252 136.381 64.5826V63.3866H134.205C133.969 63.9119 133.656 64.3425 133.323 64.7012C132.797 65.1532 132.033 65.5599 131.005 65.9185L130.312 65.0586C131.172 64.7959 131.841 64.5092 132.295 64.1759C132.583 63.9599 132.797 63.6972 132.988 63.3866H129.332V65.4172H127.923V62.3586H134.519L134.183 61.3785H129.476V54.4959H133.489ZM134.519 66.5399C134.327 66.0625 134.112 65.6559 133.896 65.2985L135.283 65.0586C135.521 65.5132 135.759 66.0145 135.951 66.5399H142.523V67.6879H133.872C133.729 68.0692 133.587 68.4519 133.441 68.7879H141.185C141.185 70.4119 140.872 71.4385 140.3 71.9172C139.725 72.3479 138.676 72.5865 137.171 72.5865C136.596 72.5865 136.119 72.5625 135.736 72.5372L135.425 71.3679C136.047 71.4385 136.596 71.4852 137.097 71.4852C138.341 71.4639 139.083 71.2946 139.297 70.9612C139.464 70.5786 139.559 70.1972 139.559 69.7892H132.892C132.749 69.9812 132.607 70.1719 132.463 70.3385C131.697 71.1519 130.549 71.8692 129.069 72.4892L128.089 71.2492C129.427 70.7466 130.431 70.1972 131.099 69.6226C131.627 69.1212 132.057 68.4759 132.343 67.6879H127.683V66.5399H134.519ZM126.895 56.8639L125.771 57.9852C124.84 56.9812 123.549 55.9305 121.901 54.8305L123.024 53.7799C124.553 54.8092 125.844 55.8346 126.895 56.8639ZM126.632 59.4199V60.7092C125.868 62.1439 124.936 63.5306 123.884 64.8919H126.967V66.0145C126.632 67.9252 126.225 69.5279 125.748 70.7946C125.94 70.9359 126.153 71.1279 126.368 71.3186C127.088 72.0359 127.804 72.5626 128.544 72.9439C129.26 73.2306 130.288 73.3972 131.627 73.4452C132.868 73.4452 134.279 73.4705 135.88 73.4705C137.696 73.4705 140.061 73.4226 143 73.3519L142.643 74.9266H136.093C134.373 74.9266 132.844 74.9052 131.531 74.8572C129.977 74.8092 128.783 74.5919 127.971 74.2105C127.015 73.7799 126.153 73.1359 125.389 72.2745C125.199 72.0839 125.007 72.0132 124.815 72.0132C124.243 72.0132 123.453 73.0879 122.403 75.2385L121.207 74.1399C122.259 72.0599 123.287 70.8665 124.265 70.5545C124.768 69.2892 125.175 67.8772 125.461 66.3012H122.02V65.0586C123.167 63.6479 124.123 62.2625 124.912 60.9252H121.471V59.4199H126.632Z" fill="#727071"/>
<path d="M171.602 68.5946H162.76V72.3706H171.602V68.5946ZM172.846 65.0359H161.543V63.4572H172.846V65.0359ZM172.846 61.6426H161.543V60.0892H172.846V61.6426ZM173.276 75.2866H171.602V73.9946H162.76V75.2866H161.088V66.9946H173.276V75.2866ZM166.704 56.5293C166.346 55.5733 165.939 54.6639 165.462 53.7572L167.111 53.3026C167.612 54.3546 167.994 55.3106 168.282 56.1932L167.372 56.5293H174.9V58.1519H159.344V56.5293H166.704ZM153.275 64.9399L152.726 63.0986C155.067 60.2066 156.763 56.8866 157.839 53.1586L159.44 53.8999C158.867 55.7399 158.172 57.4612 157.338 59.0852V75.3333H155.642V61.9052C154.924 62.9559 154.136 63.9839 153.275 64.9399Z" fill="#727071"/>
<path d="M205.795 65.4167V71.0087H202.187V75.406H200.609V64.8193H202.187V69.574H204.289V65.4167H205.795ZM206.775 64.246L205.555 64.5567C205.46 64.1033 205.34 63.6713 205.245 63.242C203.477 63.482 201.876 63.6967 200.393 63.8633L200.084 62.622C200.848 62.1433 201.828 60.9007 203.023 58.942L199.988 59.2287L199.629 57.986C199.844 57.8887 200.036 57.6993 200.227 57.4367C200.943 56.266 201.589 54.9273 202.139 53.398L203.548 53.9473C202.832 55.5727 202.115 56.8633 201.445 57.842C202.211 57.794 202.999 57.722 203.787 57.6273C204.123 57.006 204.456 56.3367 204.839 55.6433L206.153 56.17C204.456 59.3247 203.095 61.402 202.044 62.454C202.879 62.334 203.835 62.1913 204.933 62.0247C204.744 61.3073 204.529 60.59 204.289 59.8967L205.46 59.5393C205.937 60.9007 206.392 62.478 206.775 64.246ZM195.041 65.3687V69.3593H197.099C197.168 68.906 197.216 68.4273 197.216 67.95V64.8433H198.769V67.95C198.721 69.886 198.316 71.4393 197.551 72.6113C196.785 73.71 195.52 74.5447 193.8 75.142L192.939 73.7793C194.516 73.23 195.639 72.514 196.284 71.6073C196.428 71.342 196.571 71.0807 196.691 70.794H193.536V65.3687H195.041ZM199.535 64.1753L198.316 64.486C198.22 64.1033 198.148 63.7207 198.076 63.3873C196.261 63.7207 194.588 63.9847 193.059 64.1753L192.723 62.9327C193.608 62.4313 194.756 61.1633 196.14 59.1087L193.081 59.3953L192.723 58.1287C192.939 58.034 193.129 57.842 193.321 57.5793C194.181 56.3367 194.947 54.8793 195.591 53.2553L197.001 53.8047C196.212 55.5247 195.4 56.9353 194.588 58.034C195.4 57.938 196.188 57.8673 197.001 57.7713C197.383 57.1247 197.789 56.4567 198.196 55.7873L199.511 56.314C197.623 59.4673 196.069 61.594 194.875 62.6927L197.741 62.1913C197.551 61.4993 197.36 60.8527 197.168 60.2553L198.339 59.874C198.793 61.1167 199.199 62.55 199.535 64.1753ZM190.167 69.2647V66.0873H187.515V70.1967C188.424 69.934 189.307 69.622 190.167 69.2647ZM190.167 61.0207H187.515V64.5567H190.167V61.0207ZM190.167 55.9553H187.515V59.49H190.167V55.9553ZM193.105 54.378V55.9553H191.745V75.406H190.167V70.866C188.591 71.51 186.941 72.0593 185.173 72.49L184.767 70.8887C185.149 70.794 185.555 70.722 185.937 70.626V55.9553H184.909V54.378H193.105Z" fill="#727071"/>
<path d="M233.369 58.3919L232.2 59.5866C231.148 58.4173 229.69 57.1733 227.825 55.8826L229.045 54.7119C230.765 55.9306 232.2 57.1479 233.369 58.3919ZM232.749 64.0546L231.529 65.2733C230.454 64.0546 228.972 62.7639 227.109 61.3786L228.328 60.2066C230.072 61.4986 231.554 62.7639 232.749 64.0546ZM238.626 67.9986L236.212 68.3799V75.2146H234.469V68.6666L227.013 69.8853L226.774 68.2119L234.469 66.9706V53.4706H236.212V66.6826L238.362 66.3239L238.626 67.9986ZM221.088 59.8253V56.2893C219.941 56.4573 218.77 56.5986 217.526 56.7199L217.192 55.0933C220.298 54.8559 223.069 54.3546 225.46 53.6373L226.058 55.2613C225.03 55.5493 223.954 55.7879 222.808 56.0013V59.8253H226.105V61.4759H222.808V62.6453C224.146 63.7199 225.53 64.9399 226.917 66.2786L225.938 67.7359C224.696 66.2786 223.668 65.1319 222.808 64.2946V75.2146H221.088V64.0546C220.132 66.3973 218.865 68.5239 217.24 70.4346L216.5 68.5239C218.53 66.4693 219.988 64.1026 220.897 61.4759H217.169V59.8253H221.088Z" fill="#727071"/>
<path d="M263.619 69.6226C265.267 68.0226 266.486 66.1573 267.275 64.0066H260.082C260.703 66.1106 261.899 67.9746 263.619 69.6226ZM262.496 56.8386V53.4466H264.168V56.8386H269.927V58.4866H264.168V62.3826H268.995V63.912C268.158 66.54 266.772 68.788 264.836 70.6506C266.415 71.8693 268.35 72.944 270.62 73.876L269.711 75.3106C267.322 74.26 265.291 73.04 263.667 71.7026C261.803 73.1826 259.532 74.4013 256.856 75.3586L256.043 73.9253C258.576 73.088 260.727 71.988 262.472 70.6266C260.464 68.6666 259.15 66.4693 258.482 64.0066H257.214V62.3826H262.496V58.4866H256.76V56.8386H262.496ZM249.282 75.024L248.924 73.3973C249.543 73.4706 250.142 73.5186 250.715 73.5186C251.36 73.5186 251.695 73.16 251.695 72.4413V66.7306C250.739 67.1133 249.783 67.472 248.779 67.808L248.35 66.1106C249.496 65.8226 250.595 65.4653 251.695 65.0586V59.42H248.803V57.7706H251.695V53.3986H253.367V57.7706H255.9V59.42H253.367V64.3666C254.252 63.936 255.111 63.5053 255.948 63.0293V64.7013C255.088 65.1773 254.228 65.608 253.367 66.0146V72.8733C253.367 74.308 252.675 75.024 251.288 75.024H249.282Z" fill="#727071"/>
<path d="M296.045 69.8373C297.31 68.4999 298.266 66.9706 298.887 65.2253H293.177C293.702 66.9466 294.658 68.4759 296.045 69.8373ZM299.365 54.2813V59.4906C299.365 59.9706 299.605 60.2319 300.106 60.2319H301.97V61.8333H299.677C298.338 61.8333 297.669 61.1626 297.669 59.8253V55.9079H293.606V57.3653C293.606 59.6573 292.746 61.4266 291.074 62.6706L289.927 61.3546C291.241 60.4466 291.909 59.1813 291.909 57.5319V54.2813H299.365ZM300.535 63.5533V65.1533C299.915 67.4239 298.839 69.3599 297.358 70.9839C298.743 72.0599 300.417 72.9919 302.423 73.8053L301.491 75.2866C299.389 74.3293 297.622 73.2786 296.211 72.1079C294.658 73.4213 292.77 74.4746 290.571 75.2626L289.615 73.8053C291.718 73.0386 293.487 72.0839 294.921 70.9133C293.271 69.2413 292.149 67.3279 291.574 65.2253H290.405V63.5533H300.535ZM287.442 65.4413V62.1666C286.198 61.8333 284.933 61.5453 283.642 61.3306V66.1106C285.027 65.9186 286.295 65.7039 287.442 65.4413ZM287.442 60.6866V55.8106H283.642V59.8973C284.958 60.0879 286.223 60.3519 287.442 60.6866ZM289.066 73.1119C289.066 74.4746 288.398 75.1666 287.059 75.1666H285.099L284.693 73.6373C285.363 73.6853 286.007 73.7333 286.581 73.7333C287.154 73.7333 287.442 73.3266 287.442 72.5373V66.9706C286.223 67.2573 284.933 67.5199 283.571 67.7106C283.331 70.7693 282.686 73.3039 281.586 75.3333L280.297 74.1626C281.443 71.9653 282.017 69.1933 282.066 65.8226V54.2586H289.066V73.1119Z" fill="#727071"/>
<path d="M329.257 54.1628C330.165 57.6282 331.787 60.3988 334.13 62.4548L333.102 63.8628C330.809 61.8575 329.113 59.1562 327.989 55.7642H325.479V54.1628H329.257ZM330.689 72.1562C330.474 73.9948 329.471 74.9268 327.655 74.9268C327.154 74.9268 326.317 74.9055 325.121 74.8575L324.715 73.2308C325.743 73.2788 326.651 73.3268 327.415 73.3268C328.371 73.3268 328.897 72.7055 329.042 71.4642C329.209 70.6988 329.303 68.3322 329.351 64.3895H324.691V65.2495C324.691 68.9762 323.115 72.2748 319.959 75.1415L318.527 73.9242C321.49 71.3908 322.973 68.5002 322.973 65.2495V64.3895H320.558V62.7162H331.047C331.047 67.8068 330.929 70.9615 330.689 72.1562ZM323.951 54.5695C323.043 58.2482 321.323 61.3308 318.789 63.8402L317.69 62.4068C319.959 60.1615 321.49 57.4362 322.279 54.1868L323.951 54.5695ZM319.221 54.0668C318.598 55.8828 317.834 57.5802 316.901 59.2042V75.3335H315.133V61.8575C314.345 62.9082 313.485 63.9122 312.554 64.8668L312.005 63.0762C314.583 60.2548 316.449 57.0068 317.642 53.3508L319.221 54.0668Z" fill="#727071"/>
<path d="M360.917 61.9772H351.405V64.5826H360.917V61.9772ZM351.405 68.2119C351.405 68.3572 351.381 68.4759 351.381 68.6185H360.917V66.0879H351.405V68.2119ZM348.851 75.3105L347.583 74.1626C349.017 72.6332 349.757 70.6999 349.807 68.3092V62.7412C348.468 64.3892 346.937 65.9185 345.195 67.3279L344.095 65.8959C347.081 63.5052 349.399 60.7812 351.047 57.6759H344.715V56.0265H351.836C352.243 55.0932 352.6 54.1626 352.888 53.2306L354.633 53.4225C354.369 54.3292 354.057 55.1905 353.724 56.0265H365.6V57.6759H353.007C352.529 58.6319 352.003 59.5639 351.429 60.4719H362.565V73.2559C362.565 74.5439 361.849 75.1906 360.463 75.1906H357.953L357.547 73.6372C358.408 73.6852 359.22 73.7092 359.961 73.7092C360.581 73.7092 360.917 73.3519 360.917 72.6812V70.1239H351.263C350.928 72.1799 350.116 73.9252 348.851 75.3105Z" fill="#727071"/>
<path d="M397.309 66.7305C396.21 68.0225 394.992 69.0252 393.653 69.7185C394.848 71.3425 396.281 72.6332 397.977 73.5892L396.974 75.0465C393.868 73.2305 391.622 70.3865 390.212 66.5159L391.526 65.7745C391.908 66.7559 392.338 67.6625 392.84 68.4999C394.01 67.8545 395.134 66.8985 396.186 65.6079L397.309 66.7305ZM387.081 63.0039H394.129V60.2799H387.081V63.0039ZM394.129 55.9785H387.081V58.7279H394.129V55.9785ZM387.081 72.7545C388.516 72.3225 389.948 71.7985 391.358 71.1279L391.765 72.7292C390.045 73.4705 387.893 74.1865 385.289 74.8799L384.86 73.3745C385.193 73.2785 385.385 73.0879 385.385 72.8239V54.3545H395.804V64.5825H387.081V72.7545ZM384.262 54.3292V55.6919C383.545 57.8425 382.684 60.0892 381.681 62.4305C383.212 64.5345 384.046 66.4452 384.142 68.1652C384.142 69.1932 383.88 69.9332 383.402 70.3865C382.732 70.9612 381.537 71.2492 379.817 71.2492L379.244 69.5039C379.625 69.5519 379.938 69.5985 380.176 69.5985C381.06 69.5519 381.658 69.4305 381.968 69.2412C382.256 69.0252 382.422 68.6665 382.422 68.1652C382.422 66.5399 381.585 64.7012 379.913 62.6932C381.036 60.2065 381.92 57.9625 382.541 55.9559H378.6V75.3105H376.925V54.3292H384.262Z" fill="#727071"/>
<path d="M423.687 54.2109C424.499 58.4403 426.459 61.8563 429.543 64.4856L428.179 65.7296C425.264 63.0989 423.328 59.8003 422.349 55.8109H418.333V54.2109H423.687ZM427.557 74.5443L425.957 75.2629C425.599 74.4496 425.24 73.7096 424.881 72.9923C420.652 73.6363 415.944 74.1389 410.783 74.4736L410.473 72.7989C412.361 71.7976 414.751 68.0216 417.617 61.4749L419.315 62.0483C417.283 66.5403 415.228 70.1016 413.151 72.7056C417.02 72.4656 420.676 72.0603 424.116 71.5109C423.185 69.7896 422.229 68.2123 421.225 66.7789L422.803 66.2789C424.644 68.8576 426.219 71.6296 427.557 74.5443ZM416.279 54.9523C414.559 59.6829 412.265 63.3136 409.445 65.8229L408.084 64.6523C410.999 62.0723 413.197 58.6309 414.679 54.3056L416.279 54.9523Z" fill="#727071"/>
<path d="M451.045 65.1318H443.831V69.4078H451.045V65.1318ZM452.695 70.9358H442.159V63.5771H452.695V70.9358ZM453.555 75.1184L453.125 73.4704L456.472 73.5184C457.188 73.5184 457.571 73.0384 457.571 72.0837V56.0491H441.32V54.3771H459.291V72.5624C459.291 74.2584 458.479 75.1184 456.854 75.1184H453.555ZM455.062 60.6384H440.365V59.0851H455.062V60.6384Z" fill="#727071"/>
<path d="M-0.225342 26.4732V79.3239L27.176 95.1452C28.4706 95.8905 30.0853 94.9572 30.0853 93.4652L30.084 44.7505C30.084 43.3545 31.2147 42.2225 32.6093 42.2225H56.576C57.8933 42.2225 59.1627 41.7252 60.1307 40.8292L67.3107 34.1732C67.9573 33.5759 67.5346 32.4972 66.6533 32.4972H24.1267C22.0453 32.4972 20.3547 34.1852 20.3547 36.2665V79.9772L9.50268 73.7092V32.0879L45.5467 11.2759L81.592 32.0879V73.7092L45.5467 94.5359V104.087C45.5467 104.833 46.356 105.299 47.0027 104.927L91.32 79.3239V26.4732L45.5467 0.0451926L-0.225342 26.4732Z" fill="url(#paint0_linear_211_40276)"/>
<path d="M57.1476 52.7957H43.5316C42.7156 52.7957 42.053 53.4584 42.053 54.2744V67.8904C42.053 68.7077 42.7156 69.3704 43.5316 69.3704H57.1476C57.9636 69.3704 58.6263 68.7077 58.6263 67.8904V54.2744C58.6263 53.4584 57.9636 52.7957 57.1476 52.7957Z" fill="#ED6D00"/>
</g>
<defs>
<linearGradient id="paint0_linear_211_40276" x1="12.381" y1="19.7318" x2="87.4119" y2="94.7627" gradientUnits="userSpaceOnUse">
<stop stop-color="#00B4ED"/>
<stop offset="0.918182" stop-color="#005BAC"/>
<stop offset="1" stop-color="#005BAC"/>
</linearGradient>
<clipPath id="clip0_211_40276">
<rect width="459" height="105" fill="white" transform="translate(0 0.265381)"/>
</clipPath>
</defs>
</svg>
