<svg width="1067" height="535" viewBox="0 0 1067 535" fill="none" xmlns="http://www.w3.org/2000/svg">
<path d="M476.886 156.939C461.347 150.47 442.448 145.326 429.822 160.479C425.32 165.879 423.674 172.735 420.734 178.962C419.246 182.115 417.502 185.255 414.748 187.411C413.068 188.794 409.714 189.975 410.72 192.727C412.154 196.659 420.648 193.298 423.794 193.162C432.182 192.792 439.908 197.452 445.388 203.346C454.791 213.456 460.199 227.836 466.575 239.919C474.475 254.892 484.122 268.819 496.55 280.427C504.192 287.508 513.431 293.262 522.899 297.61C538.227 304.648 553.574 310.064 563.271 324.867C574.794 342.487 579.115 364.896 585.691 384.644C589.306 395.498 593.188 407.454 604.699 412.174C610.599 414.603 617.007 414.264 623.183 413.404C639.295 411.159 653.466 402.006 666.443 392.738C678.92 383.858 691.487 374.812 702.624 364.194C714.684 352.704 732.887 338.238 730.871 319.36C729.642 307.875 718.696 301.147 709.31 296.454C687.832 285.714 665.787 276.358 642.454 270.448C630.926 267.528 618.012 266.304 607.059 261.599C602.688 259.722 597.815 255.502 598.954 250.144C600.3 243.852 608.327 240.824 613.744 239.134C629.443 234.02 643.879 228.31 658.184 219.918C698.144 196.474 733.58 168.146 758.998 129.016C769.438 112.944 779.948 94.7177 780.886 75.1377C781.668 59.407 779.903 44.8897 776.332 29.519C775.168 24.511 773.703 15.5883 768.3 13.3976C763.975 11.663 759.575 15.1843 756.11 17.2483C746.982 22.683 737.626 27.8177 728.187 32.567C686.284 53.519 642.046 71.3177 613.206 110.139C603.631 123.03 595.06 136.658 585.378 149.467C581.784 154.22 576.912 161.266 570.091 160.788C561.378 160.226 560.259 147.944 558.022 141.602C550.796 121.275 546.386 99.9163 534.676 81.431C521.104 60.0043 496.943 45.4297 473.346 37.515C467.35 35.5083 461.336 33.7177 455.255 31.9923C453.059 31.3683 449.848 30.3137 449.09 33.4537C448.176 36.991 452.267 42.223 453.78 45.2497C458.206 54.1017 461.896 63.415 465.086 72.779C474.502 100.411 476.886 127.987 476.886 156.939Z" fill="#303B78"/>
<path d="M457.615 38.9572C460.369 48.7212 466.101 58.0159 469.534 67.6666C476.997 88.6306 481.435 110.749 482.391 132.949C482.743 140.625 483.571 148.885 482.618 156.545C482.306 158.921 482.99 162.091 481.122 163.927C478.841 166.168 475.909 163.272 473.739 162.153C467.806 159.092 460.762 156.464 454.075 156.168C434.711 155.367 429.287 172.139 423.007 187.221C427.691 187.224 432.442 188.008 436.771 189.808C438.946 190.76 442.263 193.577 444.638 193.297C448.251 192.871 452.653 189.059 456.042 187.615C463.631 184.205 472.513 182.324 480.818 183.403C493.634 185.067 504.202 193.737 516.606 195.873V175.423C512.867 175.423 509.134 174.857 505.594 173.715C502.963 172.872 500.366 171.752 498.122 170.117C496.51 168.944 495.081 167.607 493.915 165.984C484.358 152.721 499.302 138.879 505.963 128.231C509.134 123.117 512.051 117.677 515.259 112.499C516.282 110.848 517.506 107.855 519.753 107.647C522.113 107.428 523.619 110.927 524.638 112.499C527.95 117.817 531.158 123.192 534.303 128.624C541.093 140.436 554.338 158.512 539.81 169.649C537.931 171.097 535.745 172.14 533.517 172.928C529.978 174.165 526.582 174.955 522.898 175.423V197.84C531.487 198.931 539.347 198.669 547.675 195.973C560.395 191.855 572.058 183.904 585.822 183.304C598.322 182.757 610.901 192.54 622.665 185.392C624.626 184.2 623.577 177.871 623.577 175.816V157.725C623.577 154.384 623.183 151.097 625.359 148.289C628.671 143.992 633.946 140.827 638.127 137.428C640.302 135.703 642.442 133.272 645.206 132.473C650.311 130.997 657.207 132.163 662.51 132.163C666.235 132.163 671.555 131.189 675.095 132.449C679.027 133.876 682.885 138.364 686.107 141.045C689.118 143.568 693.575 146.321 695.366 149.86C696.661 152.449 695.939 156.472 695.939 159.299V180.143C698.282 180.439 701.445 181.349 703.805 180.757C706.557 180.048 709.167 176.996 711.277 175.136C717.093 170.148 722.398 164.712 727.794 159.299C737.582 149.48 745.967 137.947 753.357 126.264C765.809 106.663 774.986 87.7226 774.986 64.1266C774.986 52.5306 772.627 41.1426 769.874 29.9119C769.331 27.4692 768.478 20.1532 765.889 19.1439C762.761 17.9239 757.107 23.6746 754.537 25.1932C744.079 31.3439 733.134 36.5972 722.287 42.0066C685.982 60.1946 647.278 76.4439 621.139 108.96C610.205 122.511 600.845 137.384 590.542 151.433C585.941 157.824 580.817 165.696 572.058 166.377C566.039 166.785 560.099 164.055 557.261 158.512C554.657 153.429 553.253 147.435 551.593 141.995C548.379 131.467 545.197 120.909 541.503 110.533C537.769 100.04 533.39 89.6892 526.77 80.6439C515.965 65.9092 500.611 56.0239 484.358 48.2959C476.49 44.5546 466.371 39.7439 457.615 38.9572Z" fill="#DBEFE8"/>
<path d="M715.209 61.5409C711.074 62.1609 707.344 63.5129 703.804 65.7249C681.574 79.6156 686.893 115.541 712.849 121.408C715.996 122.129 719.404 122.621 722.681 122.218C727.676 121.605 732.596 120.238 736.84 117.476C756.109 104.916 754.916 74.7449 734.086 64.2716C728.42 61.4396 721.453 60.6889 715.209 61.5409Z" fill="#2F3D89"/>
<path d="M717.569 67.4412C713.242 68.0599 709.286 69.2959 705.77 71.8972C686.258 86.3412 698.534 119.115 723.074 115.925C726.817 115.439 730.517 114.108 733.693 112.107C754.349 98.8239 742.345 63.8839 717.569 67.4412Z" fill="#E6AC31"/>
<path d="M721.108 72.9513C718.715 73.3286 716.488 74.2446 714.423 75.5313C698.057 85.4633 708.759 110.693 727.007 107.651C749.133 103.965 743.131 69.482 721.108 72.9513Z" fill="#E45D3B"/>
<path d="M522.898 120.758V132.95C528.348 129.111 527.158 125.292 522.898 120.758Z" fill="#A7D039"/>
<path d="M516.213 121.938C513.976 125.594 511.888 129.41 509.528 132.95C508.822 134.13 507.092 135.783 507.168 137.275C507.46 140.349 514.145 145.174 516.606 146.714V129.803L516.213 121.938Z" fill="#A7D039"/>
<path d="M349.072 151.826V152.22H347.105V152.613L349.859 153.006V153.4C340.807 153.4 330.847 154.765 322.329 157.968C320.089 158.809 311.633 163.332 317.611 165.692C319.576 166.478 322.4 165.47 324.296 164.804C329.273 162.981 333.651 160.012 338.453 157.848C345.78 154.58 352.411 155.429 360.084 155.76C355.456 152.261 349.631 151.178 345.139 147.04C339.9 142.202 337.645 135.552 333.723 129.804C331.768 127.05 328.72 122.544 324.689 123.636C320.363 124.814 325.763 131.769 327.049 133.342C332.161 139.774 340.924 149.466 349.072 151.826Z" fill="#46AC52"/>
<path d="M332.948 149.467V149.86C323.375 149.86 313.104 150.015 304.632 144.963C300.307 142.388 296.701 138.601 292.835 135.407C291.257 134.129 289.161 131.981 286.935 131.989C281.968 132.007 287.977 139.077 289.295 140.028C296.237 144.933 304.433 147.2 312.497 149.467V149.86C305.573 149.864 297.757 152.045 291.655 155.28C290.475 155.897 283.859 160.94 288.115 161.909C291.819 162.728 297.332 156.231 300.307 154.579C307.385 150.46 314.324 149.86 322.329 149.86V150.253C314.731 150.647 305.401 154.487 299.127 158.652C297.553 159.692 290.868 166.295 296.373 166.965C298.34 167.212 300.7 165.072 302.273 164.017C306.98 160.756 310.911 156.545 316.037 153.895C325.841 148.824 334.375 151.04 344.747 151.827C340.773 149.467 335.265 148.823 330.981 146.612C325.171 143.612 320.62 139.031 315.644 134.916C313.417 133.029 309.145 128.361 305.812 129.648C301.448 131.376 306.813 136.881 308.565 138.252C315.196 143.479 324.684 147.756 332.948 149.467Z" fill="#46AC52"/>
<path d="M368.736 158.119V158.512C355.718 161.88 342.698 163.08 330.588 169.645C328.34 170.864 317.94 177.783 323.206 180.928C326.444 182.895 332.801 177.783 335.308 176.073C345.293 169.291 354.382 161.549 366.769 159.745C370.301 159.231 373.17 161.139 376.208 162.752C381.864 165.757 387.136 169.748 391.938 173.963C394.38 176.103 396.441 179.151 399.41 180.535C393.641 170.552 381.037 165.357 371.882 159.158C366.612 155.588 362.594 150.682 358.904 145.534C356.308 141.776 353.937 137.823 351.184 134.129C350.117 132.697 348.678 130.472 346.713 130.364C341.993 130.112 346.906 138.32 347.861 139.635C352.884 146.554 361.021 154.276 368.736 158.119Z" fill="#46AC52"/>
<path d="M530.371 133.736C528.149 135.957 524.717 138.378 523.292 141.208C521.615 144.582 522.899 151.222 522.899 154.973C526.393 153.414 529.417 150.113 532.337 147.662C533.379 146.788 535.285 145.648 535.712 144.288C536.452 141.994 531.944 135.345 530.371 133.736Z" fill="#65BD65"/>
<path d="M630.262 151.827H653.465C654.252 145.631 662.904 142.625 666.444 138.063C660.628 138.063 651.876 136.404 646.386 138.293C644.192 139.049 642.216 141.292 640.488 142.781C637.156 145.655 632.874 148.287 630.262 151.827Z" fill="#E75944"/>
<path d="M659.757 179.749L668.409 179.355V168.343C668.409 167.011 668.016 164.917 668.803 163.75C669.935 162.069 679.421 162.069 680.589 163.75C681.369 164.917 680.995 167.011 680.995 168.343V179.355L690.04 179.749V160.478C690.04 158.129 690.719 154.579 689.803 152.333C688.232 148.583 681.719 144.991 678.635 142.419C677.624 141.601 676.163 139.859 674.701 140.051C673.259 140.241 671.832 141.926 670.769 142.813C667.623 145.421 662.035 148.57 660.151 152.226C659.059 154.377 659.757 158.118 659.757 160.478V179.749Z" fill="white"/>
<path d="M502.842 142.388C500.311 146.14 497.328 150.385 496.667 154.973C494.976 166.248 507.954 169.131 516.606 169.131L516.37 155.04L513.067 151.448L502.842 142.388Z" fill="#65BD65"/>
<path d="M522.898 169.131C534.654 169.033 543.733 162.088 539.022 149.86L527.617 158.808L523.292 162.853L522.898 169.131Z" fill="#A7D039"/>
<path d="M555.147 224.189C560.424 224.079 565.651 222.615 570.878 221.942C582.144 220.649 593.688 219.213 605.092 219.078C613.964 218.973 622.972 218.703 631.835 219.091C635.958 219.271 641.61 220.746 645.6 219.667C650.995 218.207 656.611 213.57 661.331 210.591C673.522 202.974 685.419 194.839 697.119 186.434C694.436 185.309 690.94 185.809 688.074 185.647C680.88 185.121 673.664 185.254 666.443 185.254C637.3 185.254 605.879 193.715 580.316 207.55C572.284 211.894 560.799 216.803 555.147 224.189Z" fill="#6ABD4A"/>
<path d="M448.963 197.446C450.742 201.646 454.618 205.312 456.985 209.245C461.506 216.844 465.07 224.989 469.122 232.841C470.709 235.914 473.501 243.782 476.642 245.425C478.459 246.3 482.598 243.744 484.358 243.085C491.611 240.373 498.909 237.793 506.381 235.649C513.811 233.51 521.222 231.153 528.798 229.562C533.207 228.637 538.779 228.373 542.843 226.358C547.939 223.832 552.366 218.432 557.114 215.154C570.485 205.91 586.107 196.266 601.946 191.941C597.966 189.509 591.911 189.581 587.395 189.581C569.63 189.581 555.51 201.938 538.237 204.408C517.727 207.338 502.449 192.872 483.178 189.709C470.097 187.614 460.542 192.457 448.963 197.446Z" fill="#42A547"/>
<path d="M633.801 225.762C629.841 224.1 623.164 224.975 618.857 224.975C613.057 224.975 605.983 223.931 600.373 225.623C596.936 226.66 593.575 229.462 590.541 231.343C582.552 236.296 574.623 241.795 567.732 248.214C558.62 256.7 549.94 267.842 556.428 280.427C562.619 292.468 577.084 301.27 588.968 306.862C601.055 312.587 613.487 317.696 617.223 331.946C621.216 347.295 614.432 364.483 606.009 377.172C603.637 380.746 601.029 384.139 598.239 387.396C597.169 388.644 595.156 390.051 594.795 391.723C593.815 396.259 601.421 403.31 604.699 405.304C615.171 411.68 629.288 406.667 639.307 401.652C664.305 389.184 685.869 370.942 706.164 352.038C714.423 344.302 725.905 333.519 725.005 320.934C724.067 307.856 706.484 301.13 696.332 296.606C677.284 288.116 658.343 280.482 638.128 275.159C627.316 272.312 615.433 271.534 605.092 267.106C602.585 266.031 600.109 264.723 598.08 262.88C585.645 251.595 597.404 237.742 609.812 233.763C617.883 231.174 625.888 228.831 633.801 225.762Z" fill="#5ABCD3"/>
<path d="M480.032 250.931C481.915 255.898 486.324 260.651 489.767 264.695C498.479 275.13 508.741 283.754 520.932 289.919C533.233 296.161 546.82 300.115 557.507 309.189C569.564 319.426 575.204 334.305 580.185 348.857C584.249 361.047 588.147 373.239 592.115 385.43C597.476 381.574 601.553 374.214 604.7 368.519C611.351 356.722 617.135 337.845 608.323 325.653C603.087 318.414 594.011 315.349 586.216 311.767C569.576 304.122 542.08 286.639 549.388 264.695C550.519 261.299 552.148 258.185 554.199 255.258C557.619 250.378 561.669 246.075 566.159 242.169C572.82 236.381 580.049 230.874 587.789 226.549C585.768 225.762 583.227 226.761 581.103 226.942C574.768 227.343 568.519 228.594 562.227 229.234C550.821 230.389 539.521 233.249 528.404 235.818C512.191 239.567 495.168 243.853 480.032 250.931Z" fill="#A8D144"/>
<path d="M686.107 430.657L683.583 435.769L673.522 436.162H647.566V455.433H651.892V488.074L645.207 488.861L649.139 508.132L664.87 505.772V518.357C669.97 518.357 680.687 516.097 682.96 521.504C688.545 519.93 693.695 516.264 698.299 512.852V518.357H717.568V505.772H728.973C728.973 498.944 727.275 489.565 729.099 483.004C729.76 480.512 734.247 480.878 734.348 478.244C734.619 471.073 727.471 464.628 727.007 457.793C726.826 454.89 730.223 451.022 731.334 448.354L723.075 444.421L725.433 438.916L708.129 431.05L702.624 444.814H701.838L701.444 444.421L703.804 438.916L686.107 430.657ZM363.623 440.096L367.556 445.994H358.904V465.265H372.668C369.664 469.592 365.196 473.542 360.871 476.396C359.298 477.457 354.871 479.173 354.366 481.078C353.892 482.865 357.331 485.569 358.298 486.896C360.871 490.481 361.648 495.684 362.836 499.873L369.915 495.154V518.357H388.792V500.266H404.524V518.357H424.187V499.873H441.098V445.208H424.187V432.624H404.524V445.208C401.378 445.208 393.862 446.585 391.356 444.578C388.248 442.088 385.88 437.268 383.236 434.197C382.364 433.184 381.207 431.233 379.742 431.09C378.175 430.942 376.208 432.666 375.028 433.41C371.262 435.669 367.499 438.033 363.623 440.096Z" fill="#334292"/>
<path d="M590.541 431.444C589.979 435.805 588.788 440.193 587.597 444.422C587.001 446.425 586.483 448.384 584.249 448.748V432.624H564.979V437.342L555.933 436.162L552.143 461.726L547.281 474.31L553.18 476.277V477.064L548.461 477.85L553.967 497.513L564.979 494.368V518.357H584.249V512.458L592.508 519.93H592.901L600.767 513.245V517.177C608.156 517.177 617.873 519.606 624.363 514.96C630.655 510.417 631.833 501.565 632.621 494.368C634.448 478.272 635.375 462.2 635.375 445.994H607.452L609.812 434.984L590.541 431.444ZM457.221 438.129L461.941 445.994H455.256V464.872H458.008L457.615 517.57H476.099V513.638C479.908 513.638 484.095 514.134 487.863 513.638C490.651 513.164 493.08 511.846 496.156 512.581C499.015 513.264 501.571 516.281 501.661 519.144C503.027 518.932 504.304 519.93 505.595 519.537C508.932 518.554 512.911 514.424 515.427 512.065C518.689 519.056 529.299 519.93 534.231 514.424C538.571 509.605 539.696 501.053 540.012 494.766C540.203 490.997 533.373 491.622 533.499 487.682C533.517 485.165 536.943 476.758 539.023 475.49V456.613H537.449C536.799 449.158 531.013 441.83 527.617 435.377L524.079 436.556V432.624H504.808V437.342H504.415L501.12 432.484L495.763 433.41L483.177 436.949L485.144 441.276L481.36 440.882L474.096 431.718L469.02 433.182L457.221 438.129Z" fill="#30418D"/>
<path d="M374.241 442.062L380.927 452.68L385.647 449.927C384.86 447.459 381.047 440.395 378.172 440.195C376.844 440.102 375.316 441.404 374.241 442.062Z" fill="#D7E8E0"/>
<path d="M411.603 439.702V452.287H395.479V493.187H400.591V489.647H411.603V511.278H417.108V489.647H428.513V492.794H434.019V452.287H417.108V439.702H411.603Z" fill="#E5F1F2"/>
<path d="M512.28 439.702L512.674 463.691H504.808L507.562 454.253L502.842 453.466L500.482 463.691H495.37L493.403 453.466L489.078 454.253L491.043 463.691H484.751V468.411H513.067L514.419 484.535L515.427 493.581L508.347 502.233V473.13H487.898V505.771H492.616V500.266H503.628V502.233H508.347L502.448 508.131C503.44 508.818 504.686 510.243 505.988 510.145C510.088 509.831 514.728 502.559 517.392 499.873C518.304 503.809 522.899 515.013 528.668 509.927C531.692 507.251 532.243 500.895 532.731 497.119L528.798 494.761C528.34 497.226 528.798 501.85 526.636 503.591C524.02 505.675 521.315 496.537 521.559 494.761C521.887 492.401 524.151 489.777 525.258 487.681C527.539 483.667 529.726 479.19 530.764 474.703L526.044 472.737C524.578 477.246 522.971 483.355 519.752 486.895L518.179 468.411H531.944V463.691H517.786L516.999 439.702H512.28Z" fill="#D7E8E0"/>
<path d="M596.047 439.702C594.327 446.685 592.299 453.779 588.847 460.153C587.615 462.426 583.014 467.086 583.135 469.591C583.206 471.003 585.621 472.275 586.609 473.13H587.002L593.193 463.691L596.201 458.59L602.339 458.186C600.718 466.545 596.047 475.305 591.159 482.175C588.969 485.134 585.429 487.681 583.855 490.827C585.147 491.547 587.002 493.418 588.574 493.187C591.243 492.794 593.99 487.759 595.422 485.715C600.839 477.985 606.065 467.625 607.453 458.186H614.138C610.923 470.606 607.311 482.649 600.353 493.581C597.227 498.407 591.449 502.053 588.969 506.951L593.294 510.098H593.687C607.453 498.051 617.398 476.523 618.857 458.186H622.79C622.79 469.501 621.871 481.222 620.145 492.401C619.567 496.139 619.394 501.842 616.063 504.334C613.819 506.011 608.987 504.985 606.273 504.985L607.453 510.491C611.385 510.491 617.502 511.521 620.787 508.763C624.681 505.494 625.042 498.299 625.543 493.581C627.207 480.209 628.295 466.574 628.295 453.073H598.014L601.159 440.489L596.047 439.702ZM572.058 439.702V450.714L571.427 455.195L565.766 455.826L566.945 444.814L562.295 445.053L560.981 453.859L556.721 470.377L561.439 472.737C561.993 470.377 563.013 463.065 565.098 461.737C566.741 460.675 570.162 461.333 572.058 461.333V479.029L561.439 481.795L557.781 483.479L558.686 488.467L572.058 484.535V511.278H577.17V482.569L587.002 479.815L586.215 474.703L577.17 477.063V461.333H585.035V455.826H577.17V439.702H572.058Z" fill="#D7E8E0"/>
<path d="M493.796 441.275L496.55 448.354H485.931V452.681H509.527V448.354H501.662L498.123 440.095L493.796 441.275ZM467.84 441.275L472.952 451.501C474.132 451.287 476.58 450.837 476.958 449.426C477.464 447.567 473.454 440.969 471.644 440.374C470.486 439.993 468.923 440.91 467.84 441.275Z" fill="#D7E8E0"/>
<path d="M679.814 455.826L680.994 461.332L689.253 460.153L679.028 471.164L680.601 476.277L697.512 473.524L698.298 477.457L702.23 476.67L698.298 463.692L694.758 464.478L696.332 469.984L686.5 470.77C690.925 464.478 696.725 458.721 699.872 451.501L695.545 449.534C693.306 454.329 691.572 456.613 686.106 456.613L694.365 442.062C693.296 441.669 691.72 440.498 690.521 440.809C689.016 441.201 688.218 444.421 687.578 445.601C685.713 449.141 683.354 453.93 679.814 455.826Z" fill="#D7E8E0"/>
<path d="M702.231 455.826L703.411 460.938L711.67 459.76L706.375 467.625L703.292 471.23L703.804 475.884C708.916 474.704 720.695 470.202 722.288 477.064L726.22 475.49L721.108 462.512C716.666 463.584 719.044 466.32 719.535 469.59L709.703 470.377L718.748 457.006L721.108 451.934L717.568 449.534C714.802 454.274 713.975 456.098 708.13 456.22C711.392 452.393 714.604 447.321 715.995 442.456C715.035 441.897 713.416 440.689 712.259 441.328C710.882 442.086 710.096 445.046 709.396 446.388C707.562 449.861 705.488 453.526 702.231 455.826Z" fill="#D7E8E0"/>
<path d="M654.645 443.242V448.354H658.972V493.974L653.858 494.76L654.645 500.266L671.949 497.12V511.278H676.668L676.793 497.556L679.804 495.311L680.208 490.827L676.668 491.22V448.354H680.208V443.242H654.645Z" fill="#D7E8E0"/>
<path d="M519.752 445.995L525.651 459.365C532.208 458.2 529.531 453.953 527.322 449.535C526.627 448.144 525.651 445.208 523.996 444.732C522.676 444.355 520.906 445.456 519.752 445.995Z" fill="#D7E8E0"/>
<path d="M664.083 458.973H671.555V448.354H664.083V458.973Z" fill="#314390"/>
<path d="M365.983 453.073V458.185H385.647C381.491 468.115 372.989 476.405 364.409 482.569L366.769 488.075L376.995 479.816V511.277H381.713V477.456L390.365 487.288L393.512 482.963C391.631 479.955 388.92 477.595 386.433 475.096C385.533 474.193 383.888 472.997 384.027 471.557C384.367 468.017 389.185 462.704 390.855 459.365C391.452 458.185 392.804 456.129 392.012 454.767C390.723 452.545 387.38 453.073 385.253 453.073H365.983Z" fill="#E5F1F2"/>
<path d="M462.335 457.399H483.966V453.073H462.335V457.399Z" fill="#D7E8E0"/>
<path d="M400.591 468.018H411.21V457.399H400.591V468.018Z" fill="#30418D"/>
<path d="M417.502 468.018H428.121V457.399H417.502V468.018Z" fill="#30418D"/>
<path d="M464.694 467.625H481.998V463.298H464.694V467.625Z" fill="#D7E8E0"/>
<path d="M664.083 475.49H671.949V464.478H664.083V475.49Z" fill="#314390"/>
<path d="M400.591 484.142H411.21V473.523H400.591V484.142Z" fill="#30418D"/>
<path d="M417.502 484.142H428.121V473.523H417.502V484.142Z" fill="#30418D"/>
<path d="M465.087 478.243H481.998V473.917H465.087V478.243Z" fill="#D7E8E0"/>
<path d="M492.616 484.142H503.628V477.063H492.616V484.142Z" fill="#314390"/>
<path d="M705.377 478.243V511.671H710.489V495.547H717.176V498.694H721.895V479.423H717.176V490.435H710.489V478.243H705.377ZM683.747 478.243V495.547H694.759C692.552 501.235 689.152 504.891 683.747 507.739L686.5 512.064C701.052 505.972 700.265 491.475 700.265 478.243H695.152V490.828H688.467V478.243H683.747Z" fill="#D7E8E0"/>
<path d="M664.083 480.602V493.188L671.949 492.008V480.602H664.083Z" fill="#314390"/>
<path d="M464.694 484.535V510.491H469.021V506.558H481.998V484.535H464.694Z" fill="#D7E8E0"/>
<path d="M492.616 495.941H503.628V488.862H492.616V495.941Z" fill="#314390"/>
<path d="M469.414 502.233H477.672V489.254H469.414V502.233Z" fill="#314390"/>
</svg>
