<?xml version="1.0" encoding="UTF-8"?>
<svg id="_圖層_1" data-name="圖層 1" xmlns="http://www.w3.org/2000/svg" viewBox="0 0 120 76">
  <defs>
    <style>
      .cls-1 {
        fill: #231815;
      }
    </style>
  </defs>
  <path class="cls-1" d="M21.75,60.62V21.48h-7.5v-6.1h21.47v6.1h-7.5v39.14h-6.48Z"/>
  <path class="cls-1" d="M58.28,28.41h-6.48v-1.46c0-1.48-.35-2.76-1.05-3.84-.7-1.08-1.87-1.62-3.53-1.62-.89,0-1.61.17-2.16.51-.55.34-1,.76-1.33,1.27-.34.55-.57,1.18-.7,1.87-.13.7-.19,1.43-.19,2.19,0,.89.03,1.63.1,2.22.06.59.22,1.12.48,1.59.25.47.62.87,1.11,1.21.49.34,1.15.68,2,1.02l4.96,1.97c1.44.55,2.61,1.2,3.49,1.94.89.74,1.59,1.6,2.1,2.57.47,1.02.78,2.17.95,3.46.17,1.29.25,2.76.25,4.42,0,1.91-.19,3.68-.57,5.3-.38,1.63-1,3.02-1.84,4.16-.89,1.19-2.05,2.12-3.49,2.8-1.44.68-3.2,1.02-5.27,1.02-1.57,0-3.03-.28-4.38-.83-1.36-.55-2.52-1.31-3.49-2.29-.97-.97-1.75-2.11-2.32-3.4-.57-1.29-.86-2.7-.86-4.23v-2.41h6.48v2.03c0,1.19.35,2.26,1.05,3.21s1.87,1.43,3.53,1.43c1.1,0,1.96-.16,2.57-.48.61-.32,1.09-.77,1.43-1.37.34-.59.54-1.3.6-2.13.06-.83.1-1.75.1-2.76,0-1.19-.04-2.16-.13-2.92-.09-.76-.25-1.38-.51-1.84-.3-.47-.69-.85-1.18-1.14-.49-.3-1.13-.61-1.94-.95l-4.64-1.91c-2.8-1.14-4.67-2.66-5.62-4.54-.95-1.88-1.43-4.25-1.43-7.08,0-1.69.23-3.3.7-4.83.47-1.52,1.16-2.84,2.1-3.94.89-1.1,2.02-1.98,3.4-2.64,1.38-.66,3.02-.98,4.92-.98,1.61,0,3.08.3,4.42.89,1.33.59,2.49,1.38,3.46,2.35,1.95,2.03,2.92,4.36,2.92,6.99v3.18Z"/>
  <path class="cls-1" d="M60.49,26.06c0-1.82.32-3.43.95-4.83s1.48-2.56,2.54-3.49c1.02-.89,2.17-1.57,3.46-2.03,1.29-.47,2.59-.7,3.91-.7s2.62.23,3.91.7c1.29.47,2.47,1.14,3.53,2.03,1.02.93,1.84,2.1,2.48,3.49s.95,3.01.95,4.83v2.29h-6.48v-2.29c0-1.57-.43-2.72-1.3-3.46-.87-.74-1.9-1.11-3.08-1.11s-2.21.37-3.08,1.11c-.87.74-1.3,1.9-1.3,3.46v23.89c0,1.57.43,2.72,1.3,3.46.87.74,1.89,1.11,3.08,1.11s2.21-.37,3.08-1.11c.87-.74,1.3-1.9,1.3-3.46v-8.51h-5.15v-5.72h11.63v14.23c0,1.91-.32,3.54-.95,4.89-.64,1.36-1.46,2.48-2.48,3.37-1.06.93-2.23,1.63-3.53,2.1-1.29.47-2.6.7-3.91.7s-2.62-.23-3.91-.7c-1.29-.47-2.45-1.16-3.46-2.1-1.06-.89-1.91-2.01-2.54-3.37-.64-1.36-.95-2.99-.95-4.89v-23.89Z"/>
  <path class="cls-1" d="M105.75,47.72v2.8c0,1.4-.26,2.72-.79,3.97-.53,1.25-1.26,2.36-2.19,3.34-.93.97-2.02,1.75-3.27,2.32-1.25.57-2.59.86-4.03.86-1.23,0-2.48-.17-3.75-.51-1.27-.34-2.41-.93-3.43-1.78-1.02-.85-1.85-1.94-2.51-3.27-.66-1.33-.98-3.04-.98-5.12v-24.91c0-1.48.25-2.86.76-4.13.51-1.27,1.23-2.37,2.16-3.3.93-.93,2.04-1.66,3.34-2.19,1.29-.53,2.72-.79,4.29-.79,3.05,0,5.53,1,7.43,2.99.93.98,1.66,2.13,2.19,3.46.53,1.33.79,2.79.79,4.35v2.54h-6.48v-2.16c0-1.27-.36-2.37-1.08-3.3-.72-.93-1.69-1.4-2.92-1.4-1.61,0-2.68.5-3.21,1.49-.53,1-.79,2.26-.79,3.78v23.13c0,1.31.29,2.41.86,3.3.57.89,1.6,1.33,3.08,1.33.42,0,.88-.07,1.37-.22.49-.15.94-.39,1.37-.73.38-.34.7-.8.95-1.4.25-.59.38-1.33.38-2.22v-2.22h6.48Z"/>
</svg>