<?xml version="1.0" encoding="UTF-8"?>
<svg id="_圖層_1" data-name="圖層 1" xmlns="http://www.w3.org/2000/svg" viewBox="0 0 260 76">
  <defs>
    <style>
      .cls-1, .cls-2 {
        fill: #f29600;
      }

      .cls-2, .cls-3 {
        fill-rule: evenodd;
      }

      .cls-3 {
        fill: #231815;
      }
    </style>
  </defs>
  <g>
    <path class="cls-2" d="M241.23,22.37c-.31-.8-.76-1.55-1.36-2.16-.72-.72-1.61-1.25-2.58-1.61-1.04-.38-2.18-.56-3.3-.56h-9.91c-.49,0-1,.09-1.47.27-.46.17-.9.42-1.26.75h0c-.35.31-.63.67-.83,1.09-.2.42-.32.88-.32,1.39v19.95h4.47v-9.51h8.62c1.33,0,2.52-.14,3.61-.49,1.1-.36,2.09-.92,3-1.75.64-.59,1.1-1.31,1.4-2.09.32-.83.46-1.73.45-2.63,0-.85-.17-1.77-.5-2.64ZM237.74,25.51c-.03.97-.37,1.94-1.22,2.66-1,.78-2.37,1.06-3.72,1.06h-8.69v-7.73c0-.37.37-.78.89-.78h7.83c1.53,0,3.05.41,4.01,1.41.78.85.93,2.32.89,3.38Z"/>
    <path class="cls-2" d="M205.09,37.63c-1.11-1.31-2.18-2.74-3.09-4.07-.5-.73-1.04-1.38-1.64-1.98-.26-.26-.53-.51-.82-.75.49-.07.95-.18,1.39-.34.91-.32,1.72-.82,2.43-1.47h0c.6-.56,1.06-1.2,1.39-1.89.33-.7.52-1.46.56-2.23.06-.83-.04-1.67-.32-2.46-.27-.77-.69-1.5-1.27-2.14h0c-.66-.71-1.48-1.27-2.39-1.66-.87-.37-1.84-.58-2.83-.58h-11.33c-.57,0-1.1.09-1.59.27-.51.18-.96.45-1.33.78-.36.3-.64.66-.84,1.07h0c-.2.41-.31.85-.31,1.3v20.01h4.43v-10.48h5.18c.96.28,1.97.88,2.9,1.61,1.07.85,2.02,1.88,2.66,2.84.76,1.17,1.59,2.36,2.37,3.42.73.98,1.43,1.84,1.99,2.44l.16.17h6.24l-1.12-.96c-.93-.8-1.89-1.81-2.82-2.91ZM197.01,27.72h-9.48v-6.09s.06-.1.14-.17c.13-.1.28-.17.43-.17h9.47c.46,0,.93.09,1.36.26.43.17.82.41,1.12.71.31.31.53.7.66,1.1.15.46.19.94.14,1.39v.02c-.03.4-.13.8-.31,1.16-.16.34-.39.65-.69.91-.38.32-.81.53-1.26.67-.48.14-1,.19-1.57.19Z"/>
    <path class="cls-2" d="M83.67,17.32c-.53,0-1.02.07-1.46.21-.46.14-.86.36-1.19.63h0c-.34.29-.61.63-.79,1-.18.37-.28.78-.28,1.2v21.14h4.5v-10.84h14.17v-3.36h-14.17v-6.17c0-.08.07-.18.18-.27.13-.1.29-.18.46-.18h15.74v-3.35h-17.16Z"/>
    <path class="cls-2" d="M123.76,20.63c-1.78-1.39-4.07-2.3-6.8-2.64h0c-1.99-.25-4.05-.18-5.98.27-1.81.41-3.5,1.15-4.92,2.26-2.01,1.55-3.34,3.6-4,5.82-.7,2.35-.66,4.88.1,7.2.57,1.75,1.62,3.46,3.06,4.83,1.32,1.25,2.98,2.24,4.93,2.75,2.61.69,5.46.82,8.09.3,2.45-.48,4.73-1.52,6.49-3.19,1.57-1.49,2.56-3.39,3.03-5.4.51-2.16.42-4.46-.21-6.54-.69-2.32-1.97-4.24-3.8-5.67ZM105.99,32.71c-.82-3.6-.26-7.61,2.9-10.14,2.37-1.91,6.12-2.56,9.21-1.5.18.06.36.13.53.21,2.73,1.16,4.34,3.26,5.03,5.75.97,3.47.26,7.61-2.9,10.14-2.15,1.73-5.23,2.23-8.09,1.66-.3-.06-.6-.14-.89-.24-2.86-.94-5.24-3.42-5.78-5.88Z"/>
    <polygon class="cls-2" points="150.27 18.02 149.73 18.02 149.73 18.56 149.73 34.87 135.88 18.22 135.71 18.02 135.46 18.02 132.09 18.02 131.54 18.02 131.54 18.56 131.54 40.91 131.54 41.46 132.09 41.46 135.42 41.46 135.97 41.46 135.97 40.91 135.97 24.83 149.63 41.26 149.8 41.46 150.05 41.46 153.54 41.46 154.09 41.46 154.09 40.91 154.09 18.56 154.09 18.02 153.54 18.02 150.27 18.02"/>
    <polygon class="cls-2" points="157.4 17.99 156.85 17.99 156.85 18.54 156.85 20.75 156.85 21.3 157.4 21.3 166.1 21.3 166.1 40.94 166.1 41.49 166.64 41.49 170.02 41.49 170.57 41.49 170.57 40.94 170.57 21.3 179.08 21.3 179.63 21.3 179.63 20.75 179.63 18.54 179.63 17.99 179.08 17.99 157.4 17.99"/>
    <polygon class="cls-2" points="211.34 18.05 210.79 18.05 210.79 18.6 210.79 40.94 210.79 41.49 211.34 41.49 214.76 41.49 215.3 41.49 215.3 40.94 215.3 18.6 215.3 18.05 214.76 18.05 211.34 18.05"/>
  </g>
  <g>
    <path class="cls-1" d="M43.26,63c-6.68,0-12.96-2.6-17.68-7.32-4.72-4.72-7.32-11-7.32-17.68s2.6-12.96,7.32-17.68c4.72-4.72,11-7.32,17.68-7.32s12.96,2.6,17.68,7.32c4.72,4.72,7.32,11,7.32,17.68s-2.6,12.96-7.32,17.68c-4.72,4.72-11,7.32-17.68,7.32ZM43.26,15.94c-5.89,0-11.43,2.29-15.6,6.46-4.17,4.17-6.46,9.71-6.46,15.6s2.29,11.43,6.46,15.6c4.17,4.17,9.71,6.46,15.6,6.46s11.43-2.29,15.6-6.46c4.17-4.17,6.46-9.71,6.46-15.6s-2.29-11.43-6.46-15.6c-4.17-4.17-9.71-6.46-15.6-6.46Z"/>
    <g>
      <path class="cls-1" d="M34.78,26.48s.02,0,.04,0h0s7.25,0,7.25,0v-2.94h-7.25s-.02,0-.04,0c-4.72,0-8.57,3.79-8.57,8.46,0,0,0,0,0,0h0v17.45h.49c1.35,0,2.45-1.1,2.45-2.45v-9.03h12.92v-2.94h-12.92v-3.02h0s0,0,0,0c0-3.04,2.52-5.52,5.62-5.52Z"/>
      <path class="cls-1" d="M60.9,37.97v-2.94h-12.92v-9.03c0-1.35-1.1-2.45-2.45-2.45h-.49v17.45h0s0,0,0,0c0,4.66,3.84,8.46,8.57,8.46.01,0,.02,0,.04,0h0s7.25,0,7.25,0v-2.94h-7.25s-.02,0-.04,0c-3.1,0-5.62-2.47-5.62-5.52,0,0,0,0,0,0h0v-3.02h12.92Z"/>
    </g>
  </g>
  <g>
    <path class="cls-3" d="M80.59,47.96c.35,0,.53.17.53.53v4.13c0,.22.09.34.28.34h1.6v-.65h-1.12c-.28,0-.42-.14-.42-.42s.14-.4.42-.4h1.12v-.63h-1.01c-.28,0-.42-.14-.42-.43s.14-.42.42-.42h1.01v-.64h-1.01c-.28,0-.42-.13-.42-.4,0-.29.14-.43.42-.43h1.01v-.22c0-.29.13-.42.4-.42.31,0,.47.14.47.42v.22h1.02c.27,0,.4.14.4.43,0,.27-.13.4-.4.4h-1.02v.64h1.02c.27,0,.4.14.4.42s-.13.43-.4.43h-1.02v.63h1.14c.26,0,.4.13.4.4s-.14.42-.4.42h-1.14v.65h2v-4.69c0-.31.16-.47.48-.47s.47.16.47.47v4.69h1.88v-.65h-1.07c-.27,0-.41-.14-.41-.42s.13-.4.41-.4h1.07v-.63h-1.01c-.28,0-.41-.14-.41-.43s.14-.42.41-.42h1.01v-.64h-.96c-.26,0-.39-.13-.39-.4,0-.29.13-.43.39-.43h.96v-.22c0-.29.13-.42.4-.42.31,0,.48.14.48.42v.22h1.13c.27,0,.41.14.41.43,0,.27-.14.4-.41.4h-1.13v.64h1.13c.27,0,.41.14.41.42s-.14.43-.41.43h-1.13v.63h1.23c.28,0,.43.13.43.4s-.14.42-.43.42h-1.23v.65h1.65c.19,0,.28-.11.28-.34v-4.13c0-.35.18-.53.52-.53s.54.17.54.53v4.52c0,.6-.31.89-.95.89h-10.63c-.62,0-.93-.29-.93-.89v-4.52c0-.35.18-.53.53-.53M92.16,54.61h0c.31,0,.46.16.46.47s-.15.46-.46.46h-11.63c-.31,0-.47-.15-.47-.46s.16-.47.47-.47h11.63ZM81.76,56.19h9.4c.47,0,.71.2.71.59v1.61c0,.43-.24.65-.71.65h-1.68l-.41,1.29h3.51c.32,0,.47.15.47.48,0,.3-.15.46-.47.46h-12.52c-.33,0-.49-.15-.49-.46,0-.32.16-.48.49-.48h3.53l-.36-1.29h-1.47c-.43,0-.65-.21-.65-.65v-1.61c0-.39.22-.59.65-.59M84.69,60.32h3.28l.4-1.29h-4.01l.34,1.29ZM90.54,58.14h0c.23,0,.34-.13.34-.4v-.31c0-.22-.11-.34-.34-.34h-8.13c-.2,0-.31.11-.31.34v.31c0,.27.11.4.31.4h8.13ZM100.38,49.25h0c.31,0,.47.16.47.46,0,.35-.16.53-.47.53h-1.13v1.73h1.35c.32,0,.48.16.48.46,0,.36-.16.53-.48.53h-1.35v1.99h1.18c.36,0,.54.18.54.53s-.18.53-.54.53h-1.18v3.1c.63.3,1.4.53,2.29.68,1,.23,3.64.35,7.93.35.36.03.53.23.53.59-.01.36-.22.55-.59.57-4.43-.02-7.28-.18-8.57-.47-1.03-.24-1.89-.56-2.59-.95-.38-.21-.74-.49-1.07-.84-.16.8-.38,1.54-.63,2.2-.12.17-.27.25-.43.25-.35,0-.53-.18-.53-.53,0-.04.04-.14.13-.31.36-.95.6-2.02.74-3.22.1-.95.15-1.94.15-2.99,0-.27.15-.42.47-.42.3,0,.45.16.45.47,0,1.12-.05,2.18-.14,3.17.28.35.57.63.87.85v-5.56h-1.88c-.32,0-.46-.17-.46-.53,0-.31.15-.46.46-.46h1.88v-1.73h-1.7c-.33,0-.49-.18-.49-.53,0-.31.16-.46.49-.46h1.7v-.99c0-.31.15-.47.46-.47.36,0,.53.16.53.47v.99h1.13ZM108.97,48.8h-7.65c-.3,0-.45.16-.45.46,0,.36.15.54.45.54h.35v7.47c-.23.04-.5.08-.8.12-.29.05-.43.22-.43.53.02.37.18.58.49.6.7-.12,1.29-.25,1.78-.4.53-.13.99-.29,1.37-.46v1.79c0,.32.16.47.48.47s.51-.15.51-.47v-9.65h3.9c.3,0,.44-.18.44-.54,0-.3-.15-.46-.44-.46M102.66,57.03h0c.47-.12.88-.24,1.24-.38.07-.02.13-.03.18-.04v-1.47h-1.41v1.89ZM102.66,54.09h1.41v-1.72h-1.41v1.72ZM102.66,51.33h1.41v-1.54h-1.41v1.54ZM105.9,50.9h0c-.32,0-.49.18-.49.54,0,.31.16.46.49.46h1.94c.18,0,.28.12.28.35,0,.55-.05,1.18-.16,1.89-.06.38-.14.75-.24,1.09-.33-.62-.68-1.21-1.06-1.78-.12-.16-.24-.23-.37-.23-.31,0-.46.13-.46.4,0,.06.02.14.06.24.48.71.93,1.59,1.37,2.63-.03.08-.07.16-.12.25-.34.71-.87,1.39-1.55,2.04-.12.15-.18.26-.18.36,0,.36.18.54.54.54.1,0,.21-.06.34-.18.57-.54,1.05-1.14,1.46-1.81.13.38.28.79.42,1.22.1.23.24.34.41.34.39,0,.59-.16.59-.47,0-.1-.01-.22-.04-.34-.24-.67-.51-1.33-.79-1.97.25-.65.44-1.38.58-2.17.15-.76.22-1.59.22-2.46,0-.62-.27-.94-.83-.94h-2.41ZM117.4,47.96h0c.35,0,.53.19.53.58,0,.29-.22.47-.65.54-.31.11-.66.21-1.06.29v2.28h1.88c.36,0,.53.18.53.54s-.17.53-.53.53h-1.88v.35l2.22,2.63c.13.16.19.3.19.41,0,.36-.17.53-.53.53-.24,0-.41-.09-.53-.27l-1.35-1.9v6.63c0,.35-.2.53-.59.53-.36,0-.54-.19-.54-.53v-6.23s0,.03-.02.04c-.31.81-.6,1.43-.85,1.88-.31.64-.59,1.1-.84,1.39-.12.22-.27.34-.45.34-.36,0-.53-.18-.53-.53,0-.12.04-.26.11-.4.82-1.21,1.41-2.21,1.75-3,.25-.54.47-1.16.68-1.88h-1.96c-.36,0-.53-.18-.53-.53s.17-.54.53-.54h2.1v-2.04c-.87.15-1.48.22-1.82.22-.43,0-.64-.19-.64-.58,0-.3.18-.46.55-.46.73-.03,1.41-.1,2.03-.21.78-.12,1.5-.34,2.19-.63M126.1,56.44h0l-1.12.16v-8.11c0-.35-.2-.53-.58-.53-.36,0-.55.17-.55.53v8.29l-5.69.9c-.36,0-.54.17-.54.53,0,.38.18.57.54.57l5.69-.88v3.18c0,.36.18.54.55.54.39,0,.58-.19.58-.54v-3.35l1.12-.17c.34,0,.51-.2.51-.58,0-.35-.17-.53-.51-.53M120.15,48.61h0c.1,0,.22.03.37.12.39.36.74.72,1.07,1.07.5.48.96,1.04,1.4,1.7.11.13.18.22.18.28,0,.35-.16.53-.49.53-.19,0-.37-.05-.53-.16-.52-.68-.96-1.22-1.33-1.6-.3-.31-.64-.64-1.01-.99-.13-.15-.19-.29-.19-.43,0-.35.18-.53.53-.53M119.56,52.09h0c.1,0,.22.04.37.12.36.34.69.69.98,1.02.46.46.89.99,1.3,1.61.12.13.19.23.19.31,0,.34-.16.52-.47.52-.22,0-.4-.06-.54-.17-.48-.64-.89-1.14-1.22-1.51-.28-.31-.6-.63-.94-.95-.13-.13-.19-.27-.19-.4,0-.35.18-.53.53-.53M133.42,50.61h0c.35,0,.53.17.53.52s-.18.53-.53.53h-1.18v2.89c.33-.22.7-.47,1.12-.77l.16-.06c.36,0,.54.19.54.59,0,.15-.09.29-.26.44-.38.34-.9.69-1.56,1.05v4.4c0,.86-.49,1.29-1.47,1.29-.3,0-.68-.1-1.18-.31-.28-.08-.42-.27-.42-.53.01-.37.18-.56.48-.58.04,0,.09.01.17.03.48.17.78.27.94.27.22,0,.34-.15.34-.43v-3.56c-.43.19-.84.35-1.22.48-.1.06-.2.09-.3.09-.35,0-.52-.17-.52-.53,0-.31.13-.5.41-.59.65-.24,1.2-.48,1.63-.69v-3.5h-1.4c-.36,0-.54-.17-.54-.53s.18-.52.54-.52h1.4v-2.28c0-.35.17-.53.53-.53.4,0,.6.17.6.53v2.28h1.18ZM142,49.9h-3.05v-1.45c0-.37-.2-.55-.59-.55-.35,0-.53.18-.53.55v1.45h-3.17c-.36,0-.53.18-.53.53s.18.54.53.54h3.17v2.24h-2.89c-.3,0-.46.16-.46.46,0,.36.15.53.46.53h.09c.02.12.09.26.22.43.61,1.19,1.4,2.33,2.37,3.42.08.11.16.21.25.31-.42.38-.9.72-1.44,1.04-.54.36-1.27.73-2.21,1.09-.31.05-.47.22-.47.48,0,.39.21.59.65.59.12,0,.37-.08.72-.25.89-.34,1.82-.87,2.81-1.61.24-.18.46-.37.7-.57.79.75,1.75,1.45,2.89,2.11.32.17.54.26.65.26.43,0,.65-.2.65-.59,0-.22-.12-.39-.37-.48-1.33-.7-2.36-1.37-3.09-2.02.19-.19.38-.4.56-.62.66-.8,1.25-1.72,1.76-2.77.24-.49.37-.87.37-1.12,0-.47-.28-.71-.84-.71h-2.28v-2.24h3.05c.34,0,.51-.18.51-.54s-.17-.53-.51-.53M136.09,54.21h4.67c0,.08-.08.28-.25.62-.55,1.12-1.15,2.03-1.81,2.73-.03.03-.07.07-.12.13-.74-.8-1.57-1.95-2.5-3.47M147.09,48.14h2.34c.63,0,.95.32.95.95v11.41c0,.71-.46,1.07-1.36,1.07-.33,0-.66-.04-.99-.12-.28-.1-.43-.29-.43-.59,0-.36.17-.53.49-.53l.8.1c.28,0,.43-.08.43-.22v-3.49h-2.15c-.02.72-.06,1.39-.13,2.01-.08.85-.2,1.65-.35,2.4-.1.32-.31.48-.64.48-.39,0-.59-.17-.59-.54,0,0,.01-.08.04-.23.21-.81.35-1.6.44-2.36.15-.9.23-1.9.23-3v-6.41c0-.63.31-.95.92-.95M147.2,55.74h2.12v-2.91h-2.12v2.91ZM147.2,51.84h2.12v-2.28c0-.29-.1-.43-.31-.43h-1.62c-.13,0-.19.14-.19.43v2.28ZM153.03,48.14h3.33c.64,0,.95.31.95.95v2.47c0,.09.04.17.1.24.06.03.21.04.48.04.24,0,.4-.04.5-.13.1-.04.16-.17.18-.38l.03-.89c.01-.23.17-.35.45-.35.33.01.51.19.53.51,0,.66-.05,1.15-.14,1.46-.11.25-.26.44-.46.57-.23.14-.49.22-.79.22h-.8c-.76,0-1.13-.38-1.13-1.13v-2.16c0-.29-.15-.43-.43-.43h-2.22c-.24,0-.36.14-.36.43v.8c0,.6-.1,1.09-.29,1.48-.25.44-.58.82-.97,1.14-.25.18-.46.28-.61.28-.34-.02-.51-.2-.53-.53,0-.17.06-.31.19-.42.49-.39.8-.69.91-.91.17-.3.25-.69.25-1.19v-1.12c0-.64.28-.95.83-.95M151.49,53.86h6.42c.59,0,.88.26.88.77,0,.23-.12.57-.37,1.04-.5.95-1.06,1.79-1.7,2.52-.24.27-.49.54-.76.8.23.15.47.31.72.45.59.35,1.19.64,1.82.87.46.13.75.3.89.52.06.06.09.16.09.27,0,.37-.17.54-.52.54-.21,0-.66-.15-1.38-.46-.81-.36-1.54-.76-2.18-1.2-.13-.09-.25-.17-.35-.25-.11.08-.19.15-.28.21-.98.68-1.9,1.17-2.75,1.48-.36.15-.59.22-.71.22-.42,0-.63-.21-.63-.64,0-.29.16-.47.47-.54.89-.31,1.59-.63,2.07-.94.32-.19.61-.37.86-.55-.11-.11-.19-.2-.28-.28-.5-.51-.91-1.04-1.25-1.59-.32-.55-.61-1.3-.87-2.24h-.2c-.3,0-.45-.18-.45-.54,0-.3.15-.46.45-.46M152.75,54.85h0c.24.7.48,1.23.72,1.61.32.55.82,1.11,1.47,1.69.02.03.06.06.08.08.14-.13.27-.26.4-.38.6-.61,1.18-1.41,1.71-2.39.16-.3.24-.48.24-.55,0-.03-.06-.06-.19-.06h-4.44ZM168.29,49.5h0c.14,0,.27.04.38.13.14.1.21.23.21.39,0,.08-.02.18-.06.31-.27.85-.59,1.6-.99,2.25-.36.61-.77,1.18-1.24,1.68-.18.16-.33.25-.43.25-.39,0-.59-.18-.59-.53,0-.11.05-.21.13-.31.46-.49.86-1.03,1.2-1.62.39-.64.72-1.38.96-2.21.06-.22.2-.33.43-.33M169.47,48.27h3.11c.53,0,.9.29,1.1.87.21.94.46,1.7.74,2.29.18.42.4.84.67,1.23.16.23.4.53.72.89.11.14.17.31.17.48-.03.36-.23.56-.6.59-.14,0-.29-.06-.47-.18-.33-.37-.6-.72-.8-1.03-.3-.46-.59-.99-.84-1.59-.23-.6-.43-1.31-.58-2.11-.07-.27-.21-.41-.43-.41h-2.81c-.36,0-.53-.17-.53-.51s.17-.53.53-.53M167.76,53.54h0c-.36,0-.53.18-.53.54,0,.34.17.52.53.52h1.17c-.08,1.06-.2,1.89-.37,2.5-.21.79-.47,1.4-.79,1.85-.42.56-1,1.01-1.73,1.35-.22.09-.34.24-.34.47,0,.43.19.64.57.64,0,0,.04,0,.12-.03.87-.41,1.55-.91,2.03-1.5.49-.59.85-1.36,1.11-2.31.2-.82.36-1.82.45-2.99h2.89c.28,0,.42.13.42.4,0,1.9-.07,3.21-.23,3.94-.06.47-.19.83-.36,1.06-.18.2-.46.31-.84.31-.31,0-.98-.16-2-.48-.35,0-.53.19-.53.59,0,.31.14.5.41.58.91.33,1.61.49,2.12.49.68,0,1.19-.15,1.54-.44.35-.29.57-.82.71-1.59.19-1.18.27-2.8.27-4.86,0-.71-.36-1.06-1.1-1.06h-5.52ZM165.35,47.96h0c-.22,0-.37.12-.43.36-.3,1.32-.69,2.48-1.17,3.47-.44.96-.95,1.82-1.53,2.58-.07.1-.1.24-.1.37,0,.35.21.53.64.53.1,0,.23-.09.42-.25.32-.44.62-.92.92-1.43v7.49c0,.36.19.54.55.54s.53-.19.53-.54v-9.72c.28-.76.54-1.59.76-2.5.03-.15.05-.27.05-.37,0-.15-.07-.28-.21-.4-.13-.09-.26-.13-.42-.13M192.01,48.97h0c.32,0,.49.16.49.47,0,.35-.17.52-.49.52h-7.44c-.47.68-.96,1.27-1.51,1.78-.02.02-.04.04-.05.05h7.43c.73,0,1.1.36,1.1,1.08v7.11c0,.95-.72,1.43-2.16,1.43-.62,0-1.34-.1-2.19-.32-.22-.09-.33-.24-.33-.47,0-.43.14-.65.41-.65.13,0,.29.03.47.08.66.15,1.17.23,1.53.23.78,0,1.18-.22,1.18-.64v-1.72h-7.94v3.07c0,.35-.2.53-.58.53-.36,0-.54-.18-.54-.53v-7.92c-.52.35-1.09.67-1.7.97-.17.07-.31.11-.4.11-.35,0-.53-.2-.53-.59,0-.15.09-.29.28-.42,1.57-.76,2.76-1.57,3.54-2.41.24-.23.46-.48.66-.77h-3.8c-.31,0-.46-.17-.46-.52,0-.31.15-.47.46-.47h4.5c.19-.3.38-.63.56-.96.12-.14.27-.22.42-.22.39,0,.59.18.59.53,0,.11-.04.22-.12.34-.06.1-.12.21-.17.31h6.81ZM182.49,56.97h7.94v-1.59h-7.94v1.59ZM182.49,54.44h7.94v-1.25c0-.28-.1-.42-.31-.42h-7.41c-.15,0-.22.14-.22.42v1.25ZM197.27,48.14h1.88c.51,0,.77.24.77.72,0,.13-.04.31-.12.53l-.87,2.75c-.04.13-.06.27-.06.43,0,.17.05.33.14.52.4.72.66,1.31.79,1.76.11.45.17.9.17,1.35,0,.62-.17,1.13-.48,1.56-.38.5-.92.75-1.63.75-.32,0-.69-.09-1.12-.28v2.91c0,.35-.18.53-.53.53s-.51-.18-.51-.53v-12.16c0-.56.29-.83.88-.83h.69ZM196.74,57.08h0c.5.23.84.34,1.02.34.36,0,.64-.14.85-.4.22-.27.32-.57.32-.9,0-.29-.05-.62-.14-.99-.11-.45-.41-1.09-.87-1.91-.07-.17-.11-.34-.11-.5,0-.21.02-.38.04-.53l.88-2.96c0-.1-.07-.16-.24-.16h-1.45c-.21,0-.31.11-.31.35v7.65ZM206.34,49.26h-4.41c-.17,0-.25.08-.25.25v1.45h5.17v-1.45c0-.16-.07-.25-.23-.25h-.28ZM201.68,51.96h0v1.76h4.94c.16,0,.23-.09.23-.28v-1.48h-5.17ZM201.68,54.72h1.5c.21.87.48,1.65.84,2.34.31.65.73,1.27,1.26,1.87.72.84,1.62,1.61,2.68,2.31.26.17.48.25.65.25.41-.02.63-.26.65-.7,0-.17-.12-.32-.34-.47-.95-.55-1.71-1.14-2.3-1.73-.2-.21-.4-.42-.6-.65.85-.56,1.58-1.15,2.2-1.75.16-.14.23-.28.23-.46,0-.35-.18-.52-.55-.52-.11,0-.24.07-.41.22-.54.53-1.23,1.1-2.09,1.71-.07-.1-.15-.22-.23-.35-.36-.57-.69-1.26-1-2.06h2.92c.54,0,.81-.27.81-.82v-4.86c0-.51-.27-.76-.81-.76h-5.51c-.64,0-.96.29-.96.87v10.8s0,.07.01.11c-.34.09-.73.18-1.18.26-.32.05-.47.25-.47.59.01.36.18.56.52.59.97-.22,1.79-.44,2.48-.69.88-.29,1.61-.62,2.15-.98.25-.12.37-.3.37-.52-.02-.3-.18-.45-.47-.46-.09,0-.19.02-.3.06-.56.3-1.25.58-2.06.84v-5.01ZM215.29,49.72h0c.15,0,.27.04.37.11.11.09.16.21.16.37,0,.09-.02.2-.05.34-.21.78-.46,1.45-.75,1.98-.31.61-.68,1.16-1.09,1.65-.34.43-.74.81-1.22,1.15-.11.07-.22.1-.34.1-.14,0-.27-.06-.38-.16-.1-.13-.15-.27-.15-.43s.06-.29.17-.39c.42-.32.79-.68,1.1-1.05.38-.46.71-.96.99-1.5.26-.51.49-1.11.68-1.81.07-.24.24-.37.52-.37M216.77,48.21h4.15c.6,0,1.01.29,1.24.88.34,1.04.73,1.89,1.17,2.56.3.46.66.91,1.09,1.37.25.26.64.6,1.16,1.01.11.14.16.3.16.47-.02.35-.22.55-.59.58-.14,0-.3-.06-.47-.19-.54-.41-.96-.79-1.29-1.15-.48-.5-.92-1.08-1.33-1.75-.38-.69-.7-1.45-.95-2.32-.08-.29-.23-.43-.47-.43h-3.88c-.35,0-.53-.18-.53-.53s.18-.51.53-.51M217.88,53.07h0c-.24,0-.4.1-.47.3-1.11,2.6-2.19,4.73-3.23,6.4,0,.02-.02.06-.04.09-.44,0-.91.02-1.39.03-.4.02-.59.21-.59.59,0,.47.2.7.59.7,3.45-.19,7.08-.49,10.89-.93.23.38.47.78.71,1.18.11.08.22.12.34.12.4,0,.58-.18.58-.54,0-.09-.04-.21-.11-.35-1.06-1.97-2.19-3.71-3.4-5.24-.14-.11-.26-.16-.37-.16-.39,0-.58.2-.58.59,0,.04.03.14.11.28.72,1.01,1.4,2.04,2.07,3.09-2.26.31-4.77.51-7.51.61,1.12-1.73,2.12-3.7,3.04-5.92.04-.11.06-.22.06-.3,0-.15-.07-.27-.22-.37-.15-.11-.3-.16-.49-.16"/>
    <path class="cls-3" d="M229.25,48.38h11.17c.78,0,1.17.39,1.17,1.17v10.22c0,1.19-.76,1.78-2.29,1.78-.96,0-1.99-.15-3.12-.43-.34-.07-.51-.24-.51-.53,0-.4.18-.58.51-.58,1.32.27,2.36.41,3.12.41s1.18-.25,1.18-.75v-9.71c0-.34-.15-.52-.47-.52h-10.76c-.35,0-.52-.18-.52-.53s.17-.53.52-.53M238.44,50.68h-8.65c-.36,0-.53.17-.53.51,0,.36.17.53.53.53h8.65c.35,0,.53-.18.53-.53,0-.34-.17-.51-.53-.51M231.08,53.14h0c-.75,0-1.12.35-1.12,1.06v3.36c0,.74.37,1.12,1.12,1.12h6.06c.74,0,1.11-.37,1.11-1.12v-3.36c0-.71-.37-1.06-1.11-1.06h-6.06ZM236.72,57.68h0c.32,0,.48-.18.48-.53v-2.54c0-.33-.16-.49-.48-.49h-5.22c-.33,0-.48.16-.48.49v2.54c0,.35.16.53.48.53h5.22Z"/>
  </g>
</svg>