<?xml version="1.0" encoding="UTF-8"?>
<svg id="_圖層_1" data-name="圖層 1" xmlns="http://www.w3.org/2000/svg" xmlns:xlink="http://www.w3.org/1999/xlink" viewBox="0 0 160 76">
  <defs>
    <style>
      .cls-1 {
        fill: #b7d33c;
      }

      .cls-2 {
        fill: #00a4ab;
      }

      .cls-3 {
        fill: url(#_未命名漸層_5);
      }
    </style>
    <linearGradient id="_未命名漸層_5" data-name="未命名漸層 5" x1="53.83" y1="32.82" x2="103.73" y2="32.82" gradientUnits="userSpaceOnUse">
      <stop offset="0" stop-color="#b7d33c"/>
      <stop offset="1" stop-color="#00a4ab"/>
    </linearGradient>
  </defs>
  <g>
    <polygon class="cls-1" points="57.98 8 35.32 8 35.32 11.74 44.78 11.74 44.78 42.84 48.52 42.84 48.52 11.74 57.98 11.74 57.98 8"/>
    <path class="cls-1" d="M30.08,39c-2.03,0-3.83-.97-4.98-2.46l15.16-5.59c-.83-4.77-4.99-8.41-10-8.41-5.61,0-10.15,4.54-10.15,10.15s4.54,10.15,10.15,10.15c2.7,0,5.16-1.06,6.98-2.78l-2.82-2.82c-1.13,1.09-2.66,1.76-4.35,1.76ZM23.82,32.74c0-3.46,2.8-6.26,6.26-6.26,2,0,3.78.94,4.93,2.4l-11.18,4.02c0-.06,0-.11,0-.17Z"/>
    <path class="cls-3" d="M97.17,23.31c-4.62-1.78-9.74,0-12.31,4.02-1.13-1.77-2.82-3.21-4.93-4.02-4.1-1.58-8.6-.35-11.35,2.76l-.09-.12c-.73-.54-1.54-.99-2.42-1.33-2.89-1.11-5.97-.83-8.5.52v-2.6h-3.74v20.3h3.74v-12.98c1.71-1.83,4.42-2.54,6.89-1.59.8.31,1.5.76,2.09,1.32h0c-1.75,5.17.88,10.84,6.01,12.82,1.16.45,2.36.67,3.53.69v-3.94c-.77,0-1.56-.13-2.32-.42-1.91-.74-3.26-2.3-3.79-4.12l13.44.2c.65,3.34,2.95,6.28,6.36,7.6,1.16.45,2.36.67,3.53.69v-3.94c-.77,0-1.56-.13-2.32-.42-1.91-.74-3.26-2.3-3.79-4.12l16.3.25c.96-4.79-1.64-9.72-6.36-11.54ZM70.11,30.74c.02-.05.04-.11.06-.16,1.26-3.25,4.91-4.87,8.16-3.61,1.88.73,3.22,2.26,3.77,4.05l-11.99-.28ZM87.34,30.74c.02-.05.04-.11.06-.16,1.26-3.25,4.91-4.87,8.16-3.61,1.88.73,3.22,2.26,3.77,4.05l-11.99-.28Z"/>
    <path class="cls-2" d="M129.83,22.64c-4.78,0-8.77,3.33-9.8,7.8-1.03-4.46-5.02-7.79-9.79-7.79-5.55,0-10.05,4.5-10.05,10.05,0,3.17,1.46,5.99,3.75,7.83h0s8.11,8.19,8.11,8.19h0c.19.19.31.45.31.74,0,.48-.32.89-.77,1.01-1.27.28-2.65.18-3.93-.39-.75-.33-1.4-.79-1.94-1.34l-2.79,2.79c.84.82,1.85,1.51,2.99,2.01,4.29,1.9,9.18.62,12.03-2.83h0c.15-.18.25-.41.25-.67,0-.3-.12-.56-.32-.75h0s-6.6-6.6-6.6-6.6h0c4.31-.44,7.82-3.6,8.77-7.75,1.03,4.46,5.02,7.78,9.79,7.78,5.55,0,10.05-4.5,10.05-10.05s-4.5-10.05-10.05-10.05ZM135.4,31.22h-3.23v2.96h3.23v1.87h-3.23v2.96h-2.34c-2.78,0-5.14-1.8-5.98-4.31h-7.63c-.83,2.51-3.2,4.32-5.99,4.32-3.48,0-6.31-2.82-6.31-6.31s2.82-6.31,6.31-6.31c2.87,0,5.29,1.92,6.06,4.55h7.48c.76-2.63,3.18-4.56,6.06-4.56h2.34v2.96h3.23v1.87Z"/>
  </g>
  <g>
    <path d="M32.47,63.17l.87.07c-.01.63-.05,1.24-.09,1.82-.05.58-.13,1.12-.23,1.62-.1.5-.25.93-.43,1.31-.05-.05-.13-.1-.23-.15-.1-.05-.2-.1-.3-.15-.1-.05-.19-.09-.26-.12.19-.33.33-.73.42-1.19.09-.46.16-.97.2-1.51.04-.54.06-1.11.07-1.69ZM32.02,61.64h4.58v.84h-4.58v-.84ZM32.29,59.69h4.06v.83h-4.06v-.83ZM33.19,64.26c.13.52.31.94.52,1.27.21.33.47.58.78.75.31.17.68.29,1.1.35s.92.09,1.48.09c.1,0,.26,0,.47,0s.46,0,.73,0c.27,0,.56,0,.86,0s.6,0,.88,0c.28,0,.54,0,.76,0,.23,0,.4,0,.53-.02-.05.07-.09.16-.14.27-.05.11-.09.23-.13.34-.04.12-.07.22-.09.32h-3.86c-.67,0-1.26-.04-1.76-.12-.5-.08-.93-.24-1.29-.46-.36-.23-.67-.55-.91-.96-.25-.42-.45-.95-.62-1.61l.69-.21ZM33.89,58.64h.88v3.45h-.88v-3.45ZM34.09,62.2h.87v4.51h-.87v-4.51ZM34.54,63.78h1.96v.83h-1.96v-.83ZM36.96,59.21h.91v5.43c0,.21.03.35.1.41.06.06.2.09.42.09h1.49c.12,0,.21-.03.27-.09.06-.06.11-.18.14-.34.03-.16.05-.4.06-.72.11.07.24.14.4.21s.3.12.43.15c-.03.41-.09.74-.17.98-.08.24-.21.41-.37.51-.17.1-.4.15-.69.15h-1.68c-.33,0-.59-.04-.78-.11s-.32-.21-.4-.4c-.08-.19-.12-.47-.12-.84v-5.43ZM37.33,59.21h3.36v3.62h-3.36v-.84h2.43v-1.94h-2.43v-.84Z"/>
    <path d="M53.95,59.07h9.03v.96h-9.03v-.96ZM54.45,61.31h7.51v.88h-6.55v5.7h-.96v-6.58ZM56.76,61.76h.94v5.82h-.94v-5.82ZM57.82,59.5l1.17.08c-.11.41-.24.82-.37,1.23-.14.41-.27.76-.39,1.05l-.93-.11c.07-.21.13-.45.2-.71s.13-.53.19-.8c.06-.27.1-.52.14-.74ZM59.12,61.76h.94v5.82h-.94v-5.82ZM61.54,61.31h.95v5.5c0,.24-.03.43-.08.56-.06.14-.16.24-.32.31-.17.07-.39.12-.64.13s-.55.02-.9.02c-.02-.13-.06-.27-.12-.44-.06-.17-.12-.31-.19-.42.25,0,.48,0,.69,0h.42c.08,0,.13-.02.16-.04.03-.02.04-.07.04-.14v-5.49Z"/>
    <path d="M78.33,60.77l.89.34c-.25.43-.55.86-.89,1.29-.34.43-.69.83-1.06,1.21-.37.38-.73.71-1.09,1-.04-.07-.1-.15-.18-.25-.08-.1-.16-.21-.24-.31-.08-.1-.16-.18-.22-.24.34-.24.68-.52,1.02-.85.34-.33.67-.68.97-1.05.31-.37.57-.75.8-1.13ZM77.93,58.61l.91.38c-.23.3-.49.6-.79.91-.3.31-.61.61-.93.89-.32.28-.64.53-.95.75-.04-.07-.09-.16-.15-.25s-.13-.19-.19-.28c-.07-.09-.13-.17-.19-.23.28-.19.56-.4.85-.65.29-.25.56-.5.81-.77.25-.27.46-.52.63-.75ZM77.18,62.92l.83-.83.12.05v5.77h-.95v-4.99ZM79.29,61.97h5.6v.9h-5.6v-.9ZM79.72,59.21h4.89v.9h-4.89v-.9ZM82.48,62.25h.96v4.5c0,.27-.03.48-.1.63-.07.15-.2.26-.39.33-.19.07-.43.12-.74.13-.31.01-.7.02-1.17.02-.02-.13-.06-.29-.11-.47-.06-.18-.12-.34-.18-.47.22,0,.43.01.64.02.21,0,.39,0,.54,0s.26,0,.32,0c.1,0,.17-.02.2-.05s.05-.08.05-.15v-4.49Z"/>
    <path d="M97.92,65.12l.73.15c-.05.4-.12.82-.21,1.25-.09.44-.17.8-.24,1.1-.08-.04-.19-.08-.34-.12-.15-.04-.27-.07-.37-.09.1-.31.19-.67.26-1.08.07-.42.13-.82.18-1.21ZM97.79,62.46c-.02-.06-.05-.14-.08-.24-.03-.1-.07-.2-.11-.31s-.07-.2-.1-.27c.09-.03.17-.09.26-.18.09-.09.18-.22.28-.37.07-.09.17-.27.31-.52.14-.26.29-.56.45-.9.16-.34.3-.69.41-1.04l.85.34c-.15.36-.32.72-.51,1.09-.19.37-.39.72-.6,1.05s-.42.63-.62.89v.02c-.11.06-.2.11-.27.16s-.13.09-.18.14c-.05.05-.08.1-.08.14ZM97.86,64.74c-.01-.06-.04-.14-.07-.24-.03-.1-.07-.2-.1-.31-.04-.11-.07-.2-.11-.27.11-.03.23-.1.35-.22.12-.12.26-.27.41-.46.08-.09.2-.25.35-.46.16-.21.33-.47.53-.76.2-.3.39-.61.58-.95.19-.34.37-.68.53-1.03l.76.45c-.25.46-.52.92-.81,1.37-.29.46-.6.89-.92,1.3-.32.41-.64.78-.97,1.11v.03c-.1.06-.19.11-.26.15-.07.04-.14.09-.19.14-.05.05-.08.1-.08.14ZM97.79,62.46l-.03-.66.41-.25,1.76-.15c-.02.11-.04.24-.05.39-.01.15-.02.26-.03.35-.39.05-.72.08-.97.11-.25.03-.45.06-.59.08-.14.02-.25.05-.32.06-.07.02-.13.04-.17.06ZM97.86,64.74l-.04-.67.4-.27,2.59-.35c-.01.11-.02.24-.04.38,0,.14-.01.25,0,.34-.59.09-1.06.16-1.42.22s-.64.11-.84.15c-.2.04-.34.07-.43.1s-.16.06-.21.09ZM98.97,65.21l.67-.15c.06.33.11.68.16,1.07.05.39.08.72.11,1l-.71.18c0-.29-.03-.63-.07-1.02-.04-.39-.09-.75-.15-1.07ZM99.9,62.66l.62-.19c.09.21.17.44.26.68.09.24.17.48.25.7.08.23.13.42.17.59l-.66.25c-.04-.17-.1-.38-.17-.61-.07-.23-.15-.47-.23-.72-.08-.25-.17-.48-.25-.7ZM100.02,65l.63-.21c.11.29.21.6.32.93.11.34.19.62.24.86l-.67.24c-.05-.25-.12-.54-.22-.88-.1-.34-.2-.66-.3-.94ZM100.89,66.44c.25-.15.55-.33.9-.55s.7-.45,1.06-.69l.3.7c-.3.21-.6.42-.91.63-.31.21-.6.4-.87.57l-.47-.66ZM101.01,62.27h5.8v.84h-5.8v-.84ZM101.3,63.76l.62-.43c.2.19.41.41.62.65s.38.45.49.63l-.66.49c-.11-.18-.26-.4-.47-.66s-.41-.49-.6-.69ZM102.29,58.61l.88.1c-.07.32-.15.66-.24,1.01-.09.36-.18.7-.26,1.03-.08.33-.16.62-.24.86h-.92c.09-.26.19-.56.28-.91s.18-.7.27-1.07c.09-.37.17-.71.23-1.02ZM102.17,60.89h2.78v.73h-2.78v-.73ZM103.45,62.82h.88v4.14c0,.22-.03.39-.08.51-.05.12-.15.22-.3.28-.15.07-.33.11-.54.12-.22.02-.48.02-.78.02-.01-.12-.05-.26-.11-.41-.06-.16-.11-.29-.17-.4.21,0,.41,0,.59,0h.36c.11,0,.16-.06.16-.15v-4.13ZM102.48,59.38h2.71v.74h-2.71v-.74ZM104.89,59.38h.1l.15-.04.64.1c-.05.31-.11.65-.18,1.01-.07.36-.15.73-.22,1.09s-.15.7-.23,1.01l-.87-.11c.08-.32.16-.67.24-1.04.08-.37.15-.73.21-1.07.06-.34.11-.62.15-.85v-.11ZM104.54,65.77l.49-.59c.2.13.41.27.63.43.22.16.44.32.64.47.21.16.37.3.49.42l-.51.67c-.12-.13-.28-.28-.48-.44-.2-.16-.41-.33-.63-.5-.22-.17-.43-.32-.63-.46ZM105.9,63.29l.68.48c-.21.23-.43.45-.67.68-.24.23-.46.42-.66.58l-.57-.42c.13-.12.28-.26.43-.41s.3-.31.44-.47c.14-.16.26-.31.36-.44Z"/>
    <path d="M120.1,62.2h.88v2.38c0,.34-.02.71-.06,1.11-.04.4-.12.8-.24,1.19s-.29.74-.53,1.04c-.04-.07-.1-.14-.18-.22-.08-.08-.16-.17-.25-.24-.09-.08-.16-.14-.23-.18.19-.26.32-.54.41-.85.09-.31.14-.63.16-.95.02-.32.04-.63.04-.91v-2.36ZM120,61.7c-.02-.06-.05-.14-.08-.25s-.07-.22-.11-.33c-.04-.11-.08-.21-.11-.28.08-.02.16-.07.25-.14s.18-.16.28-.27c.07-.07.18-.2.32-.38.14-.18.3-.4.47-.65s.32-.51.44-.77l.96.29c-.17.29-.37.58-.58.86s-.43.55-.65.8c-.22.25-.44.47-.64.65v.02c-.11.06-.21.11-.28.16-.07.05-.14.1-.19.15-.05.05-.08.1-.08.14ZM120,61.7l-.03-.69.47-.28,3.12-.23c.02.12.05.25.08.39s.07.26.1.36c-.77.07-1.38.12-1.84.17-.46.05-.82.08-1.07.11-.25.03-.44.06-.55.08-.11.02-.2.05-.27.08ZM120.55,62.2h2.78v.8h-2.78v-.8ZM120.82,65.88c.29-.13.64-.3,1.04-.5.4-.2.81-.41,1.23-.63l.19.59c-.37.23-.74.47-1.11.7-.37.23-.72.45-1.04.65l-.31-.81ZM120.98,63.88l.49-.45c.16.1.33.21.51.34.18.13.35.25.52.36.17.12.3.22.4.31l-.5.51c-.11-.1-.24-.21-.4-.34-.16-.13-.33-.25-.51-.38-.18-.13-.35-.25-.51-.35ZM122.84,62.2h.89v4.75c0,.21-.03.38-.08.5-.05.12-.15.21-.29.28-.15.06-.34.1-.56.11-.22.01-.49.02-.79.02-.02-.11-.06-.24-.12-.38-.06-.14-.12-.27-.18-.37.21,0,.41.01.59.02s.31,0,.37,0c.07,0,.11-.01.13-.04s.04-.06.04-.12v-4.75ZM122.35,59.63l.78-.28c.15.23.31.49.47.76s.31.54.45.8c.14.26.25.49.34.7l-.82.35c-.07-.21-.18-.44-.31-.71-.13-.27-.28-.55-.44-.83-.16-.28-.32-.55-.47-.79ZM124.57,58.63h.93v3.05c0,.19.03.32.08.39.05.07.16.11.32.11h1.68c.13,0,.29,0,.46-.02.18-.01.31-.03.41-.05.01.13.03.27.04.42.01.15.03.28.05.39-.09.03-.23.05-.4.05s-.35.02-.53.02h-1.74c-.34,0-.6-.04-.79-.13-.19-.09-.32-.23-.39-.42-.08-.19-.11-.45-.11-.78v-3.03ZM124.57,63.3h.93v3.28c0,.17.03.27.1.32.07.05.21.08.43.08h1.42c.13,0,.23-.03.3-.08.07-.06.11-.17.14-.34.03-.17.05-.43.06-.76.11.07.24.13.4.2.16.07.31.11.43.14-.03.44-.09.78-.17,1.02-.08.24-.21.41-.38.51-.17.1-.4.14-.69.14h-1.63c-.35,0-.63-.04-.82-.11s-.33-.2-.4-.37c-.07-.18-.11-.42-.11-.74v-3.28ZM125.14,59.93h2.97v.82h-2.97v-.82ZM125.14,64.41h3.06v.84h-3.06v-.84Z"/>
  </g>
</svg>