<?xml version="1.0" encoding="UTF-8"?>
<svg id="_圖層_1" data-name="圖層 1" xmlns="http://www.w3.org/2000/svg" viewBox="0 0 535 535">
  <defs>
    <style>
      .cls-1 {
        fill: #6abd4a;
      }

      .cls-2 {
        fill: #46ac52;
      }

      .cls-3 {
        fill: #e5f1f2;
      }

      .cls-4 {
        fill: #5abcd3;
      }

      .cls-5 {
        fill: #a8d144;
      }

      .cls-6 {
        fill: #42a547;
      }

      .cls-7 {
        fill: #e75944;
      }

      .cls-8 {
        fill: #dbefe8;
      }

      .cls-9 {
        fill: #65bd65;
      }

      .cls-10 {
        fill: #2f3d89;
      }

      .cls-11 {
        fill: #fff;
      }

      .cls-12 {
        fill: #314390;
      }

      .cls-13 {
        fill: #303b78;
      }

      .cls-14 {
        fill: #e45d3b;
      }

      .cls-15 {
        fill: #a7d039;
      }

      .cls-16 {
        fill: #d7e8e0;
      }

      .cls-17 {
        fill: #30418d;
      }

      .cls-18 {
        fill: #334292;
      }

      .cls-19 {
        fill: #e6ac31;
      }
    </style>
  </defs>
  <path class="cls-13" d="M210.89,156.94c-15.54-6.47-34.44-11.61-47.06,3.54-4.5,5.4-6.15,12.26-9.09,18.48-1.49,3.15-3.23,6.29-5.99,8.45-1.68,1.38-5.03,2.56-4.03,5.32,1.43,3.93,9.93.57,13.07.43,8.39-.37,16.11,4.29,21.59,10.18,9.4,10.11,14.81,24.49,21.19,36.57,7.9,14.97,17.55,28.9,29.97,40.51,7.64,7.08,16.88,12.83,26.35,17.18,15.33,7.04,30.67,12.45,40.37,27.26,11.52,17.62,15.84,40.03,22.42,59.78,3.62,10.85,7.5,22.81,19.01,27.53,5.9,2.43,12.31,2.09,18.48,1.23,16.11-2.24,30.28-11.4,43.26-20.67,12.48-8.88,25.04-17.93,36.18-28.54,12.06-11.49,30.26-25.96,28.25-44.83-1.23-11.48-12.17-18.21-21.56-22.91-21.48-10.74-43.52-20.1-66.86-26.01-11.53-2.92-24.44-4.14-35.39-8.85-4.37-1.88-9.24-6.1-8.11-11.46,1.35-6.29,9.37-9.32,14.79-11.01,15.7-5.11,30.14-10.82,44.44-19.22,39.96-23.44,75.4-51.77,100.81-90.9,10.44-16.07,20.95-34.3,21.89-53.88.78-15.73-.98-30.25-4.55-45.62-1.16-5.01-2.63-13.93-8.03-16.12-4.33-1.73-8.72,1.79-12.19,3.85-9.13,5.43-18.48,10.57-27.92,15.32-41.9,20.95-86.14,38.75-114.98,77.57-9.58,12.89-18.15,26.52-27.83,39.33-3.59,4.75-8.47,11.8-15.29,11.32-8.71-.56-9.83-12.84-12.07-19.19-7.23-20.33-11.64-41.69-23.35-60.17-13.57-21.43-37.73-36-61.33-43.92-6-2.01-12.01-3.8-18.09-5.52-2.2-.62-5.41-1.68-6.17,1.46-.91,3.54,3.18,8.77,4.69,11.8,4.43,8.85,8.12,18.17,11.31,27.53,9.42,27.63,11.8,55.21,11.8,84.16Z"/>
  <path class="cls-8" d="M191.61,38.96c2.75,9.76,8.49,19.06,11.92,28.71,7.46,20.96,11.9,43.08,12.86,65.28.35,7.68,1.18,15.94.23,23.6-.31,2.38.37,5.55-1.5,7.38-2.28,2.24-5.21-.65-7.38-1.77-5.93-3.06-12.98-5.69-19.66-5.99-19.36-.8-24.79,15.97-31.07,31.05,4.68,0,9.43.79,13.76,2.59,2.18.95,5.49,3.77,7.87,3.49,3.61-.43,8.02-4.24,11.4-5.68,7.59-3.41,16.47-5.29,24.78-4.21,12.82,1.66,23.38,10.33,35.79,12.47v-20.45c-3.74,0-7.47-.57-11.01-1.71-2.63-.84-5.23-1.96-7.47-3.6-1.61-1.17-3.04-2.51-4.21-4.13-9.56-13.26,5.39-27.1,12.05-37.75,3.17-5.11,6.09-10.55,9.3-15.73,1.02-1.65,2.25-4.64,4.49-4.85,2.36-.22,3.87,3.28,4.89,4.85,3.31,5.32,6.52,10.69,9.66,16.12,6.79,11.81,20.04,29.89,5.51,41.03-1.88,1.45-4.07,2.49-6.29,3.28-3.54,1.24-6.94,2.03-10.62,2.5v22.42c8.59,1.09,16.45.83,24.78-1.87,12.72-4.12,24.38-12.07,38.15-12.67,12.5-.55,25.08,9.24,36.84,2.09,1.96-1.19.91-7.52.91-9.58v-18.09c0-3.34-.39-6.63,1.78-9.44,3.31-4.3,8.59-7.46,12.77-10.86,2.17-1.72,4.32-4.16,7.08-4.95,5.1-1.48,12-.31,17.3-.31,3.72,0,9.04-.97,12.58.29,3.93,1.43,7.79,5.91,11.01,8.6,3.01,2.52,7.47,5.28,9.26,8.82,1.29,2.59.57,6.61.57,9.44v20.84c2.34.3,5.51,1.21,7.87.61,2.75-.71,5.36-3.76,7.47-5.62,5.82-4.99,11.12-10.42,16.52-15.84,9.79-9.82,18.17-21.35,25.56-33.03,12.45-19.6,21.63-38.54,21.63-62.14,0-11.6-2.36-22.98-5.11-34.21-.54-2.44-1.4-9.76-3.99-10.77-3.13-1.22-8.78,4.53-11.35,6.05-10.46,6.15-21.4,11.4-32.25,16.81-36.3,18.19-75.01,34.44-101.15,66.95-10.93,13.55-20.29,28.42-30.6,42.47-4.6,6.39-9.72,14.26-18.48,14.94-6.02.41-11.96-2.32-14.8-7.87-2.6-5.08-4.01-11.08-5.67-16.52-3.21-10.53-6.4-21.09-10.09-31.46-3.73-10.49-8.11-20.84-14.73-29.89-10.8-14.73-26.16-24.62-42.41-32.35-7.87-3.74-17.99-8.55-26.74-9.34Z"/>
  <path class="cls-10" d="M449.21,61.54c-4.14.62-7.86,1.97-11.4,4.18-22.23,13.89-16.91,49.82,9.04,55.68,3.15.72,6.55,1.21,9.83.81,4.99-.61,9.91-1.98,14.16-4.74,19.27-12.56,18.08-42.73-2.75-53.2-5.67-2.83-12.63-3.58-18.88-2.73Z"/>
  <path class="cls-19" d="M451.57,67.44c-4.33.62-8.28,1.85-11.8,4.46-19.51,14.44-7.24,47.22,17.3,44.03,3.74-.49,7.44-1.82,10.62-3.82,20.66-13.28,8.65-48.22-16.12-44.67Z"/>
  <path class="cls-14" d="M455.11,72.95c-2.39.38-4.62,1.29-6.68,2.58-16.37,9.93-5.66,35.16,12.58,32.12,22.13-3.69,16.12-38.17-5.9-34.7Z"/>
  <path class="cls-15" d="M256.9,120.76v12.19c5.45-3.84,4.26-7.66,0-12.19Z"/>
  <path class="cls-15" d="M250.21,121.94c-2.24,3.66-4.33,7.47-6.68,11.01-.71,1.18-2.44,2.83-2.36,4.32.29,3.07,6.98,7.9,9.44,9.44v-16.91l-.39-7.86Z"/>
  <path class="cls-2" d="M83.07,151.83v.39h-1.97v.39l2.75.39v.39c-9.05,0-19.01,1.37-27.53,4.57-2.24.84-10.7,5.36-4.72,7.72,1.96.79,4.79-.22,6.68-.89,4.98-1.82,9.36-4.79,14.16-6.96,7.33-3.27,13.96-2.42,21.63-2.09-4.63-3.5-10.45-4.58-14.95-8.72-5.24-4.84-7.49-11.49-11.42-17.24-1.95-2.75-5-7.26-9.03-6.17-4.33,1.18,1.07,8.13,2.36,9.71,5.11,6.43,13.88,16.12,22.02,18.48Z"/>
  <path class="cls-2" d="M66.95,149.47v.39c-9.57,0-19.84.15-28.32-4.9-4.32-2.57-7.93-6.36-11.8-9.56-1.58-1.28-3.67-3.43-5.9-3.42-4.97.02,1.04,7.09,2.36,8.04,6.94,4.9,15.14,7.17,23.2,9.44v.39c-6.92,0-14.74,2.18-20.84,5.42-1.18.62-7.8,5.66-3.54,6.63,3.7.82,9.22-5.68,12.19-7.33,7.08-4.12,14.02-4.72,22.02-4.72v.39c-7.6.39-16.93,4.23-23.2,8.4-1.57,1.04-8.26,7.64-2.75,8.31,1.97.25,4.33-1.89,5.9-2.95,4.71-3.26,8.64-7.47,13.76-10.12,9.8-5.07,18.34-2.86,28.71-2.07-3.97-2.36-9.48-3-13.77-5.21-5.81-3-10.36-7.58-15.34-11.7-2.23-1.89-6.5-6.56-9.83-5.27-4.36,1.73,1,7.23,2.75,8.6,6.63,5.23,16.12,9.5,24.38,11.21Z"/>
  <path class="cls-2" d="M102.74,158.12v.39c-13.02,3.37-26.04,4.57-38.15,11.13-2.25,1.22-12.65,8.14-7.38,11.28,3.24,1.97,9.6-3.14,12.1-4.85,9.98-6.78,19.07-14.52,31.46-16.33,3.53-.51,6.4,1.39,9.44,3.01,5.66,3.01,10.93,7,15.73,11.21,2.44,2.14,4.5,5.19,7.47,6.57-5.77-9.98-18.37-15.18-27.53-21.38-5.27-3.57-9.29-8.48-12.98-13.62-2.6-3.76-4.97-7.71-7.72-11.4-1.07-1.43-2.51-3.66-4.47-3.76-4.72-.25.19,7.96,1.15,9.27,5.02,6.92,13.16,14.64,20.88,18.48Z"/>
  <path class="cls-9" d="M264.37,133.74c-2.22,2.22-5.65,4.64-7.08,7.47-1.68,3.37-.39,10.01-.39,13.77,3.49-1.56,6.52-4.86,9.44-7.31,1.04-.87,2.95-2.01,3.38-3.37.74-2.29-3.77-8.94-5.34-10.55Z"/>
  <path class="cls-7" d="M364.26,151.83h23.2c.79-6.2,9.44-9.2,12.98-13.76-5.82,0-14.57-1.66-20.06.23-2.19.76-4.17,3-5.9,4.49-3.33,2.87-7.61,5.51-10.23,9.05Z"/>
  <path class="cls-11" d="M393.76,179.75l8.65-.39v-11.01c0-1.33-.39-3.43.39-4.59,1.13-1.68,10.62-1.68,11.79,0,.78,1.17.41,3.26.41,4.59v11.01l9.04.39v-19.27c0-2.35.68-5.9-.24-8.15-1.57-3.75-8.08-7.34-11.17-9.91-1.01-.82-2.47-2.56-3.93-2.37-1.44.19-2.87,1.88-3.93,2.76-3.15,2.61-8.73,5.76-10.62,9.41-1.09,2.15-.39,5.89-.39,8.25v19.27Z"/>
  <path class="cls-9" d="M236.84,142.39c-2.53,3.75-5.51,8-6.18,12.59-1.69,11.27,11.29,14.16,19.94,14.16l-.24-14.09-3.3-3.59-10.23-9.06Z"/>
  <path class="cls-15" d="M256.9,169.13c11.76-.1,20.83-7.04,16.12-19.27l-11.4,8.95-4.33,4.04-.39,6.28Z"/>
  <path class="cls-1" d="M289.15,224.19c5.28-.11,10.5-1.57,15.73-2.25,11.27-1.29,22.81-2.73,34.21-2.86,8.87-.1,17.88-.38,26.74.01,4.12.18,9.77,1.65,13.76.58,5.4-1.46,11.01-6.1,15.73-9.08,12.19-7.62,24.09-15.75,35.79-24.16-2.68-1.12-6.18-.62-9.05-.79-7.19-.53-14.41-.39-21.63-.39-29.14,0-60.56,8.46-86.13,22.3-8.03,4.34-19.52,9.25-25.17,16.64Z"/>
  <path class="cls-6" d="M182.96,197.45c1.78,4.2,5.65,7.87,8.02,11.8,4.52,7.6,8.09,15.74,12.14,23.6,1.59,3.07,4.38,10.94,7.52,12.58,1.82.88,5.96-1.68,7.72-2.34,7.25-2.71,14.55-5.29,22.02-7.44,7.43-2.14,14.84-4.5,22.42-6.09,4.41-.93,9.98-1.19,14.05-3.2,5.1-2.53,9.52-7.93,14.27-11.2,13.37-9.24,28.99-18.89,44.83-23.21-3.98-2.43-10.03-2.36-14.55-2.36-17.77,0-31.89,12.36-49.16,14.83-20.51,2.93-35.79-11.54-55.06-14.7-13.08-2.1-22.64,2.75-34.21,7.74Z"/>
  <path class="cls-4" d="M367.8,225.76c-3.96-1.66-10.64-.79-14.94-.79-5.8,0-12.87-1.04-18.48.65-3.44,1.04-6.8,3.84-9.83,5.72-7.99,4.95-15.92,10.45-22.81,16.87-9.11,8.49-17.79,19.63-11.3,32.21,6.19,12.04,20.66,20.84,32.54,26.43,12.09,5.73,24.52,10.83,28.26,25.08,3.99,15.35-2.79,32.54-11.21,45.23-2.37,3.57-4.98,6.97-7.77,10.22-1.07,1.25-3.08,2.65-3.44,4.33-.98,4.54,6.63,11.59,9.9,13.58,10.47,6.38,24.59,1.36,34.61-3.65,25-12.47,46.56-30.71,66.86-49.61,8.26-7.74,19.74-18.52,18.84-31.1-.94-13.08-18.52-19.8-28.67-24.33-19.05-8.49-37.99-16.12-58.2-21.45-10.81-2.85-22.7-3.62-33.04-8.05-2.51-1.07-4.98-2.38-7.01-4.23-12.43-11.29-.68-25.14,11.73-29.12,8.07-2.59,16.08-4.93,23.99-8Z"/>
  <path class="cls-5" d="M214.03,250.93c1.88,4.97,6.29,9.72,9.73,13.76,8.71,10.43,18.97,19.06,31.17,25.22,12.3,6.24,25.89,10.2,36.58,19.27,12.06,10.24,17.7,25.12,22.68,39.67,4.06,12.19,7.96,24.38,11.93,36.57,5.36-3.86,9.44-11.22,12.59-16.91,6.65-11.8,12.43-30.67,3.62-42.87-5.24-7.24-14.31-10.3-22.11-13.89-16.64-7.64-44.14-25.13-36.83-47.07,1.13-3.4,2.76-6.51,4.81-9.44,3.42-4.88,7.47-9.18,11.96-13.09,6.66-5.79,13.89-11.3,21.63-15.62-2.02-.79-4.56.21-6.69.39-6.34.4-12.58,1.65-18.88,2.29-11.41,1.16-22.71,4.01-33.82,6.58-16.21,3.75-33.24,8.04-48.37,15.11Z"/>
  <path class="cls-18" d="M420.11,430.66l-2.52,5.11-10.06.39h-25.96v19.27h4.33v32.64l-6.69.79,3.93,19.27,15.73-2.36v12.58c5.1,0,15.82-2.26,18.09,3.15,5.58-1.57,10.73-5.24,15.34-8.65v5.51h19.27v-12.58h11.41c0-6.83-1.7-16.21.13-22.77.66-2.49,5.15-2.13,5.25-4.76.27-7.17-6.88-13.62-7.34-20.45-.18-2.9,3.22-6.77,4.33-9.44l-8.26-3.93,2.36-5.51-17.3-7.87-5.51,13.76h-.79l-.39-.39,2.36-5.51-17.7-8.26ZM97.62,440.1l3.93,5.9h-8.65v19.27h13.76c-3,4.33-7.47,8.28-11.8,11.13-1.57,1.06-6,2.78-6.51,4.68-.47,1.79,2.96,4.49,3.93,5.82,2.57,3.58,3.35,8.79,4.54,12.98l7.08-4.72v23.2h18.88v-18.09h15.73v18.09h19.66v-18.48h16.91v-54.66h-16.91v-12.58h-19.66v12.58c-3.15,0-10.66,1.38-13.17-.63-3.11-2.49-5.48-7.31-8.12-10.38-.87-1.01-2.03-2.96-3.49-3.11-1.57-.15-3.53,1.58-4.71,2.32-3.77,2.26-7.53,4.62-11.41,6.69Z"/>
  <path class="cls-17" d="M324.54,431.44c-.56,4.36-1.75,8.75-2.94,12.98-.6,2-1.11,3.96-3.35,4.33v-16.12h-19.27v4.72l-9.05-1.18-3.79,25.56-4.86,12.58,5.9,1.97v.79l-4.72.79,5.51,19.66,11.01-3.14v23.99h19.27v-5.9l8.26,7.47h.39l7.87-6.68v3.93c7.39,0,17.11,2.43,23.6-2.22,6.29-4.54,7.47-13.4,8.26-20.59,1.83-16.1,2.75-32.17,2.75-48.37h-27.92l2.36-11.01-19.27-3.54ZM191.22,438.13l4.72,7.86h-6.68v18.88h2.75l-.39,52.7h18.48v-3.93c3.81,0,8,.5,11.76,0,2.79-.47,5.22-1.79,8.29-1.06,2.86.68,5.42,3.7,5.51,6.56,1.37-.21,2.64.79,3.93.39,3.34-.98,7.32-5.11,9.83-7.47,3.26,6.99,13.87,7.86,18.8,2.36,4.34-4.82,5.46-13.37,5.78-19.66.19-3.77-6.64-3.14-6.51-7.08.02-2.52,3.44-10.92,5.52-12.19v-18.88h-1.57c-.65-7.46-6.44-14.78-9.83-21.24l-3.54,1.18v-3.93h-19.27v4.72h-.39l-3.3-4.86-5.36.93-12.59,3.54,1.97,4.33-3.78-.39-7.26-9.16-5.08,1.46-11.8,4.95Z"/>
  <path class="cls-16" d="M108.24,442.06l6.69,10.62,4.72-2.75c-.79-2.47-4.6-9.53-7.48-9.73-1.33-.09-2.86,1.21-3.93,1.87Z"/>
  <path class="cls-3" d="M145.6,439.7v12.58h-16.12v40.9h5.11v-3.54h11.01v21.63h5.51v-21.63h11.4v3.15h5.51v-40.51h-16.91v-12.58h-5.51Z"/>
  <path class="cls-16" d="M246.28,439.7l.39,23.99h-7.87l2.75-9.44-4.72-.79-2.36,10.23h-5.11l-1.97-10.23-4.33.79,1.96,9.44h-6.29v4.72h28.32l1.35,16.12,1.01,9.05-7.08,8.65v-29.1h-20.45v32.64h4.72v-5.51h11.01v1.97h4.72l-5.9,5.9c.99.69,2.24,2.11,3.54,2.01,4.1-.31,8.74-7.59,11.4-10.27.91,3.94,5.51,15.14,11.28,10.05,3.02-2.68,3.57-9.03,4.06-12.81l-3.93-2.36c-.46,2.47,0,7.09-2.16,8.83-2.62,2.08-5.32-7.05-5.08-8.83.33-2.36,2.59-4.98,3.7-7.08,2.28-4.01,4.47-8.49,5.51-12.98l-4.72-1.97c-1.47,4.51-3.07,10.62-6.29,14.16l-1.57-18.48h13.76v-4.72h-14.16l-.79-23.99h-4.72Z"/>
  <path class="cls-16" d="M330.05,439.7c-1.72,6.98-3.75,14.08-7.2,20.45-1.23,2.27-5.83,6.93-5.71,9.44.07,1.41,2.49,2.68,3.47,3.54h.39l6.19-9.44,3.01-5.1,6.14-.4c-1.62,8.36-6.29,17.12-11.18,23.99-2.19,2.96-5.73,5.51-7.3,8.65,1.29.72,3.15,2.59,4.72,2.36,2.67-.39,5.42-5.43,6.85-7.47,5.42-7.73,10.64-18.09,12.03-27.53h6.68c-3.22,12.42-6.83,24.46-13.78,35.39-3.13,4.83-8.9,8.47-11.38,13.37l4.33,3.15h.39c13.77-12.05,23.71-33.57,25.17-51.91h3.93c0,11.32-.92,23.04-2.64,34.21-.58,3.74-.75,9.44-4.08,11.93-2.24,1.68-7.08.65-9.79.65l1.18,5.51c3.93,0,10.05,1.03,13.33-1.73,3.89-3.27,4.26-10.46,4.76-15.18,1.66-13.37,2.75-27.01,2.75-40.51h-30.28l3.15-12.58-5.11-.79ZM306.06,439.7v11.01l-.63,4.48-5.66.63,1.18-11.01-4.65.24-1.31,8.81-4.26,16.52,4.72,2.36c.55-2.36,1.57-9.67,3.66-11,1.64-1.06,5.06-.4,6.96-.4v17.7l-10.62,2.77-3.66,1.68.9,4.99,13.37-3.93v26.74h5.11v-28.71l9.83-2.75-.79-5.11-9.05,2.36v-15.73h7.86v-5.51h-7.86v-16.12h-5.11Z"/>
  <path class="cls-16" d="M227.8,441.27l2.75,7.08h-10.62v4.33h23.6v-4.33h-7.87l-3.54-8.26-4.33,1.18ZM201.84,441.27l5.11,10.23c1.18-.21,3.63-.66,4.01-2.08.51-1.86-3.5-8.46-5.31-9.05-1.16-.38-2.72.54-3.8.9Z"/>
  <path class="cls-16" d="M413.81,455.83l1.18,5.51,8.26-1.18-10.22,11.01,1.57,5.11,16.91-2.75.79,3.93,3.93-.79-3.93-12.98-3.54.79,1.57,5.51-9.83.79c4.42-6.29,10.22-12.05,13.37-19.27l-4.33-1.97c-2.24,4.8-3.97,7.08-9.44,7.08l8.26-14.55c-1.07-.39-2.65-1.56-3.84-1.25-1.51.39-2.3,3.61-2.94,4.79-1.86,3.54-4.22,8.33-7.76,10.22Z"/>
  <path class="cls-16" d="M436.23,455.83l1.18,5.11,8.26-1.18-5.29,7.86-3.08,3.61.51,4.65c5.11-1.18,16.89-5.68,18.48,1.18l3.93-1.57-5.11-12.98c-4.44,1.07-2.06,3.81-1.57,7.08l-9.83.79,9.04-13.37,2.36-5.07-3.54-2.4c-2.77,4.74-3.59,6.56-9.44,6.69,3.26-3.83,6.47-8.9,7.86-13.76-.96-.56-2.58-1.77-3.74-1.13-1.38.76-2.16,3.72-2.86,5.06-1.83,3.47-3.91,7.14-7.16,9.44Z"/>
  <path class="cls-16" d="M388.64,443.24v5.11h4.33v45.62l-5.11.79.79,5.51,17.3-3.15v14.16h4.72l.12-13.72,3.01-2.24.4-4.48-3.54.39v-42.87h3.54v-5.11h-25.56Z"/>
  <path class="cls-16" d="M253.75,445.99l5.9,13.37c6.56-1.16,3.88-5.41,1.67-9.83-.7-1.39-1.67-4.33-3.33-4.8-1.32-.38-3.09.72-4.24,1.26Z"/>
  <path class="cls-12" d="M398.08,458.97h7.47v-10.62h-7.47v10.62Z"/>
  <path class="cls-3" d="M99.98,453.07v5.11h19.66c-4.16,9.93-12.66,18.22-21.24,24.38l2.36,5.51,10.23-8.26v31.46h4.72v-33.82l8.65,9.83,3.15-4.32c-1.88-3.01-4.59-5.37-7.08-7.87-.9-.9-2.55-2.1-2.41-3.54.34-3.54,5.16-8.85,6.83-12.19.6-1.18,1.95-3.24,1.16-4.6-1.29-2.22-4.63-1.69-6.76-1.69h-19.27Z"/>
  <path class="cls-16" d="M196.33,457.4h21.63v-4.33h-21.63v4.33Z"/>
  <path class="cls-17" d="M134.59,468.02h10.62v-10.62h-10.62v10.62Z"/>
  <path class="cls-17" d="M151.5,468.02h10.62v-10.62h-10.62v10.62Z"/>
  <path class="cls-16" d="M198.69,467.62h17.3v-4.33h-17.3v4.33Z"/>
  <path class="cls-12" d="M398.08,475.49h7.87v-11.01h-7.87v11.01Z"/>
  <path class="cls-17" d="M134.59,484.14h10.62v-10.62h-10.62v10.62Z"/>
  <path class="cls-17" d="M151.5,484.14h10.62v-10.62h-10.62v10.62Z"/>
  <path class="cls-16" d="M199.09,478.24h16.91v-4.33h-16.91v4.33Z"/>
  <path class="cls-12" d="M226.62,484.14h11.01v-7.08h-11.01v7.08Z"/>
  <path class="cls-16" d="M439.38,478.24v33.43h5.11v-16.12h6.69v3.15h4.72v-19.27h-4.72v11.01h-6.69v-12.19h-5.11ZM417.75,478.24v17.3h11.01c-2.21,5.69-5.61,9.34-11.01,12.19l2.75,4.33c14.55-6.09,13.77-20.59,13.77-33.82h-5.11v12.58h-6.68v-12.58h-4.72Z"/>
  <path class="cls-12" d="M398.08,480.6v12.59l7.87-1.18v-11.41h-7.87Z"/>
  <path class="cls-16" d="M198.69,484.53v25.96h4.33v-3.93h12.98v-22.02h-17.3Z"/>
  <path class="cls-12" d="M226.62,495.94h11.01v-7.08h-11.01v7.08Z"/>
  <path class="cls-12" d="M203.41,502.23h8.26v-12.98h-8.26v12.98Z"/>
</svg>