<?xml version="1.0" encoding="UTF-8"?>
<svg id="_圖層_1" data-name="圖層 1" xmlns="http://www.w3.org/2000/svg" viewBox="0 0 240 76">
  <defs>
    <style>
      .cls-1 {
        fill: #426a9b;
      }

      .cls-2 {
        fill: #008ed0;
      }

      .cls-3 {
        fill: #231815;
      }
    </style>
  </defs>
  <path class="cls-3" d="M75.94,20.18c-2.89.77-4.54,4.43-2.44,6.85,1.28,1.48,3.59,1.85,5.42,1.38,5.96-1.54,2.55-9.7-2.98-8.23Z"/>
  <path class="cls-1" d="M28.08,20.78c-5.17.84-6.04,6.76-4.92,10.97.75,2.82,2.63,5.37,4.07,7.87,3.46,6.01,7.23,16.25,15.96,14.58,4.59-.88,5.3-6.81,4.42-10.54-.59-2.52-2.29-4.8-3.57-7.02-3.28-5.74-7.51-17.23-15.96-15.86Z"/>
  <path class="cls-1" d="M51.48,20.78c-5.2.84-6.08,6.5-5.03,10.76.74,2.98,2.69,5.69,4.26,8.3,3.49,5.9,7.2,16.17,15.87,14.36,4.77-.96,5.16-6.96,4.29-10.75-.57-2.52-2.33-4.8-3.6-7.02-3.26-5.73-7.41-17-15.8-15.65Z"/>
  <path class="cls-3" d="M85.52,48.34c.8,2.79,1.91,4.68,1.7,7.66,5.01-1.23,10.61-1.16,14.89-4.45,2.64-2.02,3.74-5.82,1.42-8.52-2.12-2.46-5.67-3.54-8.44-5-1.06-.53-2.93-1.32-3.19-2.66-.18-1.13,1-2.34,1.91-2.77,2.47-1.2,5.02.57,7.23,1.49.47-1.96,2.05-3.13,3.62-4.25-1.28-1.47-3.67-2.11-5.53-2.43-6.05-1.02-15.96,1.46-13.14,9.66,1.07,3.19,4.13,4.97,6.97,6.32.83.39,2.91,1.14,2.5,2.4-1.01,3.08-7.51,2.55-9.94,2.55Z"/>
  <path class="cls-3" d="M157.42,48.34v-.21c-.95-.93-2.88-3.4-4.25-3.47-3.62-.15-6.97,4.2-10.6,1.02-2.96-2.6-1.59-8.56,1.45-10.47,2.77-1.74,6.17-1.21,9.15-.27l.21-6.6c-3.19-.62-6.38-.94-9.57-.33-13.5,2.55-12.29,25.22,1.28,26.67,1.91.2,4.16-.29,5.96-.93,2.71-.95,4.51-3.38,6.38-5.41Z"/>
  <path class="cls-3" d="M186.14,27.92c1.02,3.21.77,6.68.85,10,.14,5.42.37,11.01-.64,16.38l8.94-.43c-.43-3.34-1.28-6.6-1.49-10-.08-1.13-.49-2.51-.08-3.62.98-2.62,5.68-4.38,8.17-4.89l-2.13-6.38c-2.39.68-4.42,2.13-6.17,3.83l.43-5.11-7.87.21Z"/>
  <path class="cls-3" d="M175.08,28.34c0,3.97-.26,7.93-.21,11.91,0,1.23.71,3.27,0,4.38-1.44,2.24-6.45,2.36-7.53-.13-1.83-4.2-1.83-10.91-.77-15.32l-7.45-.43c-1.09,5.87-1.49,12.66-.07,18.51.62,2.62,2.41,5.79,5.18,6.67,4.37,1.41,7.57-1.26,11.49-2.42l.21,2.77h8.08c-2.45-8.63-2.55-17.02-2.55-25.95h-6.38Z"/>
  <path class="cls-3" d="M73.39,31.32c.98,7.75.77,14.82-.21,22.55,3.3-.75,5.86-.85,9.15,0l-1.7-12.55.43-10.21c-2.82.75-4.8.58-7.66.21Z"/>
  <path class="cls-3" d="M129.55,44.09c-4.96,1.62-14.2,6.48-16.59-.85l17.66-1.49c0-2.76-.05-5.46-1.06-8.08-3.07-8.13-13.45-8.51-19.36-3.34-6.6,5.79-5,18.7,2.55,22.85,2.4,1.34,4.74,1.67,7.45,1.56,4.24-.19,7.72-1.84,11.7-2.98l-2.34-7.66ZM124.45,36.64l-11.49.64c.52-5.96,10.41-6.59,11.49-.64Z"/>
  <path class="cls-3" d="M225.72,44.09c-4.74,1.61-14.18,6.46-16.59-.64,5.53-1.36,11.98-1.7,17.66-1.7,0-2.74,0-5.48-.98-8.08-3.06-7.97-13.31-8.61-19.23-3.52-6.81,5.86-5.32,18.98,2.55,23.14,2.39,1.27,4.77,1.61,7.45,1.44,4.17-.3,7.57-1.85,11.49-2.98l-2.34-7.66ZM220.61,36.64l-11.49.64c.78-5.8,10.4-6.75,11.49-.64Z"/>
  <path class="cls-2" d="M17.23,40.36c-4.5.85-6.53,6.51-4.49,10.32,1.57,2.98,4.7,4.08,7.89,3.55,5.6-.93,7.28-8.17,3.58-12.04-1.73-1.81-4.59-2.29-6.98-1.83Z"/>
</svg>