<svg width="902" height="312" viewBox="0 0 902 312" fill="none" xmlns="http://www.w3.org/2000/svg">
<path d="M415.743 258.278H401.123V228.513H373.675V207.062H401.001V180.102H415.743V206.817H443.434V228.392H415.743V258.278ZM427.961 239.877L451.173 239.776C453.853 239.765 456.018 237.589 456.018 234.909V200.444C456.018 197.756 453.839 195.576 451.151 195.576H427.961V180.102H457.129C459.817 180.102 461.997 177.924 461.997 175.236V168.25H360.838C358.15 168.25 355.97 170.43 355.97 173.118V180.102H388.906V195.698H366.326C363.638 195.698 361.458 197.878 361.458 200.566V235.01C361.458 237.698 363.638 239.877 366.326 239.877H388.906V258.278H357.543C354.854 258.278 352.675 260.457 352.675 263.145V270.008H460.057C462.745 270.008 464.923 267.829 464.923 265.141V258.278H427.961V239.877Z" fill="#237FAB"/>
<path d="M669.828 209.933H645.327V200.925H669.828V209.933ZM669.828 229.696H645.327V220.565H669.828V229.696ZM682.411 220.565H707.523V229.696H682.411V220.565ZM682.411 200.925H707.523V209.933H682.411V200.925ZM682.411 240.569H715.116C717.804 240.569 719.983 238.39 719.983 235.702V194.794C719.983 192.106 717.804 189.926 715.116 189.926H682.411V182.37H723.778C726.467 182.37 728.646 180.192 728.646 177.504V170.64H682.411V159.662H669.828V170.64H629.071C626.383 170.64 624.204 172.818 624.204 175.506V182.37H669.828V189.926H638.099C635.411 189.926 633.232 192.106 633.232 194.794V235.702C633.232 238.39 635.411 240.569 638.099 240.569H669.828V248.168H625.412C622.724 248.168 620.546 250.348 620.546 253.036V259.774H669.828V274.713H682.411V259.774H727.924C730.612 259.774 732.792 257.596 732.792 254.908V248.168H682.411V240.569Z" fill="#237FAB"/>
<path d="M795.655 185.066L794.069 188.592H801.041V212.914H813.258V188.592H828.101L829.687 185.066H842.206L840.619 188.592H843.378H848.373V212.908L860.711 212.921V183.558C860.711 180.87 858.533 178.692 855.845 178.692H813.258V174.318H850.233C852.921 174.318 855.099 172.14 855.099 169.452V164.418H764.555C761.867 164.418 759.687 166.598 759.687 169.286V174.318H801.041V178.692H759.309C756.621 178.692 754.441 180.87 754.441 183.558V212.921H765.321V188.592H778.381H781.55L783.137 185.066H795.655Z" fill="#237FAB"/>
<path d="M800.676 232.244H777.151V227.382H800.676V232.244ZM800.676 246.76H777.151V241.778H800.676V246.76ZM812.892 241.778H838.246V246.76H812.892V241.778ZM812.892 227.382H838.246V232.244H812.892V227.382ZM764.934 222.229V251.946C764.934 254.636 767.115 256.816 769.806 256.813L800.676 256.782V258.846C800.676 270.68 806.855 272.762 819.836 272.762H847.892C861.048 272.762 863.87 267.494 865.218 252.658L865.494 249.618L853.862 249.488C853.232 262.009 851.854 262.009 847.284 262.009H820.202C812.892 262.009 812.892 261.401 812.892 258.846V256.782H845.719C848.407 256.782 850.586 254.602 850.586 251.914V222.229C850.586 219.541 848.407 217.362 845.719 217.362H769.8C767.112 217.362 764.934 219.541 764.934 222.229Z" fill="#237FAB"/>
<path d="M793.33 204.143C794.056 202.532 792.877 200.711 791.112 200.711H788.616L794.069 188.591H781.55L775.272 202.542C774.548 204.152 775.725 205.974 777.492 205.974H779.986L774.862 217.362H787.381L793.33 204.143Z" fill="#237FAB"/>
<path d="M785.466 221.618L787.382 217.362H774.862L772.947 221.618H785.466Z" fill="#237FAB"/>
<path d="M795.655 185.066H783.137L781.55 188.592H794.069L795.655 185.066Z" fill="#237FAB"/>
<path d="M828.101 188.592L821.824 202.542C821.098 204.153 822.277 205.974 824.042 205.974H826.538L821.413 217.362H833.933L839.881 204.144C840.606 202.533 839.428 200.71 837.662 200.71H835.166L840.62 188.592H836.504H828.101Z" fill="#237FAB"/>
<path d="M829.687 185.066L828.101 188.592H836.503H840.621L842.206 185.066H829.687Z" fill="#237FAB"/>
<path d="M819.498 221.618H832.016L833.932 217.362H821.414L819.498 221.618Z" fill="#237FAB"/>
<path d="M551.045 173.6V167.104H493.802C491.114 167.104 488.934 169.283 488.934 171.971V178.467H546.178C548.866 178.467 551.045 176.288 551.045 173.6Z" fill="#237FAB"/>
<path d="M595.38 187.841H573.78L573.977 161.126H566.715C564.04 161.126 561.867 163.283 561.848 165.957L561.685 187.841H550.771C548.083 187.841 545.903 190.019 545.903 192.709V199.815H561.308C560.408 216.995 558.116 235.882 549.371 250.27L549.259 247.439L547.339 247.759C544.685 248.202 542.008 248.657 539.331 249.113C534.567 249.922 529.801 250.733 525.183 251.47V233.238H543.86C546.548 233.238 548.727 231.059 548.727 228.371V221.877H495.021C492.333 221.877 490.155 224.055 490.155 226.743V233.238H512.965V253.47L492.617 256.533C489.909 256.941 488.069 259.503 488.551 262.199L489.869 269.605L491.547 269.323C504.936 267.073 523.035 263.937 540.964 260.818C539.301 262.378 533.371 265.562 533.371 265.562L542.504 274.454L543.933 273.387C567.059 256.142 571.872 228.591 573.289 199.815H588.061C587.103 233.959 585.855 257.345 582.976 260.973C582.165 262.026 581.629 262.254 579.948 262.254H564.171C561.865 265.355 558.147 269.907 553.775 273.607H583.9C587.719 273.225 590.781 272.19 593.292 268.398C597.752 262.763 598.832 246.562 600.207 194.194L600.245 192.849C600.324 190.106 598.123 187.841 595.38 187.841Z" fill="#237FAB"/>
<path d="M501.137 218.91L506.824 217.274L496.736 200.193L505.102 183.653L499.276 182.614C497.149 182.236 495.026 183.304 494.064 185.237L486.493 200.445L495.545 216.61C496.649 218.582 498.965 219.536 501.137 218.91Z" fill="#237FAB"/>
<path d="M518.14 182.615C516.013 182.237 513.892 183.305 512.929 185.238L505.357 200.446L514.409 216.611C515.513 218.583 517.831 219.535 520.001 218.911L525.688 217.275L515.6 200.194L523.968 183.654L518.14 182.615Z" fill="#237FAB"/>
<path d="M544.554 217.275L534.466 200.193L542.832 183.653L537.006 182.615C534.879 182.236 532.756 183.304 531.794 185.237L524.223 200.445L535.159 219.977L544.554 217.275Z" fill="#237FAB"/>
<path d="M136.275 172.359H154.811L260.706 37.2653H242.811L136.275 172.359Z" fill="#237FAB"/>
<path d="M163.75 172.359H182.286L288.181 37.2653H269.645L163.75 172.359Z" fill="#237FAB"/>
<path d="M315.894 37.2654H297.358L110.043 274.713H128.579L315.894 37.2654Z" fill="#237FAB"/>
<path d="M243.411 139.621L137.517 274.714H156.054L261.947 139.621H243.411Z" fill="#237FAB"/>
<path d="M164.159 274.714H183.383L289.662 139.621H271.124L164.159 274.714Z" fill="#237FAB"/>
<path d="M98.0787 116.286H171.419L109.083 37.2657H36L98.0787 116.286Z" fill="#8CC66D"/>
<path d="M379.479 71.384H411.144L384.229 37.2654H352.675L379.479 71.384Z" fill="#237FAB"/>
<path d="M865.447 37.2657H840.594V101.491C840.594 104.051 837.322 105.118 835.811 103.051C835.811 103.051 791.459 46.4271 790.441 45.2124C781.622 34.7151 763.063 34.7351 756.102 44.5737C753.81 47.8124 752.365 51.8111 752.354 55.7737L752.401 139.62H777.253V75.3951C777.253 72.8364 780.15 71.8684 781.659 73.9364C781.659 73.9364 826.613 130.726 827.407 131.674C836.226 142.171 854.785 142.151 861.746 132.312C864.038 129.074 865.483 125.075 865.494 121.112L865.447 37.2657Z" fill="#237FAB"/>
<path d="M702.483 139.621H727.458V37.2664H702.483V139.621Z" fill="#237FAB"/>
<path d="M448.479 37.2657L394.255 105.502V139.62H425.659L426.169 105.502L479.845 37.2657H448.479Z" fill="#237FAB"/>
<path d="M435.983 139.62H467.649L525.07 66.967C527.702 63.8017 531.755 64.231 533.41 68.5204L546.801 111.69C548.001 115.128 545.447 118.724 541.803 118.724H515.826L499.402 139.62H583.583L554.514 53.1724C551.19 43.647 542.205 37.2657 532.117 37.2657C524.253 37.2657 515.982 38.7977 509.057 47.143L435.983 139.62Z" fill="#237FAB"/>
<path d="M651.025 37.2657V97.199C651.025 107.427 652.221 118.366 641.991 118.366H599.573L606.677 139.62H639.926C678.065 139.62 675.979 118.876 675.979 106.416V37.2657H651.025Z" fill="#237FAB"/>
</svg>
