<?xml version="1.0" encoding="UTF-8"?>
<svg id="_圖層_1" data-name="圖層 1" xmlns="http://www.w3.org/2000/svg" viewBox="0 0 300 76">
  <defs>
    <style>
      .cls-1 {
        fill: #f29600;
      }

      .cls-2 {
        fill: #4f2c8c;
      }

      .cls-3 {
        fill: #595757;
      }
    </style>
  </defs>
  <g>
    <path class="cls-3" d="M180.15,33.43v17.1c0,1.05-.85,1.9-1.9,1.9h-4.2v-17.1c0-1.05.85-1.9,1.9-1.9h4.2Z"/>
    <path class="cls-3" d="M223.6,52.43h-4.2v-14.62h-7.73v-2.48c0-1.05.85-1.9,1.9-1.9h19.71v2.48c0,1.05-.85,1.9-1.9,1.9h-5.89v12.72c0,1.05-.85,1.9-1.9,1.9Z"/>
    <path class="cls-3" d="M267.68,33.43v8.66l8.32-7.75c.59-.58,1.39-.91,2.22-.91h5.93l-10.09,9.21,10.81,9.79h-6.08c-.83,0-1.63-.33-2.22-.91l-8.9-8.31v7.31c0,1.05-.85,1.9-1.9,1.9h-4.2v-17.1c0-1.05.85-1.9,1.9-1.9h4.2Z"/>
    <path class="cls-3" d="M239.86,40.76h17.2v1.35c0,1.65-1.34,2.98-2.98,2.98h-17.2v-1.35c0-1.65,1.34-2.98,2.98-2.98Z"/>
    <path class="cls-3" d="M239.86,33.5h17.2v1.35c0,1.65-1.34,2.98-2.98,2.98h-17.2v-1.35c0-1.65,1.34-2.98,2.98-2.98Z"/>
    <path class="cls-3" d="M239.86,48.01h17.2v1.35c0,1.65-1.34,2.98-2.98,2.98h-17.2v-1.35c0-1.65,1.34-2.98,2.98-2.98Z"/>
    <path class="cls-3" d="M199.88,33.43h-12.74c-1.05,0-1.9.85-1.9,1.9v17.1h4.2c1.05,0,1.9-.85,1.9-1.9v-12.72h7.16c2.49,0,3.73.94,3.73,2.8v4.61c0,1.88-1.24,2.82-3.73,2.82h-2.98c-1.05,0-1.9.85-1.9,1.9v2.5h6.27c5.64,0,8.44-1.74,8.44-5.25v-8.55c0-3.46-2.8-5.2-8.44-5.2Z"/>
    <path class="cls-3" d="M163.55,33.43h-14.81c-1.05,0-1.9.85-1.9,1.9v17.1h4.2c1.05,0,1.9-.85,1.9-1.9v-12.72h8.38c1.33,0,1.99.21,1.99,2.44,0,1.97-.64,2.67-1.94,2.67h-4.26c-1.05,0-1.9.85-1.9,1.9v2.5h8.33c3.93,0,5.87-1.7,5.87-5.04v-3.85c0-3.35-1.94-5-5.87-5Z"/>
    <path class="cls-3" d="M111.58,33.43h-14.81c-1.05,0-1.9.85-1.9,1.9v17.1h4.2c1.05,0,1.9-.85,1.9-1.9v-12.72h8.44c1.3,0,1.94.42,1.94,2.66s-.61,2.45-1.82,2.45h-7.45l7.32,8.42c.6.69,1.47,1.09,2.39,1.09h5.65s-4.38-4.89-4.38-4.89c0,0,2.04-.15,3.19-1.14,1.07-.91,1.19-2.56,1.19-4.3v-3.85c0-3.21-1.94-4.81-5.87-4.81Z"/>
    <path class="cls-3" d="M134.18,33.43h-4.4c-.73,0-1.39.42-1.71,1.07l-8.64,17.93h4.93c.71,0,1.36-.41,1.67-1.05h0s5.94-12.33,5.94-12.33l2.83,5.94h-2.41c-.75,0-1.43.44-1.74,1.13l-1.44,3.25h7.72l.99,2.03c.31.64.96,1.04,1.67,1.04h4.91l-8.62-17.92c-.32-.66-.98-1.08-1.71-1.08Z"/>
  </g>
  <g>
    <path class="cls-1" d="M75.33,34.76c-.33-.7-.81-1.32-1.49-1.73-.62-.38-1.35-.55-2.08-.55-1.12,0-2.26.34-3.23.9-.04.02.26.56.19,1.62-.18,2.74-1.88,5.08-4.11,6.59-1.75,1.18-3.62,2.03-5.6,2.25-5.2.58-7.91-2.89-7.04-6.21.39-1.48.75-2.56,2.77-4.33l-2.17.29c-4.32.73-8.42,2.71-9.71,7.31-1.04,3.71-.41,6.94,3.24,9.37,2.12,1.41,5.09,2.16,8.74,2.16,3.42,0,6.94-.96,10.06-2.32,2.86-1.25,5.62-3.11,7.76-5.4,1.66-1.77,2.99-4.21,3.21-6.65.1-1.07-.04-2.28-.52-3.29Z"/>
    <path class="cls-2" d="M60.88,31.39c1.97-.96,3.93-2.61,4.43-4.8.83-3.65.37-7.36-3.42-9.9-2.42-1.61-5.24-2.21-8.36-2.25-6.34-.09-15.33,3.4-20.08,9.26-4.75,5.85-6.03,11.41-9.04,18.4-2.45,5.68-7.07,7.53-9.28,7.56.24,1.07,1.71,2.05,2.75,2.39,4.34,1.42,9.3-1.3,12.07-4.42,7.04-7.93,7.39-20.02,17.74-23.3,4.97-1.57,8.96.54,8.14,4.58-.37,1.84-1.42,3.22-3.25,4.67l2.17-.29c2.5-.57,3.42-.58,6.15-1.9Z"/>
  </g>
</svg>