<?xml version="1.0" encoding="UTF-8"?>
<svg id="_圖層_1" data-name="圖層 1" xmlns="http://www.w3.org/2000/svg" viewBox="0 0 76 76">
  <defs>
    <style>
      .cls-1 {
        fill: #47b4d2;
      }

      .cls-2 {
        fill: #6ab468;
      }

      .cls-3 {
        fill: #1a3c85;
      }

      .cls-4 {
        fill: #183883;
      }

      .cls-5 {
        fill: #eab935;
      }

      .cls-6 {
        fill: #1c3371;
      }

      .cls-7 {
        fill: #deeae7;
      }

      .cls-8 {
        fill: #e57046;
      }

      .cls-9 {
        fill: #213a87;
      }

      .cls-10 {
        fill: #ebf3f7;
      }

      .cls-11 {
        fill: #fff;
      }

      .cls-12 {
        fill: #38a350;
      }

      .cls-13 {
        fill: #183480;
      }

      .cls-14 {
        fill: #2e9c44;
      }

      .cls-15 {
        fill: #e1efee;
      }

      .cls-16 {
        fill: #e27039;
      }

      .cls-17 {
        fill: #b7cd3d;
      }

      .cls-18 {
        fill: #b8cf4b;
      }

      .cls-19 {
        fill: #72b44c;
      }
    </style>
  </defs>
  <path class="cls-6" d="M30.27,22.82c-2.14-.89-4.74-1.6-6.48.49-.62.74-.85,1.69-1.25,2.54-.2.43-.44.87-.82,1.16-.23.19-.69.35-.55.73.2.54,1.37.08,1.8.06,1.15-.05,2.22.59,2.97,1.4,1.29,1.39,2.04,3.37,2.92,5.03,1.09,2.06,2.42,3.98,4.13,5.58,1.05.97,2.32,1.77,3.63,2.37,2.11.97,4.22,1.71,5.56,3.75,1.59,2.43,2.18,5.51,3.09,8.23.5,1.49,1.03,3.14,2.62,3.79.81.33,1.69.29,2.54.17,2.22-.31,4.17-1.57,5.95-2.84,1.72-1.22,3.45-2.47,4.98-3.93,1.66-1.58,4.17-3.57,3.89-6.17-.17-1.58-1.68-2.51-2.97-3.15-2.96-1.48-5.99-2.77-9.2-3.58-1.59-.4-3.36-.57-4.87-1.22-.6-.26-1.27-.84-1.12-1.58.19-.87,1.29-1.28,2.04-1.52,2.16-.7,4.15-1.49,6.12-2.64,5.5-3.23,10.38-7.13,13.88-12.51,1.44-2.21,2.88-4.72,3.01-7.42.11-2.17-.14-4.16-.63-6.28-.16-.69-.36-1.92-1.11-2.22-.6-.24-1.2.25-1.68.53-1.26.75-2.54,1.45-3.84,2.11-5.77,2.88-11.86,5.33-15.83,10.68-1.32,1.77-2.5,3.65-3.83,5.41-.49.65-1.17,1.62-2.1,1.56-1.2-.08-1.35-1.77-1.66-2.64-.99-2.8-1.6-5.74-3.21-8.28-1.87-2.95-5.19-4.96-8.44-6.04-.83-.28-1.65-.52-2.49-.76-.3-.09-.74-.23-.85.2-.13.49.44,1.21.65,1.62.61,1.22,1.12,2.5,1.56,3.79,1.3,3.8,1.62,7.6,1.62,11.58Z"/>
  <path class="cls-15" d="M27.62,6.58c.38,1.34,1.17,2.62,1.64,3.95,1.03,2.89,1.64,5.93,1.77,8.99.05,1.06.16,2.19.03,3.25-.04.33.05.76-.21,1.02-.31.31-.72-.09-1.02-.24-.82-.42-1.79-.78-2.71-.82-2.67-.11-3.41,2.2-4.28,4.27.64,0,1.3.11,1.89.36.3.13.76.52,1.08.48.5-.06,1.1-.58,1.57-.78,1.04-.47,2.27-.73,3.41-.58,1.76.23,3.22,1.42,4.93,1.72v-2.81c-.51,0-1.03-.08-1.52-.24-.36-.12-.72-.27-1.03-.5-.22-.16-.42-.35-.58-.57-1.32-1.83.74-3.73,1.66-5.2.44-.7.84-1.45,1.28-2.17.14-.23.31-.64.62-.67.32-.03.53.45.67.67.46.73.9,1.47,1.33,2.22.93,1.63,2.76,4.11.76,5.65-.26.2-.56.34-.87.45-.49.17-.95.28-1.46.34v3.09c1.18.15,2.26.11,3.41-.26,1.75-.57,3.36-1.66,5.25-1.74,1.72-.08,3.45,1.27,5.07.29.27-.16.13-1.04.13-1.32v-2.49c0-.46-.05-.91.25-1.3.46-.59,1.18-1.03,1.76-1.49.3-.24.59-.57.97-.68.7-.2,1.65-.04,2.38-.04.51,0,1.24-.13,1.73.04.54.2,1.07.81,1.52,1.18.41.35,1.03.73,1.27,1.21.18.36.08.91.08,1.3v2.87c.32.04.76.17,1.08.08.38-.1.74-.52,1.03-.77.8-.69,1.53-1.43,2.27-2.18,1.35-1.35,2.5-2.94,3.52-4.55,1.71-2.7,2.98-5.3,2.98-8.55,0-1.6-.32-3.16-.7-4.71-.07-.34-.19-1.34-.55-1.48-.43-.17-1.21.62-1.56.83-1.44.85-2.95,1.57-4.44,2.31-5,2.5-10.32,4.74-13.92,9.22-1.51,1.87-2.79,3.91-4.21,5.85-.63.88-1.34,1.96-2.54,2.06-.83.06-1.65-.32-2.04-1.08-.36-.7-.55-1.52-.78-2.27-.44-1.45-.88-2.9-1.39-4.33-.51-1.44-1.12-2.87-2.03-4.11-1.49-2.03-3.6-3.39-5.84-4.45-1.08-.51-2.48-1.18-3.68-1.29Z"/>
  <path class="cls-13" d="M63.07,9.69c-.57.09-1.08.27-1.57.58-3.06,1.91-2.33,6.86,1.24,7.66.43.1.9.17,1.35.11.69-.08,1.36-.27,1.95-.65,2.65-1.73,2.49-5.88-.38-7.32-.78-.39-1.74-.49-2.6-.38Z"/>
  <path class="cls-5" d="M63.4,10.5c-.6.09-1.14.26-1.62.61-2.69,1.99-1,6.5,2.38,6.06.52-.07,1.02-.25,1.46-.53,2.84-1.83,1.19-6.64-2.22-6.15Z"/>
  <path class="cls-16" d="M63.89,11.26c-.33.05-.64.18-.92.36-2.25,1.37-.78,4.84,1.73,4.42,3.05-.51,2.22-5.25-.81-4.78Z"/>
  <path class="cls-17" d="M36.6,17.84v1.68c.75-.53.59-1.05,0-1.68Z"/>
  <path class="cls-17" d="M35.68,18c-.31.5-.6,1.03-.92,1.52-.1.16-.34.39-.32.6.04.42.96,1.09,1.3,1.3v-2.33l-.05-1.08Z"/>
  <path class="cls-12" d="M12.68,22.12v.05h-.27v.05l.38.05v.05c-1.25,0-2.62.19-3.79.63-.31.12-1.47.74-.65,1.06.27.11.66-.03.92-.12.69-.25,1.29-.66,1.95-.96,1.01-.45,1.92-.33,2.98-.29-.64-.48-1.44-.63-2.06-1.2-.72-.67-1.03-1.58-1.57-2.37-.27-.38-.69-1-1.24-.85-.6.16.15,1.12.32,1.34.7.89,1.91,2.22,3.03,2.54Z"/>
  <path class="cls-12" d="M10.46,21.79v.05c-1.32,0-2.73.02-3.9-.67-.6-.35-1.09-.88-1.62-1.32-.22-.18-.51-.47-.81-.47-.68,0,.14.98.32,1.11.96.68,2.08.99,3.19,1.3v.05c-.95,0-2.03.3-2.87.75-.16.09-1.07.78-.49.91.51.11,1.27-.78,1.68-1.01.97-.57,1.93-.65,3.03-.65v.05c-1.05.05-2.33.58-3.19,1.16-.22.14-1.14,1.05-.38,1.14.27.03.6-.26.81-.41.65-.45,1.19-1.03,1.89-1.39,1.35-.7,2.52-.39,3.95-.28-.55-.32-1.3-.41-1.89-.72-.8-.41-1.43-1.04-2.11-1.61-.31-.26-.89-.9-1.35-.72-.6.24.14,1,.38,1.18.91.72,2.22,1.31,3.36,1.54Z"/>
  <path class="cls-12" d="M15.39,22.98v.05c-1.79.46-3.58.63-5.25,1.53-.31.17-1.74,1.12-1.02,1.55.45.27,1.32-.43,1.67-.67,1.37-.93,2.63-2,4.33-2.25.49-.07.88.19,1.3.41.78.41,1.5.96,2.17,1.54.34.29.62.71,1.03.9-.79-1.37-2.53-2.09-3.79-2.94-.73-.49-1.28-1.17-1.79-1.88-.36-.52-.68-1.06-1.06-1.57-.15-.2-.34-.5-.62-.52-.65-.03.03,1.1.16,1.28.69.95,1.81,2.02,2.87,2.54Z"/>
  <path class="cls-2" d="M37.63,19.63c-.31.31-.78.64-.97,1.03-.23.46-.05,1.38-.05,1.89.48-.21.9-.67,1.3-1.01.14-.12.41-.28.46-.46.1-.32-.52-1.23-.74-1.45Z"/>
  <path class="cls-8" d="M51.38,22.12h3.19c.11-.85,1.3-1.27,1.79-1.89-.8,0-2.01-.23-2.76.03-.3.1-.57.41-.81.62-.46.4-1.05.76-1.41,1.24Z"/>
  <path class="cls-11" d="M55.44,25.96l1.19-.05v-1.52c0-.18-.05-.47.05-.63.16-.23,1.46-.23,1.62,0,.11.16.06.45.06.63v1.52l1.24.05v-2.65c0-.32.09-.81-.03-1.12-.22-.52-1.11-1.01-1.54-1.36-.14-.11-.34-.35-.54-.33-.2.03-.39.26-.54.38-.43.36-1.2.79-1.46,1.3-.15.3-.05.81-.05,1.14v2.65Z"/>
  <path class="cls-2" d="M33.84,20.82c-.35.52-.76,1.1-.85,1.73-.23,1.55,1.55,1.95,2.74,1.95l-.03-1.94-.45-.49-1.41-1.25Z"/>
  <path class="cls-17" d="M36.6,24.5c1.62-.01,2.87-.97,2.22-2.65l-1.57,1.23-.6.56-.05.86Z"/>
  <path class="cls-19" d="M41.04,32.08c.73-.01,1.45-.22,2.17-.31,1.55-.18,3.14-.38,4.71-.39,1.22-.01,2.46-.05,3.68,0,.57.02,1.35.23,1.89.08.74-.2,1.52-.84,2.17-1.25,1.68-1.05,3.32-2.17,4.93-3.32-.37-.15-.85-.09-1.24-.11-.99-.07-1.98-.05-2.98-.05-4.01,0-8.34,1.16-11.85,3.07-1.11.6-2.69,1.27-3.46,2.29Z"/>
  <path class="cls-14" d="M26.43,28.4c.24.58.78,1.08,1.1,1.62.62,1.05,1.11,2.17,1.67,3.25.22.42.6,1.51,1.04,1.73.25.12.82-.23,1.06-.32,1-.37,2-.73,3.03-1.02,1.02-.29,2.04-.62,3.09-.84.61-.13,1.37-.16,1.93-.44.7-.35,1.31-1.09,1.96-1.54,1.84-1.27,3.99-2.6,6.17-3.2-.55-.33-1.38-.32-2-.32-2.45,0-4.39,1.7-6.77,2.04-2.82.4-4.93-1.59-7.58-2.02-1.8-.29-3.12.38-4.71,1.07Z"/>
  <path class="cls-1" d="M51.87,32.29c-.55-.23-1.46-.11-2.06-.11-.8,0-1.77-.14-2.54.09-.47.14-.94.53-1.35.79-1.1.68-2.19,1.44-3.14,2.32-1.25,1.17-2.45,2.7-1.56,4.43.85,1.66,2.84,2.87,4.48,3.64,1.66.79,3.37,1.49,3.89,3.45.55,2.11-.38,4.48-1.54,6.22-.33.49-.69.96-1.07,1.41-.15.17-.42.37-.47.6-.13.62.91,1.59,1.36,1.87,1.44.88,3.38.19,4.76-.5,3.44-1.72,6.41-4.23,9.2-6.83,1.14-1.06,2.72-2.55,2.59-4.28-.13-1.8-2.55-2.73-3.95-3.35-2.62-1.17-5.23-2.22-8.01-2.95-1.49-.39-3.12-.5-4.55-1.11-.35-.15-.69-.33-.97-.58-1.71-1.55-.09-3.46,1.61-4.01,1.11-.36,2.21-.68,3.3-1.1Z"/>
  <path class="cls-18" d="M30.7,35.76c.26.68.87,1.34,1.34,1.89,1.2,1.44,2.61,2.62,4.29,3.47,1.69.86,3.56,1.4,5.03,2.65,1.66,1.41,2.44,3.46,3.12,5.46.56,1.68,1.1,3.36,1.64,5.03.74-.53,1.3-1.54,1.73-2.33.92-1.62,1.71-4.22.5-5.9-.72-1-1.97-1.42-3.04-1.91-2.29-1.05-6.07-3.46-5.07-6.48.16-.47.38-.9.66-1.3.47-.67,1.03-1.26,1.65-1.8.92-.8,1.91-1.55,2.98-2.15-.28-.11-.63.03-.92.05-.87.06-1.73.23-2.6.32-1.57.16-3.13.55-4.66.91-2.23.52-4.57,1.11-6.66,2.08Z"/>
  <path class="cls-9" d="M14.68,61.8l.54.81h-1.19v2.65h1.89c-.41.6-1.03,1.14-1.62,1.53-.22.15-.83.38-.9.64-.07.25.41.62.54.8.35.49.46,1.21.62,1.79l.97-.65v3.19h2.6v-2.49h2.17v2.49h2.71v-2.54h2.33v-7.52h-2.33v-1.73h-2.71v1.73c-.43,0-1.47.19-1.81-.09-.43-.34-.75-1.01-1.12-1.43-.12-.14-.28-.41-.48-.43-.22-.02-.49.22-.65.32-.52.31-1.04.64-1.57.92ZM59.07,60.5l-.35.7-1.38.05h-3.57v2.65h.6v4.49l-.92.11.54,2.65,2.17-.32v1.73c.7,0,2.18-.31,2.49.43.77-.22,1.48-.72,2.11-1.19v.76h2.65v-1.73h1.57c0-.94-.23-2.23.02-3.13.09-.34.71-.29.72-.66.04-.99-.95-1.87-1.01-2.81-.02-.4.44-.93.6-1.3l-1.14-.54.32-.76-2.38-1.08-.76,1.89h-.11l-.05-.05.32-.76-2.44-1.14Z"/>
  <path class="cls-4" d="M27.57,61.52l.65,1.08h-.92v2.6h.38l-.05,7.25h2.54v-.54c.52,0,1.1.07,1.62,0,.38-.07.72-.25,1.14-.15.39.09.75.51.76.9.19-.03.36.11.54.05.46-.14,1.01-.7,1.35-1.03.45.96,1.91,1.08,2.59.32.6-.66.75-1.84.8-2.71.03-.52-.91-.43-.9-.98,0-.35.47-1.5.76-1.68v-2.6h-.22c-.09-1.03-.89-2.03-1.35-2.92l-.49.16v-.54h-2.65v.65h-.05l-.45-.67-.74.13-1.73.49.27.6-.52-.05-1-1.26-.7.2-1.62.68ZM45.92,60.6c-.08.6-.24,1.2-.41,1.79-.08.28-.15.55-.46.6v-2.22h-2.65v.65l-1.24-.16-.52,3.52-.67,1.73.81.27v.11l-.65.11.76,2.71,1.52-.43v3.3h2.65v-.81l1.14,1.03h.05l1.08-.92v.54c1.02,0,2.35.33,3.25-.31.87-.63,1.03-1.84,1.14-2.83.25-2.22.38-4.43.38-6.66h-3.84l.32-1.52-2.65-.49Z"/>
  <path class="cls-7" d="M16.14,62.07l.92,1.46.65-.38c-.11-.34-.63-1.31-1.03-1.34-.18-.01-.39.17-.54.26Z"/>
  <path class="cls-10" d="M21.29,61.74v1.73h-2.22v5.63h.7v-.49h1.52v2.98h.76v-2.98h1.57v.43h.76v-5.58h-2.33v-1.73h-.76Z"/>
  <path class="cls-7" d="M35.14,61.74l.05,3.3h-1.08l.38-1.3-.65-.11-.32,1.41h-.7l-.27-1.41-.6.11.27,1.3h-.87v.65h3.9l.19,2.22.14,1.24-.97,1.19v-4.01h-2.81v4.49h.65v-.76h1.52v.27h.65l-.81.81c.14.09.31.29.49.28.56-.04,1.2-1.04,1.57-1.41.13.54.76,2.08,1.55,1.38.42-.37.49-1.24.56-1.76l-.54-.32c-.06.34,0,.98-.3,1.22-.36.29-.73-.97-.7-1.22.05-.32.36-.69.51-.97.31-.55.61-1.17.76-1.79l-.65-.27c-.2.62-.42,1.46-.87,1.95l-.22-2.54h1.89v-.65h-1.95l-.11-3.3h-.65Z"/>
  <path class="cls-7" d="M43.37,61.74v1.52l-.09.62-.78.09.16-1.52-.64.03-.18,1.21-.59,2.27.65.32c.08-.32.22-1.33.5-1.51.23-.15.7-.06.96-.06v2.44l-1.46.38-.5.23.12.69,1.84-.54v3.68h.7v-3.95l1.35-.38-.11-.7-1.24.32v-2.17h1.08v-.76h-1.08v-2.22h-.7ZM46.67,61.74c-.24.96-.52,1.94-.99,2.81-.17.31-.8.95-.79,1.3,0,.19.34.37.48.49h.05l.85-1.3.41-.7.84-.06c-.22,1.15-.87,2.36-1.54,3.3-.3.41-.79.76-1.01,1.19.18.1.43.36.65.32.37-.05.75-.75.94-1.03.75-1.06,1.46-2.49,1.66-3.79h.92c-.44,1.71-.94,3.37-1.9,4.87-.43.66-1.23,1.17-1.57,1.84l.6.43h.05c1.89-1.66,3.26-4.62,3.46-7.15h.54c0,1.56-.13,3.17-.36,4.71-.08.51-.1,1.3-.56,1.64-.31.23-.97.09-1.35.09l.16.76c.54,0,1.38.14,1.84-.24.54-.45.59-1.44.65-2.09.23-1.84.38-3.72.38-5.58h-4.17l.43-1.73-.7-.11Z"/>
  <path class="cls-7" d="M29.03,61.96l.7,1.41c.16-.03.5-.09.55-.29.07-.26-.48-1.16-.73-1.25-.16-.05-.37.07-.52.12ZM32.6,61.96l.38.97h-1.46v.6h3.25v-.6h-1.08l-.49-1.14-.6.16Z"/>
  <path class="cls-7" d="M58.2,63.96l.16.76,1.14-.16-1.41,1.52.22.7,2.33-.38.11.54.54-.11-.54-1.79-.49.11.22.76-1.35.11c.61-.87,1.41-1.66,1.84-2.65l-.6-.27c-.31.66-.55.97-1.3.97l1.14-2c-.15-.05-.36-.22-.53-.17-.21.05-.32.5-.41.66-.26.49-.58,1.15-1.07,1.41Z"/>
  <path class="cls-7" d="M61.29,63.96l.16.7,1.14-.16-.73,1.08-.42.5.07.64c.7-.16,2.32-.78,2.54.16l.54-.22-.7-1.79c-.61.15-.28.52-.22.97l-1.35.11,1.24-1.84.32-.7-.49-.33c-.38.65-.49.9-1.3.92.45-.53.89-1.22,1.08-1.89-.13-.08-.35-.24-.51-.16-.19.1-.3.51-.39.7-.25.48-.54.98-.99,1.3Z"/>
  <path class="cls-7" d="M54.74,62.23v.7h.6v6.28l-.7.11.11.76,2.38-.43v1.95h.65l.02-1.89.41-.31.06-.62-.49.05v-5.9h.49v-.7h-3.52Z"/>
  <path class="cls-7" d="M36.17,62.61l.81,1.84c.9-.16.53-.75.23-1.35-.1-.19-.23-.6-.46-.66-.18-.05-.43.1-.58.17Z"/>
  <path class="cls-3" d="M56.04,62.93v1.46h1.03v-1.46h-1.03Z"/>
  <path class="cls-10" d="M15.01,63.58v.7h2.71c-.57,1.37-1.74,2.51-2.92,3.36l.32.76,1.41-1.14v4.33h.65v-4.66l1.19,1.35.43-.6c-.26-.41-.63-.74-.97-1.08-.12-.12-.35-.29-.33-.49.05-.49.71-1.22.94-1.68.08-.16.27-.45.16-.63-.18-.31-.64-.23-.93-.23h-2.65Z"/>
  <path class="cls-7" d="M28.27,63.58v.6h2.98v-.6h-2.98Z"/>
  <path class="cls-4" d="M19.77,64.18v1.46h1.46v-1.46h-1.46Z"/>
  <path class="cls-4" d="M22.1,64.18v1.46h1.46v-1.46h-1.46Z"/>
  <path class="cls-7" d="M28.59,64.99v.6h2.38v-.6h-2.38Z"/>
  <path class="cls-3" d="M56.04,65.15v1.52h1.08v-1.52h-1.08Z"/>
  <path class="cls-4" d="M19.77,66.4v1.46h1.46v-1.46h-1.46Z"/>
  <path class="cls-4" d="M22.1,66.4v1.46h1.46v-1.46h-1.46Z"/>
  <path class="cls-7" d="M28.65,66.45v.6h2.33v-.6h-2.33Z"/>
  <path class="cls-3" d="M32.44,66.88v.97h1.52v-.97h-1.52Z"/>
  <path class="cls-7" d="M58.74,67.05v2.38h1.52c-.3.78-.77,1.29-1.52,1.68l.38.6c2-.84,1.89-2.83,1.89-4.66h-.7v1.73h-.92v-1.73h-.65ZM61.72,67.05v4.6h.7v-2.22h.92v.43h.65v-2.65h-.65v1.52h-.92v-1.68h-.7Z"/>
  <path class="cls-3" d="M56.04,67.37v1.73l1.08-.16v-1.57h-1.08Z"/>
  <path class="cls-7" d="M28.59,67.91v3.57h.6v-.54h1.79v-3.03h-2.38Z"/>
  <path class="cls-3" d="M32.44,68.51v.97h1.52v-.97h-1.52Z"/>
  <path class="cls-3" d="M29.24,68.56v1.79h1.14v-1.79h-1.14Z"/>
</svg>