<?xml version="1.0" encoding="UTF-8"?>
<svg id="_圖層_1" data-name="圖層 1" xmlns="http://www.w3.org/2000/svg" xmlns:xlink="http://www.w3.org/1999/xlink" viewBox="0 0 240 76">
  <defs>
    <style>
      .cls-1 {
        fill: url(#linear-gradient);
      }

      .cls-2 {
        fill: url(#_未命名漸層_4-17);
      }

      .cls-3 {
        fill: url(#_未命名漸層_4-16);
      }

      .cls-4 {
        fill: url(#_未命名漸層_4-13);
      }

      .cls-5 {
        fill: url(#_未命名漸層_4-12);
      }

      .cls-6 {
        fill: url(#_未命名漸層_4-10);
      }

      .cls-7 {
        fill: url(#_未命名漸層_4-11);
      }

      .cls-8 {
        fill: url(#_未命名漸層_4-15);
      }

      .cls-9 {
        fill: url(#_未命名漸層_4-14);
      }

      .cls-10 {
        fill: #33b0ac;
      }

      .cls-11 {
        fill: url(#_未命名漸層_4-7);
      }

      .cls-12 {
        fill: url(#_未命名漸層_4-8);
      }

      .cls-13 {
        fill: url(#_未命名漸層_4-9);
      }

      .cls-14 {
        fill: url(#_未命名漸層_4-6);
      }

      .cls-15 {
        fill: url(#_未命名漸層_4-3);
      }

      .cls-16 {
        fill: url(#_未命名漸層_4-2);
      }

      .cls-17 {
        fill: url(#_未命名漸層_4-5);
      }

      .cls-18 {
        fill: url(#_未命名漸層_4-4);
      }

      .cls-19 {
        fill: url(#_未命名漸層_4);
      }

      .cls-20 {
        fill: #33a89c;
      }

      .cls-21 {
        fill: #65ba6c;
      }
    </style>
    <linearGradient id="_未命名漸層_4" data-name="未命名漸層 4" x1="111.18" y1="53.5" x2="216.57" y2="53.5" gradientUnits="userSpaceOnUse">
      <stop offset="0" stop-color="#67ba6d"/>
      <stop offset=".58" stop-color="#32b0ac"/>
    </linearGradient>
    <linearGradient id="_未命名漸層_4-2" data-name="未命名漸層 4" x1="111.18" y1="54.88" x2="216.57" y2="54.88" xlink:href="#_未命名漸層_4"/>
    <linearGradient id="_未命名漸層_4-3" data-name="未命名漸層 4" x1="111.18" y1="54.81" x2="216.57" y2="54.81" xlink:href="#_未命名漸層_4"/>
    <linearGradient id="_未命名漸層_4-4" data-name="未命名漸層 4" x1="111.18" y1="54.89" x2="216.57" y2="54.89" xlink:href="#_未命名漸層_4"/>
    <linearGradient id="_未命名漸層_4-5" data-name="未命名漸層 4" x1="111.18" y1="54.89" x2="216.57" y2="54.89" xlink:href="#_未命名漸層_4"/>
    <linearGradient id="_未命名漸層_4-6" data-name="未命名漸層 4" x1="111.18" y1="54.82" x2="216.57" y2="54.82" xlink:href="#_未命名漸層_4"/>
    <linearGradient id="_未命名漸層_4-7" data-name="未命名漸層 4" x1="111.18" y1="53.5" x2="216.57" y2="53.5" xlink:href="#_未命名漸層_4"/>
    <linearGradient id="_未命名漸層_4-8" data-name="未命名漸層 4" x1="111.18" y1="54.82" x2="216.57" y2="54.82" xlink:href="#_未命名漸層_4"/>
    <linearGradient id="_未命名漸層_4-9" data-name="未命名漸層 4" x1="111.18" y1="54.89" x2="216.57" y2="54.89" xlink:href="#_未命名漸層_4"/>
    <linearGradient id="_未命名漸層_4-10" data-name="未命名漸層 4" x1="111.18" y1="54.89" x2="216.57" y2="54.89" xlink:href="#_未命名漸層_4"/>
    <linearGradient id="_未命名漸層_4-11" data-name="未命名漸層 4" x1="111.18" y1="53.5" x2="216.57" y2="53.5" xlink:href="#_未命名漸層_4"/>
    <linearGradient id="_未命名漸層_4-12" data-name="未命名漸層 4" x1="111.18" y1="53.2" x2="216.57" y2="53.2" xlink:href="#_未命名漸層_4"/>
    <linearGradient id="_未命名漸層_4-13" data-name="未命名漸層 4" x1="111.18" y1="54.88" x2="216.57" y2="54.88" xlink:href="#_未命名漸層_4"/>
    <linearGradient id="_未命名漸層_4-14" data-name="未命名漸層 4" x1="111.18" y1="53.81" x2="216.57" y2="53.81" xlink:href="#_未命名漸層_4"/>
    <linearGradient id="_未命名漸層_4-15" data-name="未命名漸層 4" x1="111.18" y1="54.89" x2="216.57" y2="54.89" xlink:href="#_未命名漸層_4"/>
    <linearGradient id="_未命名漸層_4-16" data-name="未命名漸層 4" x1="111.18" y1="54.89" x2="216.57" y2="54.89" xlink:href="#_未命名漸層_4"/>
    <linearGradient id="_未命名漸層_4-17" data-name="未命名漸層 4" x1="111.18" y1="53.2" x2="216.57" y2="53.2" xlink:href="#_未命名漸層_4"/>
    <linearGradient id="linear-gradient" x1="88.47" y1="53.82" x2="91.47" y2="53.82" gradientUnits="userSpaceOnUse">
      <stop offset="0" stop-color="#67ba6d"/>
      <stop offset="1" stop-color="#67ba6c"/>
    </linearGradient>
  </defs>
  <g>
    <path class="cls-10" d="M91.34,27.46c-.13,2.31-.47,4.56-1.02,6.73l-1.83-1c.46-1.63.78-3.67.95-6.11l1.9.38ZM91.36,22.13l-1.78.67c-.33-2.2-.66-3.79-.97-4.78l1.75-.66c.47,1.64.8,3.23,1,4.77ZM96.69,25.77h-2.52v11.76h-2.14v-11.76h-3.4v-2.2h3.4v-7.75h2.14v7.75h2.52v2.2ZM97.14,18.14c-.14,1.46-.4,3.01-.78,4.66l-1.72-.57c.34-1.32.58-2.85.72-4.59l1.78.5ZM97.17,32.82l-1.92.62c-.02-2.02-.17-3.99-.45-5.9l1.78-.45c.33,2.45.53,4.36.6,5.73ZM109.28,35.39c0,.65-.22,1.2-.67,1.64-.45.45-1.55.62-3.3.52l-.77-2.09,2.17-.02c.27,0,.4-.12.4-.37v-1.35h-6.95c-.37,1.61-.93,2.95-1.7,4.04l-1.59-1.59c.95-1.29,1.42-3.12,1.42-5.49v-4.59h10.99v9.3ZM110.37,24.85h-13.01v-1.78h5.36v-1.27h-4.63v-1.59h4.63v-1.14h-5.08v-1.8h5.08v-1.39h2.18v1.39h5.1v1.8h-5.1v1.14h4.71v1.59h-4.71v1.27h5.48v1.78ZM107.11,32.1v-1.33h-6.71c0,.45-.02.89-.05,1.33h6.76ZM107.11,29.11v-1.19h-6.68v1.19h6.68Z"/>
    <path class="cls-10" d="M134.63,22.02h-2.84v3.4c.92-.42,1.72-.82,2.39-1.19l.26,2.17c-.71.41-1.59.89-2.64,1.42v7.28c0,.84-.18,1.47-.55,1.89-.37.42-1.12.63-2.26.63-.5,0-1.01-.02-1.53-.06l-.6-2.17h2.32c.26,0,.39-.16.39-.47v-5.93c-.78.37-1.7.76-2.76,1.17l-.57-2.19c1.23-.45,2.34-.92,3.33-1.4v-4.54h-3.12v-2.12h3.12v-4.03h2.23v4.03h2.84v2.12ZM148.02,18.64h-6.68c-.59,2.3-1.3,4.34-2.12,6.11h7.7v12.83h-2.3v-1.39h-5.73v1.39h-2.26v-8.4c-.88,1.12-1.81,2.19-2.79,3.21l-1.35-1.89c3.25-3.06,5.45-7.01,6.58-11.87h-5.14v-2.19h14.08v2.19ZM144.62,34.05v-7.13h-5.73v7.13h5.73Z"/>
    <path class="cls-10" d="M185.71,36.96h-21.62v-2.19h10.05v-5.44h-7.56v-2.19h7.56v-4.76h-5.59c-.92,1.59-1.93,2.95-3.04,4.09l-1.69-1.62c2.26-2.32,3.78-5.17,4.55-8.56l2.23.52c-.28,1.06-.62,2.19-1.02,3.37h4.56v-4.37h2.29v4.37h8.95v2.19h-8.95v4.76h7.92v2.19h-7.92v5.44h9.27v2.19Z"/>
    <path class="cls-10" d="M209.96,26.97c-.94.44-1.81.8-2.59,1.1v7.23c0,.71-.17,1.27-.52,1.66-.35.39-.93.59-1.75.6-.82.01-1.53,0-2.12-.02l-.69-2.17c.88.03,1.63.05,2.26.05.15,0,.3-.07.44-.21.14-.14.21-.3.21-.48v-5.83c-.92.32-1.87.61-2.85.86l-.6-2.04c1.56-.47,2.71-.85,3.44-1.14v-4.61h-3.16v-2.12h3.16v-4.04h2.17v4.04h2.29v2.12h-2.29v3.75c.65-.21,1.36-.51,2.14-.9l.45,2.17ZM223.85,35.96l-1.28,1.87c-2.35-1.03-4.3-2.18-5.83-3.44-1.79,1.34-3.92,2.49-6.4,3.44l-1.23-2c2.4-.81,4.42-1.79,6.06-2.95-1.39-1.53-2.57-3.67-3.54-6.43h-.85v-2.09h4.94v-3.24h-5.28v-2.09h5.28v-3.16h2.24v3.16h5.23v2.09h-5.23v3.24h4.61v2.09c-1.16,2.79-2.55,4.95-4.16,6.48,1.37,1.14,3.18,2.14,5.44,3.02ZM220.13,26.47h-6.12c.62,1.86,1.57,3.52,2.86,4.99,1.36-1.36,2.44-3.03,3.26-4.99Z"/>
  </g>
  <g>
    <rect class="cls-10" x="20.81" y="35.44" width="6.37" height="5.11"/>
    <g>
      <g>
        <g>
          <path class="cls-21" d="M55.72,43.37c.34-1.26-.36-2.39-1.72-3.14-.75-.42-1.89-1.04-3.1-1.72h.01c-.87-.52-1.94-1.15-3.15-1.83,0,0,0,0,0,0h0c-.76-.42-1.58-.86-2.44-1.3,0,0-5.6-2.96,2.57-6.72,0,0-7.31,1.37-8.25,4.87-.34,1.26.36,2.39,1.72,3.14.78.44,1.92,1.05,3.12,1.73.74.43,1.62.96,2.61,1.52.09.06.19.11.28.17h.01c.82.46,1.71.94,2.66,1.42,0,0,5.6,2.96-2.57,6.72,0,0,7.31-1.37,8.25-4.87Z"/>
          <path class="cls-21" d="M58.94,36.34s4.15-7.73-9.85-7.68c0,0,5.02.59,5.78,2.75,0,0-5.03-2.12-6.54-1.77,0,0-.11,3.5,6.56,4.43,3.37.47,4.06,2.28,4.06,2.28Z"/>
          <path class="cls-21" d="M48.04,6c-16.81,0-30.59,12.97-31.89,29.44h4.66c1.21-13.07,11.61-23.46,24.68-24.68v4.12c-4.61,1.15-8.03,5.3-8.03,10.26v5.64c10.26-8.96,21.18-3.7,21.18-3.7v-1.94c0-4.96-3.42-9.12-8.03-10.26v-4.12c13.07,1.21,23.46,11.61,24.68,24.68h4.66c-1.3-16.48-15.08-29.44-31.89-29.44Z"/>
        </g>
        <g>
          <path class="cls-10" d="M75.27,40.56c-1.21,13.07-11.61,23.46-24.68,24.68v-4.12c4.61-1.15,8.03-5.3,8.03-10.26v-4.46c-10.08,8.78-21.18,2.57-21.18,2.57v1.89c0,4.96,3.42,9.12,8.03,10.26v4.12c-13.07-1.21-23.46-11.61-24.68-24.68h-4.66c1.3,16.48,15.08,29.44,31.89,29.44s30.58-12.97,31.89-29.44h-4.66Z"/>
          <path class="cls-10" d="M36.44,44.65c1.4,2.06,4.25,4.04,10.08,3.51,0,0-4.51-.74-6.26-3.01,0,0,5.44,2.32,7.09,1.96,0,0-1.21-4.14-6.81-6-.49-.16-.95-.3-1.38-.39-2.1-.4-4.02,2.01-2.72,3.93Z"/>
        </g>
      </g>
      <rect class="cls-21" x="68.94" y="35.44" width="6.37" height="5.11"/>
    </g>
  </g>
  <g>
    <rect class="cls-10" x="20.8" y="35.47" width="6.36" height="5.11"/>
    <g>
      <g>
        <g>
          <path class="cls-21" d="M55.69,43.39c.34-1.26-.36-2.38-1.72-3.14-.75-.42-1.89-1.04-3.1-1.72h.01c-.87-.51-1.93-1.15-3.14-1.83,0,0,0,0,0,0h0c-.76-.42-1.57-.86-2.44-1.3,0,0-5.6-2.96,2.57-6.72,0,0-7.3,1.36-8.25,4.86-.34,1.26.36,2.38,1.72,3.14.78.44,1.92,1.05,3.12,1.73.74.43,1.62.96,2.61,1.52.09.06.19.11.28.17h.01c.82.46,1.71.94,2.66,1.42,0,0,5.6,2.96-2.57,6.72,0,0,7.3-1.36,8.25-4.86Z"/>
          <path class="cls-21" d="M58.91,36.36s4.14-7.73-9.85-7.68c0,0,5.01.59,5.78,2.75,0,0-5.03-2.12-6.54-1.77,0,0-.11,3.5,6.55,4.42,3.36.47,4.06,2.28,4.06,2.28Z"/>
          <path class="cls-21" d="M48.02,6.04c-16.8,0-30.56,12.96-31.87,29.42h4.65c1.21-13.06,11.6-23.45,24.66-24.66v4.12c-4.61,1.14-8.03,5.3-8.03,10.26v5.64c10.25-8.95,21.16-3.7,21.16-3.7v-1.94c0-4.96-3.42-9.11-8.03-10.26v-4.12c13.06,1.21,23.45,11.6,24.66,24.66h4.65c-1.3-16.46-15.07-29.42-31.87-29.42Z"/>
        </g>
        <g>
          <path class="cls-10" d="M75.23,40.58c-1.21,13.06-11.6,23.45-24.66,24.66v-4.12c4.61-1.14,8.03-5.3,8.03-10.26v-4.46c-10.08,8.78-21.16,2.57-21.16,2.57v1.89c0,4.96,3.42,9.11,8.03,10.26v4.12c-13.06-1.21-23.45-11.6-24.66-24.66h-4.65c1.3,16.47,15.07,29.42,31.87,29.42s30.56-12.96,31.87-29.42h-4.65Z"/>
          <path class="cls-10" d="M36.43,44.66c1.4,2.06,4.25,4.03,10.07,3.5,0,0-4.5-.74-6.25-3.01,0,0,5.44,2.32,7.08,1.95,0,0-1.21-4.14-6.8-6-.49-.16-.95-.3-1.38-.39-2.09-.4-4.02,2.01-2.72,3.93Z"/>
        </g>
      </g>
      <rect class="cls-21" x="68.91" y="35.47" width="6.36" height="5.11"/>
    </g>
  </g>
  <g>
    <path class="cls-19" d="M101.7,55.67c-.31,1.71-1.44,3.3-3.98,3.3-3.16,0-4.35-2.38-4.35-5.54,0-2.84,1.39-5.41,4.43-5.41,2.53,0,3.67,1.55,3.85,3.32h-1.48c-.26-1.18-.87-2.08-2.43-2.08-2.04,0-2.84,1.99-2.84,4.18s.66,4.31,2.86,4.31c1.55,0,2.17-.95,2.47-2.07h1.48Z"/>
    <path class="cls-16" d="M109.03,57.02c0,.54.05,1.36.12,1.8h-1.29c-.05-.27-.11-.7-.12-1.16-.31.76-1.09,1.3-2.34,1.3-1.92,0-2.53-1.28-2.53-2.39,0-1.23.81-2.51,3.6-2.51h1.15v-.73c0-.73-.21-1.44-1.46-1.44-1.1,0-1.46.51-1.58,1.33h-1.4c.11-1.3.87-2.41,3.02-2.41,1.68,0,2.84.66,2.84,2.48v3.74ZM107.66,55.07h-1.19c-1.81,0-2.15.73-2.15,1.41,0,.72.44,1.32,1.39,1.32,1.48,0,1.95-1,1.95-2.57v-.16Z"/>
    <path class="cls-15" d="M111.15,53.42c0-1.64-.02-2.12-.03-2.46h1.41c.02.15.06.85.05,1.19.32-.69,1.04-1.34,2.29-1.34,1.49,0,2.5.87,2.5,2.93v5.09h-1.44v-4.85c0-1.09-.35-1.93-1.49-1.93-1.31,0-1.85.94-1.85,2.54v4.24h-1.43v-5.4Z"/>
    <path class="cls-18" d="M125.55,56.27c-.3,1.55-1.28,2.7-3.21,2.7-2.25,0-3.36-1.47-3.36-4.09,0-2.31,1.19-4.08,3.45-4.08s3.02,1.52,3.12,2.78h-1.44c-.14-.86-.6-1.62-1.7-1.62-1.36,0-1.95,1.2-1.95,2.88,0,1.98.69,2.97,1.93,2.97,1.05,0,1.48-.66,1.74-1.55h1.44Z"/>
    <path class="cls-17" d="M128.08,55.18c0,1.46.6,2.61,1.95,2.61,1.2,0,1.57-.83,1.71-1.23h1.41c-.28,1.04-1.08,2.4-3.19,2.4-2.47,0-3.35-1.89-3.35-4.1,0-1.93.95-4.07,3.42-4.07s3.23,1.91,3.23,3.77c0,.06,0,.54-.01.6h-5.18ZM131.85,54.16c-.04-1.25-.54-2.21-1.85-2.21-1.48,0-1.84,1.32-1.9,2.21h3.75Z"/>
    <path class="cls-14" d="M134.85,53.63c0-1.26,0-2.25-.03-2.67h1.41c.03.36.04.87.04,1.55.35-.91,1.18-1.68,2.51-1.69v1.48c-1.74.05-2.49.99-2.49,2.71v3.81h-1.43v-5.19Z"/>
    <path class="cls-11" d="M140.09,48.17h6.35v1.26h-4.89v3.37h4.58v1.24h-4.58v4.78h-1.46v-10.65Z"/>
    <path class="cls-12" d="M147.67,53.63c0-1.26,0-2.25-.03-2.67h1.41c.03.36.04.87.04,1.55.35-.91,1.18-1.68,2.51-1.69v1.48c-1.74.05-2.49.99-2.49,2.71v3.81h-1.43v-5.19Z"/>
    <path class="cls-13" d="M153.68,55.18c0,1.46.6,2.61,1.95,2.61,1.2,0,1.57-.83,1.71-1.23h1.41c-.28,1.04-1.08,2.4-3.19,2.4-2.47,0-3.35-1.89-3.35-4.1,0-1.93.95-4.07,3.42-4.07s3.23,1.91,3.23,3.77c0,.06,0,.54-.01.6h-5.18ZM157.46,54.16c-.04-1.25-.54-2.21-1.85-2.21-1.48,0-1.84,1.32-1.9,2.21h3.75Z"/>
    <path class="cls-6" d="M161.48,55.18c0,1.46.6,2.61,1.95,2.61,1.2,0,1.57-.83,1.71-1.23h1.41c-.28,1.04-1.08,2.4-3.19,2.4-2.47,0-3.35-1.89-3.35-4.1,0-1.93.95-4.07,3.42-4.07s3.23,1.91,3.23,3.77c0,.06,0,.54-.01.6h-5.18ZM165.25,54.16c-.04-1.25-.54-2.21-1.85-2.21-1.48,0-1.84,1.32-1.9,2.21h3.75Z"/>
    <path class="cls-7" d="M172.11,48.17h3.8c2,0,3.16,1.03,3.16,2.64,0,1.4-.85,1.99-1.48,2.21.75.27,1.82.98,1.82,2.63,0,2.04-1.49,3.16-3.63,3.16h-3.68v-10.65ZM175.59,52.53c1.44,0,2.02-.56,2.02-1.59,0-.96-.63-1.59-1.91-1.59h-2.13v3.18h2.02ZM173.57,57.66h2.1c1.27,0,2.24-.61,2.24-1.98,0-1.23-.77-1.97-2.37-1.97h-1.96v3.95Z"/>
    <path class="cls-5" d="M181.02,47.58h1.43v1.71h-1.43v-1.71ZM181.02,50.96h1.43v7.86h-1.43v-7.86Z"/>
    <path class="cls-4" d="M191.08,54.77c0,2.28-1.02,4.19-3.56,4.19s-3.47-2-3.47-4.16,1.13-4,3.57-4c2.29,0,3.46,1.72,3.46,3.96ZM185.53,54.78c0,1.78.71,3,2.07,3s2.01-1.19,2.01-3.01c0-1.68-.68-2.79-2.05-2.79s-2.02,1.14-2.02,2.8Z"/>
    <path class="cls-9" d="M191.75,50.96h1.23v-2.26h1.43v2.26h1.55v1.16h-1.55v4.75c0,.63.16.9.82.9.21,0,.4-.02.58-.05v1.05c-.32.11-.8.14-1.07.14-1.22,0-1.76-.47-1.76-1.81v-4.99h-1.23v-1.16Z"/>
    <path class="cls-8" d="M198.1,55.18c0,1.46.6,2.61,1.95,2.61,1.2,0,1.57-.83,1.71-1.23h1.41c-.28,1.04-1.08,2.4-3.19,2.4-2.47,0-3.35-1.89-3.35-4.1,0-1.93.95-4.07,3.42-4.07s3.23,1.91,3.23,3.77c0,.06,0,.54-.01.6h-5.18ZM201.88,54.16c-.04-1.25-.54-2.21-1.85-2.21-1.48,0-1.84,1.32-1.9,2.21h3.75Z"/>
    <path class="cls-3" d="M211.02,56.27c-.3,1.55-1.28,2.7-3.21,2.7-2.25,0-3.36-1.47-3.36-4.09,0-2.31,1.19-4.08,3.45-4.08s3.02,1.52,3.12,2.78h-1.44c-.14-.86-.6-1.62-1.7-1.62-1.36,0-1.95,1.2-1.95,2.88,0,1.98.69,2.97,1.93,2.97,1.05,0,1.48-.66,1.74-1.55h1.44Z"/>
    <path class="cls-2" d="M213.93,47.58v4.48c.38-.73,1.14-1.25,2.31-1.25s2.47.63,2.47,2.83v5.19h-1.42v-4.95c0-1.13-.43-1.83-1.54-1.83-1.21,0-1.82.81-1.82,2.32v4.46h-1.43v-11.24h1.43Z"/>
  </g>
  <rect class="cls-1" x="88.47" y="53.32" width="3" height="1"/>
  <rect class="cls-20" x="220.61" y="53.32" width="3.24" height="1"/>
</svg>