<?xml version="1.0" encoding="UTF-8"?>
<svg id="_圖層_1" data-name="圖層 1" xmlns="http://www.w3.org/2000/svg" xmlns:xlink="http://www.w3.org/1999/xlink" viewBox="0 0 180 76">
  <defs>
    <style>
      .cls-1 {
        fill: #e95504;
      }

      .cls-2 {
        fill: url(#_未命名漸層_3);
      }

      .cls-3 {
        fill: #595757;
      }
    </style>
    <linearGradient id="_未命名漸層_3" data-name="未命名漸層 3" x1="-2664.88" y1="-3291.89" x2="-2694.91" y2="-3322.99" gradientTransform="translate(-4189.67 -331.43) rotate(134)" gradientUnits="userSpaceOnUse">
      <stop offset="0" stop-color="#008bd5"/>
      <stop offset="1" stop-color="#003e96"/>
    </linearGradient>
  </defs>
  <g>
    <path class="cls-2" d="M31.75,59.91c2.31-2.4,2.25-6.23-.15-8.54l-.67-.64c-.88-.4-1.63-2.13-1.66-3.83l-.11-17.44c-.03-1.7.66-3.46,1.52-3.89l.64-.66.65-.68c.4-.9,2.13-1.65,3.84-1.68l3.78-.11c1.71-.03,3.46.67,3.89,1.55l.68.65c2.4,2.31,6.23,2.25,8.54-.15,2.31-2.4,2.25-6.23-.15-8.54-2.4-2.31-6.23-2.25-8.55.15l-.64.66c-.4.88-2.13,1.62-3.83,1.65l-3.81.12c-1.71.03-3.46-.66-3.89-1.51l-.66-.64c-2.4-2.31-6.23-2.25-8.55.15-2.31,2.4-2.25,6.23.15,8.55l.67.65c.89.4,1.65,2.13,1.67,3.83l.11,17.41c.03,1.71-.66,3.46-1.54,3.89l-.65.67c-2.32,2.4-2.25,6.23.15,8.55,2.4,2.31,6.23,2.25,8.55-.15Z"/>
    <path class="cls-1" d="M52.67,32.97c-.02-.18-.18-.32-.36-.32h0c-.18,0-.34.14-.36.32-.57,4.66-4.55,8.18-9.26,8.18s-8.68-3.51-9.26-8.18c-.02-.18-.18-.32-.36-.32h0c-.18,0-.34.14-.36.32-.05.41-.08.83-.08,1.24,0,5.54,4.51,10.05,10.05,10.05s10.05-4.51,10.05-10.05c0-.42-.03-.83-.08-1.24Z"/>
  </g>
  <g>
    <g>
      <path class="cls-3" d="M75.08,18.41h-7.78v4.99h6.5c.6,0,1.05.14,1.35.41.3.27.45.63.45,1.08s-.15.81-.45,1.08c-.3.27-.75.4-1.34.4h-6.5v6.42c0,.82-.18,1.42-.55,1.81-.37.39-.84.59-1.42.59s-1.06-.2-1.43-.6c-.37-.4-.55-1-.55-1.81v-14.99c0-.57.08-1.03.25-1.39.17-.36.43-.62.79-.78.36-.16.82-.25,1.38-.25h9.31c.63,0,1.1.14,1.4.42.31.28.46.64.46,1.1s-.15.83-.46,1.11c-.31.28-.77.42-1.4.42Z"/>
      <path class="cls-3" d="M85.18,26.51h-1.38v6.26c0,.82-.18,1.43-.55,1.82-.36.39-.84.59-1.42.59-.63,0-1.12-.2-1.46-.61-.35-.41-.52-1.01-.52-1.79v-14.99c0-.85.19-1.47.57-1.85.38-.38,1-.57,1.85-.57h6.42c.89,0,1.64.04,2.27.11.63.08,1.2.23,1.7.46.61.26,1.15.62,1.62,1.1.47.48.83,1.03,1.07,1.67.24.63.37,1.31.37,2.01,0,1.45-.41,2.61-1.23,3.48s-2.06,1.48-3.73,1.85c.7.37,1.37.92,2.01,1.65.64.73,1.21,1.5,1.71,2.32.5.82.89,1.56,1.17,2.22.28.66.42,1.11.42,1.36s-.08.51-.25.76c-.16.25-.39.45-.67.6-.28.15-.61.22-.98.22-.44,0-.82-.1-1.12-.31s-.56-.47-.78-.79c-.22-.32-.51-.79-.88-1.41l-1.58-2.63c-.57-.97-1.07-1.7-1.52-2.21-.45-.51-.9-.85-1.36-1.04-.46-.19-1.04-.28-1.74-.28ZM87.44,18.33h-3.64v5.36h3.54c.95,0,1.75-.08,2.39-.25.65-.16,1.14-.44,1.48-.84.34-.39.51-.94.51-1.63,0-.54-.14-1.02-.41-1.43-.27-.41-.66-.72-1.14-.92-.46-.19-1.37-.29-2.73-.29Z"/>
      <path class="cls-3" d="M112.3,18.41h-8.89v4.79h8.19c.6,0,1.05.14,1.35.41.3.27.45.63.45,1.07s-.15.8-.44,1.08c-.29.28-.74.42-1.36.42h-8.19v5.54h9.2c.62,0,1.09.14,1.4.43.31.29.47.67.47,1.15s-.16.84-.47,1.12c-.31.29-.78.43-1.4.43h-10.73c-.86,0-1.48-.19-1.85-.57-.38-.38-.57-1-.57-1.85v-14.65c0-.57.08-1.03.25-1.39.17-.36.43-.62.79-.78s.82-.25,1.38-.25h10.42c.63,0,1.1.14,1.4.42.31.28.46.64.46,1.1s-.15.83-.46,1.11c-.31.28-.77.42-1.4.42Z"/>
      <path class="cls-3" d="M130.46,18.41h-8.89v4.79h8.19c.6,0,1.05.14,1.35.41.3.27.45.63.45,1.07s-.15.8-.44,1.08c-.29.28-.74.42-1.36.42h-8.19v5.54h9.2c.62,0,1.09.14,1.4.43.31.29.47.67.47,1.15s-.16.84-.47,1.12c-.31.29-.78.43-1.4.43h-10.73c-.86,0-1.48-.19-1.85-.57-.38-.38-.57-1-.57-1.85v-14.65c0-.57.08-1.03.25-1.39.17-.36.43-.62.79-.78.36-.16.82-.25,1.38-.25h10.42c.63,0,1.1.14,1.4.42.31.28.46.64.46,1.1s-.15.83-.46,1.11c-.31.28-.77.42-1.4.42Z"/>
      <path class="cls-3" d="M71.76,61.38h-5.96c-.86,0-1.47-.19-1.84-.58-.37-.39-.55-1-.55-1.84v-14.65c0-.86.19-1.48.56-1.85.38-.38.99-.56,1.83-.56h6.31c.93,0,1.74.06,2.42.17.68.12,1.29.34,1.83.66.46.27.87.62,1.22,1.04.35.42.62.89.81,1.4.19.51.28,1.05.28,1.61,0,1.95-.98,3.38-2.92,4.28,2.56.82,3.84,2.4,3.84,4.76,0,1.09-.28,2.07-.84,2.94-.56.87-1.31,1.52-2.26,1.93-.59.25-1.28.42-2.05.53-.77.1-1.67.15-2.7.15ZM67.36,44.85v5.04h3.62c.98,0,1.74-.09,2.28-.28.54-.19.95-.54,1.23-1.06.22-.37.33-.79.33-1.25,0-.98-.35-1.64-1.05-1.96-.7-.32-1.77-.49-3.2-.49h-3.2ZM71.47,52.72h-4.11v5.69h4.24c2.67,0,4-.96,4-2.88,0-.98-.35-1.7-1.04-2.14-.69-.44-1.72-.66-3.1-.66Z"/>
      <path class="cls-3" d="M84.6,45.26c-.51,0-.94-.15-1.3-.47-.36-.31-.54-.75-.54-1.32,0-.51.18-.94.55-1.27.37-.33.8-.5,1.28-.5s.89.15,1.25.45c.36.3.55.74.55,1.32s-.18,1-.53,1.31c-.35.31-.78.47-1.26.47ZM86.39,49.01v10.49c0,.73-.17,1.28-.52,1.65-.35.37-.78.56-1.32.56s-.96-.19-1.3-.57c-.33-.38-.5-.93-.5-1.63v-10.38c0-.72.17-1.26.5-1.62.33-.36.76-.55,1.3-.55s.97.18,1.32.55c.35.36.52.87.52,1.52Z"/>
      <path class="cls-3" d="M103.73,54.33c0,1.08-.17,2.08-.51,2.99-.34.91-.82,1.7-1.46,2.35-.64.66-1.4,1.16-2.29,1.51-.89.35-1.88.53-2.99.53s-2.09-.18-2.96-.53c-.88-.35-1.64-.86-2.28-1.52-.64-.66-1.13-1.44-1.46-2.34-.33-.9-.5-1.89-.5-2.98s.17-2.1.51-3.02c.34-.91.82-1.69,1.45-2.34.63-.65,1.39-1.15,2.29-1.5.9-.35,1.88-.53,2.96-.53s2.1.18,2.99.53c.9.35,1.66.86,2.3,1.52.64.66,1.12,1.44,1.46,2.34.33.9.5,1.9.5,2.99ZM100.09,54.33c0-1.48-.33-2.63-.98-3.46-.65-.82-1.53-1.24-2.63-1.24-.71,0-1.33.18-1.87.55-.54.37-.96.91-1.25,1.63-.29.72-.44,1.56-.44,2.51s.14,1.78.43,2.49c.29.71.7,1.25,1.24,1.63.54.38,1.17.57,1.89.57,1.1,0,1.97-.41,2.63-1.24.65-.83.98-1.97.98-3.44Z"/>
      <path class="cls-3" d="M109.88,48.96v.44c.64-.84,1.34-1.46,2.09-1.85.76-.39,1.63-.59,2.61-.59s1.81.21,2.57.62c.75.42,1.32,1.01,1.69,1.77.24.44.39.92.47,1.44.07.51.11,1.17.11,1.97v6.75c0,.73-.17,1.28-.5,1.65s-.76.56-1.3.56-.98-.19-1.32-.57c-.34-.38-.51-.93-.51-1.63v-6.05c0-1.2-.17-2.11-.5-2.75-.33-.63-1-.95-1.99-.95-.65,0-1.24.19-1.77.58-.53.39-.92.92-1.17,1.59-.18.54-.27,1.55-.27,3.03v4.55c0,.74-.17,1.29-.51,1.65-.34.37-.78.55-1.32.55s-.95-.19-1.29-.57c-.34-.38-.51-.93-.51-1.63v-10.49c0-.69.15-1.21.45-1.55.3-.34.71-.51,1.24-.51.32,0,.61.08.86.23.26.15.46.38.62.68.16.3.23.67.23,1.1Z"/>
      <path class="cls-3" d="M144.21,57.22c0,.45-.14.94-.41,1.45-.27.51-.68,1-1.24,1.47-.55.47-1.25.84-2.09,1.12-.84.28-1.79.43-2.84.43-2.24,0-3.99-.65-5.25-1.96-1.26-1.31-1.89-3.06-1.89-5.26,0-1.49.29-2.81.86-3.95.58-1.14,1.41-2.03,2.5-2.65,1.09-.62,2.39-.94,3.91-.94.94,0,1.8.14,2.59.41.78.27,1.45.63,1.99,1.06.55.43.96.9,1.25,1.39.29.49.43.95.43,1.38s-.16.8-.49,1.1c-.32.3-.72.45-1.18.45-.3,0-.55-.08-.75-.23-.2-.16-.42-.41-.67-.75-.44-.67-.91-1.18-1.39-1.52-.48-.34-1.1-.51-1.84-.51-1.07,0-1.94.42-2.59,1.26-.66.84-.98,1.98-.98,3.44,0,.68.08,1.31.25,1.88.17.57.41,1.06.73,1.46.32.4.7.71,1.16.92.45.21.95.31,1.49.31.73,0,1.35-.17,1.87-.51.52-.34.98-.85,1.38-1.54.22-.41.46-.73.72-.96.26-.23.57-.35.94-.35.44,0,.81.17,1.1.51.29.34.44.7.44,1.08Z"/>
      <path class="cls-3" d="M159.06,56.96c0,1-.24,1.86-.73,2.57-.49.71-1.21,1.25-2.16,1.62-.95.37-2.11.55-3.48.55s-2.42-.2-3.35-.6c-.93-.4-1.62-.9-2.06-1.5-.44-.6-.66-1.2-.66-1.8,0-.4.14-.74.43-1.02.28-.28.64-.43,1.08-.43.38,0,.67.09.88.28.2.19.4.45.59.78.37.65.82,1.13,1.34,1.45.52.32,1.22.48,2.12.48.73,0,1.32-.16,1.79-.49.47-.32.7-.69.7-1.11,0-.64-.24-1.1-.72-1.4-.48-.29-1.28-.57-2.39-.84-1.25-.31-2.27-.64-3.05-.98-.78-.34-1.41-.79-1.88-1.35-.47-.56-.7-1.25-.7-2.06,0-.73.22-1.41.65-2.06.43-.65,1.07-1.16,1.92-1.55.85-.39,1.87-.58,3.06-.58.94,0,1.78.1,2.53.29.75.19,1.37.46,1.87.78.5.33.88.69,1.14,1.09.26.4.39.79.39,1.17,0,.42-.14.76-.42,1.02-.28.27-.68.4-1.19.4-.37,0-.69-.11-.95-.32-.26-.21-.56-.53-.9-.96-.27-.35-.6-.64-.97-.85-.37-.21-.88-.32-1.52-.32s-1.2.14-1.63.42c-.43.28-.65.63-.65,1.04,0,.38.16.69.48.94.32.24.75.45,1.29.6.54.16,1.28.35,2.23.58,1.13.28,2.04.6,2.76.98.71.38,1.25.83,1.62,1.35.37.52.55,1.11.55,1.77Z"/>
    </g>
    <path class="cls-1" d="M124.9,42.84c-.51,0-.94-.15-1.3-.47-.36-.31-.54-.75-.54-1.32,0-.51.18-.94.55-1.27.37-.33.8-.5,1.28-.5s.89.15,1.25.45c.36.3.55.74.55,1.32s-.18,1-.53,1.31c-.35.31-.78.47-1.26.47ZM126.69,46.59v12.93c0,.73-.17,1.28-.52,1.65s-.78.56-1.32.56-.96-.19-1.3-.57c-.33-.38-.5-.93-.5-1.63v-12.83c0-.72.17-1.26.5-1.62.33-.36.76-.55,1.3-.55s.97.18,1.32.55c.35.36.52.87.52,1.52Z"/>
  </g>
</svg>